<?xml version="1.0" encoding="UTF-8" standalone="no"?><svg xmlns="http://www.w3.org/2000/svg" xmlns:xlink="http://www.w3.org/1999/xlink" clip-rule="evenodd" stroke-miterlimit="10" viewBox="0 0 1024 768"><desc>SVG generated by Keynote</desc><defs></defs><g transform="matrix(1.00, 0.00, -0.00, -1.00, 0.0, 768.0)"><path d="M 0.0 768.0 L 1024.0 768.0 L 1024.0 0.0 L 0.0 0.0 Z M 0.0 768.0 " fill="#000000"></path><text xml:space="preserve" font-family="AvenirNext-Regular,Avenir Next" font-size="72.0" fill="#FEFFFF" transform="matrix(1.00, 0.00, -0.00, -1.00, 136.0, 599.1)">S</text><text xml:space="preserve" font-family="AvenirNext-Regular,Avenir Next" font-size="72.0" fill="#FEFFFF" transform="matrix(1.00, 0.00, -0.00, -1.00, 175.7, 599.1)">V</text><text xml:space="preserve" font-family="AvenirNext-Regular,Avenir Next" font-size="72.0" fill="#FEFFFF" transform="matrix(1.00, 0.00, -0.00, -1.00, 219.7, 599.1)">G</text><text xml:space="preserve" font-family="AvenirNext-Regular,Avenir Next" font-size="72.0" fill="#FEFFFF" transform="matrix(1.00, 0.00, -0.00, -1.00, 275.8, 599.1)"> </text><text xml:space="preserve" font-family="AvenirNext-Regular,Avenir Next" font-size="72.0" fill="#FEFFFF" transform="matrix(1.00, 0.00, -0.00, -1.00, 293.8, 599.1)">2</text><text xml:space="preserve" font-family="AvenirNext-Regular,Avenir Next" font-size="72.0" fill="#FEFFFF" transform="matrix(1.00, 0.00, -0.00, -1.00, 335.6, 599.1)"> </text><text xml:space="preserve" font-family="AvenirNext-Regular,Avenir Next" font-size="72.0" fill="#FEFFFF" transform="matrix(1.00, 0.00, -0.00, -1.00, 353.6, 599.1)">r</text><text xml:space="preserve" font-family="AvenirNext-Regular,Avenir Next" font-size="72.0" fill="#FEFFFF" transform="matrix(1.00, 0.00, -0.00, -1.00, 379.5, 599.1)">i</text><text xml:space="preserve" font-family="AvenirNext-Regular,Avenir Next" font-size="72.0" fill="#FEFFFF" transform="matrix(1.00, 0.00, -0.00, -1.00, 397.5, 599.1)">p</text><text xml:space="preserve" font-family="AvenirNext-Regular,Avenir Next" font-size="72.0" fill="#FEFFFF" transform="matrix(1.00, 0.00, -0.00, -1.00, 443.2, 599.1)">p</text><text xml:space="preserve" font-family="AvenirNext-Regular,Avenir Next" font-size="72.0" fill="#FEFFFF" transform="matrix(1.00, 0.00, -0.00, -1.00, 488.9, 599.1)">e</text><text xml:space="preserve" font-family="AvenirNext-Regular,Avenir Next" font-size="72.0" fill="#FEFFFF" transform="matrix(1.00, 0.00, -0.00, -1.00, 530.1, 599.1)">d</text><text xml:space="preserve" font-family="AvenirNext-Regular,Avenir Next" font-size="72.0" fill="#FEFFFF" transform="matrix(1.00, 0.00, -0.00, -1.00, 576.0, 599.1)"> </text><text xml:space="preserve" font-family="AvenirNext-Regular,Avenir Next" font-size="72.0" fill="#FEFFFF" transform="matrix(1.00, 0.00, -0.00, -1.00, 594.0, 599.1)">a</text><text xml:space="preserve" font-family="AvenirNext-Regular,Avenir Next" font-size="72.0" fill="#FEFFFF" transform="matrix(1.00, 0.00, -0.00, -1.00, 632.4, 599.1)">p</text><text xml:space="preserve" font-family="AvenirNext-Regular,Avenir Next" font-size="72.0" fill="#FEFFFF" transform="matrix(1.00, 0.00, -0.00, -1.00, 678.1, 599.1)">p</text><text xml:space="preserve" font-family="AvenirNext-Regular,Avenir Next" font-size="72.0" fill="#FEFFFF" transform="matrix(1.00, 0.00, -0.00, -1.00, 723.9, 599.1)">a</text><text xml:space="preserve" font-family="AvenirNext-Regular,Avenir Next" font-size="72.0" fill="#FEFFFF" transform="matrix(1.00, 0.00, -0.00, -1.00, 762.3, 599.1)">r</text><text xml:space="preserve" font-family="AvenirNext-Regular,Avenir Next" font-size="72.0" fill="#FEFFFF" transform="matrix(1.00, 0.00, -0.00, -1.00, 787.4, 599.1)">t</text><text xml:space="preserve" font-family="AvenirNext-Regular,Avenir Next" font-size="72.0" fill="#FEFFFF" transform="matrix(1.00, 0.00, -0.00, -1.00, 810.2, 599.1)"> </text><text xml:space="preserve" font-family="AvenirNext-Regular,Avenir Next" font-size="72.0" fill="#FEFFFF" transform="matrix(1.00, 0.00, -0.00, -1.00, 828.2, 599.1)">i</text><text xml:space="preserve" font-family="AvenirNext-Regular,Avenir Next" font-size="72.0" fill="#FEFFFF" transform="matrix(1.00, 0.00, -0.00, -1.00, 846.2, 599.1)">n</text><text xml:space="preserve" font-family="AvenirNext-Regular,Avenir Next" font-size="72.0" fill="#FEFFFF" transform="matrix(1.00, 0.00, -0.00, -1.00, 888.0, 599.1)"> </text><text xml:space="preserve" font-family="AvenirNext-Regular,Avenir Next" font-size="72.0" fill="#FEFFFF" transform="matrix(1.00, 0.00, -0.00, -1.00, 104.9, 501.1)">c</text><text xml:space="preserve" font-family="AvenirNext-Regular,Avenir Next" font-size="72.0" fill="#FEFFFF" transform="matrix(1.00, 0.00, -0.00, -1.00, 140.9, 501.1)">o</text><text xml:space="preserve" font-family="AvenirNext-Regular,Avenir Next" font-size="72.0" fill="#FEFFFF" transform="matrix(1.00, 0.00, -0.00, -1.00, 184.9, 501.1)">r</text><text xml:space="preserve" font-family="AvenirNext-Regular,Avenir Next" font-size="72.0" fill="#FEFFFF" transform="matrix(1.00, 0.00, -0.00, -1.00, 209.6, 501.1)">e</text><text xml:space="preserve" font-family="AvenirNext-Regular,Avenir Next" font-size="72.0" fill="#FEFFFF" transform="matrix(1.00, 0.00, -0.00, -1.00, 250.7, 501.1)"> </text><text xml:space="preserve" font-family="AvenirNext-Regular,Avenir Next" font-size="72.0" fill="#FEFFFF" transform="matrix(1.00, 0.00, -0.00, -1.00, 268.7, 501.1)">+</text><text xml:space="preserve" font-family="AvenirNext-Regular,Avenir Next" font-size="72.0" fill="#FEFFFF" transform="matrix(1.00, 0.00, -0.00, -1.00, 316.7, 501.1)"> </text><text xml:space="preserve" font-family="AvenirNext-Regular,Avenir Next" font-size="72.0" fill="#FEFFFF" transform="matrix(1.00, 0.00, -0.00, -1.00, 334.7, 501.1)">“</text><text xml:space="preserve" font-family="AvenirNext-Regular,Avenir Next" font-size="72.0" fill="#FEFFFF" transform="matrix(1.00, 0.00, -0.00, -1.00, 362.6, 501.1)">s</text><text xml:space="preserve" font-family="AvenirNext-Regular,Avenir Next" font-size="72.0" fill="#FEFFFF" transform="matrix(1.00, 0.00, -0.00, -1.00, 394.5, 501.1)">h</text><text xml:space="preserve" font-family="AvenirNext-Regular,Avenir Next" font-size="72.0" fill="#FEFFFF" transform="matrix(1.00, 0.00, -0.00, -1.00, 436.5, 501.1)">a</text><text xml:space="preserve" font-family="AvenirNext-Regular,Avenir Next" font-size="72.0" fill="#FEFFFF" transform="matrix(1.00, 0.00, -0.00, -1.00, 475.0, 501.1)">r</text><text xml:space="preserve" font-family="AvenirNext-Regular,Avenir Next" font-size="72.0" fill="#FEFFFF" transform="matrix(1.00, 0.00, -0.00, -1.00, 499.6, 501.1)">e</text><text xml:space="preserve" font-family="AvenirNext-Regular,Avenir Next" font-size="72.0" fill="#FEFFFF" transform="matrix(1.00, 0.00, -0.00, -1.00, 540.8, 501.1)">d</text><text xml:space="preserve" font-family="AvenirNext-Regular,Avenir Next" font-size="72.0" fill="#FEFFFF" transform="matrix(1.00, 0.00, -0.00, -1.00, 586.6, 501.1)">”</text><text xml:space="preserve" font-family="AvenirNext-Regular,Avenir Next" font-size="72.0" fill="#FEFFFF" transform="matrix(1.00, 0.00, -0.00, -1.00, 614.5, 501.1)"> </text><text xml:space="preserve" font-family="AvenirNext-Regular,Avenir Next" font-size="72.0" fill="#FEFFFF" transform="matrix(1.00, 0.00, -0.00, -1.00, 632.5, 501.1)">m</text><text xml:space="preserve" font-family="AvenirNext-Regular,Avenir Next" font-size="72.0" fill="#FEFFFF" transform="matrix(1.00, 0.00, -0.00, -1.00, 696.1, 501.1)">o</text><text xml:space="preserve" font-family="AvenirNext-Regular,Avenir Next" font-size="72.0" fill="#FEFFFF" transform="matrix(1.00, 0.00, -0.00, -1.00, 740.1, 501.1)">d</text><text xml:space="preserve" font-family="AvenirNext-Regular,Avenir Next" font-size="72.0" fill="#FEFFFF" transform="matrix(1.00, 0.00, -0.00, -1.00, 785.9, 501.1)">u</text><text xml:space="preserve" font-family="AvenirNext-Regular,Avenir Next" font-size="72.0" fill="#FEFFFF" transform="matrix(1.00, 0.00, -0.00, -1.00, 827.8, 501.1)">l</text><text xml:space="preserve" font-family="AvenirNext-Regular,Avenir Next" font-size="72.0" fill="#FEFFFF" transform="matrix(1.00, 0.00, -0.00, -1.00, 845.9, 501.1)">e</text><text xml:space="preserve" font-family="AvenirNext-Regular,Avenir Next" font-size="72.0" fill="#FEFFFF" transform="matrix(1.00, 0.00, -0.00, -1.00, 887.1, 501.1)">s</text><image xlink:href="../../95B62C85-89EA-41F6-8425-D4FF42FD3D6A/assets/61F254431B89729C6CF37A23B3ED104C.png" width="424.00" height="281.00" transform="matrix(1.52, 0.00, -0.00, -1.52, 190.0, 467.0)"></image></g></svg>