<?xml version="1.0" encoding="UTF-8" standalone="no"?><svg xmlns="http://www.w3.org/2000/svg" xmlns:xlink="http://www.w3.org/1999/xlink" clip-rule="evenodd" stroke-miterlimit="10" viewBox="0 0 1024 768"><desc>SVG generated by Keynote</desc><defs></defs><g transform="matrix(1.00, 0.00, -0.00, -1.00, 0.0, 768.0)"><path d="M 0.0 768.0 L 1024.0 768.0 L 1024.0 0.0 L 0.0 0.0 Z M 0.0 768.0 " fill="#000000"></path><text xml:space="preserve" font-family="AvenirNext-Regular,Avenir Next" font-size="77.6" fill="#FEFFFF" transform="matrix(1.00, 0.00, -0.00, -1.00, 125.3, 624.4)">W</text><text xml:space="preserve" font-family="AvenirNext-Regular,Avenir Next" font-size="77.6" fill="#FEFFFF" transform="matrix(1.00, 0.00, -0.00, -1.00, 200.7, 624.4)">h</text><text xml:space="preserve" font-family="AvenirNext-Regular,Avenir Next" font-size="77.6" fill="#FEFFFF" transform="matrix(1.00, 0.00, -0.00, -1.00, 245.9, 624.4)">y</text><text xml:space="preserve" font-family="AvenirNext-Regular,Avenir Next" font-size="77.6" fill="#FEFFFF" transform="matrix(1.00, 0.00, -0.00, -1.00, 283.8, 624.4)"> </text><text xml:space="preserve" font-family="AvenirNext-Regular,Avenir Next" font-size="77.6" fill="#FEFFFF" transform="matrix(1.00, 0.00, -0.00, -1.00, 303.2, 624.4)">S</text><text xml:space="preserve" font-family="AvenirNext-Regular,Avenir Next" font-size="77.6" fill="#FEFFFF" transform="matrix(1.00, 0.00, -0.00, -1.00, 346.1, 624.4)">V</text><text xml:space="preserve" font-family="AvenirNext-Regular,Avenir Next" font-size="77.6" fill="#FEFFFF" transform="matrix(1.00, 0.00, -0.00, -1.00, 393.5, 624.4)">G</text><text xml:space="preserve" font-family="AvenirNext-Regular,Avenir Next" font-size="77.6" fill="#FEFFFF" transform="matrix(1.00, 0.00, -0.00, -1.00, 453.9, 624.4)">?</text><text xml:space="preserve" font-family="AvenirNext-Regular,Avenir Next" font-size="77.6" fill="#FEFFFF" transform="matrix(1.00, 0.00, -0.00, -1.00, 491.3, 624.4)"> </text><text xml:space="preserve" font-family="AvenirNext-Regular,Avenir Next" font-size="77.6" fill="#FEFFFF" transform="matrix(1.00, 0.00, -0.00, -1.00, 509.3, 624.4)">A</text><text xml:space="preserve" font-family="AvenirNext-Regular,Avenir Next" font-size="77.6" fill="#FEFFFF" transform="matrix(1.00, 0.00, -0.00, -1.00, 563.6, 624.4)">n</text><text xml:space="preserve" font-family="AvenirNext-Regular,Avenir Next" font-size="77.6" fill="#FEFFFF" transform="matrix(1.00, 0.00, -0.00, -1.00, 608.7, 624.4)">i</text><text xml:space="preserve" font-family="AvenirNext-Regular,Avenir Next" font-size="77.6" fill="#FEFFFF" transform="matrix(1.00, 0.00, -0.00, -1.00, 628.1, 624.4)">m</text><text xml:space="preserve" font-family="AvenirNext-Regular,Avenir Next" font-size="77.6" fill="#FEFFFF" transform="matrix(1.00, 0.00, -0.00, -1.00, 696.6, 624.4)">a</text><text xml:space="preserve" font-family="AvenirNext-Regular,Avenir Next" font-size="77.6" fill="#FEFFFF" transform="matrix(1.00, 0.00, -0.00, -1.00, 737.3, 624.4)">t</text><text xml:space="preserve" font-family="AvenirNext-Regular,Avenir Next" font-size="77.6" fill="#FEFFFF" transform="matrix(1.00, 0.00, -0.00, -1.00, 761.9, 624.4)">a</text><text xml:space="preserve" font-family="AvenirNext-Regular,Avenir Next" font-size="77.6" fill="#FEFFFF" transform="matrix(1.00, 0.00, -0.00, -1.00, 803.3, 624.4)">b</text><text xml:space="preserve" font-family="AvenirNext-Regular,Avenir Next" font-size="77.6" fill="#FEFFFF" transform="matrix(1.00, 0.00, -0.00, -1.00, 852.8, 624.4)">l</text><text xml:space="preserve" font-family="AvenirNext-Regular,Avenir Next" font-size="77.6" fill="#FEFFFF" transform="matrix(1.00, 0.00, -0.00, -1.00, 872.3, 624.4)">e</text><image xlink:href="../../8A2017B7-5C2C-4EC7-8174-4BBBCB3F1F35/assets/F640BD106C0DB8B39B1E0B9FD530D275.png" width="478.00" height="349.00" transform="matrix(0.93, 0.00, -0.00, -0.93, 477.4, 546.8)"></image><text xml:space="preserve" font-family="Helvetica-Light,Helvetica" font-size="46.0" fill="#FEFFFF" transform="matrix(1.00, 0.00, -0.00, -1.00, 81.6, 500.4)">w</text><text xml:space="preserve" font-family="Helvetica-Light,Helvetica" font-size="46.0" fill="#FEFFFF" transform="matrix(1.00, 0.00, -0.00, -1.00, 114.8, 500.4)">i</text><text xml:space="preserve" font-family="Helvetica-Light,Helvetica" font-size="46.0" fill="#FEFFFF" transform="matrix(1.00, 0.00, -0.00, -1.00, 125.0, 500.4)">t</text><text xml:space="preserve" font-family="Helvetica-Light,Helvetica" font-size="46.0" fill="#FEFFFF" transform="matrix(1.00, 0.00, -0.00, -1.00, 137.8, 500.4)">h</text><text xml:space="preserve" font-family="Helvetica-Light,Helvetica" font-size="46.0" fill="#FEFFFF" transform="matrix(1.00, 0.00, -0.00, -1.00, 163.4, 500.4)">:</text><text xml:space="preserve" font-family="Helvetica-Light,Helvetica" font-size="46.0" fill="#FEFFFF" transform="matrix(1.00, 0.00, -0.00, -1.00, 176.2, 500.4)"> </text><text xml:space="preserve" font-family="Helvetica-Light,Helvetica" font-size="46.0" fill="#FEFFFF" transform="matrix(1.00, 0.00, -0.00, -1.00, 81.6, 390.4)">C</text><text xml:space="preserve" font-family="Helvetica-Light,Helvetica" font-size="46.0" fill="#FEFFFF" transform="matrix(1.00, 0.00, -0.00, -1.00, 114.8, 390.4)">S</text><text xml:space="preserve" font-family="Helvetica-Light,Helvetica" font-size="46.0" fill="#FEFFFF" transform="matrix(1.00, 0.00, -0.00, -1.00, 142.9, 390.4)">S</text><text xml:space="preserve" font-family="Helvetica-Light,Helvetica" font-size="46.0" fill="#FEFFFF" transform="matrix(1.00, 0.00, -0.00, -1.00, 171.0, 390.4)"> </text><text xml:space="preserve" font-family="Helvetica-Light,Helvetica" font-size="46.0" fill="#FEFFFF" transform="matrix(1.00, 0.00, -0.00, -1.00, 183.8, 390.4)"> </text><text xml:space="preserve" font-family="Helvetica-Light,Helvetica" font-size="46.0" fill="#FEFFFF" transform="matrix(1.00, 0.00, -0.00, -1.00, 81.6, 335.4)">J</text><text xml:space="preserve" font-family="Helvetica-Light,Helvetica" font-size="46.0" fill="#FEFFFF" transform="matrix(1.00, 0.00, -0.00, -1.00, 104.6, 335.4)">a</text><text xml:space="preserve" font-family="Helvetica-Light,Helvetica" font-size="46.0" fill="#FEFFFF" transform="matrix(1.00, 0.00, -0.00, -1.00, 130.2, 335.4)">v</text><text xml:space="preserve" font-family="Helvetica-Light,Helvetica" font-size="46.0" fill="#FEFFFF" transform="matrix(1.00, 0.00, -0.00, -1.00, 153.2, 335.4)">a</text><text xml:space="preserve" font-family="Helvetica-Light,Helvetica" font-size="46.0" fill="#FEFFFF" transform="matrix(1.00, 0.00, -0.00, -1.00, 178.7, 335.4)">S</text><text xml:space="preserve" font-family="Helvetica-Light,Helvetica" font-size="46.0" fill="#FEFFFF" transform="matrix(1.00, 0.00, -0.00, -1.00, 206.8, 335.4)">c</text><text xml:space="preserve" font-family="Helvetica-Light,Helvetica" font-size="46.0" fill="#FEFFFF" transform="matrix(1.00, 0.00, -0.00, -1.00, 232.4, 335.4)">r</text><text xml:space="preserve" font-family="Helvetica-Light,Helvetica" font-size="46.0" fill="#FEFFFF" transform="matrix(1.00, 0.00, -0.00, -1.00, 247.7, 335.4)">i</text><text xml:space="preserve" font-family="Helvetica-Light,Helvetica" font-size="46.0" fill="#FEFFFF" transform="matrix(1.00, 0.00, -0.00, -1.00, 257.9, 335.4)">p</text><text xml:space="preserve" font-family="Helvetica-Light,Helvetica" font-size="46.0" fill="#FEFFFF" transform="matrix(1.00, 0.00, -0.00, -1.00, 286.1, 335.4)">t</text><text xml:space="preserve" font-family="Helvetica-Light,Helvetica" font-size="46.0" fill="#FEFFFF" transform="matrix(1.00, 0.00, -0.00, -1.00, 298.8, 335.4)"> </text><text xml:space="preserve" font-family="Helvetica-Light,Helvetica" font-size="46.0" fill="#FEFFFF" transform="matrix(1.00, 0.00, -0.00, -1.00, 81.6, 280.4)">S</text><text xml:space="preserve" font-family="Helvetica-Light,Helvetica" font-size="46.0" fill="#FEFFFF" transform="matrix(1.00, 0.00, -0.00, -1.00, 109.7, 280.4)">M</text><text xml:space="preserve" font-family="Helvetica-Light,Helvetica" font-size="46.0" fill="#FEFFFF" transform="matrix(1.00, 0.00, -0.00, -1.00, 148.0, 280.4)">I</text><text xml:space="preserve" font-family="Helvetica-Light,Helvetica" font-size="46.0" fill="#FEFFFF" transform="matrix(1.00, 0.00, -0.00, -1.00, 160.8, 280.4)">L</text><text xml:space="preserve" font-family="Helvetica-Light,Helvetica" font-size="46.0" fill="#FEFFFF" transform="matrix(1.00, 0.00, -0.00, -1.00, 186.4, 280.4)"> </text><text xml:space="preserve" font-family="Helvetica-Light,Helvetica" font-size="46.0" fill="#FEFFFF" transform="matrix(1.00, 0.00, -0.00, -1.00, 199.2, 280.4)">*</text><text xml:space="preserve" font-family="Helvetica-Light,Helvetica" font-size="46.0" fill="#FEFFFF" transform="matrix(1.00, 0.00, -0.00, -1.00, 217.1, 280.4)"> </text></g></svg>