<?xml version="1.0" encoding="UTF-8" standalone="no"?><svg xmlns="http://www.w3.org/2000/svg" xmlns:xlink="http://www.w3.org/1999/xlink" clip-rule="evenodd" stroke-miterlimit="10" viewBox="0 0 1024 768"><desc>SVG generated by Keynote</desc><defs></defs><g transform="matrix(1.00, 0.00, -0.00, -1.00, 0.0, 768.0)"><path d="M 0.0 768.0 L 1024.0 768.0 L 1024.0 0.0 L 0.0 0.0 Z M 0.0 768.0 " fill="#000000"></path><text xml:space="preserve" font-family="AvenirNext-Regular,Avenir Next" font-size="35.2" fill="#FEFFFF" transform="matrix(1.00, 0.00, -0.00, -1.00, 262.1, 655.1)">D</text><text xml:space="preserve" font-family="AvenirNext-Regular,Avenir Next" font-size="35.2" fill="#FEFFFF" transform="matrix(1.00, 0.00, -0.00, -1.00, 288.7, 655.1)">r</text><text xml:space="preserve" font-family="AvenirNext-Regular,Avenir Next" font-size="35.2" fill="#FEFFFF" transform="matrix(1.00, 0.00, -0.00, -1.00, 301.4, 655.1)">u</text><text xml:space="preserve" font-family="AvenirNext-Regular,Avenir Next" font-size="35.2" fill="#FEFFFF" transform="matrix(1.00, 0.00, -0.00, -1.00, 321.8, 655.1)">p</text><text xml:space="preserve" font-family="AvenirNext-Regular,Avenir Next" font-size="35.2" fill="#FEFFFF" transform="matrix(1.00, 0.00, -0.00, -1.00, 344.2, 655.1)">a</text><text xml:space="preserve" font-family="AvenirNext-Regular,Avenir Next" font-size="35.2" fill="#FEFFFF" transform="matrix(1.00, 0.00, -0.00, -1.00, 363.0, 655.1)">l</text><text xml:space="preserve" font-family="AvenirNext-Regular,Avenir Next" font-size="35.2" fill="#FEFFFF" transform="matrix(1.00, 0.00, -0.00, -1.00, 371.9, 655.1)"> </text><text xml:space="preserve" font-family="AvenirNext-Regular,Avenir Next" font-size="35.2" fill="#FEFFFF" transform="matrix(1.00, 0.00, -0.00, -1.00, 380.7, 655.1)">7</text><text xml:space="preserve" font-family="AvenirNext-Regular,Avenir Next" font-size="35.2" fill="#FEFFFF" transform="matrix(1.00, 0.00, -0.00, -1.00, 401.1, 655.1)"> </text><text xml:space="preserve" font-family="AvenirNext-Regular,Avenir Next" font-size="35.2" fill="#FEFFFF" transform="matrix(1.00, 0.00, -0.00, -1.00, 409.9, 655.1)">h</text><text xml:space="preserve" font-family="AvenirNext-Regular,Avenir Next" font-size="35.2" fill="#FEFFFF" transform="matrix(1.00, 0.00, -0.00, -1.00, 430.4, 655.1)">a</text><text xml:space="preserve" font-family="AvenirNext-Regular,Avenir Next" font-size="35.2" fill="#FEFFFF" transform="matrix(1.00, 0.00, -0.00, -1.00, 449.2, 655.1)">s</text><text xml:space="preserve" font-family="AvenirNext-Regular,Avenir Next" font-size="35.2" fill="#FEFFFF" transform="matrix(1.00, 0.00, -0.00, -1.00, 464.8, 655.1)"> </text><text xml:space="preserve" font-family="AvenirNext-Regular,Avenir Next" font-size="35.2" fill="#FEFFFF" transform="matrix(1.00, 0.00, -0.00, -1.00, 473.6, 655.1)">0</text><text xml:space="preserve" font-family="AvenirNext-Regular,Avenir Next" font-size="35.2" fill="#FEFFFF" transform="matrix(1.00, 0.00, -0.00, -1.00, 494.0, 655.1)"> </text><text xml:space="preserve" font-family="AvenirNext-Regular,Avenir Next" font-size="35.2" fill="#FEFFFF" transform="matrix(1.00, 0.00, -0.00, -1.00, 502.8, 655.1)">S</text><text xml:space="preserve" font-family="AvenirNext-Regular,Avenir Next" font-size="35.2" fill="#FEFFFF" transform="matrix(1.00, 0.00, -0.00, -1.00, 522.3, 655.1)">V</text><text xml:space="preserve" font-family="AvenirNext-Regular,Avenir Next" font-size="35.2" fill="#FEFFFF" transform="matrix(1.00, 0.00, -0.00, -1.00, 543.8, 655.1)">G</text><text xml:space="preserve" font-family="AvenirNext-Regular,Avenir Next" font-size="35.2" fill="#FEFFFF" transform="matrix(1.00, 0.00, -0.00, -1.00, 571.2, 655.1)"> </text><text xml:space="preserve" font-family="AvenirNext-Regular,Avenir Next" font-size="35.2" fill="#FEFFFF" transform="matrix(1.00, 0.00, -0.00, -1.00, 580.0, 655.1)">ﬁ</text><text xml:space="preserve" font-family="AvenirNext-Regular,Avenir Next" font-size="35.2" fill="#FEFFFF" transform="matrix(1.00, 0.00, -0.00, -1.00, 599.2, 655.1)">l</text><text xml:space="preserve" font-family="AvenirNext-Regular,Avenir Next" font-size="35.2" fill="#FEFFFF" transform="matrix(1.00, 0.00, -0.00, -1.00, 608.0, 655.1)">e</text><text xml:space="preserve" font-family="AvenirNext-Regular,Avenir Next" font-size="35.2" fill="#FEFFFF" transform="matrix(1.00, 0.00, -0.00, -1.00, 628.2, 655.1)">s</text><text xml:space="preserve" font-family="AvenirNext-Regular,Avenir Next" font-size="35.2" fill="#FEFFFF" transform="matrix(1.00, 0.00, -0.00, -1.00, 643.8, 655.1)"> </text><text xml:space="preserve" font-family="AvenirNext-Regular,Avenir Next" font-size="35.2" fill="#FEFFFF" transform="matrix(1.00, 0.00, -0.00, -1.00, 652.6, 655.1)">i</text><text xml:space="preserve" font-family="AvenirNext-Regular,Avenir Next" font-size="35.2" fill="#FEFFFF" transform="matrix(1.00, 0.00, -0.00, -1.00, 661.4, 655.1)">n</text><text xml:space="preserve" font-family="AvenirNext-Regular,Avenir Next" font-size="35.2" fill="#FEFFFF" transform="matrix(1.00, 0.00, -0.00, -1.00, 681.8, 655.1)"> </text><text xml:space="preserve" font-family="AvenirNext-Regular,Avenir Next" font-size="35.2" fill="#FEFFFF" transform="matrix(1.00, 0.00, -0.00, -1.00, 690.6, 655.1)">c</text><text xml:space="preserve" font-family="AvenirNext-Regular,Avenir Next" font-size="35.2" fill="#FEFFFF" transform="matrix(1.00, 0.00, -0.00, -1.00, 708.2, 655.1)">o</text><text xml:space="preserve" font-family="AvenirNext-Regular,Avenir Next" font-size="35.2" fill="#FEFFFF" transform="matrix(1.00, 0.00, -0.00, -1.00, 729.7, 655.1)">r</text><text xml:space="preserve" font-family="AvenirNext-Regular,Avenir Next" font-size="35.2" fill="#FEFFFF" transform="matrix(1.00, 0.00, -0.00, -1.00, 741.8, 655.1)">e</text><text xml:space="preserve" font-family="AvenirNext-Regular,Avenir Next" font-size="35.2" fill="#FEFFFF" transform="matrix(1.00, 0.00, -0.00, -1.00, 761.9, 655.1)"> </text><text xml:space="preserve" font-family="AvenirNext-Regular,Avenir Next" font-size="35.2" fill="#FEFFFF" transform="matrix(1.00, 0.00, -0.00, -1.00, 251.9, 607.1)">D</text><text xml:space="preserve" font-family="AvenirNext-Regular,Avenir Next" font-size="35.2" fill="#FEFFFF" transform="matrix(1.00, 0.00, -0.00, -1.00, 278.5, 607.1)">r</text><text xml:space="preserve" font-family="AvenirNext-Regular,Avenir Next" font-size="35.2" fill="#FEFFFF" transform="matrix(1.00, 0.00, -0.00, -1.00, 291.2, 607.1)">u</text><text xml:space="preserve" font-family="AvenirNext-Regular,Avenir Next" font-size="35.2" fill="#FEFFFF" transform="matrix(1.00, 0.00, -0.00, -1.00, 311.6, 607.1)">p</text><text xml:space="preserve" font-family="AvenirNext-Regular,Avenir Next" font-size="35.2" fill="#FEFFFF" transform="matrix(1.00, 0.00, -0.00, -1.00, 334.0, 607.1)">a</text><text xml:space="preserve" font-family="AvenirNext-Regular,Avenir Next" font-size="35.2" fill="#FEFFFF" transform="matrix(1.00, 0.00, -0.00, -1.00, 352.8, 607.1)">l</text><text xml:space="preserve" font-family="AvenirNext-Regular,Avenir Next" font-size="35.2" fill="#FEFFFF" transform="matrix(1.00, 0.00, -0.00, -1.00, 361.7, 607.1)"> </text><text xml:space="preserve" font-family="AvenirNext-Regular,Avenir Next" font-size="35.2" fill="#FEFFFF" transform="matrix(1.00, 0.00, -0.00, -1.00, 370.5, 607.1)">8</text><text xml:space="preserve" font-family="AvenirNext-Regular,Avenir Next" font-size="35.2" fill="#FEFFFF" transform="matrix(1.00, 0.00, -0.00, -1.00, 390.9, 607.1)"> </text><text xml:space="preserve" font-family="AvenirNext-Regular,Avenir Next" font-size="35.2" fill="#FEFFFF" transform="matrix(1.00, 0.00, -0.00, -1.00, 399.7, 607.1)">h</text><text xml:space="preserve" font-family="AvenirNext-Regular,Avenir Next" font-size="35.2" fill="#FEFFFF" transform="matrix(1.00, 0.00, -0.00, -1.00, 420.2, 607.1)">a</text><text xml:space="preserve" font-family="AvenirNext-Regular,Avenir Next" font-size="35.2" fill="#FEFFFF" transform="matrix(1.00, 0.00, -0.00, -1.00, 439.0, 607.1)">s</text><text xml:space="preserve" font-family="AvenirNext-Regular,Avenir Next" font-size="35.2" fill="#FEFFFF" transform="matrix(1.00, 0.00, -0.00, -1.00, 454.6, 607.1)"> </text><text xml:space="preserve" font-family="AvenirNext-Regular,Avenir Next" font-size="35.2" fill="#FEFFFF" transform="matrix(1.00, 0.00, -0.00, -1.00, 463.4, 607.1)">7</text><text xml:space="preserve" font-family="AvenirNext-Regular,Avenir Next" font-size="35.2" fill="#FEFFFF" transform="matrix(1.00, 0.00, -0.00, -1.00, 483.8, 607.1)">9</text><text xml:space="preserve" font-family="AvenirNext-Regular,Avenir Next" font-size="35.2" fill="#FEFFFF" transform="matrix(1.00, 0.00, -0.00, -1.00, 504.3, 607.1)"> </text><text xml:space="preserve" font-family="AvenirNext-Regular,Avenir Next" font-size="35.2" fill="#FEFFFF" transform="matrix(1.00, 0.00, -0.00, -1.00, 513.1, 607.1)">S</text><text xml:space="preserve" font-family="AvenirNext-Regular,Avenir Next" font-size="35.2" fill="#FEFFFF" transform="matrix(1.00, 0.00, -0.00, -1.00, 532.5, 607.1)">V</text><text xml:space="preserve" font-family="AvenirNext-Regular,Avenir Next" font-size="35.2" fill="#FEFFFF" transform="matrix(1.00, 0.00, -0.00, -1.00, 554.0, 607.1)">G</text><text xml:space="preserve" font-family="AvenirNext-Regular,Avenir Next" font-size="35.2" fill="#FEFFFF" transform="matrix(1.00, 0.00, -0.00, -1.00, 581.4, 607.1)"> </text><text xml:space="preserve" font-family="AvenirNext-Regular,Avenir Next" font-size="35.2" fill="#FEFFFF" transform="matrix(1.00, 0.00, -0.00, -1.00, 590.2, 607.1)">ﬁ</text><text xml:space="preserve" font-family="AvenirNext-Regular,Avenir Next" font-size="35.2" fill="#FEFFFF" transform="matrix(1.00, 0.00, -0.00, -1.00, 609.4, 607.1)">l</text><text xml:space="preserve" font-family="AvenirNext-Regular,Avenir Next" font-size="35.2" fill="#FEFFFF" transform="matrix(1.00, 0.00, -0.00, -1.00, 618.2, 607.1)">e</text><text xml:space="preserve" font-family="AvenirNext-Regular,Avenir Next" font-size="35.2" fill="#FEFFFF" transform="matrix(1.00, 0.00, -0.00, -1.00, 638.4, 607.1)">s</text><text xml:space="preserve" font-family="AvenirNext-Regular,Avenir Next" font-size="35.2" fill="#FEFFFF" transform="matrix(1.00, 0.00, -0.00, -1.00, 654.0, 607.1)"> </text><text xml:space="preserve" font-family="AvenirNext-Regular,Avenir Next" font-size="35.2" fill="#FEFFFF" transform="matrix(1.00, 0.00, -0.00, -1.00, 662.8, 607.1)">i</text><text xml:space="preserve" font-family="AvenirNext-Regular,Avenir Next" font-size="35.2" fill="#FEFFFF" transform="matrix(1.00, 0.00, -0.00, -1.00, 671.6, 607.1)">n</text><text xml:space="preserve" font-family="AvenirNext-Regular,Avenir Next" font-size="35.2" fill="#FEFFFF" transform="matrix(1.00, 0.00, -0.00, -1.00, 692.0, 607.1)"> </text><text xml:space="preserve" font-family="AvenirNext-Regular,Avenir Next" font-size="35.2" fill="#FEFFFF" transform="matrix(1.00, 0.00, -0.00, -1.00, 700.8, 607.1)">c</text><text xml:space="preserve" font-family="AvenirNext-Regular,Avenir Next" font-size="35.2" fill="#FEFFFF" transform="matrix(1.00, 0.00, -0.00, -1.00, 718.4, 607.1)">o</text><text xml:space="preserve" font-family="AvenirNext-Regular,Avenir Next" font-size="35.2" fill="#FEFFFF" transform="matrix(1.00, 0.00, -0.00, -1.00, 740.0, 607.1)">r</text><text xml:space="preserve" font-family="AvenirNext-Regular,Avenir Next" font-size="35.2" fill="#FEFFFF" transform="matrix(1.00, 0.00, -0.00, -1.00, 752.0, 607.1)">e</text><text xml:space="preserve" font-family="AvenirNext-Regular,Avenir Next" font-size="35.2" fill="#FEFFFF" transform="matrix(1.00, 0.00, -0.00, -1.00, 772.1, 607.1)"> </text><text xml:space="preserve" font-family="AvenirNext-Regular,Avenir Next" font-size="35.2" fill="#FEFFFF" transform="matrix(1.00, 0.00, -0.00, -1.00, 128.9, 559.1)">W</text><text xml:space="preserve" font-family="AvenirNext-Regular,Avenir Next" font-size="35.2" fill="#FEFFFF" transform="matrix(1.00, 0.00, -0.00, -1.00, 161.9, 559.1)">e</text><text xml:space="preserve" font-family="AvenirNext-Regular,Avenir Next" font-size="35.2" fill="#FEFFFF" transform="matrix(1.00, 0.00, -0.00, -1.00, 182.0, 559.1)"> </text><text xml:space="preserve" font-family="AvenirNext-Regular,Avenir Next" font-size="35.2" fill="#FEFFFF" transform="matrix(1.00, 0.00, -0.00, -1.00, 190.8, 559.1)">u</text><text xml:space="preserve" font-family="AvenirNext-Regular,Avenir Next" font-size="35.2" fill="#FEFFFF" transform="matrix(1.00, 0.00, -0.00, -1.00, 211.3, 559.1)">s</text><text xml:space="preserve" font-family="AvenirNext-Regular,Avenir Next" font-size="35.2" fill="#FEFFFF" transform="matrix(1.00, 0.00, -0.00, -1.00, 226.9, 559.1)">e</text><text xml:space="preserve" font-family="AvenirNext-Regular,Avenir Next" font-size="35.2" fill="#FEFFFF" transform="matrix(1.00, 0.00, -0.00, -1.00, 247.0, 559.1)"> </text><text xml:space="preserve" font-family="AvenirNext-Regular,Avenir Next" font-size="35.2" fill="#FEFFFF" transform="matrix(1.00, 0.00, -0.00, -1.00, 255.8, 559.1)">t</text><text xml:space="preserve" font-family="AvenirNext-Regular,Avenir Next" font-size="35.2" fill="#FEFFFF" transform="matrix(1.00, 0.00, -0.00, -1.00, 267.0, 559.1)">h</text><text xml:space="preserve" font-family="AvenirNext-Regular,Avenir Next" font-size="35.2" fill="#FEFFFF" transform="matrix(1.00, 0.00, -0.00, -1.00, 287.5, 559.1)">e</text><text xml:space="preserve" font-family="AvenirNext-Regular,Avenir Next" font-size="35.2" fill="#FEFFFF" transform="matrix(1.00, 0.00, -0.00, -1.00, 307.6, 559.1)">m</text><text xml:space="preserve" font-family="AvenirNext-Regular,Avenir Next" font-size="35.2" fill="#FEFFFF" transform="matrix(1.00, 0.00, -0.00, -1.00, 338.7, 559.1)"> </text><text xml:space="preserve" font-family="AvenirNext-Regular,Avenir Next" font-size="35.2" fill="#FEFFFF" transform="matrix(1.00, 0.00, -0.00, -1.00, 347.5, 559.1)">a</text><text xml:space="preserve" font-family="AvenirNext-Regular,Avenir Next" font-size="35.2" fill="#FEFFFF" transform="matrix(1.00, 0.00, -0.00, -1.00, 366.3, 559.1)">s</text><text xml:space="preserve" font-family="AvenirNext-Regular,Avenir Next" font-size="35.2" fill="#FEFFFF" transform="matrix(1.00, 0.00, -0.00, -1.00, 382.0, 559.1)"> </text><text xml:space="preserve" font-family="AvenirNext-Regular,Avenir Next" font-size="35.2" fill="#FEFFFF" transform="matrix(1.00, 0.00, -0.00, -1.00, 390.8, 559.1)">i</text><text xml:space="preserve" font-family="AvenirNext-Regular,Avenir Next" font-size="35.2" fill="#FEFFFF" transform="matrix(1.00, 0.00, -0.00, -1.00, 399.6, 559.1)">m</text><text xml:space="preserve" font-family="AvenirNext-Regular,Avenir Next" font-size="35.2" fill="#FEFFFF" transform="matrix(1.00, 0.00, -0.00, -1.00, 430.6, 559.1)">a</text><text xml:space="preserve" font-family="AvenirNext-Regular,Avenir Next" font-size="35.2" fill="#FEFFFF" transform="matrix(1.00, 0.00, -0.00, -1.00, 449.4, 559.1)">g</text><text xml:space="preserve" font-family="AvenirNext-Regular,Avenir Next" font-size="35.2" fill="#FEFFFF" transform="matrix(1.00, 0.00, -0.00, -1.00, 471.7, 559.1)">e</text><text xml:space="preserve" font-family="AvenirNext-Regular,Avenir Next" font-size="35.2" fill="#FEFFFF" transform="matrix(1.00, 0.00, -0.00, -1.00, 491.8, 559.1)">s</text><text xml:space="preserve" font-family="AvenirNext-Regular,Avenir Next" font-size="35.2" fill="#FEFFFF" transform="matrix(1.00, 0.00, -0.00, -1.00, 507.4, 559.1)">,</text><text xml:space="preserve" font-family="AvenirNext-Regular,Avenir Next" font-size="35.2" fill="#FEFFFF" transform="matrix(1.00, 0.00, -0.00, -1.00, 515.5, 559.1)"> </text><text xml:space="preserve" font-family="AvenirNext-Regular,Avenir Next" font-size="35.2" fill="#FEFFFF" transform="matrix(1.00, 0.00, -0.00, -1.00, 524.3, 559.1)">n</text><text xml:space="preserve" font-family="AvenirNext-Regular,Avenir Next" font-size="35.2" fill="#FEFFFF" transform="matrix(1.00, 0.00, -0.00, -1.00, 544.8, 559.1)">o</text><text xml:space="preserve" font-family="AvenirNext-Regular,Avenir Next" font-size="35.2" fill="#FEFFFF" transform="matrix(1.00, 0.00, -0.00, -1.00, 566.3, 559.1)">t</text><text xml:space="preserve" font-family="AvenirNext-Regular,Avenir Next" font-size="35.2" fill="#FEFFFF" transform="matrix(1.00, 0.00, -0.00, -1.00, 577.5, 559.1)"> </text><text xml:space="preserve" font-family="AvenirNext-Regular,Avenir Next" font-size="35.2" fill="#FEFFFF" transform="matrix(1.00, 0.00, -0.00, -1.00, 586.3, 559.1)">t</text><text xml:space="preserve" font-family="AvenirNext-Regular,Avenir Next" font-size="35.2" fill="#FEFFFF" transform="matrix(1.00, 0.00, -0.00, -1.00, 597.4, 559.1)">a</text><text xml:space="preserve" font-family="AvenirNext-Regular,Avenir Next" font-size="35.2" fill="#FEFFFF" transform="matrix(1.00, 0.00, -0.00, -1.00, 616.2, 559.1)">k</text><text xml:space="preserve" font-family="AvenirNext-Regular,Avenir Next" font-size="35.2" fill="#FEFFFF" transform="matrix(1.00, 0.00, -0.00, -1.00, 634.2, 559.1)">i</text><text xml:space="preserve" font-family="AvenirNext-Regular,Avenir Next" font-size="35.2" fill="#FEFFFF" transform="matrix(1.00, 0.00, -0.00, -1.00, 643.0, 559.1)">n</text><text xml:space="preserve" font-family="AvenirNext-Regular,Avenir Next" font-size="35.2" fill="#FEFFFF" transform="matrix(1.00, 0.00, -0.00, -1.00, 663.4, 559.1)">g</text><text xml:space="preserve" font-family="AvenirNext-Regular,Avenir Next" font-size="35.2" fill="#FEFFFF" transform="matrix(1.00, 0.00, -0.00, -1.00, 685.7, 559.1)"> </text><text xml:space="preserve" font-family="AvenirNext-Regular,Avenir Next" font-size="35.2" fill="#FEFFFF" transform="matrix(1.00, 0.00, -0.00, -1.00, 694.5, 559.1)">f</text><text xml:space="preserve" font-family="AvenirNext-Regular,Avenir Next" font-size="35.2" fill="#FEFFFF" transform="matrix(1.00, 0.00, -0.00, -1.00, 704.8, 559.1)">u</text><text xml:space="preserve" font-family="AvenirNext-Regular,Avenir Next" font-size="35.2" fill="#FEFFFF" transform="matrix(1.00, 0.00, -0.00, -1.00, 725.3, 559.1)">l</text><text xml:space="preserve" font-family="AvenirNext-Regular,Avenir Next" font-size="35.2" fill="#FEFFFF" transform="matrix(1.00, 0.00, -0.00, -1.00, 734.2, 559.1)">l</text><text xml:space="preserve" font-family="AvenirNext-Regular,Avenir Next" font-size="35.2" fill="#FEFFFF" transform="matrix(1.00, 0.00, -0.00, -1.00, 743.0, 559.1)"> </text><text xml:space="preserve" font-family="AvenirNext-Regular,Avenir Next" font-size="35.2" fill="#FEFFFF" transform="matrix(1.00, 0.00, -0.00, -1.00, 751.8, 559.1)">p</text><text xml:space="preserve" font-family="AvenirNext-Regular,Avenir Next" font-size="35.2" fill="#FEFFFF" transform="matrix(1.00, 0.00, -0.00, -1.00, 774.2, 559.1)">o</text><text xml:space="preserve" font-family="AvenirNext-Regular,Avenir Next" font-size="35.2" fill="#FEFFFF" transform="matrix(1.00, 0.00, -0.00, -1.00, 795.7, 559.1)">t</text><text xml:space="preserve" font-family="AvenirNext-Regular,Avenir Next" font-size="35.2" fill="#FEFFFF" transform="matrix(1.00, 0.00, -0.00, -1.00, 806.9, 559.1)">e</text><text xml:space="preserve" font-family="AvenirNext-Regular,Avenir Next" font-size="35.2" fill="#FEFFFF" transform="matrix(1.00, 0.00, -0.00, -1.00, 827.0, 559.1)">n</text><text xml:space="preserve" font-family="AvenirNext-Regular,Avenir Next" font-size="35.2" fill="#FEFFFF" transform="matrix(1.00, 0.00, -0.00, -1.00, 847.4, 559.1)">t</text><text xml:space="preserve" font-family="AvenirNext-Regular,Avenir Next" font-size="35.2" fill="#FEFFFF" transform="matrix(1.00, 0.00, -0.00, -1.00, 858.6, 559.1)">i</text><text xml:space="preserve" font-family="AvenirNext-Regular,Avenir Next" font-size="35.2" fill="#FEFFFF" transform="matrix(1.00, 0.00, -0.00, -1.00, 867.4, 559.1)">a</text><text xml:space="preserve" font-family="AvenirNext-Regular,Avenir Next" font-size="35.2" fill="#FEFFFF" transform="matrix(1.00, 0.00, -0.00, -1.00, 886.2, 559.1)">l</text><text xml:space="preserve" font-family="AvenirNext-Regular,Avenir Next" font-size="35.2" fill="#FEFFFF" transform="matrix(1.00, 0.00, -0.00, -1.00, 895.1, 559.1)"> </text><text xml:space="preserve" font-family="AvenirNext-Regular,Avenir Next" font-size="35.2" fill="#FEFFFF" transform="matrix(1.00, 0.00, -0.00, -1.00, 290.0, 463.1)">S</text><text xml:space="preserve" font-family="AvenirNext-Regular,Avenir Next" font-size="35.2" fill="#FEFFFF" transform="matrix(1.00, 0.00, -0.00, -1.00, 309.4, 463.1)">V</text><text xml:space="preserve" font-family="AvenirNext-Regular,Avenir Next" font-size="35.2" fill="#FEFFFF" transform="matrix(1.00, 0.00, -0.00, -1.00, 330.9, 463.1)">G</text><text xml:space="preserve" font-family="AvenirNext-Regular,Avenir Next" font-size="35.2" fill="#FEFFFF" transform="matrix(1.00, 0.00, -0.00, -1.00, 358.4, 463.1)"> </text><text xml:space="preserve" font-family="AvenirNext-Regular,Avenir Next" font-size="35.2" fill="#FEFFFF" transform="matrix(1.00, 0.00, -0.00, -1.00, 367.2, 463.1)">S</text><text xml:space="preserve" font-family="AvenirNext-Regular,Avenir Next" font-size="35.2" fill="#FEFFFF" transform="matrix(1.00, 0.00, -0.00, -1.00, 387.0, 463.1)">p</text><text xml:space="preserve" font-family="AvenirNext-Regular,Avenir Next" font-size="35.2" fill="#FEFFFF" transform="matrix(1.00, 0.00, -0.00, -1.00, 409.4, 463.1)">r</text><text xml:space="preserve" font-family="AvenirNext-Regular,Avenir Next" font-size="35.2" fill="#FEFFFF" transform="matrix(1.00, 0.00, -0.00, -1.00, 422.0, 463.1)">i</text><text xml:space="preserve" font-family="AvenirNext-Regular,Avenir Next" font-size="35.2" fill="#FEFFFF" transform="matrix(1.00, 0.00, -0.00, -1.00, 430.8, 463.1)">t</text><text xml:space="preserve" font-family="AvenirNext-Regular,Avenir Next" font-size="35.2" fill="#FEFFFF" transform="matrix(1.00, 0.00, -0.00, -1.00, 442.0, 463.1)">e</text><text xml:space="preserve" font-family="AvenirNext-Regular,Avenir Next" font-size="35.2" fill="#FEFFFF" transform="matrix(1.00, 0.00, -0.00, -1.00, 462.1, 463.1)"> </text><text xml:space="preserve" font-family="AvenirNext-Regular,Avenir Next" font-size="35.2" fill="#FEFFFF" transform="matrix(1.00, 0.00, -0.00, -1.00, 470.9, 463.1)">f</text><text xml:space="preserve" font-family="AvenirNext-Regular,Avenir Next" font-size="35.2" fill="#FEFFFF" transform="matrix(1.00, 0.00, -0.00, -1.00, 481.3, 463.1)">o</text><text xml:space="preserve" font-family="AvenirNext-Regular,Avenir Next" font-size="35.2" fill="#FEFFFF" transform="matrix(1.00, 0.00, -0.00, -1.00, 502.8, 463.1)">r</text><text xml:space="preserve" font-family="AvenirNext-Regular,Avenir Next" font-size="35.2" fill="#FEFFFF" transform="matrix(1.00, 0.00, -0.00, -1.00, 515.5, 463.1)"> </text><text xml:space="preserve" font-family="AvenirNext-Regular,Avenir Next" font-size="35.2" fill="#FEFFFF" transform="matrix(1.00, 0.00, -0.00, -1.00, 524.3, 463.1)">t</text><text xml:space="preserve" font-family="AvenirNext-Regular,Avenir Next" font-size="35.2" fill="#FEFFFF" transform="matrix(1.00, 0.00, -0.00, -1.00, 535.4, 463.1)">o</text><text xml:space="preserve" font-family="AvenirNext-Regular,Avenir Next" font-size="35.2" fill="#FEFFFF" transform="matrix(1.00, 0.00, -0.00, -1.00, 557.0, 463.1)">o</text><text xml:space="preserve" font-family="AvenirNext-Regular,Avenir Next" font-size="35.2" fill="#FEFFFF" transform="matrix(1.00, 0.00, -0.00, -1.00, 578.5, 463.1)">l</text><text xml:space="preserve" font-family="AvenirNext-Regular,Avenir Next" font-size="35.2" fill="#FEFFFF" transform="matrix(1.00, 0.00, -0.00, -1.00, 587.3, 463.1)">b</text><text xml:space="preserve" font-family="AvenirNext-Regular,Avenir Next" font-size="35.2" fill="#FEFFFF" transform="matrix(1.00, 0.00, -0.00, -1.00, 609.8, 463.1)">a</text><text xml:space="preserve" font-family="AvenirNext-Regular,Avenir Next" font-size="35.2" fill="#FEFFFF" transform="matrix(1.00, 0.00, -0.00, -1.00, 628.5, 463.1)">r</text><text xml:space="preserve" font-family="AvenirNext-Regular,Avenir Next" font-size="35.2" fill="#FEFFFF" transform="matrix(1.00, 0.00, -0.00, -1.00, 641.2, 463.1)"> </text><text xml:space="preserve" font-family="AvenirNext-Regular,Avenir Next" font-size="35.2" fill="#FEFFFF" transform="matrix(1.00, 0.00, -0.00, -1.00, 650.0, 463.1)">i</text><text xml:space="preserve" font-family="AvenirNext-Regular,Avenir Next" font-size="35.2" fill="#FEFFFF" transform="matrix(1.00, 0.00, -0.00, -1.00, 658.8, 463.1)">c</text><text xml:space="preserve" font-family="AvenirNext-Regular,Avenir Next" font-size="35.2" fill="#FEFFFF" transform="matrix(1.00, 0.00, -0.00, -1.00, 676.4, 463.1)">o</text><text xml:space="preserve" font-family="AvenirNext-Regular,Avenir Next" font-size="35.2" fill="#FEFFFF" transform="matrix(1.00, 0.00, -0.00, -1.00, 697.9, 463.1)">n</text><text xml:space="preserve" font-family="AvenirNext-Regular,Avenir Next" font-size="35.2" fill="#FEFFFF" transform="matrix(1.00, 0.00, -0.00, -1.00, 718.4, 463.1)">s</text><text xml:space="preserve" font-family="LucidaGrande,Lucida Grande" font-size="35.2" fill="#FEFFFF" transform="matrix(1.00, 0.00, -0.00, -1.00, 734.0, 463.1)"> </text><text xml:space="preserve" font-family="AvenirNext-Regular,Avenir Next" font-size="35.2" fill="#FEFFFF" transform="matrix(1.00, 0.00, -0.00, -1.00, 198.2, 415.1)">h</text><text xml:space="preserve" font-family="AvenirNext-Regular,Avenir Next" font-size="35.2" fill="#FEFFFF" transform="matrix(1.00, 0.00, -0.00, -1.00, 218.7, 415.1)">t</text><text xml:space="preserve" font-family="AvenirNext-Regular,Avenir Next" font-size="35.2" fill="#FEFFFF" transform="matrix(1.00, 0.00, -0.00, -1.00, 229.4, 415.1)">t</text><text xml:space="preserve" font-family="AvenirNext-Regular,Avenir Next" font-size="35.2" fill="#FEFFFF" transform="matrix(1.00, 0.00, -0.00, -1.00, 240.6, 415.1)">p</text><text xml:space="preserve" font-family="AvenirNext-Regular,Avenir Next" font-size="35.2" fill="#FEFFFF" transform="matrix(1.00, 0.00, -0.00, -1.00, 262.9, 415.1)">s</text><text xml:space="preserve" font-family="AvenirNext-Regular,Avenir Next" font-size="35.2" fill="#FEFFFF" transform="matrix(1.00, 0.00, -0.00, -1.00, 278.6, 415.1)">:</text><text xml:space="preserve" font-family="AvenirNext-Regular,Avenir Next" font-size="35.2" fill="#FEFFFF" transform="matrix(1.00, 0.00, -0.00, -1.00, 289.1, 415.1)">/</text><text xml:space="preserve" font-family="AvenirNext-Regular,Avenir Next" font-size="35.2" fill="#FEFFFF" transform="matrix(1.00, 0.00, -0.00, -1.00, 302.2, 415.1)">/</text><text xml:space="preserve" font-family="AvenirNext-Regular,Avenir Next" font-size="35.2" fill="#FEFFFF" transform="matrix(1.00, 0.00, -0.00, -1.00, 315.2, 415.1)">w</text><text xml:space="preserve" font-family="AvenirNext-Regular,Avenir Next" font-size="35.2" fill="#FEFFFF" transform="matrix(1.00, 0.00, -0.00, -1.00, 341.4, 415.1)">w</text><text xml:space="preserve" font-family="AvenirNext-Regular,Avenir Next" font-size="35.2" fill="#FEFFFF" transform="matrix(1.00, 0.00, -0.00, -1.00, 367.7, 415.1)">w</text><text xml:space="preserve" font-family="AvenirNext-Regular,Avenir Next" font-size="35.2" fill="#FEFFFF" transform="matrix(1.00, 0.00, -0.00, -1.00, 392.7, 415.1)">.</text><text xml:space="preserve" font-family="AvenirNext-Regular,Avenir Next" font-size="35.2" fill="#FEFFFF" transform="matrix(1.00, 0.00, -0.00, -1.00, 401.8, 415.1)">d</text><text xml:space="preserve" font-family="AvenirNext-Regular,Avenir Next" font-size="35.2" fill="#FEFFFF" transform="matrix(1.00, 0.00, -0.00, -1.00, 424.3, 415.1)">r</text><text xml:space="preserve" font-family="AvenirNext-Regular,Avenir Next" font-size="35.2" fill="#FEFFFF" transform="matrix(1.00, 0.00, -0.00, -1.00, 436.9, 415.1)">u</text><text xml:space="preserve" font-family="AvenirNext-Regular,Avenir Next" font-size="35.2" fill="#FEFFFF" transform="matrix(1.00, 0.00, -0.00, -1.00, 457.4, 415.1)">p</text><text xml:space="preserve" font-family="AvenirNext-Regular,Avenir Next" font-size="35.2" fill="#FEFFFF" transform="matrix(1.00, 0.00, -0.00, -1.00, 479.7, 415.1)">a</text><text xml:space="preserve" font-family="AvenirNext-Regular,Avenir Next" font-size="35.2" fill="#FEFFFF" transform="matrix(1.00, 0.00, -0.00, -1.00, 498.5, 415.1)">l</text><text xml:space="preserve" font-family="AvenirNext-Regular,Avenir Next" font-size="35.2" fill="#FEFFFF" transform="matrix(1.00, 0.00, -0.00, -1.00, 507.4, 415.1)">.</text><text xml:space="preserve" font-family="AvenirNext-Regular,Avenir Next" font-size="35.2" fill="#FEFFFF" transform="matrix(1.00, 0.00, -0.00, -1.00, 516.6, 415.1)">o</text><text xml:space="preserve" font-family="AvenirNext-Regular,Avenir Next" font-size="35.2" fill="#FEFFFF" transform="matrix(1.00, 0.00, -0.00, -1.00, 538.1, 415.1)">r</text><text xml:space="preserve" font-family="AvenirNext-Regular,Avenir Next" font-size="35.2" fill="#FEFFFF" transform="matrix(1.00, 0.00, -0.00, -1.00, 550.1, 415.1)">g</text><text xml:space="preserve" font-family="AvenirNext-Regular,Avenir Next" font-size="35.2" fill="#FEFFFF" transform="matrix(1.00, 0.00, -0.00, -1.00, 572.4, 415.1)">/</text><text xml:space="preserve" font-family="AvenirNext-Regular,Avenir Next" font-size="35.2" fill="#FEFFFF" transform="matrix(1.00, 0.00, -0.00, -1.00, 585.4, 415.1)">n</text><text xml:space="preserve" font-family="AvenirNext-Regular,Avenir Next" font-size="35.2" fill="#FEFFFF" transform="matrix(1.00, 0.00, -0.00, -1.00, 605.8, 415.1)">o</text><text xml:space="preserve" font-family="AvenirNext-Regular,Avenir Next" font-size="35.2" fill="#FEFFFF" transform="matrix(1.00, 0.00, -0.00, -1.00, 627.3, 415.1)">d</text><text xml:space="preserve" font-family="AvenirNext-Regular,Avenir Next" font-size="35.2" fill="#FEFFFF" transform="matrix(1.00, 0.00, -0.00, -1.00, 649.8, 415.1)">e</text><text xml:space="preserve" font-family="AvenirNext-Regular,Avenir Next" font-size="35.2" fill="#FEFFFF" transform="matrix(1.00, 0.00, -0.00, -1.00, 669.9, 415.1)">/</text><text xml:space="preserve" font-family="AvenirNext-Regular,Avenir Next" font-size="35.2" fill="#FEFFFF" transform="matrix(1.00, 0.00, -0.00, -1.00, 682.9, 415.1)">2</text><text xml:space="preserve" font-family="AvenirNext-Regular,Avenir Next" font-size="35.2" fill="#FEFFFF" transform="matrix(1.00, 0.00, -0.00, -1.00, 703.3, 415.1)">3</text><text xml:space="preserve" font-family="AvenirNext-Regular,Avenir Next" font-size="35.2" fill="#FEFFFF" transform="matrix(1.00, 0.00, -0.00, -1.00, 723.7, 415.1)">0</text><text xml:space="preserve" font-family="AvenirNext-Regular,Avenir Next" font-size="35.2" fill="#FEFFFF" transform="matrix(1.00, 0.00, -0.00, -1.00, 744.2, 415.1)">6</text><text xml:space="preserve" font-family="AvenirNext-Regular,Avenir Next" font-size="35.2" fill="#FEFFFF" transform="matrix(1.00, 0.00, -0.00, -1.00, 764.6, 415.1)">4</text><text xml:space="preserve" font-family="AvenirNext-Regular,Avenir Next" font-size="35.2" fill="#FEFFFF" transform="matrix(1.00, 0.00, -0.00, -1.00, 785.0, 415.1)">9</text><text xml:space="preserve" font-family="AvenirNext-Regular,Avenir Next" font-size="35.2" fill="#FEFFFF" transform="matrix(1.00, 0.00, -0.00, -1.00, 805.4, 415.1)">9</text><text xml:space="preserve" font-family="AvenirNext-Regular,Avenir Next" font-size="35.2" fill="#FEFFFF" transform="matrix(1.00, 0.00, -0.00, -1.00, 825.8, 415.1)"> </text><image xlink:href="549A428BC36413414F61B7F732EC82FE.png" width="737.00" height="364.00" transform="matrix(0.81, 0.00, -0.00, -0.81, 214.0, 350.0)"></image></g></svg>