<?xml version="1.0" encoding="UTF-8" standalone="no"?><svg xmlns="http://www.w3.org/2000/svg" xmlns:xlink="http://www.w3.org/1999/xlink" clip-rule="evenodd" stroke-miterlimit="10" viewBox="0 0 502 134"><desc>SVG generated by Keynote</desc><defs></defs><g transform="matrix(1.00, 0.00, -0.00, -1.00, 0.0, 134.0)"><text xml:space="preserve" font-family="AvenirNext-Regular,Avenir Next" font-size="60.0" fill="#FEFFFF" transform="matrix(1.00, 0.00, -0.00, -1.00, -1.4, 85.5)">C</text><text xml:space="preserve" font-family="AvenirNext-Regular,Avenir Next" font-size="60.0" fill="#FEFFFF" transform="matrix(1.00, 0.00, -0.00, -1.00, 41.8, 85.5)">S</text><text xml:space="preserve" font-family="AvenirNext-Regular,Avenir Next" font-size="60.0" fill="#FEFFFF" transform="matrix(1.00, 0.00, -0.00, -1.00, 75.6, 85.5)">S</text><text xml:space="preserve" font-family="AvenirNext-Regular,Avenir Next" font-size="60.0" fill="#FEFFFF" transform="matrix(1.00, 0.00, -0.00, -1.00, 109.5, 85.5)"> </text><text xml:space="preserve" font-family="AvenirNext-Regular,Avenir Next" font-size="60.0" fill="#FEFFFF" transform="matrix(1.00, 0.00, -0.00, -1.00, 124.5, 85.5)">t</text><text xml:space="preserve" font-family="AvenirNext-Regular,Avenir Next" font-size="60.0" fill="#FEFFFF" transform="matrix(1.00, 0.00, -0.00, -1.00, 143.5, 85.5)">r</text><text xml:space="preserve" font-family="AvenirNext-Regular,Avenir Next" font-size="60.0" fill="#FEFFFF" transform="matrix(1.00, 0.00, -0.00, -1.00, 164.4, 85.5)">a</text><text xml:space="preserve" font-family="AvenirNext-Regular,Avenir Next" font-size="60.0" fill="#FEFFFF" transform="matrix(1.00, 0.00, -0.00, -1.00, 196.4, 85.5)">n</text><text xml:space="preserve" font-family="AvenirNext-Regular,Avenir Next" font-size="60.0" fill="#FEFFFF" transform="matrix(1.00, 0.00, -0.00, -1.00, 231.3, 85.5)">s</text><text xml:space="preserve" font-family="AvenirNext-Regular,Avenir Next" font-size="60.0" fill="#FEFFFF" transform="matrix(1.00, 0.00, -0.00, -1.00, 257.9, 85.5)">f</text><text xml:space="preserve" font-family="AvenirNext-Regular,Avenir Next" font-size="60.0" fill="#FEFFFF" transform="matrix(1.00, 0.00, -0.00, -1.00, 275.6, 85.5)">o</text><text xml:space="preserve" font-family="AvenirNext-Regular,Avenir Next" font-size="60.0" fill="#FEFFFF" transform="matrix(1.00, 0.00, -0.00, -1.00, 312.3, 85.5)">r</text><text xml:space="preserve" font-family="AvenirNext-Regular,Avenir Next" font-size="60.0" fill="#FEFFFF" transform="matrix(1.00, 0.00, -0.00, -1.00, 333.9, 85.5)">m</text><text xml:space="preserve" font-family="AvenirNext-Regular,Avenir Next" font-size="60.0" fill="#FEFFFF" transform="matrix(1.00, 0.00, -0.00, -1.00, 386.8, 85.5)">s</text><text xml:space="preserve" font-family="AvenirNext-Regular,Avenir Next" font-size="60.0" fill="#FEFFFF" transform="matrix(1.00, 0.00, -0.00, -1.00, 413.5, 85.5)"> </text><text xml:space="preserve" font-family="AvenirNext-Regular,Avenir Next" font-size="60.0" fill="#FEFFFF" transform="matrix(1.00, 0.00, -0.00, -1.00, 428.5, 85.5)">o</text><text xml:space="preserve" font-family="AvenirNext-Regular,Avenir Next" font-size="60.0" fill="#FEFFFF" transform="matrix(1.00, 0.00, -0.00, -1.00, 465.1, 85.5)">n</text><text xml:space="preserve" font-family="AvenirNext-Regular,Avenir Next" font-size="60.0" fill="#FEFFFF" transform="matrix(1.00, 0.00, -0.00, -1.00, 500.0, 85.5)"> </text><text xml:space="preserve" font-family="AvenirNext-Regular,Avenir Next" font-size="60.0" fill="#FEFFFF" transform="matrix(1.00, 0.00, -0.00, -1.00, 191.0, 3.5)">S</text><text xml:space="preserve" font-family="AvenirNext-Regular,Avenir Next" font-size="60.0" fill="#FEFFFF" transform="matrix(1.00, 0.00, -0.00, -1.00, 224.1, 3.5)">V</text><text xml:space="preserve" font-family="AvenirNext-Regular,Avenir Next" font-size="60.0" fill="#FEFFFF" transform="matrix(1.00, 0.00, -0.00, -1.00, 260.8, 3.5)">G</text></g></svg>