<?xml version="1.0" encoding="UTF-8" standalone="no"?><svg xmlns="http://www.w3.org/2000/svg" xmlns:xlink="http://www.w3.org/1999/xlink" clip-rule="evenodd" stroke-miterlimit="10" viewBox="0 0 1024 768"><desc>SVG generated by Keynote</desc><defs></defs><g transform="matrix(1.00, 0.00, -0.00, -1.00, 0.0, 768.0)"><path d="M 0.0 768.0 L 1024.0 768.0 L 1024.0 0.0 L 0.0 0.0 Z M 0.0 768.0 " fill="#000000"></path><text xml:space="preserve" font-family="AvenirNext-Regular,Avenir Next" font-size="80.0" fill="#FEFFFF" transform="matrix(1.00, 0.00, -0.00, -1.00, 229.6, 615.9)">S</text><text xml:space="preserve" font-family="AvenirNext-Regular,Avenir Next" font-size="80.0" fill="#FEFFFF" transform="matrix(1.00, 0.00, -0.00, -1.00, 273.7, 615.9)">V</text><text xml:space="preserve" font-family="AvenirNext-Regular,Avenir Next" font-size="80.0" fill="#FEFFFF" transform="matrix(1.00, 0.00, -0.00, -1.00, 322.6, 615.9)">G</text><text xml:space="preserve" font-family="AvenirNext-Regular,Avenir Next" font-size="80.0" fill="#FEFFFF" transform="matrix(1.00, 0.00, -0.00, -1.00, 384.9, 615.9)"> </text><text xml:space="preserve" font-family="AvenirNext-Regular,Avenir Next" font-size="80.0" fill="#FEFFFF" transform="matrix(1.00, 0.00, -0.00, -1.00, 404.9, 615.9)">c</text><text xml:space="preserve" font-family="AvenirNext-Regular,Avenir Next" font-size="80.0" fill="#FEFFFF" transform="matrix(1.00, 0.00, -0.00, -1.00, 444.9, 615.9)">o</text><text xml:space="preserve" font-family="AvenirNext-Regular,Avenir Next" font-size="80.0" fill="#FEFFFF" transform="matrix(1.00, 0.00, -0.00, -1.00, 493.8, 615.9)">m</text><text xml:space="preserve" font-family="AvenirNext-Regular,Avenir Next" font-size="80.0" fill="#FEFFFF" transform="matrix(1.00, 0.00, -0.00, -1.00, 564.4, 615.9)">m</text><text xml:space="preserve" font-family="AvenirNext-Regular,Avenir Next" font-size="80.0" fill="#FEFFFF" transform="matrix(1.00, 0.00, -0.00, -1.00, 635.1, 615.9)">u</text><text xml:space="preserve" font-family="AvenirNext-Regular,Avenir Next" font-size="80.0" fill="#FEFFFF" transform="matrix(1.00, 0.00, -0.00, -1.00, 681.6, 615.9)">n</text><text xml:space="preserve" font-family="AvenirNext-Regular,Avenir Next" font-size="80.0" fill="#FEFFFF" transform="matrix(1.00, 0.00, -0.00, -1.00, 728.0, 615.9)">i</text><text xml:space="preserve" font-family="AvenirNext-Regular,Avenir Next" font-size="80.0" fill="#FEFFFF" transform="matrix(1.00, 0.00, -0.00, -1.00, 748.0, 615.9)">t</text><text xml:space="preserve" font-family="AvenirNext-Regular,Avenir Next" font-size="80.0" fill="#FEFFFF" transform="matrix(1.00, 0.00, -0.00, -1.00, 773.4, 615.9)">y</text><image xlink:href="../../0E587313-3058-4D01-8ECE-57C0C0BD84DF/assets/CD6333716F813AE2A935020C33D58854.png" width="400.00" height="400.00" transform="matrix(0.32, 0.00, -0.00, -0.32, 99.0, 471.0)"></image><image xlink:href="../../0E587313-3058-4D01-8ECE-57C0C0BD84DF/assets/BD2E0B8E7178F9D941EED00BF46C9CA6.png" width="400.00" height="400.00" transform="matrix(0.32, 0.00, -0.00, -0.32, 448.0, 471.0)"></image><image xlink:href="../../0E587313-3058-4D01-8ECE-57C0C0BD84DF/assets/014597DAC8154485694EA56FD009F414.png" width="200.00" height="200.00" transform="matrix(0.64, 0.00, -0.00, -0.64, 273.0, 471.0)"></image><image xlink:href="../../0E587313-3058-4D01-8ECE-57C0C0BD84DF/assets/7CD5F436248BE0F050453B39ADAD3311.png" width="400.00" height="400.00" transform="matrix(0.32, 0.00, -0.00, -0.32, 623.0, 471.0)"></image><image xlink:href="../../0E587313-3058-4D01-8ECE-57C0C0BD84DF/assets/B97DC742FCA531DFCC7DF40F0A7F27A8.png" width="400.00" height="400.00" transform="matrix(0.32, 0.00, -0.00, -0.32, 798.0, 471.0)"></image><text xml:space="preserve" font-family="Helvetica-Light,Helvetica" font-size="26.0" fill="#FEFFFF" transform="matrix(1.00, 0.00, -0.00, -1.00, 440.2, 269.9)">@</text><text xml:space="preserve" font-family="Helvetica-Light,Helvetica" font-size="26.0" fill="#FEFFFF" transform="matrix(1.00, 0.00, -0.00, -1.00, 461.0, 269.9)">s</text><text xml:space="preserve" font-family="Helvetica-Light,Helvetica" font-size="26.0" fill="#FEFFFF" transform="matrix(1.00, 0.00, -0.00, -1.00, 474.0, 269.9)">a</text><text xml:space="preserve" font-family="Helvetica-Light,Helvetica" font-size="26.0" fill="#FEFFFF" transform="matrix(1.00, 0.00, -0.00, -1.00, 488.4, 269.9)">r</text><text xml:space="preserve" font-family="Helvetica-Light,Helvetica" font-size="26.0" fill="#FEFFFF" transform="matrix(1.00, 0.00, -0.00, -1.00, 497.1, 269.9)">a</text><text xml:space="preserve" font-family="Helvetica-Light,Helvetica" font-size="26.0" fill="#FEFFFF" transform="matrix(1.00, 0.00, -0.00, -1.00, 511.6, 269.9)">h</text><text xml:space="preserve" font-family="Helvetica-Light,Helvetica" font-size="26.0" fill="#FEFFFF" transform="matrix(1.00, 0.00, -0.00, -1.00, 526.0, 269.9)">_</text><text xml:space="preserve" font-family="Helvetica-Light,Helvetica" font-size="26.0" fill="#FEFFFF" transform="matrix(1.00, 0.00, -0.00, -1.00, 539.0, 269.9)">e</text><text xml:space="preserve" font-family="Helvetica-Light,Helvetica" font-size="26.0" fill="#FEFFFF" transform="matrix(1.00, 0.00, -0.00, -1.00, 553.5, 269.9)">d</text><text xml:space="preserve" font-family="Helvetica-Light,Helvetica" font-size="26.0" fill="#FEFFFF" transform="matrix(1.00, 0.00, -0.00, -1.00, 569.4, 269.9)">o</text><text xml:space="preserve" font-family="Helvetica-Light,Helvetica" font-size="23.0" fill="#FEFFFF" transform="matrix(1.00, 0.00, -0.00, -1.00, 631.5, 270.7)">@</text><text xml:space="preserve" font-family="Helvetica-Light,Helvetica" font-size="23.0" fill="#FEFFFF" transform="matrix(1.00, 0.00, -0.00, -1.00, 649.9, 270.7)">a</text><text xml:space="preserve" font-family="Helvetica-Light,Helvetica" font-size="23.0" fill="#FEFFFF" transform="matrix(1.00, 0.00, -0.00, -1.00, 662.7, 270.7)">n</text><text xml:space="preserve" font-family="Helvetica-Light,Helvetica" font-size="23.0" fill="#FEFFFF" transform="matrix(1.00, 0.00, -0.00, -1.00, 675.4, 270.7)">a</text><text xml:space="preserve" font-family="Helvetica-Light,Helvetica" font-size="23.0" fill="#FEFFFF" transform="matrix(1.00, 0.00, -0.00, -1.00, 688.2, 270.7)">t</text><text xml:space="preserve" font-family="Helvetica-Light,Helvetica" font-size="23.0" fill="#FEFFFF" transform="matrix(1.00, 0.00, -0.00, -1.00, 694.6, 270.7)">u</text><text xml:space="preserve" font-family="Helvetica-Light,Helvetica" font-size="23.0" fill="#FEFFFF" transform="matrix(1.00, 0.00, -0.00, -1.00, 707.4, 270.7)">d</text><text xml:space="preserve" font-family="Helvetica-Light,Helvetica" font-size="23.0" fill="#FEFFFF" transform="matrix(1.00, 0.00, -0.00, -1.00, 721.5, 270.7)">o</text><text xml:space="preserve" font-family="Helvetica-Light,Helvetica" font-size="23.0" fill="#FEFFFF" transform="matrix(1.00, 0.00, -0.00, -1.00, 734.3, 270.7)">r</text><text xml:space="preserve" font-family="Helvetica-Light,Helvetica" font-size="23.0" fill="#FEFFFF" transform="matrix(1.00, 0.00, -0.00, -1.00, 260.4, 272.2)">@</text><text xml:space="preserve" font-family="Helvetica-Light,Helvetica" font-size="23.0" fill="#FEFFFF" transform="matrix(1.00, 0.00, -0.00, -1.00, 278.8, 272.2)">A</text><text xml:space="preserve" font-family="Helvetica-Light,Helvetica" font-size="23.0" fill="#FEFFFF" transform="matrix(1.00, 0.00, -0.00, -1.00, 294.1, 272.2)">m</text><text xml:space="preserve" font-family="Helvetica-Light,Helvetica" font-size="23.0" fill="#FEFFFF" transform="matrix(1.00, 0.00, -0.00, -1.00, 313.3, 272.2)">e</text><text xml:space="preserve" font-family="Helvetica-Light,Helvetica" font-size="23.0" fill="#FEFFFF" transform="matrix(1.00, 0.00, -0.00, -1.00, 326.1, 272.2)">l</text><text xml:space="preserve" font-family="Helvetica-Light,Helvetica" font-size="23.0" fill="#FEFFFF" transform="matrix(1.00, 0.00, -0.00, -1.00, 331.2, 272.2)">i</text><text xml:space="preserve" font-family="Helvetica-Light,Helvetica" font-size="23.0" fill="#FEFFFF" transform="matrix(1.00, 0.00, -0.00, -1.00, 336.3, 272.2)">a</text><text xml:space="preserve" font-family="Helvetica-Light,Helvetica" font-size="23.0" fill="#FEFFFF" transform="matrix(1.00, 0.00, -0.00, -1.00, 349.1, 272.2)">s</text><text xml:space="preserve" font-family="Helvetica-Light,Helvetica" font-size="23.0" fill="#FEFFFF" transform="matrix(1.00, 0.00, -0.00, -1.00, 360.6, 272.2)">B</text><text xml:space="preserve" font-family="Helvetica-Light,Helvetica" font-size="23.0" fill="#FEFFFF" transform="matrix(1.00, 0.00, -0.00, -1.00, 375.9, 272.2)">r</text><text xml:space="preserve" font-family="Helvetica-Light,Helvetica" font-size="23.0" fill="#FEFFFF" transform="matrix(1.00, 0.00, -0.00, -1.00, 383.6, 272.2)">a</text><text xml:space="preserve" font-family="Helvetica-Light,Helvetica" font-size="23.0" fill="#FEFFFF" transform="matrix(1.00, 0.00, -0.00, -1.00, 396.3, 272.2)">i</text><text xml:space="preserve" font-family="Helvetica-Light,Helvetica" font-size="23.0" fill="#FEFFFF" transform="matrix(1.00, 0.00, -0.00, -1.00, 401.5, 272.2)">n</text><text xml:space="preserve" font-family="Helvetica-Light,Helvetica" font-size="23.0" fill="#FEFFFF" transform="matrix(1.00, 0.00, -0.00, -1.00, 784.4, 270.7)">@</text><text xml:space="preserve" font-family="Helvetica-Light,Helvetica" font-size="23.0" fill="#FEFFFF" transform="matrix(1.00, 0.00, -0.00, -1.00, 802.8, 270.7)">r</text><text xml:space="preserve" font-family="Helvetica-Light,Helvetica" font-size="23.0" fill="#FEFFFF" transform="matrix(1.00, 0.00, -0.00, -1.00, 810.5, 270.7)">a</text><text xml:space="preserve" font-family="Helvetica-Light,Helvetica" font-size="23.0" fill="#FEFFFF" transform="matrix(1.00, 0.00, -0.00, -1.00, 823.3, 270.7)">c</text><text xml:space="preserve" font-family="Helvetica-Light,Helvetica" font-size="23.0" fill="#FEFFFF" transform="matrix(1.00, 0.00, -0.00, -1.00, 836.1, 270.7)">h</text><text xml:space="preserve" font-family="Helvetica-Light,Helvetica" font-size="23.0" fill="#FEFFFF" transform="matrix(1.00, 0.00, -0.00, -1.00, 848.9, 270.7)">e</text><text xml:space="preserve" font-family="Helvetica-Light,Helvetica" font-size="23.0" fill="#FEFFFF" transform="matrix(1.00, 0.00, -0.00, -1.00, 861.7, 270.7)">l</text><text xml:space="preserve" font-family="Helvetica-Light,Helvetica" font-size="23.0" fill="#FEFFFF" transform="matrix(1.00, 0.00, -0.00, -1.00, 866.8, 270.7)">n</text><text xml:space="preserve" font-family="Helvetica-Light,Helvetica" font-size="23.0" fill="#FEFFFF" transform="matrix(1.00, 0.00, -0.00, -1.00, 879.6, 270.7)">a</text><text xml:space="preserve" font-family="Helvetica-Light,Helvetica" font-size="23.0" fill="#FEFFFF" transform="matrix(1.00, 0.00, -0.00, -1.00, 892.3, 270.7)">b</text><text xml:space="preserve" font-family="Helvetica-Light,Helvetica" font-size="23.0" fill="#FEFFFF" transform="matrix(1.00, 0.00, -0.00, -1.00, 906.4, 270.7)">o</text><text xml:space="preserve" font-family="Helvetica-Light,Helvetica" font-size="23.0" fill="#FEFFFF" transform="matrix(1.00, 0.00, -0.00, -1.00, 919.2, 270.7)">r</text><text xml:space="preserve" font-family="Helvetica-Light,Helvetica" font-size="23.0" fill="#FEFFFF" transform="matrix(1.00, 0.00, -0.00, -1.00, 926.8, 270.7)">s</text><text xml:space="preserve" font-family="Helvetica-Light,Helvetica" font-size="23.0" fill="#FEFFFF" transform="matrix(1.00, 0.00, -0.00, -1.00, 81.2, 272.2)">@</text><text xml:space="preserve" font-family="Helvetica-Light,Helvetica" font-size="23.0" fill="#FEFFFF" transform="matrix(1.00, 0.00, -0.00, -1.00, 99.6, 272.2)">S</text><text xml:space="preserve" font-family="Helvetica-Light,Helvetica" font-size="23.0" fill="#FEFFFF" transform="matrix(1.00, 0.00, -0.00, -1.00, 113.6, 272.2)">a</text><text xml:space="preserve" font-family="Helvetica-Light,Helvetica" font-size="23.0" fill="#FEFFFF" transform="matrix(1.00, 0.00, -0.00, -1.00, 126.4, 272.2)">r</text><text xml:space="preserve" font-family="Helvetica-Light,Helvetica" font-size="23.0" fill="#FEFFFF" transform="matrix(1.00, 0.00, -0.00, -1.00, 134.1, 272.2)">a</text><text xml:space="preserve" font-family="Helvetica-Light,Helvetica" font-size="23.0" fill="#FEFFFF" transform="matrix(1.00, 0.00, -0.00, -1.00, 146.9, 272.2)">S</text><text xml:space="preserve" font-family="Helvetica-Light,Helvetica" font-size="23.0" fill="#FEFFFF" transform="matrix(1.00, 0.00, -0.00, -1.00, 160.9, 272.2)">o</text><text xml:space="preserve" font-family="Helvetica-Light,Helvetica" font-size="23.0" fill="#FEFFFF" transform="matrix(1.00, 0.00, -0.00, -1.00, 173.7, 272.2)">u</text><text xml:space="preserve" font-family="Helvetica-Light,Helvetica" font-size="23.0" fill="#FEFFFF" transform="matrix(1.00, 0.00, -0.00, -1.00, 186.5, 272.2)">e</text><text xml:space="preserve" font-family="Helvetica-Light,Helvetica" font-size="23.0" fill="#FEFFFF" transform="matrix(1.00, 0.00, -0.00, -1.00, 199.3, 272.2)">i</text><text xml:space="preserve" font-family="Helvetica-Light,Helvetica" font-size="23.0" fill="#FEFFFF" transform="matrix(1.00, 0.00, -0.00, -1.00, 204.4, 272.2)">d</text><text xml:space="preserve" font-family="Helvetica-Light,Helvetica" font-size="23.0" fill="#FEFFFF" transform="matrix(1.00, 0.00, -0.00, -1.00, 218.5, 272.2)">a</text><text xml:space="preserve" font-family="Helvetica-Light,Helvetica" font-size="23.0" fill="#FEFFFF" transform="matrix(1.00, 0.00, -0.00, -1.00, 231.2, 272.2)">n</text><text xml:space="preserve" font-family="Helvetica-Light,Helvetica" font-size="36.0" fill="#FEFFFF" transform="matrix(1.00, 0.00, -0.00, -1.00, 340.3, 160.1)">P</text><text xml:space="preserve" font-family="Helvetica-Light,Helvetica" font-size="36.0" fill="#FEFFFF" transform="matrix(1.00, 0.00, -0.00, -1.00, 362.3, 160.1)">u</text><text xml:space="preserve" font-family="Helvetica-Light,Helvetica" font-size="36.0" fill="#FEFFFF" transform="matrix(1.00, 0.00, -0.00, -1.00, 382.3, 160.1)">s</text><text xml:space="preserve" font-family="Helvetica-Light,Helvetica" font-size="36.0" fill="#FEFFFF" transform="matrix(1.00, 0.00, -0.00, -1.00, 400.3, 160.1)">h</text><text xml:space="preserve" font-family="Helvetica-Light,Helvetica" font-size="36.0" fill="#FEFFFF" transform="matrix(1.00, 0.00, -0.00, -1.00, 420.3, 160.1)">i</text><text xml:space="preserve" font-family="Helvetica-Light,Helvetica" font-size="36.0" fill="#FEFFFF" transform="matrix(1.00, 0.00, -0.00, -1.00, 428.3, 160.1)">n</text><text xml:space="preserve" font-family="Helvetica-Light,Helvetica" font-size="36.0" fill="#FEFFFF" transform="matrix(1.00, 0.00, -0.00, -1.00, 448.3, 160.1)">g</text><text xml:space="preserve" font-family="Helvetica-Light,Helvetica" font-size="36.0" fill="#FEFFFF" transform="matrix(1.00, 0.00, -0.00, -1.00, 470.3, 160.1)"> </text><text xml:space="preserve" font-family="Helvetica-Light,Helvetica" font-size="36.0" fill="#FEFFFF" transform="matrix(1.00, 0.00, -0.00, -1.00, 480.3, 160.1)">f</text><text xml:space="preserve" font-family="Helvetica-Light,Helvetica" font-size="36.0" fill="#FEFFFF" transform="matrix(1.00, 0.00, -0.00, -1.00, 490.3, 160.1)">o</text><text xml:space="preserve" font-family="Helvetica-Light,Helvetica" font-size="36.0" fill="#FEFFFF" transform="matrix(1.00, 0.00, -0.00, -1.00, 510.4, 160.1)">r</text><text xml:space="preserve" font-family="Helvetica-Light,Helvetica" font-size="36.0" fill="#FEFFFF" transform="matrix(1.00, 0.00, -0.00, -1.00, 522.4, 160.1)">w</text><text xml:space="preserve" font-family="Helvetica-Light,Helvetica" font-size="36.0" fill="#FEFFFF" transform="matrix(1.00, 0.00, -0.00, -1.00, 548.3, 160.1)">a</text><text xml:space="preserve" font-family="Helvetica-Light,Helvetica" font-size="36.0" fill="#FEFFFF" transform="matrix(1.00, 0.00, -0.00, -1.00, 568.4, 160.1)">r</text><text xml:space="preserve" font-family="Helvetica-Light,Helvetica" font-size="36.0" fill="#FEFFFF" transform="matrix(1.00, 0.00, -0.00, -1.00, 579.7, 160.1)">d</text><text xml:space="preserve" font-family="Helvetica-Light,Helvetica" font-size="36.0" fill="#FEFFFF" transform="matrix(1.00, 0.00, -0.00, -1.00, 601.7, 160.1)"> </text><text xml:space="preserve" font-family="Helvetica-Light,Helvetica" font-size="36.0" fill="#FEFFFF" transform="matrix(1.00, 0.00, -0.00, -1.00, 611.7, 160.1)">S</text><text xml:space="preserve" font-family="Helvetica-Light,Helvetica" font-size="36.0" fill="#FEFFFF" transform="matrix(1.00, 0.00, -0.00, -1.00, 633.7, 160.1)">V</text><text xml:space="preserve" font-family="Helvetica-Light,Helvetica" font-size="36.0" fill="#FEFFFF" transform="matrix(1.00, 0.00, -0.00, -1.00, 655.7, 160.1)">G</text><text xml:space="preserve" font-family="Helvetica-Light,Helvetica" font-size="36.0" fill="#FEFFFF" transform="matrix(1.00, 0.00, -0.00, -1.00, 683.7, 160.1)"> </text><text xml:space="preserve" font-family="Helvetica-Light,Helvetica" font-size="36.0" fill="#FEFFFF" transform="matrix(1.00, 0.00, -0.00, -1.00, 247.9, 117.1)">S</text><text xml:space="preserve" font-family="Helvetica-Light,Helvetica" font-size="36.0" fill="#FEFFFF" transform="matrix(1.00, 0.00, -0.00, -1.00, 269.9, 117.1)">h</text><text xml:space="preserve" font-family="Helvetica-Light,Helvetica" font-size="36.0" fill="#FEFFFF" transform="matrix(1.00, 0.00, -0.00, -1.00, 289.9, 117.1)">a</text><text xml:space="preserve" font-family="Helvetica-Light,Helvetica" font-size="36.0" fill="#FEFFFF" transform="matrix(1.00, 0.00, -0.00, -1.00, 309.9, 117.1)">r</text><text xml:space="preserve" font-family="Helvetica-Light,Helvetica" font-size="36.0" fill="#FEFFFF" transform="matrix(1.00, 0.00, -0.00, -1.00, 321.9, 117.1)">i</text><text xml:space="preserve" font-family="Helvetica-Light,Helvetica" font-size="36.0" fill="#FEFFFF" transform="matrix(1.00, 0.00, -0.00, -1.00, 329.9, 117.1)">n</text><text xml:space="preserve" font-family="Helvetica-Light,Helvetica" font-size="36.0" fill="#FEFFFF" transform="matrix(1.00, 0.00, -0.00, -1.00, 349.9, 117.1)">g</text><text xml:space="preserve" font-family="Helvetica-Light,Helvetica" font-size="36.0" fill="#FEFFFF" transform="matrix(1.00, 0.00, -0.00, -1.00, 371.9, 117.1)"> </text><text xml:space="preserve" font-family="Helvetica-Light,Helvetica" font-size="36.0" fill="#FEFFFF" transform="matrix(1.00, 0.00, -0.00, -1.00, 381.9, 117.1)">b</text><text xml:space="preserve" font-family="Helvetica-Light,Helvetica" font-size="36.0" fill="#FEFFFF" transform="matrix(1.00, 0.00, -0.00, -1.00, 403.9, 117.1)">e</text><text xml:space="preserve" font-family="Helvetica-Light,Helvetica" font-size="36.0" fill="#FEFFFF" transform="matrix(1.00, 0.00, -0.00, -1.00, 423.9, 117.1)">s</text><text xml:space="preserve" font-family="Helvetica-Light,Helvetica" font-size="36.0" fill="#FEFFFF" transform="matrix(1.00, 0.00, -0.00, -1.00, 441.9, 117.1)">t</text><text xml:space="preserve" font-family="Helvetica-Light,Helvetica" font-size="36.0" fill="#FEFFFF" transform="matrix(1.00, 0.00, -0.00, -1.00, 452.0, 117.1)"> </text><text xml:space="preserve" font-family="Helvetica-Light,Helvetica" font-size="36.0" fill="#FEFFFF" transform="matrix(1.00, 0.00, -0.00, -1.00, 462.0, 117.1)">p</text><text xml:space="preserve" font-family="Helvetica-Light,Helvetica" font-size="36.0" fill="#FEFFFF" transform="matrix(1.00, 0.00, -0.00, -1.00, 484.0, 117.1)">r</text><text xml:space="preserve" font-family="Helvetica-Light,Helvetica" font-size="36.0" fill="#FEFFFF" transform="matrix(1.00, 0.00, -0.00, -1.00, 495.9, 117.1)">a</text><text xml:space="preserve" font-family="Helvetica-Light,Helvetica" font-size="36.0" fill="#FEFFFF" transform="matrix(1.00, 0.00, -0.00, -1.00, 516.0, 117.1)">c</text><text xml:space="preserve" font-family="Helvetica-Light,Helvetica" font-size="36.0" fill="#FEFFFF" transform="matrix(1.00, 0.00, -0.00, -1.00, 536.0, 117.1)">t</text><text xml:space="preserve" font-family="Helvetica-Light,Helvetica" font-size="36.0" fill="#FEFFFF" transform="matrix(1.00, 0.00, -0.00, -1.00, 546.0, 117.1)">i</text><text xml:space="preserve" font-family="Helvetica-Light,Helvetica" font-size="36.0" fill="#FEFFFF" transform="matrix(1.00, 0.00, -0.00, -1.00, 554.0, 117.1)">c</text><text xml:space="preserve" font-family="Helvetica-Light,Helvetica" font-size="36.0" fill="#FEFFFF" transform="matrix(1.00, 0.00, -0.00, -1.00, 574.0, 117.1)">e</text><text xml:space="preserve" font-family="Helvetica-Light,Helvetica" font-size="36.0" fill="#FEFFFF" transform="matrix(1.00, 0.00, -0.00, -1.00, 594.0, 117.1)">s</text><text xml:space="preserve" font-family="Helvetica-Light,Helvetica" font-size="36.0" fill="#FEFFFF" transform="matrix(1.00, 0.00, -0.00, -1.00, 612.0, 117.1)"> </text><text xml:space="preserve" font-family="Helvetica-Light,Helvetica" font-size="36.0" fill="#FEFFFF" transform="matrix(1.00, 0.00, -0.00, -1.00, 622.0, 117.1)">a</text><text xml:space="preserve" font-family="Helvetica-Light,Helvetica" font-size="36.0" fill="#FEFFFF" transform="matrix(1.00, 0.00, -0.00, -1.00, 642.0, 117.1)">n</text><text xml:space="preserve" font-family="Helvetica-Light,Helvetica" font-size="36.0" fill="#FEFFFF" transform="matrix(1.00, 0.00, -0.00, -1.00, 662.0, 117.1)">d</text><text xml:space="preserve" font-family="Helvetica-Light,Helvetica" font-size="36.0" fill="#FEFFFF" transform="matrix(1.00, 0.00, -0.00, -1.00, 684.0, 117.1)"> </text><text xml:space="preserve" font-family="Helvetica-Light,Helvetica" font-size="36.0" fill="#FEFFFF" transform="matrix(1.00, 0.00, -0.00, -1.00, 694.1, 117.1)">c</text><text xml:space="preserve" font-family="Helvetica-Light,Helvetica" font-size="36.0" fill="#FEFFFF" transform="matrix(1.00, 0.00, -0.00, -1.00, 714.1, 117.1)">o</text><text xml:space="preserve" font-family="Helvetica-Light,Helvetica" font-size="36.0" fill="#FEFFFF" transform="matrix(1.00, 0.00, -0.00, -1.00, 734.1, 117.1)">d</text><text xml:space="preserve" font-family="Helvetica-Light,Helvetica" font-size="36.0" fill="#FEFFFF" transform="matrix(1.00, 0.00, -0.00, -1.00, 756.1, 117.1)">e</text></g></svg>