<?xml version="1.0" encoding="UTF-8" standalone="no"?><svg xmlns="http://www.w3.org/2000/svg" xmlns:xlink="http://www.w3.org/1999/xlink" clip-rule="evenodd" stroke-miterlimit="10" viewBox="0 0 1024 768"><desc>SVG generated by Keynote</desc><defs></defs><g transform="matrix(1.00, 0.00, -0.00, -1.00, 0.0, 768.0)"><path d="M 0.0 768.0 L 1024.0 768.0 L 1024.0 0.0 L 0.0 0.0 Z M 0.0 768.0 " fill="#000000"></path><image xlink:href="../../D0016EE5-C6A1-4122-A48B-E773ABC55EF3/assets/764BB5B23F368F0C5A4B6DC210890366.png" width="600.00" height="300.00" transform="matrix(1.35, 0.00, -0.00, -1.35, 194.4, 529.4)"></image><text xml:space="preserve" font-family="AvenirNext-Regular,Avenir Next" font-size="60.0" fill="#FEFFFF" transform="matrix(1.00, 0.00, -0.00, -1.00, 105.3, 606.1)">D</text><text xml:space="preserve" font-family="AvenirNext-Regular,Avenir Next" font-size="60.0" fill="#FEFFFF" transform="matrix(1.00, 0.00, -0.00, -1.00, 150.7, 606.1)">i</text><text xml:space="preserve" font-family="AvenirNext-Regular,Avenir Next" font-size="60.0" fill="#FEFFFF" transform="matrix(1.00, 0.00, -0.00, -1.00, 165.7, 606.1)">s</text><text xml:space="preserve" font-family="AvenirNext-Regular,Avenir Next" font-size="60.0" fill="#FEFFFF" transform="matrix(1.00, 0.00, -0.00, -1.00, 192.3, 606.1)">c</text><text xml:space="preserve" font-family="AvenirNext-Regular,Avenir Next" font-size="60.0" fill="#FEFFFF" transform="matrix(1.00, 0.00, -0.00, -1.00, 222.3, 606.1)">l</text><text xml:space="preserve" font-family="AvenirNext-Regular,Avenir Next" font-size="60.0" fill="#FEFFFF" transform="matrix(1.00, 0.00, -0.00, -1.00, 237.4, 606.1)">a</text><text xml:space="preserve" font-family="AvenirNext-Regular,Avenir Next" font-size="60.0" fill="#FEFFFF" transform="matrix(1.00, 0.00, -0.00, -1.00, 269.5, 606.1)">i</text><text xml:space="preserve" font-family="AvenirNext-Regular,Avenir Next" font-size="60.0" fill="#FEFFFF" transform="matrix(1.00, 0.00, -0.00, -1.00, 284.5, 606.1)">m</text><text xml:space="preserve" font-family="AvenirNext-Regular,Avenir Next" font-size="60.0" fill="#FEFFFF" transform="matrix(1.00, 0.00, -0.00, -1.00, 337.5, 606.1)">e</text><text xml:space="preserve" font-family="AvenirNext-Regular,Avenir Next" font-size="60.0" fill="#FEFFFF" transform="matrix(1.00, 0.00, -0.00, -1.00, 371.8, 606.1)">r</text><text xml:space="preserve" font-family="AvenirNext-Regular,Avenir Next" font-size="60.0" fill="#FEFFFF" transform="matrix(1.00, 0.00, -0.00, -1.00, 393.4, 606.1)">:</text><text xml:space="preserve" font-family="AvenirNext-Regular,Avenir Next" font-size="60.0" fill="#FEFFFF" transform="matrix(1.00, 0.00, -0.00, -1.00, 411.4, 606.1)"> </text><text xml:space="preserve" font-family="AvenirNext-Regular,Avenir Next" font-size="60.0" fill="#FEFFFF" transform="matrix(1.00, 0.00, -0.00, -1.00, 426.4, 606.1)">I</text><text xml:space="preserve" font-family="AvenirNext-Regular,Avenir Next" font-size="60.0" fill="#FEFFFF" transform="matrix(1.00, 0.00, -0.00, -1.00, 442.0, 606.1)">’</text><text xml:space="preserve" font-family="AvenirNext-Regular,Avenir Next" font-size="60.0" fill="#FEFFFF" transform="matrix(1.00, 0.00, -0.00, -1.00, 455.3, 606.1)">m</text><text xml:space="preserve" font-family="AvenirNext-Regular,Avenir Next" font-size="60.0" fill="#FEFFFF" transform="matrix(1.00, 0.00, -0.00, -1.00, 508.3, 606.1)"> </text><text xml:space="preserve" font-family="AvenirNext-Regular,Avenir Next" font-size="60.0" fill="#FEFFFF" transform="matrix(1.00, 0.00, -0.00, -1.00, 523.3, 606.1)">n</text><text xml:space="preserve" font-family="AvenirNext-Regular,Avenir Next" font-size="60.0" fill="#FEFFFF" transform="matrix(1.00, 0.00, -0.00, -1.00, 558.1, 606.1)">o</text><text xml:space="preserve" font-family="AvenirNext-Regular,Avenir Next" font-size="60.0" fill="#FEFFFF" transform="matrix(1.00, 0.00, -0.00, -1.00, 594.8, 606.1)">t</text><text xml:space="preserve" font-family="AvenirNext-Regular,Avenir Next" font-size="60.0" fill="#FEFFFF" transform="matrix(1.00, 0.00, -0.00, -1.00, 613.8, 606.1)"> </text><text xml:space="preserve" font-family="AvenirNext-Regular,Avenir Next" font-size="60.0" fill="#FEFFFF" transform="matrix(1.00, 0.00, -0.00, -1.00, 628.8, 606.1)">a</text><text xml:space="preserve" font-family="AvenirNext-Regular,Avenir Next" font-size="60.0" fill="#FEFFFF" transform="matrix(1.00, 0.00, -0.00, -1.00, 660.9, 606.1)"> </text><text xml:space="preserve" font-family="AvenirNext-Regular,Avenir Next" font-size="60.0" fill="#FEFFFF" transform="matrix(1.00, 0.00, -0.00, -1.00, 675.9, 606.1)">d</text><text xml:space="preserve" font-family="AvenirNext-Regular,Avenir Next" font-size="60.0" fill="#FEFFFF" transform="matrix(1.00, 0.00, -0.00, -1.00, 714.1, 606.1)">e</text><text xml:space="preserve" font-family="AvenirNext-Regular,Avenir Next" font-size="60.0" fill="#FEFFFF" transform="matrix(1.00, 0.00, -0.00, -1.00, 748.4, 606.1)">s</text><text xml:space="preserve" font-family="AvenirNext-Regular,Avenir Next" font-size="60.0" fill="#FEFFFF" transform="matrix(1.00, 0.00, -0.00, -1.00, 775.0, 606.1)">i</text><text xml:space="preserve" font-family="AvenirNext-Regular,Avenir Next" font-size="60.0" fill="#FEFFFF" transform="matrix(1.00, 0.00, -0.00, -1.00, 790.0, 606.1)">g</text><text xml:space="preserve" font-family="AvenirNext-Regular,Avenir Next" font-size="60.0" fill="#FEFFFF" transform="matrix(1.00, 0.00, -0.00, -1.00, 828.0, 606.1)">n</text><text xml:space="preserve" font-family="AvenirNext-Regular,Avenir Next" font-size="60.0" fill="#FEFFFF" transform="matrix(1.00, 0.00, -0.00, -1.00, 862.8, 606.1)">e</text><text xml:space="preserve" font-family="AvenirNext-Regular,Avenir Next" font-size="60.0" fill="#FEFFFF" transform="matrix(1.00, 0.00, -0.00, -1.00, 897.1, 606.1)">r</text><image xlink:href="../../D0016EE5-C6A1-4122-A48B-E773ABC55EF3/assets/CF3845EE6053C226F52A6D6646B5AFEC.png" width="350.00" height="211.00" transform="matrix(1.11, 0.00, -0.00, -1.11, 45.7, 501.5)"></image></g></svg>