<?xml version="1.0" encoding="UTF-8" standalone="no"?><svg xmlns="http://www.w3.org/2000/svg" xmlns:xlink="http://www.w3.org/1999/xlink" clip-rule="evenodd" stroke-miterlimit="10" viewBox="0 0 1024 768"><desc>SVG generated by Keynote</desc><defs></defs><g transform="matrix(1.00, 0.00, -0.00, -1.00, 0.0, 768.0)"><path d="M 0.0 768.0 L 1024.0 768.0 L 1024.0 0.0 L 0.0 0.0 Z M 0.0 768.0 " fill="#000000"></path><text xml:space="preserve" font-family="AvenirNext-Regular,Avenir Next" font-size="35.2" fill="#FEFFFF" transform="matrix(1.00, 0.00, -0.00, -1.00, 697.0, 640.0)">n</text><text xml:space="preserve" font-family="AvenirNext-Regular,Avenir Next" font-size="35.2" fill="#FEFFFF" transform="matrix(1.00, 0.00, -0.00, -1.00, 717.4, 640.0)">o</text><text xml:space="preserve" font-family="AvenirNext-Regular,Avenir Next" font-size="35.2" fill="#FEFFFF" transform="matrix(1.00, 0.00, -0.00, -1.00, 739.0, 640.0)"> </text><text xml:space="preserve" font-family="AvenirNext-DemiBold,Avenir Next" font-weight="bold" font-size="35.2" fill="#FEFFFF" transform="matrix(1.00, 0.00, -0.00, -1.00, 541.7, 592.0)">“</text><text xml:space="preserve" font-family="AvenirNext-DemiBold,Avenir Next" font-weight="bold" font-size="35.2" fill="#FEFFFF" transform="matrix(1.00, 0.00, -0.00, -1.00, 558.1, 592.0)">s</text><text xml:space="preserve" font-family="AvenirNext-DemiBold,Avenir Next" font-weight="bold" font-size="35.2" fill="#FEFFFF" transform="matrix(1.00, 0.00, -0.00, -1.00, 573.7, 592.0)">t</text><text xml:space="preserve" font-family="AvenirNext-DemiBold,Avenir Next" font-weight="bold" font-size="35.2" fill="#FEFFFF" transform="matrix(1.00, 0.00, -0.00, -1.00, 585.7, 592.0)">r</text><text xml:space="preserve" font-family="AvenirNext-DemiBold,Avenir Next" font-weight="bold" font-size="35.2" fill="#FEFFFF" transform="matrix(1.00, 0.00, -0.00, -1.00, 598.5, 592.0)">u</text><text xml:space="preserve" font-family="AvenirNext-DemiBold,Avenir Next" font-weight="bold" font-size="35.2" fill="#FEFFFF" transform="matrix(1.00, 0.00, -0.00, -1.00, 619.0, 592.0)">c</text><text xml:space="preserve" font-family="AvenirNext-DemiBold,Avenir Next" font-weight="bold" font-size="35.2" fill="#FEFFFF" transform="matrix(1.00, 0.00, -0.00, -1.00, 636.2, 592.0)">t</text><text xml:space="preserve" font-family="AvenirNext-DemiBold,Avenir Next" font-weight="bold" font-size="35.2" fill="#FEFFFF" transform="matrix(1.00, 0.00, -0.00, -1.00, 648.1, 592.0)">u</text><text xml:space="preserve" font-family="AvenirNext-DemiBold,Avenir Next" font-weight="bold" font-size="35.2" fill="#FEFFFF" transform="matrix(1.00, 0.00, -0.00, -1.00, 668.6, 592.0)">r</text><text xml:space="preserve" font-family="AvenirNext-DemiBold,Avenir Next" font-weight="bold" font-size="35.2" fill="#FEFFFF" transform="matrix(1.00, 0.00, -0.00, -1.00, 680.8, 592.0)">e</text><text xml:space="preserve" font-family="AvenirNext-DemiBold,Avenir Next" font-weight="bold" font-size="35.2" fill="#FEFFFF" transform="matrix(1.00, 0.00, -0.00, -1.00, 701.0, 592.0)">”</text><text xml:space="preserve" font-family="AvenirNext-DemiBold,Avenir Next" font-weight="bold" font-size="35.2" fill="#FEFFFF" transform="matrix(1.00, 0.00, -0.00, -1.00, 717.4, 592.0)"> </text><text xml:space="preserve" font-family="AvenirNext-DemiBold,Avenir Next" font-weight="bold" font-size="35.2" fill="#FEFFFF" transform="matrix(1.00, 0.00, -0.00, -1.00, 726.2, 592.0)">p</text><text xml:space="preserve" font-family="AvenirNext-DemiBold,Avenir Next" font-weight="bold" font-size="35.2" fill="#FEFFFF" transform="matrix(1.00, 0.00, -0.00, -1.00, 748.5, 592.0)">r</text><text xml:space="preserve" font-family="AvenirNext-DemiBold,Avenir Next" font-weight="bold" font-size="35.2" fill="#FEFFFF" transform="matrix(1.00, 0.00, -0.00, -1.00, 760.6, 592.0)">o</text><text xml:space="preserve" font-family="AvenirNext-DemiBold,Avenir Next" font-weight="bold" font-size="35.2" fill="#FEFFFF" transform="matrix(1.00, 0.00, -0.00, -1.00, 782.1, 592.0)">p</text><text xml:space="preserve" font-family="AvenirNext-DemiBold,Avenir Next" font-weight="bold" font-size="35.2" fill="#FEFFFF" transform="matrix(1.00, 0.00, -0.00, -1.00, 804.4, 592.0)">e</text><text xml:space="preserve" font-family="AvenirNext-DemiBold,Avenir Next" font-weight="bold" font-size="35.2" fill="#FEFFFF" transform="matrix(1.00, 0.00, -0.00, -1.00, 824.6, 592.0)">r</text><text xml:space="preserve" font-family="AvenirNext-DemiBold,Avenir Next" font-weight="bold" font-size="35.2" fill="#FEFFFF" transform="matrix(1.00, 0.00, -0.00, -1.00, 837.0, 592.0)">t</text><text xml:space="preserve" font-family="AvenirNext-DemiBold,Avenir Next" font-weight="bold" font-size="35.2" fill="#FEFFFF" transform="matrix(1.00, 0.00, -0.00, -1.00, 849.0, 592.0)">i</text><text xml:space="preserve" font-family="AvenirNext-DemiBold,Avenir Next" font-weight="bold" font-size="35.2" fill="#FEFFFF" transform="matrix(1.00, 0.00, -0.00, -1.00, 858.4, 592.0)">e</text><text xml:space="preserve" font-family="AvenirNext-DemiBold,Avenir Next" font-weight="bold" font-size="35.2" fill="#FEFFFF" transform="matrix(1.00, 0.00, -0.00, -1.00, 878.6, 592.0)">s</text><text xml:space="preserve" font-family="AvenirNext-DemiBold,Avenir Next" font-weight="bold" font-size="35.2" fill="#FEFFFF" transform="matrix(1.00, 0.00, -0.00, -1.00, 894.2, 592.0)"> </text><text xml:space="preserve" font-family="AvenirNext-Regular,Avenir Next" font-size="35.2" fill="#FEFFFF" transform="matrix(1.00, 0.00, -0.00, -1.00, 658.7, 544.0)">v</text><text xml:space="preserve" font-family="AvenirNext-Regular,Avenir Next" font-size="35.2" fill="#FEFFFF" transform="matrix(1.00, 0.00, -0.00, -1.00, 675.8, 544.0)">i</text><text xml:space="preserve" font-family="AvenirNext-Regular,Avenir Next" font-size="35.2" fill="#FEFFFF" transform="matrix(1.00, 0.00, -0.00, -1.00, 684.6, 544.0)">a</text><text xml:space="preserve" font-family="AvenirNext-Regular,Avenir Next" font-size="35.2" fill="#FEFFFF" transform="matrix(1.00, 0.00, -0.00, -1.00, 703.4, 544.0)"> </text><text xml:space="preserve" font-family="AvenirNext-Regular,Avenir Next" font-size="35.2" fill="#FEFFFF" transform="matrix(1.00, 0.00, -0.00, -1.00, 712.2, 544.0)">C</text><text xml:space="preserve" font-family="AvenirNext-Regular,Avenir Next" font-size="35.2" fill="#FEFFFF" transform="matrix(1.00, 0.00, -0.00, -1.00, 737.6, 544.0)">S</text><text xml:space="preserve" font-family="AvenirNext-Regular,Avenir Next" font-size="35.2" fill="#FEFFFF" transform="matrix(1.00, 0.00, -0.00, -1.00, 757.4, 544.0)">S</text><text xml:space="preserve" font-family="AvenirNext-Regular,Avenir Next" font-size="35.2" fill="#FEFFFF" transform="matrix(1.00, 0.00, -0.00, -1.00, 777.3, 544.0)"> </text><image xlink:href="../../59AA95EF-D4DA-48AF-ABC3-BCE7DE2181FF/assets/5A8C3E103027855B1F1FED89D9DCA2AE.png" width="1173.00" height="1500.00" transform="matrix(0.51, 0.00, -0.00, -0.51, -182.0, 768.0)"></image></g></svg>