<?xml version="1.0" encoding="UTF-8" standalone="no"?><svg xmlns="http://www.w3.org/2000/svg" xmlns:xlink="http://www.w3.org/1999/xlink" clip-rule="evenodd" stroke-miterlimit="10" viewBox="0 0 365 267"><desc>SVG generated by Keynote</desc><defs></defs><g transform="matrix(1.00, 0.00, -0.00, -1.00, 0.0, 267.0)"><text xml:space="preserve" font-family="Helvetica-Bold,Helvetica" font-weight="bold" font-size="56.0" fill="#FEFFFF" transform="matrix(1.00, 0.00, -0.00, -1.00, 112.5, 225.0)">2</text><text xml:space="preserve" font-family="Helvetica-Bold,Helvetica" font-weight="bold" font-size="56.0" fill="#FEFFFF" transform="matrix(1.00, 0.00, -0.00, -1.00, 143.6, 225.0)">0</text><text xml:space="preserve" font-family="Helvetica-Bold,Helvetica" font-weight="bold" font-size="56.0" fill="#FEFFFF" transform="matrix(1.00, 0.00, -0.00, -1.00, 174.8, 225.0)">0</text><text xml:space="preserve" font-family="Helvetica-Bold,Helvetica" font-weight="bold" font-size="56.0" fill="#FEFFFF" transform="matrix(1.00, 0.00, -0.00, -1.00, 205.9, 225.0)">1</text><text xml:space="preserve" font-family="Helvetica-Bold,Helvetica" font-weight="bold" font-size="52.0" fill="#FEFFFF" transform="matrix(1.00, 0.00, -0.00, -1.00, 237.1, 225.0)">.</text><text xml:space="preserve" font-family="Helvetica-Bold,Helvetica" font-weight="bold" font-size="37.0" fill="#FEFFFF" transform="matrix(1.00, 0.00, -0.00, -1.00, 31.8, 176.7)">S</text><text xml:space="preserve" font-family="Helvetica-Bold,Helvetica" font-weight="bold" font-size="37.0" fill="#FEFFFF" transform="matrix(1.00, 0.00, -0.00, -1.00, 56.5, 176.7)">V</text><text xml:space="preserve" font-family="Helvetica-Bold,Helvetica" font-weight="bold" font-size="37.0" fill="#FEFFFF" transform="matrix(1.00, 0.00, -0.00, -1.00, 81.2, 176.7)">G</text><text xml:space="preserve" font-family="Helvetica-Bold,Helvetica" font-weight="bold" font-size="37.0" fill="#FEFFFF" transform="matrix(1.00, 0.00, -0.00, -1.00, 110.0, 176.7)"> </text><text xml:space="preserve" font-family="Helvetica-Bold,Helvetica" font-weight="bold" font-size="37.0" fill="#FEFFFF" transform="matrix(1.00, 0.00, -0.00, -1.00, 120.2, 176.7)">1</text><text xml:space="preserve" font-family="Helvetica-Bold,Helvetica" font-weight="bold" font-size="37.0" fill="#FEFFFF" transform="matrix(1.00, 0.00, -0.00, -1.00, 140.8, 176.7)">.</text><text xml:space="preserve" font-family="Helvetica-Bold,Helvetica" font-weight="bold" font-size="37.0" fill="#FEFFFF" transform="matrix(1.00, 0.00, -0.00, -1.00, 151.1, 176.7)">0</text><text xml:space="preserve" font-family="Helvetica-Bold,Helvetica" font-weight="bold" font-size="37.0" fill="#FEFFFF" transform="matrix(1.00, 0.00, -0.00, -1.00, 171.7, 176.7)"> </text><text xml:space="preserve" font-family="Helvetica-Bold,Helvetica" font-weight="bold" font-size="37.0" fill="#FEFFFF" transform="matrix(1.00, 0.00, -0.00, -1.00, 182.0, 176.7)">r</text><text xml:space="preserve" font-family="Helvetica-Bold,Helvetica" font-weight="bold" font-size="37.0" fill="#FEFFFF" transform="matrix(1.00, 0.00, -0.00, -1.00, 196.4, 176.7)">e</text><text xml:space="preserve" font-family="Helvetica-Bold,Helvetica" font-weight="bold" font-size="37.0" fill="#FEFFFF" transform="matrix(1.00, 0.00, -0.00, -1.00, 216.9, 176.7)">l</text><text xml:space="preserve" font-family="Helvetica-Bold,Helvetica" font-weight="bold" font-size="37.0" fill="#FEFFFF" transform="matrix(1.00, 0.00, -0.00, -1.00, 227.2, 176.7)">e</text><text xml:space="preserve" font-family="Helvetica-Bold,Helvetica" font-weight="bold" font-size="37.0" fill="#FEFFFF" transform="matrix(1.00, 0.00, -0.00, -1.00, 247.8, 176.7)">a</text><text xml:space="preserve" font-family="Helvetica-Bold,Helvetica" font-weight="bold" font-size="37.0" fill="#FEFFFF" transform="matrix(1.00, 0.00, -0.00, -1.00, 268.4, 176.7)">s</text><text xml:space="preserve" font-family="Helvetica-Bold,Helvetica" font-weight="bold" font-size="37.0" fill="#FEFFFF" transform="matrix(1.00, 0.00, -0.00, -1.00, 289.0, 176.7)">e</text><text xml:space="preserve" font-family="Helvetica-Bold,Helvetica" font-weight="bold" font-size="37.0" fill="#FEFFFF" transform="matrix(1.00, 0.00, -0.00, -1.00, 309.6, 176.7)">d</text><text xml:space="preserve" font-family="Helvetica-Bold,Helvetica" font-weight="bold" font-size="37.0" fill="#FEFFFF" transform="matrix(1.00, 0.00, -0.00, -1.00, 332.1, 176.7)"> </text><text xml:space="preserve" font-family="Helvetica-Bold,Helvetica" font-weight="bold" font-size="37.0" fill="#FEFFFF" transform="matrix(1.00, 0.00, -0.00, -1.00, 1.0, 88.7)">A</text><text xml:space="preserve" font-family="Helvetica-Bold,Helvetica" font-weight="bold" font-size="37.0" fill="#FEFFFF" transform="matrix(1.00, 0.00, -0.00, -1.00, 27.7, 88.7)">d</text><text xml:space="preserve" font-family="Helvetica-Bold,Helvetica" font-weight="bold" font-size="37.0" fill="#FEFFFF" transform="matrix(1.00, 0.00, -0.00, -1.00, 50.3, 88.7)">o</text><text xml:space="preserve" font-family="Helvetica-Bold,Helvetica" font-weight="bold" font-size="37.0" fill="#FEFFFF" transform="matrix(1.00, 0.00, -0.00, -1.00, 72.9, 88.7)">b</text><text xml:space="preserve" font-family="Helvetica-Bold,Helvetica" font-weight="bold" font-size="37.0" fill="#FEFFFF" transform="matrix(1.00, 0.00, -0.00, -1.00, 95.5, 88.7)">e</text><text xml:space="preserve" font-family="Helvetica-Bold,Helvetica" font-weight="bold" font-size="37.0" fill="#FEFFFF" transform="matrix(1.00, 0.00, -0.00, -1.00, 116.1, 88.7)"> </text><text xml:space="preserve" font-family="Helvetica-Bold,Helvetica" font-weight="bold" font-size="37.0" fill="#FEFFFF" transform="matrix(1.00, 0.00, -0.00, -1.00, 126.4, 88.7)">r</text><text xml:space="preserve" font-family="Helvetica-Bold,Helvetica" font-weight="bold" font-size="37.0" fill="#FEFFFF" transform="matrix(1.00, 0.00, -0.00, -1.00, 140.8, 88.7)">e</text><text xml:space="preserve" font-family="Helvetica-Bold,Helvetica" font-weight="bold" font-size="37.0" fill="#FEFFFF" transform="matrix(1.00, 0.00, -0.00, -1.00, 161.4, 88.7)">l</text><text xml:space="preserve" font-family="Helvetica-Bold,Helvetica" font-weight="bold" font-size="37.0" fill="#FEFFFF" transform="matrix(1.00, 0.00, -0.00, -1.00, 171.6, 88.7)">e</text><text xml:space="preserve" font-family="Helvetica-Bold,Helvetica" font-weight="bold" font-size="37.0" fill="#FEFFFF" transform="matrix(1.00, 0.00, -0.00, -1.00, 192.2, 88.7)">a</text><text xml:space="preserve" font-family="Helvetica-Bold,Helvetica" font-weight="bold" font-size="37.0" fill="#FEFFFF" transform="matrix(1.00, 0.00, -0.00, -1.00, 212.8, 88.7)">s</text><text xml:space="preserve" font-family="Helvetica-Bold,Helvetica" font-weight="bold" font-size="37.0" fill="#FEFFFF" transform="matrix(1.00, 0.00, -0.00, -1.00, 233.4, 88.7)">e</text><text xml:space="preserve" font-family="Helvetica-Bold,Helvetica" font-weight="bold" font-size="37.0" fill="#FEFFFF" transform="matrix(1.00, 0.00, -0.00, -1.00, 254.0, 88.7)">s</text><text xml:space="preserve" font-family="Helvetica-Bold,Helvetica" font-weight="bold" font-size="37.0" fill="#FEFFFF" transform="matrix(1.00, 0.00, -0.00, -1.00, 274.6, 88.7)"> </text><text xml:space="preserve" font-family="Helvetica-Bold,Helvetica" font-weight="bold" font-size="37.0" fill="#FEFFFF" transform="matrix(1.00, 0.00, -0.00, -1.00, 284.8, 88.7)">S</text><text xml:space="preserve" font-family="Helvetica-Bold,Helvetica" font-weight="bold" font-size="37.0" fill="#FEFFFF" transform="matrix(1.00, 0.00, -0.00, -1.00, 309.5, 88.7)">V</text><text xml:space="preserve" font-family="Helvetica-Bold,Helvetica" font-weight="bold" font-size="37.0" fill="#FEFFFF" transform="matrix(1.00, 0.00, -0.00, -1.00, 334.2, 88.7)">G</text><text xml:space="preserve" font-family="Helvetica-Bold,Helvetica" font-weight="bold" font-size="37.0" fill="#FEFFFF" transform="matrix(1.00, 0.00, -0.00, -1.00, 363.0, 88.7)"> </text><text xml:space="preserve" font-family="Helvetica-Bold,Helvetica" font-weight="bold" font-size="37.0" fill="#FEFFFF" transform="matrix(1.00, 0.00, -0.00, -1.00, 107.2, 44.7)">V</text><text xml:space="preserve" font-family="Helvetica-Bold,Helvetica" font-weight="bold" font-size="37.0" fill="#FEFFFF" transform="matrix(1.00, 0.00, -0.00, -1.00, 131.3, 44.7)">i</text><text xml:space="preserve" font-family="Helvetica-Bold,Helvetica" font-weight="bold" font-size="37.0" fill="#FEFFFF" transform="matrix(1.00, 0.00, -0.00, -1.00, 141.5, 44.7)">e</text><text xml:space="preserve" font-family="Helvetica-Bold,Helvetica" font-weight="bold" font-size="37.0" fill="#FEFFFF" transform="matrix(1.00, 0.00, -0.00, -1.00, 162.1, 44.7)">w</text><text xml:space="preserve" font-family="Helvetica-Bold,Helvetica" font-weight="bold" font-size="37.0" fill="#FEFFFF" transform="matrix(1.00, 0.00, -0.00, -1.00, 190.9, 44.7)">e</text><text xml:space="preserve" font-family="Helvetica-Bold,Helvetica" font-weight="bold" font-size="37.0" fill="#FEFFFF" transform="matrix(1.00, 0.00, -0.00, -1.00, 211.5, 44.7)">r</text><text xml:space="preserve" font-family="Helvetica-Bold,Helvetica" font-weight="bold" font-size="37.0" fill="#FEFFFF" transform="matrix(1.00, 0.00, -0.00, -1.00, 225.9, 44.7)"> </text><text xml:space="preserve" font-family="Helvetica-Bold,Helvetica" font-weight="bold" font-size="37.0" fill="#FEFFFF" transform="matrix(1.00, 0.00, -0.00, -1.00, 236.1, 44.7)">3</text></g></svg>