<?xml version="1.0" encoding="UTF-8" standalone="no"?><svg xmlns="http://www.w3.org/2000/svg" xmlns:xlink="http://www.w3.org/1999/xlink" clip-rule="evenodd" stroke-miterlimit="10" viewBox="0 0 789 82"><desc>SVG generated by Keynote</desc><defs></defs><g transform="matrix(1.00, 0.00, -0.00, -1.00, 0.0, 82.0)"><text xml:space="preserve" font-family="AvenirNext-Regular,Avenir Next" font-size="77.6" fill="#FEFFFF" transform="matrix(1.00, 0.00, -0.00, -1.00, 0.3, 20.4)">W</text><text xml:space="preserve" font-family="AvenirNext-Regular,Avenir Next" font-size="77.6" fill="#FEFFFF" transform="matrix(1.00, 0.00, -0.00, -1.00, 75.7, 20.4)">h</text><text xml:space="preserve" font-family="AvenirNext-Regular,Avenir Next" font-size="77.6" fill="#FEFFFF" transform="matrix(1.00, 0.00, -0.00, -1.00, 120.9, 20.4)">y</text><text xml:space="preserve" font-family="AvenirNext-Regular,Avenir Next" font-size="77.6" fill="#FEFFFF" transform="matrix(1.00, 0.00, -0.00, -1.00, 158.8, 20.4)"> </text><text xml:space="preserve" font-family="AvenirNext-Regular,Avenir Next" font-size="77.6" fill="#FEFFFF" transform="matrix(1.00, 0.00, -0.00, -1.00, 178.2, 20.4)">S</text><text xml:space="preserve" font-family="AvenirNext-Regular,Avenir Next" font-size="77.6" fill="#FEFFFF" transform="matrix(1.00, 0.00, -0.00, -1.00, 221.1, 20.4)">V</text><text xml:space="preserve" font-family="AvenirNext-Regular,Avenir Next" font-size="77.6" fill="#FEFFFF" transform="matrix(1.00, 0.00, -0.00, -1.00, 268.5, 20.4)">G</text><text xml:space="preserve" font-family="AvenirNext-Regular,Avenir Next" font-size="77.6" fill="#FEFFFF" transform="matrix(1.00, 0.00, -0.00, -1.00, 328.9, 20.4)">?</text><text xml:space="preserve" font-family="AvenirNext-Regular,Avenir Next" font-size="77.6" fill="#FEFFFF" transform="matrix(1.00, 0.00, -0.00, -1.00, 366.3, 20.4)"> </text><text xml:space="preserve" font-family="AvenirNext-Regular,Avenir Next" font-size="77.6" fill="#FEFFFF" transform="matrix(1.00, 0.00, -0.00, -1.00, 384.3, 20.4)">A</text><text xml:space="preserve" font-family="AvenirNext-Regular,Avenir Next" font-size="77.6" fill="#FEFFFF" transform="matrix(1.00, 0.00, -0.00, -1.00, 438.6, 20.4)">n</text><text xml:space="preserve" font-family="AvenirNext-Regular,Avenir Next" font-size="77.6" fill="#FEFFFF" transform="matrix(1.00, 0.00, -0.00, -1.00, 483.7, 20.4)">i</text><text xml:space="preserve" font-family="AvenirNext-Regular,Avenir Next" font-size="77.6" fill="#FEFFFF" transform="matrix(1.00, 0.00, -0.00, -1.00, 503.1, 20.4)">m</text><text xml:space="preserve" font-family="AvenirNext-Regular,Avenir Next" font-size="77.6" fill="#FEFFFF" transform="matrix(1.00, 0.00, -0.00, -1.00, 571.6, 20.4)">a</text><text xml:space="preserve" font-family="AvenirNext-Regular,Avenir Next" font-size="77.6" fill="#FEFFFF" transform="matrix(1.00, 0.00, -0.00, -1.00, 612.3, 20.4)">t</text><text xml:space="preserve" font-family="AvenirNext-Regular,Avenir Next" font-size="77.6" fill="#FEFFFF" transform="matrix(1.00, 0.00, -0.00, -1.00, 636.9, 20.4)">a</text><text xml:space="preserve" font-family="AvenirNext-Regular,Avenir Next" font-size="77.6" fill="#FEFFFF" transform="matrix(1.00, 0.00, -0.00, -1.00, 678.3, 20.4)">b</text><text xml:space="preserve" font-family="AvenirNext-Regular,Avenir Next" font-size="77.6" fill="#FEFFFF" transform="matrix(1.00, 0.00, -0.00, -1.00, 727.8, 20.4)">l</text><text xml:space="preserve" font-family="AvenirNext-Regular,Avenir Next" font-size="77.6" fill="#FEFFFF" transform="matrix(1.00, 0.00, -0.00, -1.00, 747.3, 20.4)">e</text></g></svg>