<?xml version="1.0" encoding="UTF-8" standalone="no"?><svg xmlns="http://www.w3.org/2000/svg" xmlns:xlink="http://www.w3.org/1999/xlink" clip-rule="evenodd" stroke-miterlimit="10" viewBox="0 0 402 243"><desc>SVG generated by Keynote</desc><defs></defs><g transform="matrix(1.00, 0.00, -0.00, -1.00, 0.0, 243.0)"><text xml:space="preserve" font-family="Helvetica-Bold,Helvetica" font-weight="bold" font-size="42.1" fill="#FEFFFF" transform="matrix(1.00, 0.00, -0.00, -1.00, 155.1, 211.6)">2</text><text xml:space="preserve" font-family="Helvetica-Bold,Helvetica" font-weight="bold" font-size="42.1" fill="#FEFFFF" transform="matrix(1.00, 0.00, -0.00, -1.00, 178.5, 211.6)">0</text><text xml:space="preserve" font-family="Helvetica-Bold,Helvetica" font-weight="bold" font-size="42.1" fill="#FEFFFF" transform="matrix(1.00, 0.00, -0.00, -1.00, 202.0, 211.6)">1</text><text xml:space="preserve" font-family="Helvetica-Bold,Helvetica" font-weight="bold" font-size="42.1" fill="#FEFFFF" transform="matrix(1.00, 0.00, -0.00, -1.00, 223.1, 211.6)">1</text><text xml:space="preserve" font-family="Helvetica-Bold,Helvetica" font-weight="bold" font-size="42.1" fill="#FEFFFF" transform="matrix(1.00, 0.00, -0.00, -1.00, 0.7, 111.6)">S</text><text xml:space="preserve" font-family="Helvetica-Bold,Helvetica" font-weight="bold" font-size="42.1" fill="#FEFFFF" transform="matrix(1.00, 0.00, -0.00, -1.00, 28.8, 111.6)">V</text><text xml:space="preserve" font-family="Helvetica-Bold,Helvetica" font-weight="bold" font-size="42.1" fill="#FEFFFF" transform="matrix(1.00, 0.00, -0.00, -1.00, 56.9, 111.6)">G</text><text xml:space="preserve" font-family="Helvetica-Bold,Helvetica" font-weight="bold" font-size="42.1" fill="#FEFFFF" transform="matrix(1.00, 0.00, -0.00, -1.00, 89.6, 111.6)"> </text><text xml:space="preserve" font-family="Helvetica-Bold,Helvetica" font-weight="bold" font-size="42.1" fill="#FEFFFF" transform="matrix(1.00, 0.00, -0.00, -1.00, 101.3, 111.6)">1</text><text xml:space="preserve" font-family="Helvetica-Bold,Helvetica" font-weight="bold" font-size="42.1" fill="#FEFFFF" transform="matrix(1.00, 0.00, -0.00, -1.00, 124.8, 111.6)">.</text><text xml:space="preserve" font-family="Helvetica-Bold,Helvetica" font-weight="bold" font-size="42.1" fill="#FEFFFF" transform="matrix(1.00, 0.00, -0.00, -1.00, 136.5, 111.6)">1</text><text xml:space="preserve" font-family="Helvetica-Bold,Helvetica" font-weight="bold" font-size="42.1" fill="#FEFFFF" transform="matrix(1.00, 0.00, -0.00, -1.00, 159.9, 111.6)"> </text><text xml:space="preserve" font-family="Helvetica-Bold,Helvetica" font-weight="bold" font-size="42.1" fill="#FEFFFF" transform="matrix(1.00, 0.00, -0.00, -1.00, 171.6, 111.6)">2</text><text xml:space="preserve" font-family="Helvetica-Bold,Helvetica" font-weight="bold" font-size="42.1" fill="#FEFFFF" transform="matrix(1.00, 0.00, -0.00, -1.00, 195.0, 111.6)">n</text><text xml:space="preserve" font-family="Helvetica-Bold,Helvetica" font-weight="bold" font-size="42.1" fill="#FEFFFF" transform="matrix(1.00, 0.00, -0.00, -1.00, 220.8, 111.6)">d</text><text xml:space="preserve" font-family="Helvetica-Bold,Helvetica" font-weight="bold" font-size="42.1" fill="#FEFFFF" transform="matrix(1.00, 0.00, -0.00, -1.00, 246.5, 111.6)"> </text><text xml:space="preserve" font-family="Helvetica-Bold,Helvetica" font-weight="bold" font-size="42.1" fill="#FEFFFF" transform="matrix(1.00, 0.00, -0.00, -1.00, 258.2, 111.6)">E</text><text xml:space="preserve" font-family="Helvetica-Bold,Helvetica" font-weight="bold" font-size="42.1" fill="#FEFFFF" transform="matrix(1.00, 0.00, -0.00, -1.00, 286.3, 111.6)">d</text><text xml:space="preserve" font-family="Helvetica-Bold,Helvetica" font-weight="bold" font-size="42.1" fill="#FEFFFF" transform="matrix(1.00, 0.00, -0.00, -1.00, 312.0, 111.6)">i</text><text xml:space="preserve" font-family="Helvetica-Bold,Helvetica" font-weight="bold" font-size="42.1" fill="#FEFFFF" transform="matrix(1.00, 0.00, -0.00, -1.00, 323.7, 111.6)">t</text><text xml:space="preserve" font-family="Helvetica-Bold,Helvetica" font-weight="bold" font-size="42.1" fill="#FEFFFF" transform="matrix(1.00, 0.00, -0.00, -1.00, 337.7, 111.6)">i</text><text xml:space="preserve" font-family="Helvetica-Bold,Helvetica" font-weight="bold" font-size="42.1" fill="#FEFFFF" transform="matrix(1.00, 0.00, -0.00, -1.00, 349.4, 111.6)">o</text><text xml:space="preserve" font-family="Helvetica-Bold,Helvetica" font-weight="bold" font-size="42.1" fill="#FEFFFF" transform="matrix(1.00, 0.00, -0.00, -1.00, 375.1, 111.6)">n</text><text xml:space="preserve" font-family="Helvetica-Bold,Helvetica" font-weight="bold" font-size="42.1" fill="#FEFFFF" transform="matrix(1.00, 0.00, -0.00, -1.00, 72.1, 11.6)">A</text><text xml:space="preserve" font-family="Helvetica-Bold,Helvetica" font-weight="bold" font-size="42.1" fill="#FEFFFF" transform="matrix(1.00, 0.00, -0.00, -1.00, 102.5, 11.6)">p</text><text xml:space="preserve" font-family="Helvetica-Bold,Helvetica" font-weight="bold" font-size="42.1" fill="#FEFFFF" transform="matrix(1.00, 0.00, -0.00, -1.00, 128.2, 11.6)">p</text><text xml:space="preserve" font-family="Helvetica-Bold,Helvetica" font-weight="bold" font-size="42.1" fill="#FEFFFF" transform="matrix(1.00, 0.00, -0.00, -1.00, 154.0, 11.6)">l</text><text xml:space="preserve" font-family="Helvetica-Bold,Helvetica" font-weight="bold" font-size="42.1" fill="#FEFFFF" transform="matrix(1.00, 0.00, -0.00, -1.00, 165.7, 11.6)">e</text><text xml:space="preserve" font-family="Helvetica-Bold,Helvetica" font-weight="bold" font-size="42.1" fill="#FEFFFF" transform="matrix(1.00, 0.00, -0.00, -1.00, 189.1, 11.6)"> </text><text xml:space="preserve" font-family="Helvetica-Bold,Helvetica" font-weight="bold" font-size="42.1" fill="#FEFFFF" transform="matrix(1.00, 0.00, -0.00, -1.00, 200.8, 11.6)">R</text><text xml:space="preserve" font-family="Helvetica-Bold,Helvetica" font-weight="bold" font-size="42.1" fill="#FEFFFF" transform="matrix(1.00, 0.00, -0.00, -1.00, 231.2, 11.6)">e</text><text xml:space="preserve" font-family="Helvetica-Bold,Helvetica" font-weight="bold" font-size="42.1" fill="#FEFFFF" transform="matrix(1.00, 0.00, -0.00, -1.00, 254.6, 11.6)">t</text><text xml:space="preserve" font-family="Helvetica-Bold,Helvetica" font-weight="bold" font-size="42.1" fill="#FEFFFF" transform="matrix(1.00, 0.00, -0.00, -1.00, 268.7, 11.6)">i</text><text xml:space="preserve" font-family="Helvetica-Bold,Helvetica" font-weight="bold" font-size="42.1" fill="#FEFFFF" transform="matrix(1.00, 0.00, -0.00, -1.00, 280.4, 11.6)">n</text><text xml:space="preserve" font-family="Helvetica-Bold,Helvetica" font-weight="bold" font-size="42.1" fill="#FEFFFF" transform="matrix(1.00, 0.00, -0.00, -1.00, 306.1, 11.6)">a</text></g></svg>