<?xml version="1.0" encoding="UTF-8" standalone="no"?><svg xmlns="http://www.w3.org/2000/svg" xmlns:xlink="http://www.w3.org/1999/xlink" clip-rule="evenodd" stroke-miterlimit="10" viewBox="0 0 813 100"><desc>SVG generated by Keynote</desc><defs></defs><g transform="matrix(1.00, 0.00, -0.00, -1.00, 0.0, 100.0)"><text xml:space="preserve" font-family="Helvetica-Bold,Helvetica" font-weight="bold" font-size="49.9" fill="#FEFFFF" transform="matrix(1.00, 0.00, -0.00, -1.00, 1.4, 62.1)">W</text><text xml:space="preserve" font-family="Helvetica-Bold,Helvetica" font-weight="bold" font-size="49.9" fill="#FEFFFF" transform="matrix(1.00, 0.00, -0.00, -1.00, 47.6, 62.1)">e</text><text xml:space="preserve" font-family="Helvetica-Bold,Helvetica" font-weight="bold" font-size="49.9" fill="#FEFFFF" transform="matrix(1.00, 0.00, -0.00, -1.00, 75.4, 62.1)"> </text><text xml:space="preserve" font-family="Helvetica-Bold,Helvetica" font-weight="bold" font-size="49.9" fill="#FEFFFF" transform="matrix(1.00, 0.00, -0.00, -1.00, 89.3, 62.1)">n</text><text xml:space="preserve" font-family="Helvetica-Bold,Helvetica" font-weight="bold" font-size="49.9" fill="#FEFFFF" transform="matrix(1.00, 0.00, -0.00, -1.00, 119.8, 62.1)">e</text><text xml:space="preserve" font-family="Helvetica-Bold,Helvetica" font-weight="bold" font-size="49.9" fill="#FEFFFF" transform="matrix(1.00, 0.00, -0.00, -1.00, 147.5, 62.1)">e</text><text xml:space="preserve" font-family="Helvetica-Bold,Helvetica" font-weight="bold" font-size="49.9" fill="#FEFFFF" transform="matrix(1.00, 0.00, -0.00, -1.00, 175.3, 62.1)">d</text><text xml:space="preserve" font-family="Helvetica-Bold,Helvetica" font-weight="bold" font-size="49.9" fill="#FEFFFF" transform="matrix(1.00, 0.00, -0.00, -1.00, 205.8, 62.1)"> </text><text xml:space="preserve" font-family="Helvetica-Bold,Helvetica" font-weight="bold" font-size="49.9" fill="#FEFFFF" transform="matrix(1.00, 0.00, -0.00, -1.00, 219.6, 62.1)">g</text><text xml:space="preserve" font-family="Helvetica-Bold,Helvetica" font-weight="bold" font-size="49.9" fill="#FEFFFF" transform="matrix(1.00, 0.00, -0.00, -1.00, 250.1, 62.1)">r</text><text xml:space="preserve" font-family="Helvetica-Bold,Helvetica" font-weight="bold" font-size="49.9" fill="#FEFFFF" transform="matrix(1.00, 0.00, -0.00, -1.00, 269.6, 62.1)">a</text><text xml:space="preserve" font-family="Helvetica-Bold,Helvetica" font-weight="bold" font-size="49.9" fill="#FEFFFF" transform="matrix(1.00, 0.00, -0.00, -1.00, 297.3, 62.1)">p</text><text xml:space="preserve" font-family="Helvetica-Bold,Helvetica" font-weight="bold" font-size="49.9" fill="#FEFFFF" transform="matrix(1.00, 0.00, -0.00, -1.00, 327.8, 62.1)">h</text><text xml:space="preserve" font-family="Helvetica-Bold,Helvetica" font-weight="bold" font-size="49.9" fill="#FEFFFF" transform="matrix(1.00, 0.00, -0.00, -1.00, 358.3, 62.1)">i</text><text xml:space="preserve" font-family="Helvetica-Bold,Helvetica" font-weight="bold" font-size="49.9" fill="#FEFFFF" transform="matrix(1.00, 0.00, -0.00, -1.00, 372.2, 62.1)">c</text><text xml:space="preserve" font-family="Helvetica-Bold,Helvetica" font-weight="bold" font-size="49.9" fill="#FEFFFF" transform="matrix(1.00, 0.00, -0.00, -1.00, 399.9, 62.1)">s</text><text xml:space="preserve" font-family="Helvetica-Bold,Helvetica" font-weight="bold" font-size="49.9" fill="#FEFFFF" transform="matrix(1.00, 0.00, -0.00, -1.00, 427.7, 62.1)"> </text><text xml:space="preserve" font-family="Helvetica-Bold,Helvetica" font-weight="bold" font-size="49.9" fill="#FEFFFF" transform="matrix(1.00, 0.00, -0.00, -1.00, 441.6, 62.1)">f</text><text xml:space="preserve" font-family="Helvetica-Bold,Helvetica" font-weight="bold" font-size="49.9" fill="#FEFFFF" transform="matrix(1.00, 0.00, -0.00, -1.00, 458.2, 62.1)">o</text><text xml:space="preserve" font-family="Helvetica-Bold,Helvetica" font-weight="bold" font-size="49.9" fill="#FEFFFF" transform="matrix(1.00, 0.00, -0.00, -1.00, 488.7, 62.1)">r</text><text xml:space="preserve" font-family="Helvetica-Bold,Helvetica" font-weight="bold" font-size="49.9" fill="#FEFFFF" transform="matrix(1.00, 0.00, -0.00, -1.00, 508.1, 62.1)"> </text><text xml:space="preserve" font-family="Helvetica-Bold,Helvetica" font-weight="bold" font-size="49.9" fill="#FEFFFF" transform="matrix(1.00, 0.00, -0.00, -1.00, 522.0, 62.1)">H</text><text xml:space="preserve" font-family="Helvetica-Bold,Helvetica" font-weight="bold" font-size="49.9" fill="#FEFFFF" transform="matrix(1.00, 0.00, -0.00, -1.00, 558.0, 62.1)">D</text><text xml:space="preserve" font-family="Helvetica-Bold,Helvetica" font-weight="bold" font-size="49.9" fill="#FEFFFF" transform="matrix(1.00, 0.00, -0.00, -1.00, 594.1, 62.1)"> </text><text xml:space="preserve" font-family="Helvetica-Bold,Helvetica" font-weight="bold" font-size="49.9" fill="#FEFFFF" transform="matrix(1.00, 0.00, -0.00, -1.00, 608.0, 62.1)">s</text><text xml:space="preserve" font-family="Helvetica-Bold,Helvetica" font-weight="bold" font-size="49.9" fill="#FEFFFF" transform="matrix(1.00, 0.00, -0.00, -1.00, 635.7, 62.1)">c</text><text xml:space="preserve" font-family="Helvetica-Bold,Helvetica" font-weight="bold" font-size="49.9" fill="#FEFFFF" transform="matrix(1.00, 0.00, -0.00, -1.00, 663.5, 62.1)">r</text><text xml:space="preserve" font-family="Helvetica-Bold,Helvetica" font-weight="bold" font-size="49.9" fill="#FEFFFF" transform="matrix(1.00, 0.00, -0.00, -1.00, 682.9, 62.1)">e</text><text xml:space="preserve" font-family="Helvetica-Bold,Helvetica" font-weight="bold" font-size="49.9" fill="#FEFFFF" transform="matrix(1.00, 0.00, -0.00, -1.00, 710.7, 62.1)">e</text><text xml:space="preserve" font-family="Helvetica-Bold,Helvetica" font-weight="bold" font-size="49.9" fill="#FEFFFF" transform="matrix(1.00, 0.00, -0.00, -1.00, 738.5, 62.1)">n</text><text xml:space="preserve" font-family="Helvetica-Bold,Helvetica" font-weight="bold" font-size="49.9" fill="#FEFFFF" transform="matrix(1.00, 0.00, -0.00, -1.00, 769.0, 62.1)">s</text><text xml:space="preserve" font-family="Helvetica-Bold,Helvetica" font-weight="bold" font-size="49.9" fill="#FEFFFF" transform="matrix(1.00, 0.00, -0.00, -1.00, 796.7, 62.1)">,</text><text xml:space="preserve" font-family="Helvetica-Bold,Helvetica" font-weight="bold" font-size="49.9" fill="#FEFFFF" transform="matrix(1.00, 0.00, -0.00, -1.00, 810.6, 62.1)"> </text><text xml:space="preserve" font-family="Helvetica-Bold,Helvetica" font-weight="bold" font-size="49.9" fill="#FEFFFF" transform="matrix(1.00, 0.00, -0.00, -1.00, 1.0, 3.1)">t</text><text xml:space="preserve" font-family="Helvetica-Bold,Helvetica" font-weight="bold" font-size="49.9" fill="#FEFFFF" transform="matrix(1.00, 0.00, -0.00, -1.00, 17.6, 3.1)">h</text><text xml:space="preserve" font-family="Helvetica-Bold,Helvetica" font-weight="bold" font-size="49.9" fill="#FEFFFF" transform="matrix(1.00, 0.00, -0.00, -1.00, 48.1, 3.1)">a</text><text xml:space="preserve" font-family="Helvetica-Bold,Helvetica" font-weight="bold" font-size="49.9" fill="#FEFFFF" transform="matrix(1.00, 0.00, -0.00, -1.00, 75.9, 3.1)">t</text><text xml:space="preserve" font-family="Helvetica-Bold,Helvetica" font-weight="bold" font-size="49.9" fill="#FEFFFF" transform="matrix(1.00, 0.00, -0.00, -1.00, 92.5, 3.1)"> </text><text xml:space="preserve" font-family="Helvetica-Bold,Helvetica" font-weight="bold" font-size="49.9" fill="#FEFFFF" transform="matrix(1.00, 0.00, -0.00, -1.00, 106.4, 3.1)">w</text><text xml:space="preserve" font-family="Helvetica-Bold,Helvetica" font-weight="bold" font-size="49.9" fill="#FEFFFF" transform="matrix(1.00, 0.00, -0.00, -1.00, 145.2, 3.1)">o</text><text xml:space="preserve" font-family="Helvetica-Bold,Helvetica" font-weight="bold" font-size="49.9" fill="#FEFFFF" transform="matrix(1.00, 0.00, -0.00, -1.00, 175.7, 3.1)">r</text><text xml:space="preserve" font-family="Helvetica-Bold,Helvetica" font-weight="bold" font-size="49.9" fill="#FEFFFF" transform="matrix(1.00, 0.00, -0.00, -1.00, 195.1, 3.1)">k</text><text xml:space="preserve" font-family="Helvetica-Bold,Helvetica" font-weight="bold" font-size="49.9" fill="#FEFFFF" transform="matrix(1.00, 0.00, -0.00, -1.00, 222.9, 3.1)">s</text><text xml:space="preserve" font-family="Helvetica-Bold,Helvetica" font-weight="bold" font-size="49.9" fill="#FEFFFF" transform="matrix(1.00, 0.00, -0.00, -1.00, 250.6, 3.1)"> </text><text xml:space="preserve" font-family="Helvetica-Bold,Helvetica" font-weight="bold" font-size="49.9" fill="#FEFFFF" transform="matrix(1.00, 0.00, -0.00, -1.00, 264.5, 3.1)">i</text><text xml:space="preserve" font-family="Helvetica-Bold,Helvetica" font-weight="bold" font-size="49.9" fill="#FEFFFF" transform="matrix(1.00, 0.00, -0.00, -1.00, 278.4, 3.1)">n</text><text xml:space="preserve" font-family="Helvetica-Bold,Helvetica" font-weight="bold" font-size="49.9" fill="#FEFFFF" transform="matrix(1.00, 0.00, -0.00, -1.00, 308.8, 3.1)"> </text><text xml:space="preserve" font-family="Helvetica-Bold,Helvetica" font-weight="bold" font-size="49.9" fill="#FEFFFF" transform="matrix(1.00, 0.00, -0.00, -1.00, 322.7, 3.1)">a</text><text xml:space="preserve" font-family="Helvetica-Bold,Helvetica" font-weight="bold" font-size="49.9" fill="#FEFFFF" transform="matrix(1.00, 0.00, -0.00, -1.00, 350.5, 3.1)">l</text><text xml:space="preserve" font-family="Helvetica-Bold,Helvetica" font-weight="bold" font-size="49.9" fill="#FEFFFF" transform="matrix(1.00, 0.00, -0.00, -1.00, 364.3, 3.1)">l</text><text xml:space="preserve" font-family="Helvetica-Bold,Helvetica" font-weight="bold" font-size="49.9" fill="#FEFFFF" transform="matrix(1.00, 0.00, -0.00, -1.00, 378.2, 3.1)"> </text><text xml:space="preserve" font-family="Helvetica-Bold,Helvetica" font-weight="bold" font-size="49.9" fill="#FEFFFF" transform="matrix(1.00, 0.00, -0.00, -1.00, 392.1, 3.1)">m</text><text xml:space="preserve" font-family="Helvetica-Bold,Helvetica" font-weight="bold" font-size="49.9" fill="#FEFFFF" transform="matrix(1.00, 0.00, -0.00, -1.00, 436.5, 3.1)">o</text><text xml:space="preserve" font-family="Helvetica-Bold,Helvetica" font-weight="bold" font-size="49.9" fill="#FEFFFF" transform="matrix(1.00, 0.00, -0.00, -1.00, 466.9, 3.1)">d</text><text xml:space="preserve" font-family="Helvetica-Bold,Helvetica" font-weight="bold" font-size="49.9" fill="#FEFFFF" transform="matrix(1.00, 0.00, -0.00, -1.00, 497.4, 3.1)">e</text><text xml:space="preserve" font-family="Helvetica-Bold,Helvetica" font-weight="bold" font-size="49.9" fill="#FEFFFF" transform="matrix(1.00, 0.00, -0.00, -1.00, 525.2, 3.1)">r</text><text xml:space="preserve" font-family="Helvetica-Bold,Helvetica" font-weight="bold" font-size="49.9" fill="#FEFFFF" transform="matrix(1.00, 0.00, -0.00, -1.00, 544.6, 3.1)">n</text><text xml:space="preserve" font-family="Helvetica-Bold,Helvetica" font-weight="bold" font-size="49.9" fill="#FEFFFF" transform="matrix(1.00, 0.00, -0.00, -1.00, 575.1, 3.1)"> </text><text xml:space="preserve" font-family="Helvetica-Bold,Helvetica" font-weight="bold" font-size="49.9" fill="#FEFFFF" transform="matrix(1.00, 0.00, -0.00, -1.00, 589.0, 3.1)">b</text><text xml:space="preserve" font-family="Helvetica-Bold,Helvetica" font-weight="bold" font-size="49.9" fill="#FEFFFF" transform="matrix(1.00, 0.00, -0.00, -1.00, 619.5, 3.1)">r</text><text xml:space="preserve" font-family="Helvetica-Bold,Helvetica" font-weight="bold" font-size="49.9" fill="#FEFFFF" transform="matrix(1.00, 0.00, -0.00, -1.00, 638.9, 3.1)">o</text><text xml:space="preserve" font-family="Helvetica-Bold,Helvetica" font-weight="bold" font-size="49.9" fill="#FEFFFF" transform="matrix(1.00, 0.00, -0.00, -1.00, 669.4, 3.1)">w</text><text xml:space="preserve" font-family="Helvetica-Bold,Helvetica" font-weight="bold" font-size="49.9" fill="#FEFFFF" transform="matrix(1.00, 0.00, -0.00, -1.00, 708.2, 3.1)">s</text><text xml:space="preserve" font-family="Helvetica-Bold,Helvetica" font-weight="bold" font-size="49.9" fill="#FEFFFF" transform="matrix(1.00, 0.00, -0.00, -1.00, 736.0, 3.1)">e</text><text xml:space="preserve" font-family="Helvetica-Bold,Helvetica" font-weight="bold" font-size="49.9" fill="#FEFFFF" transform="matrix(1.00, 0.00, -0.00, -1.00, 763.7, 3.1)">r</text><text xml:space="preserve" font-family="Helvetica-Bold,Helvetica" font-weight="bold" font-size="49.9" fill="#FEFFFF" transform="matrix(1.00, 0.00, -0.00, -1.00, 783.2, 3.1)">s</text></g></svg>