<?xml version="1.0" encoding="UTF-8" standalone="no"?><svg xmlns="http://www.w3.org/2000/svg" xmlns:xlink="http://www.w3.org/1999/xlink" clip-rule="evenodd" stroke-miterlimit="10" viewBox="0 0 798 170"><desc>SVG generated by Keynote</desc><defs></defs><g transform="matrix(1.00, 0.00, -0.00, -1.00, 0.0, 170.0)"><text xml:space="preserve" font-family="AvenirNext-Regular,Avenir Next" font-size="71.2" fill="#FEFFFF" transform="matrix(1.00, 0.00, -0.00, -1.00, 0.0, 116.5)">S</text><text xml:space="preserve" font-family="AvenirNext-Regular,Avenir Next" font-size="71.2" fill="#FEFFFF" transform="matrix(1.00, 0.00, -0.00, -1.00, 40.2, 116.5)">M</text><text xml:space="preserve" font-family="AvenirNext-Regular,Avenir Next" font-size="71.2" fill="#FEFFFF" transform="matrix(1.00, 0.00, -0.00, -1.00, 103.2, 116.5)">I</text><text xml:space="preserve" font-family="AvenirNext-Regular,Avenir Next" font-size="71.2" fill="#FEFFFF" transform="matrix(1.00, 0.00, -0.00, -1.00, 121.8, 116.5)">L</text><text xml:space="preserve" font-family="AvenirNext-Regular,Avenir Next" font-size="71.2" fill="#FEFFFF" transform="matrix(1.00, 0.00, -0.00, -1.00, 156.4, 116.5)"> </text><text xml:space="preserve" font-family="AvenirNext-Regular,Avenir Next" font-size="71.2" fill="#FEFFFF" transform="matrix(1.00, 0.00, -0.00, -1.00, 0.0, 19.5)"> </text><text xml:space="preserve" font-family="AvenirNext-Regular,Avenir Next" font-size="71.2" fill="#D35854" transform="matrix(1.00, 0.00, -0.00, -1.00, 17.8, 19.5)">(</text><text xml:space="preserve" font-family="AvenirNext-Regular,Avenir Next" font-size="71.2" fill="#D35854" transform="matrix(1.00, 0.00, -0.00, -1.00, 39.2, 19.5)">d</text><text xml:space="preserve" font-family="AvenirNext-Regular,Avenir Next" font-size="71.2" fill="#D35854" transform="matrix(1.00, 0.00, -0.00, -1.00, 84.5, 19.5)">e</text><text xml:space="preserve" font-family="AvenirNext-Regular,Avenir Next" font-size="71.2" fill="#D35854" transform="matrix(1.00, 0.00, -0.00, -1.00, 125.2, 19.5)">p</text><text xml:space="preserve" font-family="AvenirNext-Regular,Avenir Next" font-size="71.2" fill="#D35854" transform="matrix(1.00, 0.00, -0.00, -1.00, 170.5, 19.5)">r</text><text xml:space="preserve" font-family="AvenirNext-Regular,Avenir Next" font-size="71.2" fill="#D35854" transform="matrix(1.00, 0.00, -0.00, -1.00, 194.8, 19.5)">e</text><text xml:space="preserve" font-family="AvenirNext-Regular,Avenir Next" font-size="71.2" fill="#D35854" transform="matrix(1.00, 0.00, -0.00, -1.00, 235.5, 19.5)">c</text><text xml:space="preserve" font-family="AvenirNext-Regular,Avenir Next" font-size="71.2" fill="#D35854" transform="matrix(1.00, 0.00, -0.00, -1.00, 271.1, 19.5)">a</text><text xml:space="preserve" font-family="AvenirNext-Regular,Avenir Next" font-size="71.2" fill="#D35854" transform="matrix(1.00, 0.00, -0.00, -1.00, 308.4, 19.5)">t</text><text xml:space="preserve" font-family="AvenirNext-Regular,Avenir Next" font-size="71.2" fill="#D35854" transform="matrix(1.00, 0.00, -0.00, -1.00, 331.0, 19.5)">e</text><text xml:space="preserve" font-family="AvenirNext-Regular,Avenir Next" font-size="71.2" fill="#D35854" transform="matrix(1.00, 0.00, -0.00, -1.00, 371.7, 19.5)">d</text><text xml:space="preserve" font-family="AvenirNext-Regular,Avenir Next" font-size="71.2" fill="#D35854" transform="matrix(1.00, 0.00, -0.00, -1.00, 417.1, 19.5)"> </text><text xml:space="preserve" font-family="AvenirNext-Regular,Avenir Next" font-size="71.2" fill="#D35854" transform="matrix(1.00, 0.00, -0.00, -1.00, 434.9, 19.5)">i</text><text xml:space="preserve" font-family="AvenirNext-Regular,Avenir Next" font-size="71.2" fill="#D35854" transform="matrix(1.00, 0.00, -0.00, -1.00, 452.7, 19.5)">n</text><text xml:space="preserve" font-family="AvenirNext-Regular,Avenir Next" font-size="71.2" fill="#D35854" transform="matrix(1.00, 0.00, -0.00, -1.00, 494.1, 19.5)"> </text><text xml:space="preserve" font-family="AvenirNext-Regular,Avenir Next" font-size="71.2" fill="#D35854" transform="matrix(1.00, 0.00, -0.00, -1.00, 511.9, 19.5)">C</text><text xml:space="preserve" font-family="AvenirNext-Regular,Avenir Next" font-size="71.2" fill="#D35854" transform="matrix(1.00, 0.00, -0.00, -1.00, 563.1, 19.5)">h</text><text xml:space="preserve" font-family="AvenirNext-Regular,Avenir Next" font-size="71.2" fill="#D35854" transform="matrix(1.00, 0.00, -0.00, -1.00, 604.6, 19.5)">r</text><text xml:space="preserve" font-family="AvenirNext-Regular,Avenir Next" font-size="71.2" fill="#D35854" transform="matrix(1.00, 0.00, -0.00, -1.00, 629.0, 19.5)">o</text><text xml:space="preserve" font-family="AvenirNext-Regular,Avenir Next" font-size="71.2" fill="#D35854" transform="matrix(1.00, 0.00, -0.00, -1.00, 672.5, 19.5)">m</text><text xml:space="preserve" font-family="AvenirNext-Regular,Avenir Next" font-size="71.2" fill="#D35854" transform="matrix(1.00, 0.00, -0.00, -1.00, 735.4, 19.5)">e</text><text xml:space="preserve" font-family="AvenirNext-Regular,Avenir Next" font-size="71.2" fill="#D35854" transform="matrix(1.00, 0.00, -0.00, -1.00, 776.1, 19.5)">)</text></g></svg>