<?xml version="1.0" encoding="UTF-8" standalone="no"?><svg xmlns="http://www.w3.org/2000/svg" xmlns:xlink="http://www.w3.org/1999/xlink" clip-rule="evenodd" stroke-miterlimit="10" viewBox="0 0 1024 768"><desc>SVG generated by Keynote</desc><defs></defs><g transform="matrix(1.00, 0.00, -0.00, -1.00, 0.0, 768.0)"><path d="M 0.0 768.0 L 1024.0 768.0 L 1024.0 0.0 L 0.0 0.0 Z M 0.0 768.0 " fill="#000000"></path><text xml:space="preserve" font-family="AvenirNext-Regular,Avenir Next" font-size="47.2" fill="#FEFFFF" transform="matrix(1.00, 0.00, -0.00, -1.00, 148.3, 618.0)">S</text><text xml:space="preserve" font-family="AvenirNext-Regular,Avenir Next" font-size="47.2" fill="#FEFFFF" transform="matrix(1.00, 0.00, -0.00, -1.00, 174.4, 618.0)">V</text><text xml:space="preserve" font-family="AvenirNext-Regular,Avenir Next" font-size="47.2" fill="#FEFFFF" transform="matrix(1.00, 0.00, -0.00, -1.00, 203.2, 618.0)">G</text><text xml:space="preserve" font-family="AvenirNext-Regular,Avenir Next" font-size="47.2" fill="#FEFFFF" transform="matrix(1.00, 0.00, -0.00, -1.00, 240.0, 618.0)"> </text><text xml:space="preserve" font-family="AvenirNext-Regular,Avenir Next" font-size="47.2" fill="#FEFFFF" transform="matrix(1.00, 0.00, -0.00, -1.00, 250.9, 618.0)">A</text><text xml:space="preserve" font-family="AvenirNext-Regular,Avenir Next" font-size="47.2" fill="#FEFFFF" transform="matrix(1.00, 0.00, -0.00, -1.00, 284.0, 618.0)">n</text><text xml:space="preserve" font-family="AvenirNext-Regular,Avenir Next" font-size="47.2" fill="#FEFFFF" transform="matrix(1.00, 0.00, -0.00, -1.00, 311.4, 618.0)">i</text><text xml:space="preserve" font-family="AvenirNext-Regular,Avenir Next" font-size="47.2" fill="#FEFFFF" transform="matrix(1.00, 0.00, -0.00, -1.00, 323.2, 618.0)">m</text><text xml:space="preserve" font-family="AvenirNext-Regular,Avenir Next" font-size="47.2" fill="#FEFFFF" transform="matrix(1.00, 0.00, -0.00, -1.00, 364.9, 618.0)">a</text><text xml:space="preserve" font-family="AvenirNext-Regular,Avenir Next" font-size="47.2" fill="#FEFFFF" transform="matrix(1.00, 0.00, -0.00, -1.00, 389.6, 618.0)">t</text><text xml:space="preserve" font-family="AvenirNext-Regular,Avenir Next" font-size="47.2" fill="#FEFFFF" transform="matrix(1.00, 0.00, -0.00, -1.00, 404.5, 618.0)">i</text><text xml:space="preserve" font-family="AvenirNext-Regular,Avenir Next" font-size="47.2" fill="#FEFFFF" transform="matrix(1.00, 0.00, -0.00, -1.00, 416.3, 618.0)">o</text><text xml:space="preserve" font-family="AvenirNext-Regular,Avenir Next" font-size="47.2" fill="#FEFFFF" transform="matrix(1.00, 0.00, -0.00, -1.00, 445.2, 618.0)">n</text><text xml:space="preserve" font-family="AvenirNext-Regular,Avenir Next" font-size="47.2" fill="#FEFFFF" transform="matrix(1.00, 0.00, -0.00, -1.00, 472.6, 618.0)">s</text><text xml:space="preserve" font-family="AvenirNext-Regular,Avenir Next" font-size="47.2" fill="#FEFFFF" transform="matrix(1.00, 0.00, -0.00, -1.00, 493.6, 618.0)"> </text><text xml:space="preserve" font-family="AvenirNext-Regular,Avenir Next" font-size="47.2" fill="#FEFFFF" transform="matrix(1.00, 0.00, -0.00, -1.00, 505.4, 618.0)">a</text><text xml:space="preserve" font-family="AvenirNext-Regular,Avenir Next" font-size="47.2" fill="#FEFFFF" transform="matrix(1.00, 0.00, -0.00, -1.00, 530.6, 618.0)">r</text><text xml:space="preserve" font-family="AvenirNext-Regular,Avenir Next" font-size="47.2" fill="#FEFFFF" transform="matrix(1.00, 0.00, -0.00, -1.00, 546.7, 618.0)">e</text><text xml:space="preserve" font-family="AvenirNext-Regular,Avenir Next" font-size="47.2" fill="#FEFFFF" transform="matrix(1.00, 0.00, -0.00, -1.00, 573.7, 618.0)"> </text><text xml:space="preserve" font-family="AvenirNext-Regular,Avenir Next" font-size="47.2" fill="#FEFFFF" transform="matrix(1.00, 0.00, -0.00, -1.00, 585.5, 618.0)">n</text><text xml:space="preserve" font-family="AvenirNext-Regular,Avenir Next" font-size="47.2" fill="#FEFFFF" transform="matrix(1.00, 0.00, -0.00, -1.00, 612.9, 618.0)">e</text><text xml:space="preserve" font-family="AvenirNext-Regular,Avenir Next" font-size="47.2" fill="#FEFFFF" transform="matrix(1.00, 0.00, -0.00, -1.00, 639.7, 618.0)">a</text><text xml:space="preserve" font-family="AvenirNext-Regular,Avenir Next" font-size="47.2" fill="#FEFFFF" transform="matrix(1.00, 0.00, -0.00, -1.00, 664.4, 618.0)">t</text><text xml:space="preserve" font-family="AvenirNext-Regular,Avenir Next" font-size="47.2" fill="#FEFFFF" transform="matrix(1.00, 0.00, -0.00, -1.00, 679.3, 618.0)"> </text><text xml:space="preserve" font-family="AvenirNext-Regular,Avenir Next" font-size="47.2" fill="#FEFFFF" transform="matrix(1.00, 0.00, -0.00, -1.00, 691.1, 618.0)">a</text><text xml:space="preserve" font-family="AvenirNext-Regular,Avenir Next" font-size="47.2" fill="#FEFFFF" transform="matrix(1.00, 0.00, -0.00, -1.00, 716.4, 618.0)">n</text><text xml:space="preserve" font-family="AvenirNext-Regular,Avenir Next" font-size="47.2" fill="#FEFFFF" transform="matrix(1.00, 0.00, -0.00, -1.00, 743.8, 618.0)">d</text><text xml:space="preserve" font-family="AvenirNext-Regular,Avenir Next" font-size="47.2" fill="#FEFFFF" transform="matrix(1.00, 0.00, -0.00, -1.00, 773.8, 618.0)"> </text><text xml:space="preserve" font-family="AvenirNext-Regular,Avenir Next" font-size="47.2" fill="#FEFFFF" transform="matrix(1.00, 0.00, -0.00, -1.00, 785.6, 618.0)">v</text><text xml:space="preserve" font-family="AvenirNext-Regular,Avenir Next" font-size="47.2" fill="#FEFFFF" transform="matrix(1.00, 0.00, -0.00, -1.00, 808.7, 618.0)">e</text><text xml:space="preserve" font-family="AvenirNext-Regular,Avenir Next" font-size="47.2" fill="#FEFFFF" transform="matrix(1.00, 0.00, -0.00, -1.00, 835.7, 618.0)">r</text><text xml:space="preserve" font-family="AvenirNext-Regular,Avenir Next" font-size="47.2" fill="#FEFFFF" transform="matrix(1.00, 0.00, -0.00, -1.00, 852.7, 618.0)">y</text><text xml:space="preserve" font-family="AvenirNext-Regular,Avenir Next" font-size="47.2" fill="#FEFFFF" transform="matrix(1.00, 0.00, -0.00, -1.00, 875.7, 618.0)"> </text><text xml:space="preserve" font-family="AvenirNext-Regular,Avenir Next" font-size="47.2" fill="#FEFFFF" transform="matrix(1.00, 0.00, -0.00, -1.00, 296.6, 554.0)">g</text><text xml:space="preserve" font-family="AvenirNext-Regular,Avenir Next" font-size="47.2" fill="#FEFFFF" transform="matrix(1.00, 0.00, -0.00, -1.00, 326.4, 554.0)">o</text><text xml:space="preserve" font-family="AvenirNext-Regular,Avenir Next" font-size="47.2" fill="#FEFFFF" transform="matrix(1.00, 0.00, -0.00, -1.00, 355.2, 554.0)">o</text><text xml:space="preserve" font-family="AvenirNext-Regular,Avenir Next" font-size="47.2" fill="#FEFFFF" transform="matrix(1.00, 0.00, -0.00, -1.00, 384.1, 554.0)">d</text><text xml:space="preserve" font-family="AvenirNext-Regular,Avenir Next" font-size="47.2" fill="#FEFFFF" transform="matrix(1.00, 0.00, -0.00, -1.00, 414.2, 554.0)"> </text><text xml:space="preserve" font-family="AvenirNext-Regular,Avenir Next" font-size="47.2" fill="#FEFFFF" transform="matrix(1.00, 0.00, -0.00, -1.00, 426.0, 554.0)">s</text><text xml:space="preserve" font-family="AvenirNext-Regular,Avenir Next" font-size="47.2" fill="#FEFFFF" transform="matrix(1.00, 0.00, -0.00, -1.00, 446.9, 554.0)">u</text><text xml:space="preserve" font-family="AvenirNext-Regular,Avenir Next" font-size="47.2" fill="#FEFFFF" transform="matrix(1.00, 0.00, -0.00, -1.00, 474.3, 554.0)">p</text><text xml:space="preserve" font-family="AvenirNext-Regular,Avenir Next" font-size="47.2" fill="#FEFFFF" transform="matrix(1.00, 0.00, -0.00, -1.00, 504.3, 554.0)">p</text><text xml:space="preserve" font-family="AvenirNext-Regular,Avenir Next" font-size="47.2" fill="#FEFFFF" transform="matrix(1.00, 0.00, -0.00, -1.00, 534.3, 554.0)">o</text><text xml:space="preserve" font-family="AvenirNext-Regular,Avenir Next" font-size="47.2" fill="#FEFFFF" transform="matrix(1.00, 0.00, -0.00, -1.00, 563.1, 554.0)">r</text><text xml:space="preserve" font-family="AvenirNext-Regular,Avenir Next" font-size="47.2" fill="#FEFFFF" transform="matrix(1.00, 0.00, -0.00, -1.00, 579.5, 554.0)">t</text><text xml:space="preserve" font-family="AvenirNext-Regular,Avenir Next" font-size="47.2" fill="#FEFFFF" transform="matrix(1.00, 0.00, -0.00, -1.00, 594.5, 554.0)"> </text><text xml:space="preserve" font-family="AvenirNext-Regular,Avenir Next" font-size="47.2" fill="#FEFFFF" transform="matrix(1.00, 0.00, -0.00, -1.00, 606.3, 554.0)">v</text><text xml:space="preserve" font-family="AvenirNext-Regular,Avenir Next" font-size="47.2" fill="#FEFFFF" transform="matrix(1.00, 0.00, -0.00, -1.00, 629.3, 554.0)">i</text><text xml:space="preserve" font-family="AvenirNext-Regular,Avenir Next" font-size="47.2" fill="#FEFFFF" transform="matrix(1.00, 0.00, -0.00, -1.00, 641.1, 554.0)">a</text><text xml:space="preserve" font-family="AvenirNext-Regular,Avenir Next" font-size="47.2" fill="#FEFFFF" transform="matrix(1.00, 0.00, -0.00, -1.00, 666.3, 554.0)"> </text><text xml:space="preserve" font-family="AvenirNext-Regular,Avenir Next" font-size="47.2" fill="#FEFFFF" transform="matrix(1.00, 0.00, -0.00, -1.00, 677.6, 554.0)">J</text><text xml:space="preserve" font-family="AvenirNext-Regular,Avenir Next" font-size="47.2" fill="#FEFFFF" transform="matrix(1.00, 0.00, -0.00, -1.00, 700.8, 554.0)">S</text><text xml:space="preserve" font-family="AvenirNext-Regular,Avenir Next" font-size="47.2" fill="#FEFFFF" transform="matrix(1.00, 0.00, -0.00, -1.00, 727.4, 554.0)"> </text><text xml:space="preserve" font-family="AvenirNext-Regular,Avenir Next" font-size="47.2" fill="#FEFFFF" transform="matrix(1.00, 0.00, -0.00, -1.00, 154.2, 426.0)">b</text><text xml:space="preserve" font-family="AvenirNext-Regular,Avenir Next" font-size="47.2" fill="#FEFFFF" transform="matrix(1.00, 0.00, -0.00, -1.00, 184.3, 426.0)">u</text><text xml:space="preserve" font-family="AvenirNext-Regular,Avenir Next" font-size="47.2" fill="#FEFFFF" transform="matrix(1.00, 0.00, -0.00, -1.00, 211.7, 426.0)">t</text><text xml:space="preserve" font-family="AvenirNext-Regular,Avenir Next" font-size="47.2" fill="#FEFFFF" transform="matrix(1.00, 0.00, -0.00, -1.00, 226.7, 426.0)">.</text><text xml:space="preserve" font-family="AvenirNext-Regular,Avenir Next" font-size="47.2" fill="#FEFFFF" transform="matrix(1.00, 0.00, -0.00, -1.00, 239.0, 426.0)">.</text><text xml:space="preserve" font-family="AvenirNext-Regular,Avenir Next" font-size="47.2" fill="#FEFFFF" transform="matrix(1.00, 0.00, -0.00, -1.00, 249.8, 426.0)"> </text><text xml:space="preserve" font-family="AvenirNext-Regular,Avenir Next" font-size="47.2" fill="#FEFFFF" transform="matrix(1.00, 0.00, -0.00, -1.00, 261.6, 426.0)">r</text><text xml:space="preserve" font-family="AvenirNext-Regular,Avenir Next" font-size="47.2" fill="#FEFFFF" transform="matrix(1.00, 0.00, -0.00, -1.00, 277.8, 426.0)">e</text><text xml:space="preserve" font-family="AvenirNext-Regular,Avenir Next" font-size="47.2" fill="#FEFFFF" transform="matrix(1.00, 0.00, -0.00, -1.00, 304.5, 426.0)">a</text><text xml:space="preserve" font-family="AvenirNext-Regular,Avenir Next" font-size="47.2" fill="#FEFFFF" transform="matrix(1.00, 0.00, -0.00, -1.00, 329.7, 426.0)">l</text><text xml:space="preserve" font-family="AvenirNext-Regular,Avenir Next" font-size="47.2" fill="#FEFFFF" transform="matrix(1.00, 0.00, -0.00, -1.00, 341.6, 426.0)">l</text><text xml:space="preserve" font-family="AvenirNext-Regular,Avenir Next" font-size="47.2" fill="#FEFFFF" transform="matrix(1.00, 0.00, -0.00, -1.00, 353.5, 426.0)">y</text><text xml:space="preserve" font-family="AvenirNext-Regular,Avenir Next" font-size="47.2" fill="#FEFFFF" transform="matrix(1.00, 0.00, -0.00, -1.00, 374.8, 426.0)">,</text><text xml:space="preserve" font-family="AvenirNext-Regular,Avenir Next" font-size="47.2" fill="#FEFFFF" transform="matrix(1.00, 0.00, -0.00, -1.00, 385.7, 426.0)"> </text><text xml:space="preserve" font-family="AvenirNext-Regular,Avenir Next" font-size="47.2" fill="#FEFFFF" transform="matrix(1.00, 0.00, -0.00, -1.00, 397.5, 426.0)">a</text><text xml:space="preserve" font-family="AvenirNext-Regular,Avenir Next" font-size="47.2" fill="#FEFFFF" transform="matrix(1.00, 0.00, -0.00, -1.00, 422.7, 426.0)">d</text><text xml:space="preserve" font-family="AvenirNext-Regular,Avenir Next" font-size="47.2" fill="#FEFFFF" transform="matrix(1.00, 0.00, -0.00, -1.00, 452.7, 426.0)">d</text><text xml:space="preserve" font-family="AvenirNext-Regular,Avenir Next" font-size="47.2" fill="#FEFFFF" transform="matrix(1.00, 0.00, -0.00, -1.00, 482.8, 426.0)"> </text><text xml:space="preserve" font-family="AvenirNext-Regular,Avenir Next" font-size="47.2" fill="#FEFFFF" transform="matrix(1.00, 0.00, -0.00, -1.00, 494.6, 426.0)">7</text><text xml:space="preserve" font-family="AvenirNext-Regular,Avenir Next" font-size="47.2" fill="#FEFFFF" transform="matrix(1.00, 0.00, -0.00, -1.00, 522.0, 426.0)">9</text><text xml:space="preserve" font-family="AvenirNext-Regular,Avenir Next" font-size="47.2" fill="#FEFFFF" transform="matrix(1.00, 0.00, -0.00, -1.00, 549.4, 426.0)">K</text><text xml:space="preserve" font-family="AvenirNext-Regular,Avenir Next" font-size="47.2" fill="#FEFFFF" transform="matrix(1.00, 0.00, -0.00, -1.00, 579.0, 426.0)">b</text><text xml:space="preserve" font-family="AvenirNext-Regular,Avenir Next" font-size="47.2" fill="#FEFFFF" transform="matrix(1.00, 0.00, -0.00, -1.00, 609.1, 426.0)"> </text><text xml:space="preserve" font-family="AvenirNext-Regular,Avenir Next" font-size="47.2" fill="#FEFFFF" transform="matrix(1.00, 0.00, -0.00, -1.00, 620.9, 426.0)">t</text><text xml:space="preserve" font-family="AvenirNext-Regular,Avenir Next" font-size="47.2" fill="#FEFFFF" transform="matrix(1.00, 0.00, -0.00, -1.00, 635.8, 426.0)">o</text><text xml:space="preserve" font-family="AvenirNext-Regular,Avenir Next" font-size="47.2" fill="#FEFFFF" transform="matrix(1.00, 0.00, -0.00, -1.00, 664.7, 426.0)"> </text><text xml:space="preserve" font-family="AvenirNext-Regular,Avenir Next" font-size="47.2" fill="#FEFFFF" transform="matrix(1.00, 0.00, -0.00, -1.00, 676.5, 426.0)">t</text><text xml:space="preserve" font-family="AvenirNext-Regular,Avenir Next" font-size="47.2" fill="#FEFFFF" transform="matrix(1.00, 0.00, -0.00, -1.00, 691.4, 426.0)">h</text><text xml:space="preserve" font-family="AvenirNext-Regular,Avenir Next" font-size="47.2" fill="#FEFFFF" transform="matrix(1.00, 0.00, -0.00, -1.00, 718.9, 426.0)">e</text><text xml:space="preserve" font-family="AvenirNext-Regular,Avenir Next" font-size="47.2" fill="#FEFFFF" transform="matrix(1.00, 0.00, -0.00, -1.00, 745.9, 426.0)"> </text><text xml:space="preserve" font-family="AvenirNext-Regular,Avenir Next" font-size="47.2" fill="#FEFFFF" transform="matrix(1.00, 0.00, -0.00, -1.00, 757.7, 426.0)">p</text><text xml:space="preserve" font-family="AvenirNext-Regular,Avenir Next" font-size="47.2" fill="#FEFFFF" transform="matrix(1.00, 0.00, -0.00, -1.00, 787.7, 426.0)">a</text><text xml:space="preserve" font-family="AvenirNext-Regular,Avenir Next" font-size="47.2" fill="#FEFFFF" transform="matrix(1.00, 0.00, -0.00, -1.00, 812.9, 426.0)">g</text><text xml:space="preserve" font-family="AvenirNext-Regular,Avenir Next" font-size="47.2" fill="#FEFFFF" transform="matrix(1.00, 0.00, -0.00, -1.00, 842.8, 426.0)">e</text><text xml:space="preserve" font-family="AvenirNext-Regular,Avenir Next" font-size="47.2" fill="#FEFFFF" transform="matrix(1.00, 0.00, -0.00, -1.00, 869.8, 426.0)"> </text><text xml:space="preserve" font-family="AvenirNext-Regular,Avenir Next" font-size="47.2" fill="#FEFFFF" transform="matrix(1.00, 0.00, -0.00, -1.00, 446.7, 362.0)">l</text><text xml:space="preserve" font-family="AvenirNext-Regular,Avenir Next" font-size="47.2" fill="#FEFFFF" transform="matrix(1.00, 0.00, -0.00, -1.00, 458.6, 362.0)">o</text><text xml:space="preserve" font-family="AvenirNext-Regular,Avenir Next" font-size="47.2" fill="#FEFFFF" transform="matrix(1.00, 0.00, -0.00, -1.00, 487.5, 362.0)">a</text><text xml:space="preserve" font-family="AvenirNext-Regular,Avenir Next" font-size="47.2" fill="#FEFFFF" transform="matrix(1.00, 0.00, -0.00, -1.00, 512.7, 362.0)">d</text><text xml:space="preserve" font-family="AvenirNext-Regular,Avenir Next" font-size="47.2" fill="#FEFFFF" transform="matrix(1.00, 0.00, -0.00, -1.00, 542.7, 362.0)"> </text><text xml:space="preserve" font-family="AvenirNext-Regular,Avenir Next" font-size="47.2" fill="#FEFFFF" transform="matrix(1.00, 0.00, -0.00, -1.00, 554.5, 362.0)">?</text><text xml:space="preserve" font-family="AvenirNext-Regular,Avenir Next" font-size="47.2" fill="#FEFFFF" transform="matrix(1.00, 0.00, -0.00, -1.00, 577.3, 362.0)"> </text><text xml:space="preserve" font-family="AvenirNext-Regular,Avenir Next" font-size="47.2" fill="#FEFFFF" transform="matrix(1.00, 0.00, -0.00, -1.00, 148.5, 234.0)">S</text><text xml:space="preserve" font-family="AvenirNext-Regular,Avenir Next" font-size="47.2" fill="#FEFFFF" transform="matrix(1.00, 0.00, -0.00, -1.00, 174.8, 234.0)">t</text><text xml:space="preserve" font-family="AvenirNext-Regular,Avenir Next" font-size="47.2" fill="#FEFFFF" transform="matrix(1.00, 0.00, -0.00, -1.00, 189.8, 234.0)">i</text><text xml:space="preserve" font-family="AvenirNext-Regular,Avenir Next" font-size="47.2" fill="#FEFFFF" transform="matrix(1.00, 0.00, -0.00, -1.00, 201.6, 234.0)">l</text><text xml:space="preserve" font-family="AvenirNext-Regular,Avenir Next" font-size="47.2" fill="#FEFFFF" transform="matrix(1.00, 0.00, -0.00, -1.00, 213.5, 234.0)">l</text><text xml:space="preserve" font-family="AvenirNext-Regular,Avenir Next" font-size="47.2" fill="#FEFFFF" transform="matrix(1.00, 0.00, -0.00, -1.00, 225.4, 234.0)">…</text><text xml:space="preserve" font-family="AvenirNext-Regular,Avenir Next" font-size="47.2" fill="#FEFFFF" transform="matrix(1.00, 0.00, -0.00, -1.00, 271.1, 234.0)"> </text><text xml:space="preserve" font-family="AvenirNext-Regular,Avenir Next" font-size="47.2" fill="#FEFFFF" transform="matrix(1.00, 0.00, -0.00, -1.00, 282.9, 234.0)">i</text><text xml:space="preserve" font-family="AvenirNext-Regular,Avenir Next" font-size="47.2" fill="#FEFFFF" transform="matrix(1.00, 0.00, -0.00, -1.00, 294.7, 234.0)">t</text><text xml:space="preserve" font-family="AvenirNext-Regular,Avenir Next" font-size="47.2" fill="#FEFFFF" transform="matrix(1.00, 0.00, -0.00, -1.00, 310.8, 234.0)">’</text><text xml:space="preserve" font-family="AvenirNext-Regular,Avenir Next" font-size="47.2" fill="#FEFFFF" transform="matrix(1.00, 0.00, -0.00, -1.00, 319.0, 234.0)">s</text><text xml:space="preserve" font-family="AvenirNext-Regular,Avenir Next" font-size="47.2" fill="#FEFFFF" transform="matrix(1.00, 0.00, -0.00, -1.00, 340.0, 234.0)"> </text><text xml:space="preserve" font-family="AvenirNext-Regular,Avenir Next" font-size="47.2" fill="#FEFFFF" transform="matrix(1.00, 0.00, -0.00, -1.00, 351.8, 234.0)">a</text><text xml:space="preserve" font-family="AvenirNext-Regular,Avenir Next" font-size="47.2" fill="#FEFFFF" transform="matrix(1.00, 0.00, -0.00, -1.00, 377.0, 234.0)"> </text><text xml:space="preserve" font-family="AvenirNext-Regular,Avenir Next" font-size="47.2" fill="#FEFFFF" transform="matrix(1.00, 0.00, -0.00, -1.00, 388.8, 234.0)">g</text><text xml:space="preserve" font-family="AvenirNext-Regular,Avenir Next" font-size="47.2" fill="#FEFFFF" transform="matrix(1.00, 0.00, -0.00, -1.00, 418.6, 234.0)">r</text><text xml:space="preserve" font-family="AvenirNext-Regular,Avenir Next" font-size="47.2" fill="#FEFFFF" transform="matrix(1.00, 0.00, -0.00, -1.00, 434.8, 234.0)">e</text><text xml:space="preserve" font-family="AvenirNext-Regular,Avenir Next" font-size="47.2" fill="#FEFFFF" transform="matrix(1.00, 0.00, -0.00, -1.00, 461.5, 234.0)">a</text><text xml:space="preserve" font-family="AvenirNext-Regular,Avenir Next" font-size="47.2" fill="#FEFFFF" transform="matrix(1.00, 0.00, -0.00, -1.00, 486.2, 234.0)">t</text><text xml:space="preserve" font-family="AvenirNext-Regular,Avenir Next" font-size="47.2" fill="#FEFFFF" transform="matrix(1.00, 0.00, -0.00, -1.00, 501.2, 234.0)"> </text><text xml:space="preserve" font-family="AvenirNext-Regular,Avenir Next" font-size="47.2" fill="#FEFFFF" transform="matrix(1.00, 0.00, -0.00, -1.00, 513.0, 234.0)">w</text><text xml:space="preserve" font-family="AvenirNext-Regular,Avenir Next" font-size="47.2" fill="#FEFFFF" transform="matrix(1.00, 0.00, -0.00, -1.00, 548.2, 234.0)">a</text><text xml:space="preserve" font-family="AvenirNext-Regular,Avenir Next" font-size="47.2" fill="#FEFFFF" transform="matrix(1.00, 0.00, -0.00, -1.00, 573.4, 234.0)">y</text><text xml:space="preserve" font-family="AvenirNext-Regular,Avenir Next" font-size="47.2" fill="#FEFFFF" transform="matrix(1.00, 0.00, -0.00, -1.00, 596.4, 234.0)"> </text><text xml:space="preserve" font-family="AvenirNext-Regular,Avenir Next" font-size="47.2" fill="#FEFFFF" transform="matrix(1.00, 0.00, -0.00, -1.00, 608.2, 234.0)">t</text><text xml:space="preserve" font-family="AvenirNext-Regular,Avenir Next" font-size="47.2" fill="#FEFFFF" transform="matrix(1.00, 0.00, -0.00, -1.00, 623.2, 234.0)">o</text><text xml:space="preserve" font-family="AvenirNext-Regular,Avenir Next" font-size="47.2" fill="#FEFFFF" transform="matrix(1.00, 0.00, -0.00, -1.00, 652.0, 234.0)"> </text><text xml:space="preserve" font-family="AvenirNext-Regular,Avenir Next" font-size="47.2" fill="#FEFFFF" transform="matrix(1.00, 0.00, -0.00, -1.00, 663.8, 234.0)">l</text><text xml:space="preserve" font-family="AvenirNext-Regular,Avenir Next" font-size="47.2" fill="#FEFFFF" transform="matrix(1.00, 0.00, -0.00, -1.00, 675.7, 234.0)">e</text><text xml:space="preserve" font-family="AvenirNext-Regular,Avenir Next" font-size="47.2" fill="#FEFFFF" transform="matrix(1.00, 0.00, -0.00, -1.00, 702.5, 234.0)">a</text><text xml:space="preserve" font-family="AvenirNext-Regular,Avenir Next" font-size="47.2" fill="#FEFFFF" transform="matrix(1.00, 0.00, -0.00, -1.00, 727.7, 234.0)">r</text><text xml:space="preserve" font-family="AvenirNext-Regular,Avenir Next" font-size="47.2" fill="#FEFFFF" transform="matrix(1.00, 0.00, -0.00, -1.00, 744.6, 234.0)">n</text><text xml:space="preserve" font-family="AvenirNext-Regular,Avenir Next" font-size="47.2" fill="#FEFFFF" transform="matrix(1.00, 0.00, -0.00, -1.00, 772.1, 234.0)"> </text><text xml:space="preserve" font-family="AvenirNext-Regular,Avenir Next" font-size="47.2" fill="#FEFFFF" transform="matrix(1.00, 0.00, -0.00, -1.00, 783.9, 234.0)">S</text><text xml:space="preserve" font-family="AvenirNext-Regular,Avenir Next" font-size="47.2" fill="#FEFFFF" transform="matrix(1.00, 0.00, -0.00, -1.00, 809.9, 234.0)">V</text><text xml:space="preserve" font-family="AvenirNext-Regular,Avenir Next" font-size="47.2" fill="#FEFFFF" transform="matrix(1.00, 0.00, -0.00, -1.00, 838.8, 234.0)">G</text></g></svg>