<?xml version="1.0" encoding="UTF-8" standalone="no"?><svg xmlns="http://www.w3.org/2000/svg" xmlns:xlink="http://www.w3.org/1999/xlink" clip-rule="evenodd" stroke-miterlimit="10" viewBox="0 0 1024 768"><desc>SVG generated by Keynote</desc><defs></defs><g transform="matrix(1.00, 0.00, -0.00, -1.00, 0.0, 768.0)"><path d="M 0.0 768.0 L 1024.0 768.0 L 1024.0 0.0 L 0.0 0.0 Z M 0.0 768.0 " fill="#000000"></path><text xml:space="preserve" font-family="AvenirNext-Regular,Avenir Next" font-size="71.2" fill="#FEFFFF" transform="matrix(1.00, 0.00, -0.00, -1.00, 122.0, 458.5)">S</text><text xml:space="preserve" font-family="AvenirNext-Regular,Avenir Next" font-size="71.2" fill="#FEFFFF" transform="matrix(1.00, 0.00, -0.00, -1.00, 162.2, 458.5)">M</text><text xml:space="preserve" font-family="AvenirNext-Regular,Avenir Next" font-size="71.2" fill="#FEFFFF" transform="matrix(1.00, 0.00, -0.00, -1.00, 225.2, 458.5)">I</text><text xml:space="preserve" font-family="AvenirNext-Regular,Avenir Next" font-size="71.2" fill="#FEFFFF" transform="matrix(1.00, 0.00, -0.00, -1.00, 243.8, 458.5)">L</text><text xml:space="preserve" font-family="AvenirNext-Regular,Avenir Next" font-size="71.2" fill="#FEFFFF" transform="matrix(1.00, 0.00, -0.00, -1.00, 278.4, 458.5)"> </text><text xml:space="preserve" font-family="AvenirNext-Regular,Avenir Next" font-size="71.2" fill="#FEFFFF" transform="matrix(1.00, 0.00, -0.00, -1.00, 122.0, 361.5)"> </text><text xml:space="preserve" font-family="AvenirNext-Regular,Avenir Next" font-size="71.2" fill="#D35854" transform="matrix(1.00, 0.00, -0.00, -1.00, 139.8, 361.5)">(</text><text xml:space="preserve" font-family="AvenirNext-Regular,Avenir Next" font-size="71.2" fill="#D35854" transform="matrix(1.00, 0.00, -0.00, -1.00, 161.2, 361.5)">d</text><text xml:space="preserve" font-family="AvenirNext-Regular,Avenir Next" font-size="71.2" fill="#D35854" transform="matrix(1.00, 0.00, -0.00, -1.00, 206.5, 361.5)">e</text><text xml:space="preserve" font-family="AvenirNext-Regular,Avenir Next" font-size="71.2" fill="#D35854" transform="matrix(1.00, 0.00, -0.00, -1.00, 247.2, 361.5)">p</text><text xml:space="preserve" font-family="AvenirNext-Regular,Avenir Next" font-size="71.2" fill="#D35854" transform="matrix(1.00, 0.00, -0.00, -1.00, 292.5, 361.5)">r</text><text xml:space="preserve" font-family="AvenirNext-Regular,Avenir Next" font-size="71.2" fill="#D35854" transform="matrix(1.00, 0.00, -0.00, -1.00, 316.8, 361.5)">e</text><text xml:space="preserve" font-family="AvenirNext-Regular,Avenir Next" font-size="71.2" fill="#D35854" transform="matrix(1.00, 0.00, -0.00, -1.00, 357.5, 361.5)">c</text><text xml:space="preserve" font-family="AvenirNext-Regular,Avenir Next" font-size="71.2" fill="#D35854" transform="matrix(1.00, 0.00, -0.00, -1.00, 393.1, 361.5)">a</text><text xml:space="preserve" font-family="AvenirNext-Regular,Avenir Next" font-size="71.2" fill="#D35854" transform="matrix(1.00, 0.00, -0.00, -1.00, 430.4, 361.5)">t</text><text xml:space="preserve" font-family="AvenirNext-Regular,Avenir Next" font-size="71.2" fill="#D35854" transform="matrix(1.00, 0.00, -0.00, -1.00, 453.0, 361.5)">e</text><text xml:space="preserve" font-family="AvenirNext-Regular,Avenir Next" font-size="71.2" fill="#D35854" transform="matrix(1.00, 0.00, -0.00, -1.00, 493.7, 361.5)">d</text><text xml:space="preserve" font-family="AvenirNext-Regular,Avenir Next" font-size="71.2" fill="#D35854" transform="matrix(1.00, 0.00, -0.00, -1.00, 539.1, 361.5)"> </text><text xml:space="preserve" font-family="AvenirNext-Regular,Avenir Next" font-size="71.2" fill="#D35854" transform="matrix(1.00, 0.00, -0.00, -1.00, 556.9, 361.5)">i</text><text xml:space="preserve" font-family="AvenirNext-Regular,Avenir Next" font-size="71.2" fill="#D35854" transform="matrix(1.00, 0.00, -0.00, -1.00, 574.7, 361.5)">n</text><text xml:space="preserve" font-family="AvenirNext-Regular,Avenir Next" font-size="71.2" fill="#D35854" transform="matrix(1.00, 0.00, -0.00, -1.00, 616.1, 361.5)"> </text><text xml:space="preserve" font-family="AvenirNext-Regular,Avenir Next" font-size="71.2" fill="#D35854" transform="matrix(1.00, 0.00, -0.00, -1.00, 633.9, 361.5)">C</text><text xml:space="preserve" font-family="AvenirNext-Regular,Avenir Next" font-size="71.2" fill="#D35854" transform="matrix(1.00, 0.00, -0.00, -1.00, 685.1, 361.5)">h</text><text xml:space="preserve" font-family="AvenirNext-Regular,Avenir Next" font-size="71.2" fill="#D35854" transform="matrix(1.00, 0.00, -0.00, -1.00, 726.6, 361.5)">r</text><text xml:space="preserve" font-family="AvenirNext-Regular,Avenir Next" font-size="71.2" fill="#D35854" transform="matrix(1.00, 0.00, -0.00, -1.00, 751.0, 361.5)">o</text><text xml:space="preserve" font-family="AvenirNext-Regular,Avenir Next" font-size="71.2" fill="#D35854" transform="matrix(1.00, 0.00, -0.00, -1.00, 794.5, 361.5)">m</text><text xml:space="preserve" font-family="AvenirNext-Regular,Avenir Next" font-size="71.2" fill="#D35854" transform="matrix(1.00, 0.00, -0.00, -1.00, 857.4, 361.5)">e</text><text xml:space="preserve" font-family="AvenirNext-Regular,Avenir Next" font-size="71.2" fill="#D35854" transform="matrix(1.00, 0.00, -0.00, -1.00, 898.1, 361.5)">)</text><image xlink:href="../../8BE924E6-8784-4677-A0C0-7347A73DD409/assets/340ED77AE952FA0D2D2A997023A80101.png" width="500.00" height="304.00" transform="matrix(0.75, 0.00, -0.00, -0.75, 570.8, 694.7)"></image><image xlink:href="../../8BE924E6-8784-4677-A0C0-7347A73DD409/assets/22AB2B64CED1E67F93272DB1CFAFFC21.png" width="582.00" height="134.00" transform="matrix(1.71, 0.00, -0.00, -1.71, 12.0, 319.0)"></image><image xlink:href="../../14D8E820-8A16-48D2-8E1F-41EA6EEB170D/assets/8EE5850859AEB6FC38116B70DB381933.png" width="492.00" height="32.00" transform="matrix(1.44, 0.00, -0.00, -1.44, 156.0, 78.0)"></image></g></svg>