<?xml version="1.0" encoding="UTF-8" standalone="no"?><svg xmlns="http://www.w3.org/2000/svg" xmlns:xlink="http://www.w3.org/1999/xlink" clip-rule="evenodd" stroke-miterlimit="10" viewBox="0 0 169 106"><desc>SVG generated by Keynote</desc><defs></defs><g transform="matrix(1.00, 0.00, -0.00, -1.00, 0.0, 106.0)"><path d="M 8.4 22.0 C 8.4 20.6 8.1 18.8 6.1 18.6 C 4.1 18.3 2.6 19.8 2.6 21.9 C 2.6 23.9 3.7 23.3 3.7 28.1 C 3.7 29.9 7.3 30.0 7.3 28.2 C 7.3 23.9 8.4 24.5 8.4 22.0 C 8.4 22.0 8.4 22.0 8.4 22.0 Z M 2.6 19.5 C 2.4 22.5 3.4 23.3 5.4 23.4 C 7.4 23.5 8.3 21.8 8.4 20.0 C 8.6 18.2 7.3 17.9 8.7 15.0 C 9.5 13.5 6.3 11.8 5.5 13.4 C 3.5 17.2 2.9 16.5 2.6 19.5 C 2.6 19.5 2.6 19.5 2.6 19.5 Z M 7.3 28.3 C 7.3 26.5 3.6 26.5 3.6 28.6 C 3.6 30.8 4.3 35.5 4.2 36.8 C 4.1 38.0 3.4 41.5 3.4 42.6 C 3.4 43.6 4.5 48.9 4.2 51.2 C 3.9 53.4 4.1 54.1 4.1 55.6 C 4.1 57.2 4.3 59.7 4.4 61.2 C 4.5 62.6 3.5 64.0 3.7 65.9 C 4.0 67.9 3.6 68.9 3.6 70.2 C 3.6 72.4 7.3 72.3 7.3 70.3 C 7.3 68.3 7.5 67.0 7.5 65.4 C 7.4 63.7 7.0 62.3 7.4 60.8 C 7.8 59.2 7.4 56.2 7.1 54.3 C 6.9 52.5 7.0 50.4 7.2 48.9 C 7.4 46.0 6.8 38.9 7.1 37.9 C 7.4 36.8 7.1 33.6 7.1 32.4 C 7.1 31.3 7.3 30.7 7.3 28.3 C 7.3 28.3 7.3 28.3 7.3 28.3 Z M 24.0 101.8 C 26.0 101.8 26.3 98.2 24.0 98.2 C 21.7 98.2 17.7 98.3 16.7 97.9 C 15.6 97.5 11.9 95.0 11.3 94.3 C 10.6 93.7 8.1 91.2 7.8 89.2 C 7.4 87.2 6.8 85.2 7.0 83.7 C 7.2 81.8 7.0 80.7 6.9 79.2 C 6.8 77.8 7.6 75.5 7.3 74.2 C 6.9 73.0 7.3 72.3 7.3 70.5 C 7.3 68.8 3.7 68.8 3.7 70.4 C 3.7 72.1 3.7 73.5 3.8 75.1 C 3.9 76.8 3.9 78.8 3.9 80.5 C 3.9 82.2 3.4 84.5 3.8 86.7 C 4.2 88.8 5.3 91.5 5.9 92.5 C 6.6 93.8 8.5 96.3 9.6 97.0 C 11.0 98.0 13.3 99.7 14.2 100.5 C 15.1 101.2 15.9 101.1 18.4 101.5 C 19.9 101.7 22.1 101.8 24.0 101.8 C 24.0 101.8 24.0 101.8 24.0 101.8 Z M 24.6 101.8 C 26.9 101.8 30.6 101.3 31.5 101.3 C 32.4 101.3 35.4 101.6 36.8 101.5 C 38.2 101.5 38.7 101.2 41.1 101.1 C 44.1 101.0 46.1 101.4 46.2 101.4 C 46.7 101.5 48.1 101.9 50.1 101.8 C 52.8 101.6 53.6 102.0 54.8 101.8 C 56.9 101.4 57.1 101.8 58.7 101.7 C 60.3 101.6 61.2 101.8 62.5 101.6 C 63.9 101.4 64.9 101.9 66.2 101.8 C 68.2 101.8 68.0 98.1 66.1 98.1 C 64.9 98.1 63.9 98.5 62.7 98.5 C 61.5 98.5 60.5 98.5 59.3 98.3 C 58.1 98.2 55.6 98.4 53.7 98.3 C 51.7 98.2 48.5 98.0 46.2 98.1 C 44.0 98.2 42.6 99.0 38.0 98.5 C 36.5 98.3 33.5 98.4 32.3 98.4 C 30.2 98.4 26.2 98.2 24.4 98.2 C 22.3 98.2 22.4 101.8 24.6 101.8 C 24.6 101.8 24.6 101.8 24.6 101.8 Z M 108.3 101.8 C 110.2 101.8 110.6 98.2 108.3 98.2 C 106.0 98.2 101.7 98.5 100.5 98.4 C 99.2 98.3 94.0 98.1 93.0 98.1 C 91.9 98.1 88.0 98.7 85.7 98.4 C 83.4 98.0 81.2 98.7 79.7 98.5 C 77.8 98.3 76.7 98.5 75.2 98.6 C 73.8 98.6 71.5 97.9 70.2 98.2 C 69.0 98.5 68.3 98.2 66.5 98.2 C 64.8 98.2 64.8 101.8 66.4 101.8 C 68.1 101.8 69.5 101.8 71.1 101.7 C 72.8 101.6 74.8 101.5 76.5 101.5 C 78.1 101.5 80.6 102.0 82.4 101.8 C 84.3 101.5 87.0 101.4 88.1 101.4 C 89.5 101.3 92.4 101.5 93.6 101.2 C 95.2 101.0 98.0 101.4 99.0 101.7 C 100.0 102.0 100.7 101.6 102.9 101.6 C 104.2 101.7 106.3 101.8 108.3 101.8 C 108.3 101.8 108.3 101.8 108.3 101.8 Z M 108.9 101.8 C 111.1 101.8 114.8 101.3 115.7 101.3 C 116.6 101.3 119.6 101.6 121.1 101.5 C 122.5 101.5 123.0 101.2 125.4 101.1 C 128.4 101.0 130.3 101.4 130.5 101.4 C 130.9 101.5 132.3 101.9 134.4 101.8 C 137.1 101.6 137.9 102.0 139.1 101.8 C 141.1 101.4 141.3 101.8 142.9 101.7 C 144.5 101.6 145.5 101.8 146.7 101.6 C 148.1 101.4 149.3 101.9 150.8 101.6 C 153.0 101.2 151.7 97.7 150.1 98.0 C 149.1 98.1 148.2 98.5 147.0 98.5 C 145.8 98.5 144.7 98.5 143.5 98.3 C 142.3 98.2 139.9 98.4 137.9 98.3 C 136.0 98.2 132.7 98.0 130.5 98.1 C 128.2 98.2 126.8 99.0 122.2 98.5 C 120.7 98.3 117.8 98.4 116.6 98.4 C 114.5 98.4 110.4 98.2 108.6 98.2 C 106.6 98.2 106.6 101.8 108.9 101.8 C 108.9 101.8 108.9 101.8 108.9 101.8 Z M 164.8 64.2 C 164.8 62.2 161.1 61.9 161.1 64.2 C 161.1 66.5 161.5 70.7 161.4 72.0 C 161.3 73.2 161.1 78.4 161.1 79.5 C 161.1 80.6 161.8 84.6 161.2 86.6 C 160.7 88.6 160.5 90.6 159.7 91.7 C 158.7 93.1 158.2 93.8 157.3 94.8 C 156.5 95.8 154.4 96.2 153.6 97.0 C 152.7 97.7 152.0 97.6 150.5 97.9 C 149.0 98.2 149.2 101.9 151.1 101.5 C 152.9 101.2 154.4 100.6 155.9 99.7 C 157.4 98.7 159.1 97.4 160.4 95.9 C 161.5 94.7 163.3 92.6 163.8 90.6 C 164.2 88.5 164.4 85.4 164.3 84.3 C 164.3 83.0 164.4 80.1 164.2 78.8 C 163.9 77.2 164.3 74.5 164.6 73.4 C 164.9 72.4 164.5 71.7 164.6 69.5 C 164.6 68.2 164.8 66.1 164.8 64.2 C 164.8 64.2 164.8 64.2 164.8 64.2 Z M 161.1 63.9 C 161.1 65.7 164.8 65.7 164.8 63.6 C 164.8 61.5 164.1 56.7 164.2 55.4 C 164.3 54.2 165.0 50.7 165.0 49.6 C 165.0 48.6 163.9 43.3 164.2 41.0 C 164.5 38.8 164.3 38.1 164.3 36.6 C 164.3 35.0 164.1 32.5 164.0 31.0 C 164.0 29.6 164.9 28.2 164.7 26.3 C 164.4 24.4 164.8 23.3 164.8 22.0 C 164.8 19.8 161.1 19.9 161.1 21.9 C 161.1 23.9 160.9 25.2 161.0 26.8 C 161.0 28.5 161.4 29.9 161.0 31.4 C 160.7 33.0 161.1 36.0 161.3 37.9 C 161.5 39.7 161.4 41.8 161.3 43.3 C 161.0 46.2 161.7 53.3 161.3 54.3 C 161.0 55.4 161.3 58.6 161.3 59.8 C 161.3 60.9 161.1 61.5 161.1 63.9 C 161.1 63.9 161.1 63.9 161.1 63.9 Z M 164.8 21.4 C 164.8 19.2 163.2 15.1 162.8 14.2 C 162.4 13.3 160.9 10.4 159.7 9.4 C 158.6 8.4 158.1 8.2 155.9 7.0 C 153.1 5.5 151.0 4.9 150.8 4.8 C 150.4 4.6 148.6 4.1 146.6 4.2 C 143.9 4.4 143.1 4.0 141.9 4.2 C 139.8 4.6 139.6 4.2 138.1 4.3 C 136.5 4.4 135.5 4.2 134.2 4.4 C 132.9 4.6 131.9 4.1 130.6 4.2 C 128.6 4.2 128.8 7.9 130.7 7.9 C 131.8 7.9 132.8 7.5 134.0 7.5 C 135.2 7.5 136.3 7.5 137.5 7.7 C 138.7 7.8 141.1 7.6 143.1 7.7 C 145.0 7.8 148.3 7.8 150.2 8.1 C 152.2 8.4 154.2 7.8 156.8 10.9 C 157.7 11.8 159.3 13.8 159.8 14.7 C 160.7 16.3 161.1 19.9 161.1 21.7 C 161.1 23.8 164.8 23.7 164.8 21.4 C 164.8 21.4 164.8 21.4 164.8 21.4 Z M 88.5 4.2 C 86.5 4.2 86.2 7.8 88.5 7.8 C 90.8 7.8 95.0 7.5 96.3 7.6 C 97.5 7.7 102.7 7.9 103.8 7.9 C 104.9 7.9 108.8 7.3 111.0 7.6 C 113.3 8.0 115.5 7.3 117.1 7.5 C 119.0 7.7 120.0 7.5 121.5 7.4 C 123.0 7.4 125.3 8.1 126.5 7.8 C 127.8 7.5 128.5 7.8 130.2 7.8 C 132.0 7.8 132.0 4.2 130.3 4.2 C 128.7 4.2 127.3 4.2 125.6 4.3 C 124.0 4.4 122.0 4.5 120.2 4.5 C 118.6 4.5 116.2 4.0 114.3 4.2 C 112.5 4.5 109.7 4.6 108.7 4.6 C 107.3 4.7 104.4 4.5 103.1 4.8 C 101.5 5.0 98.8 4.6 97.8 4.3 C 96.7 4.0 96.0 4.4 93.8 4.4 C 92.5 4.3 90.4 4.2 88.5 4.2 C 88.5 4.2 88.5 4.2 88.5 4.2 Z M 87.9 4.2 C 85.6 4.2 81.9 4.7 81.0 4.7 C 80.1 4.7 77.1 4.4 75.7 4.5 C 74.3 4.5 73.8 4.8 71.4 4.9 C 68.4 5.0 66.4 4.6 66.3 4.6 C 65.9 4.5 64.4 4.1 62.4 4.2 C 59.7 4.4 58.9 4.0 57.7 4.2 C 55.6 4.6 55.4 4.2 53.8 4.3 C 52.3 4.4 51.3 4.2 50.0 4.4 C 48.6 4.6 47.6 4.1 46.4 4.2 C 44.3 4.2 44.5 7.9 46.4 7.9 C 47.6 7.9 48.6 7.5 49.8 7.5 C 51.0 7.5 52.0 7.5 53.2 7.7 C 54.4 7.8 56.9 7.6 58.8 7.7 C 60.8 7.8 64.0 8.0 66.3 7.9 C 68.5 7.8 69.9 7.0 74.5 7.5 C 76.0 7.7 79.0 7.6 80.2 7.6 C 82.3 7.6 86.3 7.8 88.1 7.8 C 90.2 7.8 90.1 4.2 87.9 4.2 C 87.9 4.2 87.9 4.2 87.9 4.2 Z M 5.7 12.9 C 4.7 14.8 8.0 16.4 8.9 14.7 C 9.9 12.9 12.3 10.2 13.3 9.6 C 14.3 9.1 18.7 8.0 19.6 7.9 C 20.6 7.8 24.5 7.3 26.8 7.6 C 29.1 8.0 31.3 7.3 32.8 7.5 C 34.8 7.7 35.8 7.5 37.3 7.4 C 38.7 7.4 41.0 8.1 42.3 7.8 C 43.5 7.5 44.2 7.8 46.0 7.8 C 47.7 7.8 47.7 4.2 46.1 4.2 C 44.4 4.2 43.0 4.2 41.4 4.3 C 39.7 4.4 37.7 4.5 36.0 4.5 C 34.4 4.5 32.0 4.0 30.1 4.2 C 28.2 4.5 25.5 4.6 24.4 4.6 C 23.1 4.7 20.1 4.5 18.7 4.8 C 17.0 5.3 14.1 5.9 13.0 6.1 C 11.8 6.3 11.3 7.0 9.5 8.5 C 8.4 9.4 6.8 11.0 5.7 12.9 C 5.7 12.9 5.7 12.9 5.7 12.9 Z M 5.7 12.9 " fill="#D35854"></path></g></svg>