<?xml version="1.0" encoding="UTF-8" standalone="no"?><svg xmlns="http://www.w3.org/2000/svg" xmlns:xlink="http://www.w3.org/1999/xlink" clip-rule="evenodd" stroke-miterlimit="10" viewBox="0 0 338 74"><desc>SVG generated by Keynote</desc><defs></defs><g transform="matrix(1.00, 0.00, -0.00, -1.00, 0.0, 74.0)"><text xml:space="preserve" font-family="Helvetica-Light,Helvetica" font-size="36.0" fill="#FEFFFF" transform="matrix(1.00, 0.00, -0.00, -1.00, -0.5, 45.9)">U</text><text xml:space="preserve" font-family="Helvetica-Light,Helvetica" font-size="36.0" fill="#FEFFFF" transform="matrix(1.00, 0.00, -0.00, -1.00, 25.5, 45.9)">p</text><text xml:space="preserve" font-family="Helvetica-Light,Helvetica" font-size="36.0" fill="#FEFFFF" transform="matrix(1.00, 0.00, -0.00, -1.00, 47.5, 45.9)">p</text><text xml:space="preserve" font-family="Helvetica-Light,Helvetica" font-size="36.0" fill="#FEFFFF" transform="matrix(1.00, 0.00, -0.00, -1.00, 69.5, 45.9)">e</text><text xml:space="preserve" font-family="Helvetica-Light,Helvetica" font-size="36.0" fill="#FEFFFF" transform="matrix(1.00, 0.00, -0.00, -1.00, 89.5, 45.9)">r</text><text xml:space="preserve" font-family="Helvetica-Light,Helvetica" font-size="36.0" fill="#FEFFFF" transform="matrix(1.00, 0.00, -0.00, -1.00, 100.8, 45.9)">c</text><text xml:space="preserve" font-family="Helvetica-Light,Helvetica" font-size="36.0" fill="#FEFFFF" transform="matrix(1.00, 0.00, -0.00, -1.00, 120.8, 45.9)">a</text><text xml:space="preserve" font-family="Helvetica-Light,Helvetica" font-size="36.0" fill="#FEFFFF" transform="matrix(1.00, 0.00, -0.00, -1.00, 140.9, 45.9)">s</text><text xml:space="preserve" font-family="Helvetica-Light,Helvetica" font-size="36.0" fill="#FEFFFF" transform="matrix(1.00, 0.00, -0.00, -1.00, 158.9, 45.9)">e</text><text xml:space="preserve" font-family="Helvetica-Light,Helvetica" font-size="36.0" fill="#FEFFFF" transform="matrix(1.00, 0.00, -0.00, -1.00, 178.9, 45.9)">:</text><text xml:space="preserve" font-family="Helvetica-Light,Helvetica" font-size="36.0" fill="#FEFFFF" transform="matrix(1.00, 0.00, -0.00, -1.00, 188.9, 45.9)"> </text><text xml:space="preserve" font-family="Helvetica-Light,Helvetica" font-size="36.0" fill="#FEFFFF" transform="matrix(1.00, 0.00, -0.00, -1.00, 198.9, 45.9)">a</text><text xml:space="preserve" font-family="Helvetica-Light,Helvetica" font-size="36.0" fill="#FEFFFF" transform="matrix(1.00, 0.00, -0.00, -1.00, 218.9, 45.9)">b</text><text xml:space="preserve" font-family="Helvetica-Light,Helvetica" font-size="36.0" fill="#FEFFFF" transform="matrix(1.00, 0.00, -0.00, -1.00, 240.9, 45.9)">s</text><text xml:space="preserve" font-family="Helvetica-Light,Helvetica" font-size="36.0" fill="#FEFFFF" transform="matrix(1.00, 0.00, -0.00, -1.00, 258.9, 45.9)">o</text><text xml:space="preserve" font-family="Helvetica-Light,Helvetica" font-size="36.0" fill="#FEFFFF" transform="matrix(1.00, 0.00, -0.00, -1.00, 278.9, 45.9)">l</text><text xml:space="preserve" font-family="Helvetica-Light,Helvetica" font-size="36.0" fill="#FEFFFF" transform="matrix(1.00, 0.00, -0.00, -1.00, 286.9, 45.9)">u</text><text xml:space="preserve" font-family="Helvetica-Light,Helvetica" font-size="36.0" fill="#FEFFFF" transform="matrix(1.00, 0.00, -0.00, -1.00, 306.9, 45.9)">t</text><text xml:space="preserve" font-family="Helvetica-Light,Helvetica" font-size="36.0" fill="#FEFFFF" transform="matrix(1.00, 0.00, -0.00, -1.00, 316.9, 45.9)">e</text><text xml:space="preserve" font-family="Helvetica-Light,Helvetica" font-size="36.0" fill="#FEFFFF" transform="matrix(1.00, 0.00, -0.00, -1.00, 337.0, 45.9)"> </text><text xml:space="preserve" font-family="Helvetica-Light,Helvetica" font-size="36.0" fill="#FEFFFF" transform="matrix(1.00, 0.00, -0.00, -1.00, 12.8, 2.9)">L</text><text xml:space="preserve" font-family="Helvetica-Light,Helvetica" font-size="36.0" fill="#FEFFFF" transform="matrix(1.00, 0.00, -0.00, -1.00, 32.8, 2.9)">o</text><text xml:space="preserve" font-family="Helvetica-Light,Helvetica" font-size="36.0" fill="#FEFFFF" transform="matrix(1.00, 0.00, -0.00, -1.00, 52.8, 2.9)">w</text><text xml:space="preserve" font-family="Helvetica-Light,Helvetica" font-size="36.0" fill="#FEFFFF" transform="matrix(1.00, 0.00, -0.00, -1.00, 78.8, 2.9)">e</text><text xml:space="preserve" font-family="Helvetica-Light,Helvetica" font-size="36.0" fill="#FEFFFF" transform="matrix(1.00, 0.00, -0.00, -1.00, 98.9, 2.9)">r</text><text xml:space="preserve" font-family="Helvetica-Light,Helvetica" font-size="36.0" fill="#FEFFFF" transform="matrix(1.00, 0.00, -0.00, -1.00, 110.2, 2.9)">c</text><text xml:space="preserve" font-family="Helvetica-Light,Helvetica" font-size="36.0" fill="#FEFFFF" transform="matrix(1.00, 0.00, -0.00, -1.00, 130.2, 2.9)">a</text><text xml:space="preserve" font-family="Helvetica-Light,Helvetica" font-size="36.0" fill="#FEFFFF" transform="matrix(1.00, 0.00, -0.00, -1.00, 150.2, 2.9)">s</text><text xml:space="preserve" font-family="Helvetica-Light,Helvetica" font-size="36.0" fill="#FEFFFF" transform="matrix(1.00, 0.00, -0.00, -1.00, 168.2, 2.9)">e</text><text xml:space="preserve" font-family="Helvetica-Light,Helvetica" font-size="36.0" fill="#FEFFFF" transform="matrix(1.00, 0.00, -0.00, -1.00, 188.2, 2.9)">:</text><text xml:space="preserve" font-family="Helvetica-Light,Helvetica" font-size="36.0" fill="#FEFFFF" transform="matrix(1.00, 0.00, -0.00, -1.00, 198.2, 2.9)"> </text><text xml:space="preserve" font-family="Helvetica-Light,Helvetica" font-size="36.0" fill="#FEFFFF" transform="matrix(1.00, 0.00, -0.00, -1.00, 208.3, 2.9)">r</text><text xml:space="preserve" font-family="Helvetica-Light,Helvetica" font-size="36.0" fill="#FEFFFF" transform="matrix(1.00, 0.00, -0.00, -1.00, 219.6, 2.9)">e</text><text xml:space="preserve" font-family="Helvetica-Light,Helvetica" font-size="36.0" fill="#FEFFFF" transform="matrix(1.00, 0.00, -0.00, -1.00, 239.6, 2.9)">l</text><text xml:space="preserve" font-family="Helvetica-Light,Helvetica" font-size="36.0" fill="#FEFFFF" transform="matrix(1.00, 0.00, -0.00, -1.00, 247.6, 2.9)">a</text><text xml:space="preserve" font-family="Helvetica-Light,Helvetica" font-size="36.0" fill="#FEFFFF" transform="matrix(1.00, 0.00, -0.00, -1.00, 267.6, 2.9)">t</text><text xml:space="preserve" font-family="Helvetica-Light,Helvetica" font-size="36.0" fill="#FEFFFF" transform="matrix(1.00, 0.00, -0.00, -1.00, 277.6, 2.9)">i</text><text xml:space="preserve" font-family="Helvetica-Light,Helvetica" font-size="36.0" fill="#FEFFFF" transform="matrix(1.00, 0.00, -0.00, -1.00, 285.6, 2.9)">v</text><text xml:space="preserve" font-family="Helvetica-Light,Helvetica" font-size="36.0" fill="#FEFFFF" transform="matrix(1.00, 0.00, -0.00, -1.00, 303.6, 2.9)">e</text></g></svg>