<?xml version="1.0" encoding="UTF-8" standalone="no"?><svg xmlns="http://www.w3.org/2000/svg" xmlns:xlink="http://www.w3.org/1999/xlink" clip-rule="evenodd" stroke-miterlimit="10" viewBox="0 0 1024 768"><desc>SVG generated by Keynote</desc><defs></defs><g transform="matrix(1.00, 0.00, -0.00, -1.00, 0.0, 768.0)"><path d="M 0.0 768.0 L 1024.0 768.0 L 1024.0 0.0 L 0.0 0.0 Z M 0.0 768.0 " fill="#181A1D"></path><text xml:space="preserve" font-family="Impact,Impact" font-weight="bold" font-size="66.0" fill="#FEFFFF" transform="matrix(1.00, 0.00, -0.00, -1.00, 85.7, 585.0)">S</text><text xml:space="preserve" font-family="Impact,Impact" font-weight="bold" font-size="66.0" fill="#FEFFFF" transform="matrix(1.00, 0.00, -0.00, -1.00, 119.8, 585.0)">c</text><text xml:space="preserve" font-family="Impact,Impact" font-weight="bold" font-size="66.0" fill="#FEFFFF" transform="matrix(1.00, 0.00, -0.00, -1.00, 152.4, 585.0)">a</text><text xml:space="preserve" font-family="Impact,Impact" font-weight="bold" font-size="66.0" fill="#FEFFFF" transform="matrix(1.00, 0.00, -0.00, -1.00, 185.6, 585.0)">l</text><text xml:space="preserve" font-family="Impact,Impact" font-weight="bold" font-size="66.0" fill="#FEFFFF" transform="matrix(1.00, 0.00, -0.00, -1.00, 203.7, 585.0)">a</text><text xml:space="preserve" font-family="Impact,Impact" font-weight="bold" font-size="66.0" fill="#FEFFFF" transform="matrix(1.00, 0.00, -0.00, -1.00, 237.0, 585.0)">b</text><text xml:space="preserve" font-family="Impact,Impact" font-weight="bold" font-size="66.0" fill="#FEFFFF" transform="matrix(1.00, 0.00, -0.00, -1.00, 271.2, 585.0)">l</text><text xml:space="preserve" font-family="Impact,Impact" font-weight="bold" font-size="66.0" fill="#FEFFFF" transform="matrix(1.00, 0.00, -0.00, -1.00, 289.3, 585.0)">e</text><text xml:space="preserve" font-family="Impact,Impact" font-weight="bold" font-size="66.0" fill="#FEFFFF" transform="matrix(1.00, 0.00, -0.00, -1.00, 323.1, 585.0)"> </text><text xml:space="preserve" font-family="Impact,Impact" font-weight="bold" font-size="66.0" fill="#FEFFFF" transform="matrix(1.00, 0.00, -0.00, -1.00, 334.7, 585.0)">V</text><text xml:space="preserve" font-family="Impact,Impact" font-weight="bold" font-size="66.0" fill="#FEFFFF" transform="matrix(1.00, 0.00, -0.00, -1.00, 369.2, 585.0)">e</text><text xml:space="preserve" font-family="Impact,Impact" font-weight="bold" font-size="66.0" fill="#FEFFFF" transform="matrix(1.00, 0.00, -0.00, -1.00, 403.0, 585.0)">c</text><text xml:space="preserve" font-family="Impact,Impact" font-weight="bold" font-size="66.0" fill="#FEFFFF" transform="matrix(1.00, 0.00, -0.00, -1.00, 435.6, 585.0)">t</text><text xml:space="preserve" font-family="Impact,Impact" font-weight="bold" font-size="66.0" fill="#FEFFFF" transform="matrix(1.00, 0.00, -0.00, -1.00, 455.7, 585.0)">o</text><text xml:space="preserve" font-family="Impact,Impact" font-weight="bold" font-size="66.0" fill="#FEFFFF" transform="matrix(1.00, 0.00, -0.00, -1.00, 489.4, 585.0)">r</text><text xml:space="preserve" font-family="Impact,Impact" font-weight="bold" font-size="66.0" fill="#FEFFFF" transform="matrix(1.00, 0.00, -0.00, -1.00, 513.1, 585.0)"> </text><text xml:space="preserve" font-family="Impact,Impact" font-weight="bold" font-size="66.0" fill="#FEFFFF" transform="matrix(1.00, 0.00, -0.00, -1.00, 177.5, 504.0)">G</text><text xml:space="preserve" font-family="Impact,Impact" font-weight="bold" font-size="66.0" fill="#FEFFFF" transform="matrix(1.00, 0.00, -0.00, -1.00, 213.9, 504.0)">r</text><text xml:space="preserve" font-family="Impact,Impact" font-weight="bold" font-size="66.0" fill="#FEFFFF" transform="matrix(1.00, 0.00, -0.00, -1.00, 237.5, 504.0)">a</text><text xml:space="preserve" font-family="Impact,Impact" font-weight="bold" font-size="66.0" fill="#FEFFFF" transform="matrix(1.00, 0.00, -0.00, -1.00, 270.7, 504.0)">p</text><text xml:space="preserve" font-family="Impact,Impact" font-weight="bold" font-size="66.0" fill="#FEFFFF" transform="matrix(1.00, 0.00, -0.00, -1.00, 305.0, 504.0)">h</text><text xml:space="preserve" font-family="Impact,Impact" font-weight="bold" font-size="66.0" fill="#FEFFFF" transform="matrix(1.00, 0.00, -0.00, -1.00, 339.6, 504.0)">i</text><text xml:space="preserve" font-family="Impact,Impact" font-weight="bold" font-size="66.0" fill="#FEFFFF" transform="matrix(1.00, 0.00, -0.00, -1.00, 357.6, 504.0)">c</text><text xml:space="preserve" font-family="Impact,Impact" font-weight="bold" font-size="66.0" fill="#FEFFFF" transform="matrix(1.00, 0.00, -0.00, -1.00, 390.3, 504.0)">s</text><text xml:space="preserve" font-family="Impact,Impact" font-weight="bold" font-size="66.0" fill="#FEFFFF" transform="matrix(1.00, 0.00, -0.00, -1.00, 421.3, 504.0)"> </text><text xml:space="preserve" font-family="Impact,Impact" font-weight="bold" font-size="44.6" fill="#FEFFFF" transform="matrix(1.00, 0.00, -0.00, -1.00, 90.0, 364.5)">R</text><text xml:space="preserve" font-family="Impact,Impact" font-weight="bold" font-size="44.6" fill="#FEFFFF" transform="matrix(1.00, 0.00, -0.00, -1.00, 114.0, 364.5)">e</text><text xml:space="preserve" font-family="Impact,Impact" font-weight="bold" font-size="44.6" fill="#FEFFFF" transform="matrix(1.00, 0.00, -0.00, -1.00, 136.7, 364.5)">p</text><text xml:space="preserve" font-family="Impact,Impact" font-weight="bold" font-size="44.6" fill="#FEFFFF" transform="matrix(1.00, 0.00, -0.00, -1.00, 159.9, 364.5)">r</text><text xml:space="preserve" font-family="Impact,Impact" font-weight="bold" font-size="44.6" fill="#FEFFFF" transform="matrix(1.00, 0.00, -0.00, -1.00, 175.8, 364.5)">e</text><text xml:space="preserve" font-family="Impact,Impact" font-weight="bold" font-size="44.6" fill="#FEFFFF" transform="matrix(1.00, 0.00, -0.00, -1.00, 198.6, 364.5)">s</text><text xml:space="preserve" font-family="Impact,Impact" font-weight="bold" font-size="44.6" fill="#FEFFFF" transform="matrix(1.00, 0.00, -0.00, -1.00, 219.6, 364.5)">e</text><text xml:space="preserve" font-family="Impact,Impact" font-weight="bold" font-size="44.6" fill="#FEFFFF" transform="matrix(1.00, 0.00, -0.00, -1.00, 242.3, 364.5)">n</text><text xml:space="preserve" font-family="Impact,Impact" font-weight="bold" font-size="44.6" fill="#FEFFFF" transform="matrix(1.00, 0.00, -0.00, -1.00, 265.6, 364.5)">t</text><text xml:space="preserve" font-family="Impact,Impact" font-weight="bold" font-size="44.6" fill="#FEFFFF" transform="matrix(1.00, 0.00, -0.00, -1.00, 279.2, 364.5)">i</text><text xml:space="preserve" font-family="Impact,Impact" font-weight="bold" font-size="44.6" fill="#FEFFFF" transform="matrix(1.00, 0.00, -0.00, -1.00, 291.4, 364.5)">n</text><text xml:space="preserve" font-family="Impact,Impact" font-weight="bold" font-size="44.6" fill="#FEFFFF" transform="matrix(1.00, 0.00, -0.00, -1.00, 314.7, 364.5)">g</text><text xml:space="preserve" font-family="Impact,Impact" font-weight="bold" font-size="44.6" fill="#FEFFFF" transform="matrix(1.00, 0.00, -0.00, -1.00, 337.8, 364.5)"> </text><text xml:space="preserve" font-family="Impact,Impact" font-weight="bold" font-size="44.6" fill="#FEFFFF" transform="matrix(1.00, 0.00, -0.00, -1.00, 345.6, 364.5)">g</text><text xml:space="preserve" font-family="Impact,Impact" font-weight="bold" font-size="44.6" fill="#FEFFFF" transform="matrix(1.00, 0.00, -0.00, -1.00, 368.7, 364.5)">r</text><text xml:space="preserve" font-family="Impact,Impact" font-weight="bold" font-size="44.6" fill="#FEFFFF" transform="matrix(1.00, 0.00, -0.00, -1.00, 384.7, 364.5)">a</text><text xml:space="preserve" font-family="Impact,Impact" font-weight="bold" font-size="44.6" fill="#FEFFFF" transform="matrix(1.00, 0.00, -0.00, -1.00, 407.1, 364.5)">p</text><text xml:space="preserve" font-family="Impact,Impact" font-weight="bold" font-size="44.6" fill="#FEFFFF" transform="matrix(1.00, 0.00, -0.00, -1.00, 430.2, 364.5)">h</text><text xml:space="preserve" font-family="Impact,Impact" font-weight="bold" font-size="44.6" fill="#FEFFFF" transform="matrix(1.00, 0.00, -0.00, -1.00, 453.6, 364.5)">i</text><text xml:space="preserve" font-family="Impact,Impact" font-weight="bold" font-size="44.6" fill="#FEFFFF" transform="matrix(1.00, 0.00, -0.00, -1.00, 465.8, 364.5)">c</text><text xml:space="preserve" font-family="Impact,Impact" font-weight="bold" font-size="44.6" fill="#FEFFFF" transform="matrix(1.00, 0.00, -0.00, -1.00, 487.8, 364.5)">s</text><text xml:space="preserve" font-family="Impact,Impact" font-weight="bold" font-size="44.6" fill="#FEFFFF" transform="matrix(1.00, 0.00, -0.00, -1.00, 508.7, 364.5)"> </text><text xml:space="preserve" font-family="Impact,Impact" font-weight="bold" font-size="44.6" fill="#FEFFFF" transform="matrix(1.00, 0.00, -0.00, -1.00, 128.1, 310.5)">w</text><text xml:space="preserve" font-family="Impact,Impact" font-weight="bold" font-size="44.6" fill="#FEFFFF" transform="matrix(1.00, 0.00, -0.00, -1.00, 158.0, 310.5)">i</text><text xml:space="preserve" font-family="Impact,Impact" font-weight="bold" font-size="44.6" fill="#FEFFFF" transform="matrix(1.00, 0.00, -0.00, -1.00, 170.2, 310.5)">t</text><text xml:space="preserve" font-family="Impact,Impact" font-weight="bold" font-size="44.6" fill="#FEFFFF" transform="matrix(1.00, 0.00, -0.00, -1.00, 183.7, 310.5)">h</text><text xml:space="preserve" font-family="Impact,Impact" font-weight="bold" font-size="44.6" fill="#FEFFFF" transform="matrix(1.00, 0.00, -0.00, -1.00, 207.1, 310.5)"> </text><text xml:space="preserve" font-family="Impact,Impact" font-weight="bold" font-size="44.6" fill="#FEFFFF" transform="matrix(1.00, 0.00, -0.00, -1.00, 214.9, 310.5)">m</text><text xml:space="preserve" font-family="Impact,Impact" font-weight="bold" font-size="44.6" fill="#FEFFFF" transform="matrix(1.00, 0.00, -0.00, -1.00, 249.3, 310.5)">a</text><text xml:space="preserve" font-family="Impact,Impact" font-weight="bold" font-size="44.6" fill="#FEFFFF" transform="matrix(1.00, 0.00, -0.00, -1.00, 271.7, 310.5)">t</text><text xml:space="preserve" font-family="Impact,Impact" font-weight="bold" font-size="44.6" fill="#FEFFFF" transform="matrix(1.00, 0.00, -0.00, -1.00, 285.3, 310.5)">h</text><text xml:space="preserve" font-family="Impact,Impact" font-weight="bold" font-size="44.6" fill="#FEFFFF" transform="matrix(1.00, 0.00, -0.00, -1.00, 308.6, 310.5)">e</text><text xml:space="preserve" font-family="Impact,Impact" font-weight="bold" font-size="44.6" fill="#FEFFFF" transform="matrix(1.00, 0.00, -0.00, -1.00, 331.4, 310.5)">m</text><text xml:space="preserve" font-family="Impact,Impact" font-weight="bold" font-size="44.6" fill="#FEFFFF" transform="matrix(1.00, 0.00, -0.00, -1.00, 365.8, 310.5)">a</text><text xml:space="preserve" font-family="Impact,Impact" font-weight="bold" font-size="44.6" fill="#FEFFFF" transform="matrix(1.00, 0.00, -0.00, -1.00, 388.2, 310.5)">t</text><text xml:space="preserve" font-family="Impact,Impact" font-weight="bold" font-size="44.6" fill="#FEFFFF" transform="matrix(1.00, 0.00, -0.00, -1.00, 401.8, 310.5)">i</text><text xml:space="preserve" font-family="Impact,Impact" font-weight="bold" font-size="44.6" fill="#FEFFFF" transform="matrix(1.00, 0.00, -0.00, -1.00, 414.0, 310.5)">c</text><text xml:space="preserve" font-family="Impact,Impact" font-weight="bold" font-size="44.6" fill="#FEFFFF" transform="matrix(1.00, 0.00, -0.00, -1.00, 436.0, 310.5)">a</text><text xml:space="preserve" font-family="Impact,Impact" font-weight="bold" font-size="44.6" fill="#FEFFFF" transform="matrix(1.00, 0.00, -0.00, -1.00, 458.4, 310.5)">l</text><text xml:space="preserve" font-family="Impact,Impact" font-weight="bold" font-size="44.6" fill="#FEFFFF" transform="matrix(1.00, 0.00, -0.00, -1.00, 470.6, 310.5)"> </text><text xml:space="preserve" font-family="Impact,Impact" font-weight="bold" font-size="44.6" fill="#FEFFFF" transform="matrix(1.00, 0.00, -0.00, -1.00, 126.1, 256.5)">e</text><text xml:space="preserve" font-family="Impact,Impact" font-weight="bold" font-size="44.6" fill="#FEFFFF" transform="matrix(1.00, 0.00, -0.00, -1.00, 148.8, 256.5)">x</text><text xml:space="preserve" font-family="Impact,Impact" font-weight="bold" font-size="44.6" fill="#FEFFFF" transform="matrix(1.00, 0.00, -0.00, -1.00, 168.1, 256.5)">p</text><text xml:space="preserve" font-family="Impact,Impact" font-weight="bold" font-size="44.6" fill="#FEFFFF" transform="matrix(1.00, 0.00, -0.00, -1.00, 191.3, 256.5)">r</text><text xml:space="preserve" font-family="Impact,Impact" font-weight="bold" font-size="44.6" fill="#FEFFFF" transform="matrix(1.00, 0.00, -0.00, -1.00, 207.2, 256.5)">e</text><text xml:space="preserve" font-family="Impact,Impact" font-weight="bold" font-size="44.6" fill="#FEFFFF" transform="matrix(1.00, 0.00, -0.00, -1.00, 230.0, 256.5)">s</text><text xml:space="preserve" font-family="Impact,Impact" font-weight="bold" font-size="44.6" fill="#FEFFFF" transform="matrix(1.00, 0.00, -0.00, -1.00, 251.0, 256.5)">s</text><text xml:space="preserve" font-family="Impact,Impact" font-weight="bold" font-size="44.6" fill="#FEFFFF" transform="matrix(1.00, 0.00, -0.00, -1.00, 271.9, 256.5)">i</text><text xml:space="preserve" font-family="Impact,Impact" font-weight="bold" font-size="44.6" fill="#FEFFFF" transform="matrix(1.00, 0.00, -0.00, -1.00, 284.1, 256.5)">o</text><text xml:space="preserve" font-family="Impact,Impact" font-weight="bold" font-size="44.6" fill="#FEFFFF" transform="matrix(1.00, 0.00, -0.00, -1.00, 306.9, 256.5)">n</text><text xml:space="preserve" font-family="Impact,Impact" font-weight="bold" font-size="44.6" fill="#FEFFFF" transform="matrix(1.00, 0.00, -0.00, -1.00, 330.2, 256.5)">s</text><text xml:space="preserve" font-family="Impact,Impact" font-weight="bold" font-size="44.6" fill="#FEFFFF" transform="matrix(1.00, 0.00, -0.00, -1.00, 351.2, 256.5)"> </text><text xml:space="preserve" font-family="Impact,Impact" font-weight="bold" font-size="44.6" fill="#FEFFFF" transform="matrix(1.00, 0.00, -0.00, -1.00, 359.1, 256.5)">i</text><text xml:space="preserve" font-family="Impact,Impact" font-weight="bold" font-size="44.6" fill="#FEFFFF" transform="matrix(1.00, 0.00, -0.00, -1.00, 371.3, 256.5)">n</text><text xml:space="preserve" font-family="Impact,Impact" font-weight="bold" font-size="44.6" fill="#FEFFFF" transform="matrix(1.00, 0.00, -0.00, -1.00, 394.6, 256.5)"> </text><text xml:space="preserve" font-family="Impact,Impact" font-weight="bold" font-size="44.6" fill="#FEFFFF" transform="matrix(1.00, 0.00, -0.00, -1.00, 402.4, 256.5)">X</text><text xml:space="preserve" font-family="Impact,Impact" font-weight="bold" font-size="44.6" fill="#FEFFFF" transform="matrix(1.00, 0.00, -0.00, -1.00, 424.0, 256.5)">M</text><text xml:space="preserve" font-family="Impact,Impact" font-weight="bold" font-size="44.6" fill="#FEFFFF" transform="matrix(1.00, 0.00, -0.00, -1.00, 455.9, 256.5)">L</text><image xlink:href="8ABD4BDB85FD776EBB9BA5302B2007C3.png" width="512.00" height="512.00" transform="matrix(1.02, 0.00, -0.00, -1.02, 469.0, 713.0)"></image><text xml:space="preserve" font-family="Trattatello,Trattatello" font-size="56.0" fill="#FEFFFF" transform="matrix(1.00, 0.00, -0.00, -1.00, 183.4, 140.8)">l</text><text xml:space="preserve" font-family="Trattatello,Trattatello" font-size="56.0" fill="#FEFFFF" transform="matrix(1.00, 0.00, -0.00, -1.00, 200.2, 140.8)">i</text><text xml:space="preserve" font-family="Trattatello,Trattatello" font-size="56.0" fill="#FEFFFF" transform="matrix(1.00, 0.00, -0.00, -1.00, 213.7, 140.8)">k</text><text xml:space="preserve" font-family="Trattatello,Trattatello" font-size="56.0" fill="#FEFFFF" transform="matrix(1.00, 0.00, -0.00, -1.00, 238.3, 140.8)">e</text><text xml:space="preserve" font-family="Trattatello,Trattatello" font-size="56.0" fill="#FEFFFF" transform="matrix(1.00, 0.00, -0.00, -1.00, 254.2, 140.8)"> </text><text xml:space="preserve" font-family="Trattatello,Trattatello" font-size="56.0" fill="#FEFFFF" transform="matrix(1.00, 0.00, -0.00, -1.00, 269.4, 140.8)">i</text><text xml:space="preserve" font-family="Trattatello,Trattatello" font-size="56.0" fill="#FEFFFF" transform="matrix(1.00, 0.00, -0.00, -1.00, 283.0, 140.8)">s</text><text xml:space="preserve" font-family="Trattatello,Trattatello" font-size="56.0" fill="#FEFFFF" transform="matrix(1.00, 0.00, -0.00, -1.00, 298.2, 140.8)"> </text><text xml:space="preserve" font-family="Trattatello,Trattatello" font-size="56.0" fill="#FEFFFF" transform="matrix(1.00, 0.00, -0.00, -1.00, 313.4, 140.8)">1</text><text xml:space="preserve" font-family="Trattatello,Trattatello" font-size="56.0" fill="#FEFFFF" transform="matrix(1.00, 0.00, -0.00, -1.00, 338.5, 140.8)">9</text><text xml:space="preserve" font-family="Trattatello,Trattatello" font-size="56.0" fill="#FEFFFF" transform="matrix(1.00, 0.00, -0.00, -1.00, 364.2, 140.8)">9</text><text xml:space="preserve" font-family="Trattatello,Trattatello" font-size="56.0" fill="#FEFFFF" transform="matrix(1.00, 0.00, -0.00, -1.00, 389.9, 140.8)">8</text></g></svg>