<?xml version="1.0" encoding="UTF-8" standalone="no"?><svg xmlns="http://www.w3.org/2000/svg" xmlns:xlink="http://www.w3.org/1999/xlink" clip-rule="evenodd" stroke-miterlimit="10" viewBox="0 0 1024 768"><desc>SVG generated by Keynote</desc><defs></defs><g transform="matrix(1.00, 0.00, -0.00, -1.00, 0.0, 768.0)"><path d="M 0.0 768.0 L 1024.0 768.0 L 1024.0 0.0 L 0.0 0.0 Z M 0.0 768.0 " fill="#000000"></path><text xml:space="preserve" font-family="AvenirNext-Regular,Avenir Next" font-size="79.2" fill="#FEFFFF" transform="matrix(1.00, 0.00, -0.00, -1.00, 55.8, 573.3)">N</text><text xml:space="preserve" font-family="AvenirNext-Regular,Avenir Next" font-size="79.2" fill="#FEFFFF" transform="matrix(1.00, 0.00, -0.00, -1.00, 116.3, 573.3)">e</text><text xml:space="preserve" font-family="AvenirNext-Regular,Avenir Next" font-size="79.2" fill="#FEFFFF" transform="matrix(1.00, 0.00, -0.00, -1.00, 161.2, 573.3)">x</text><text xml:space="preserve" font-family="AvenirNext-Regular,Avenir Next" font-size="79.2" fill="#FEFFFF" transform="matrix(1.00, 0.00, -0.00, -1.00, 199.5, 573.3)">t</text><text xml:space="preserve" font-family="AvenirNext-Regular,Avenir Next" font-size="79.2" fill="#FEFFFF" transform="matrix(1.00, 0.00, -0.00, -1.00, 224.6, 573.3)"> </text><text xml:space="preserve" font-family="AvenirNext-Regular,Avenir Next" font-size="79.2" fill="#FEFFFF" transform="matrix(1.00, 0.00, -0.00, -1.00, 244.4, 573.3)">g</text><text xml:space="preserve" font-family="AvenirNext-Regular,Avenir Next" font-size="79.2" fill="#FEFFFF" transform="matrix(1.00, 0.00, -0.00, -1.00, 294.4, 573.3)">e</text><text xml:space="preserve" font-family="AvenirNext-Regular,Avenir Next" font-size="79.2" fill="#FEFFFF" transform="matrix(1.00, 0.00, -0.00, -1.00, 339.7, 573.3)">n</text><text xml:space="preserve" font-family="AvenirNext-Regular,Avenir Next" font-size="79.2" fill="#FEFFFF" transform="matrix(1.00, 0.00, -0.00, -1.00, 385.8, 573.3)">e</text><text xml:space="preserve" font-family="AvenirNext-Regular,Avenir Next" font-size="79.2" fill="#FEFFFF" transform="matrix(1.00, 0.00, -0.00, -1.00, 431.1, 573.3)">r</text><text xml:space="preserve" font-family="AvenirNext-Regular,Avenir Next" font-size="79.2" fill="#FEFFFF" transform="matrix(1.00, 0.00, -0.00, -1.00, 458.6, 573.3)">a</text><text xml:space="preserve" font-family="AvenirNext-Regular,Avenir Next" font-size="79.2" fill="#FEFFFF" transform="matrix(1.00, 0.00, -0.00, -1.00, 500.1, 573.3)">t</text><text xml:space="preserve" font-family="AvenirNext-Regular,Avenir Next" font-size="79.2" fill="#FEFFFF" transform="matrix(1.00, 0.00, -0.00, -1.00, 525.2, 573.3)">i</text><text xml:space="preserve" font-family="AvenirNext-Regular,Avenir Next" font-size="79.2" fill="#FEFFFF" transform="matrix(1.00, 0.00, -0.00, -1.00, 545.0, 573.3)">o</text><text xml:space="preserve" font-family="AvenirNext-Regular,Avenir Next" font-size="79.2" fill="#FEFFFF" transform="matrix(1.00, 0.00, -0.00, -1.00, 593.4, 573.3)">n</text><text xml:space="preserve" font-family="AvenirNext-Regular,Avenir Next" font-size="79.2" fill="#FEFFFF" transform="matrix(1.00, 0.00, -0.00, -1.00, 639.4, 573.3)"> </text><text xml:space="preserve" font-family="AvenirNext-Regular,Avenir Next" font-size="79.2" fill="#FEFFFF" transform="matrix(1.00, 0.00, -0.00, -1.00, 659.2, 573.3)">g</text><text xml:space="preserve" font-family="AvenirNext-Regular,Avenir Next" font-size="79.2" fill="#FEFFFF" transform="matrix(1.00, 0.00, -0.00, -1.00, 709.3, 573.3)">r</text><text xml:space="preserve" font-family="AvenirNext-Regular,Avenir Next" font-size="79.2" fill="#FEFFFF" transform="matrix(1.00, 0.00, -0.00, -1.00, 736.9, 573.3)">a</text><text xml:space="preserve" font-family="AvenirNext-Regular,Avenir Next" font-size="79.2" fill="#FEFFFF" transform="matrix(1.00, 0.00, -0.00, -1.00, 779.2, 573.3)">p</text><text xml:space="preserve" font-family="AvenirNext-Regular,Avenir Next" font-size="79.2" fill="#FEFFFF" transform="matrix(1.00, 0.00, -0.00, -1.00, 829.4, 573.3)">h</text><text xml:space="preserve" font-family="AvenirNext-Regular,Avenir Next" font-size="79.2" fill="#FEFFFF" transform="matrix(1.00, 0.00, -0.00, -1.00, 875.6, 573.3)">i</text><text xml:space="preserve" font-family="AvenirNext-Regular,Avenir Next" font-size="79.2" fill="#FEFFFF" transform="matrix(1.00, 0.00, -0.00, -1.00, 895.4, 573.3)">c</text><text xml:space="preserve" font-family="AvenirNext-Regular,Avenir Next" font-size="79.2" fill="#FEFFFF" transform="matrix(1.00, 0.00, -0.00, -1.00, 935.0, 573.3)">s</text><text xml:space="preserve" font-family="AvenirNext-Regular,Avenir Next" font-size="131.8" fill="#FEFFFF" transform="matrix(1.00, 0.00, -0.00, -1.00, 500.8, 341.3)">S</text><text xml:space="preserve" font-family="AvenirNext-Regular,Avenir Next" font-size="131.8" fill="#FEFFFF" transform="matrix(1.00, 0.00, -0.00, -1.00, 573.5, 341.3)">V</text><text xml:space="preserve" font-family="AvenirNext-Regular,Avenir Next" font-size="131.8" fill="#FEFFFF" transform="matrix(1.00, 0.00, -0.00, -1.00, 654.0, 341.3)">G</text><text xml:space="preserve" font-family="Helvetica-Light,Helvetica" font-size="38.0" fill="#FEFFFF" transform="matrix(1.00, 0.00, -0.00, -1.00, 346.2, 175.3)">b</text><text xml:space="preserve" font-family="Helvetica-Light,Helvetica" font-size="38.0" fill="#FEFFFF" transform="matrix(1.00, 0.00, -0.00, -1.00, 369.5, 175.3)">y</text><text xml:space="preserve" font-family="Helvetica-Light,Helvetica" font-size="38.0" fill="#FEFFFF" transform="matrix(1.00, 0.00, -0.00, -1.00, 388.5, 175.3)"> </text><text xml:space="preserve" font-family="Helvetica-Light,Helvetica" font-size="38.0" fill="#FEFFFF" transform="matrix(1.00, 0.00, -0.00, -1.00, 399.0, 175.3)">D</text><text xml:space="preserve" font-family="Helvetica-Light,Helvetica" font-size="38.0" fill="#FEFFFF" transform="matrix(1.00, 0.00, -0.00, -1.00, 426.5, 175.3)">a</text><text xml:space="preserve" font-family="Helvetica-Light,Helvetica" font-size="38.0" fill="#FEFFFF" transform="matrix(1.00, 0.00, -0.00, -1.00, 447.6, 175.3)">v</text><text xml:space="preserve" font-family="Helvetica-Light,Helvetica" font-size="38.0" fill="#FEFFFF" transform="matrix(1.00, 0.00, -0.00, -1.00, 466.6, 175.3)">i</text><text xml:space="preserve" font-family="Helvetica-Light,Helvetica" font-size="38.0" fill="#FEFFFF" transform="matrix(1.00, 0.00, -0.00, -1.00, 475.0, 175.3)">d</text><text xml:space="preserve" font-family="Helvetica-Light,Helvetica" font-size="38.0" fill="#FEFFFF" transform="matrix(1.00, 0.00, -0.00, -1.00, 498.2, 175.3)"> </text><text xml:space="preserve" font-family="Helvetica-Light,Helvetica" font-size="38.0" fill="#FEFFFF" transform="matrix(1.00, 0.00, -0.00, -1.00, 508.8, 175.3)">C</text><text xml:space="preserve" font-family="Helvetica-Light,Helvetica" font-size="38.0" fill="#FEFFFF" transform="matrix(1.00, 0.00, -0.00, -1.00, 536.2, 175.3)">o</text><text xml:space="preserve" font-family="Helvetica-Light,Helvetica" font-size="38.0" fill="#FEFFFF" transform="matrix(1.00, 0.00, -0.00, -1.00, 557.4, 175.3)">r</text><text xml:space="preserve" font-family="Helvetica-Light,Helvetica" font-size="38.0" fill="#FEFFFF" transform="matrix(1.00, 0.00, -0.00, -1.00, 570.0, 175.3)">b</text><text xml:space="preserve" font-family="Helvetica-Light,Helvetica" font-size="38.0" fill="#FEFFFF" transform="matrix(1.00, 0.00, -0.00, -1.00, 593.2, 175.3)">a</text><text xml:space="preserve" font-family="Helvetica-Light,Helvetica" font-size="38.0" fill="#FEFFFF" transform="matrix(1.00, 0.00, -0.00, -1.00, 614.4, 175.3)">c</text><text xml:space="preserve" font-family="Helvetica-Light,Helvetica" font-size="38.0" fill="#FEFFFF" transform="matrix(1.00, 0.00, -0.00, -1.00, 635.5, 175.3)">h</text><text xml:space="preserve" font-family="Helvetica-Light,Helvetica" font-size="38.0" fill="#FEFFFF" transform="matrix(1.00, 0.00, -0.00, -1.00, 656.6, 175.3)">o</text><image xlink:href="7A8FA5978A09970D7E9D88E5FDFA76F3.png" width="709.00" height="709.00" transform="matrix(0.27, 0.00, -0.00, -0.27, 259.0, 477.0)"></image></g></svg>