<?xml version="1.0" encoding="UTF-8" standalone="no"?><svg xmlns="http://www.w3.org/2000/svg" xmlns:xlink="http://www.w3.org/1999/xlink" clip-rule="evenodd" stroke-miterlimit="10" viewBox="0 0 406 54"><desc>SVG generated by Keynote</desc><defs></defs><g transform="matrix(1.00, 0.00, -0.00, -1.00, 0.0, 54.0)"><text xml:space="preserve" font-family="AvenirNext-Regular,Avenir Next" font-size="50.0" fill="#FEFFFF" transform="matrix(1.00, 0.00, -0.00, -1.00, -0.4, 13.3)">a</text><text xml:space="preserve" font-family="AvenirNext-Regular,Avenir Next" font-size="50.0" fill="#FEFFFF" transform="matrix(1.00, 0.00, -0.00, -1.00, 26.3, 13.3)">n</text><text xml:space="preserve" font-family="AvenirNext-Regular,Avenir Next" font-size="50.0" fill="#FEFFFF" transform="matrix(1.00, 0.00, -0.00, -1.00, 55.3, 13.3)">d</text><text xml:space="preserve" font-family="AvenirNext-Regular,Avenir Next" font-size="50.0" fill="#FEFFFF" transform="matrix(1.00, 0.00, -0.00, -1.00, 87.2, 13.3)"> </text><text xml:space="preserve" font-family="AvenirNext-Regular,Avenir Next" font-size="50.0" fill="#FEFFFF" transform="matrix(1.00, 0.00, -0.00, -1.00, 99.7, 13.3)">i</text><text xml:space="preserve" font-family="AvenirNext-Regular,Avenir Next" font-size="50.0" fill="#FEFFFF" transform="matrix(1.00, 0.00, -0.00, -1.00, 112.2, 13.3)">t</text><text xml:space="preserve" font-family="AvenirNext-Regular,Avenir Next" font-size="50.0" fill="#FEFFFF" transform="matrix(1.00, 0.00, -0.00, -1.00, 128.0, 13.3)"> </text><text xml:space="preserve" font-family="AvenirNext-Regular,Avenir Next" font-size="50.0" fill="#FEFFFF" transform="matrix(1.00, 0.00, -0.00, -1.00, 140.5, 13.3)">h</text><text xml:space="preserve" font-family="AvenirNext-Regular,Avenir Next" font-size="50.0" fill="#FEFFFF" transform="matrix(1.00, 0.00, -0.00, -1.00, 169.7, 13.3)">a</text><text xml:space="preserve" font-family="AvenirNext-Regular,Avenir Next" font-size="50.0" fill="#FEFFFF" transform="matrix(1.00, 0.00, -0.00, -1.00, 196.4, 13.3)">s</text><text xml:space="preserve" font-family="AvenirNext-Regular,Avenir Next" font-size="50.0" fill="#FEFFFF" transform="matrix(1.00, 0.00, -0.00, -1.00, 218.6, 13.3)"> </text><text xml:space="preserve" font-family="AvenirNext-Regular,Avenir Next" font-size="50.0" fill="#FEFFFF" transform="matrix(1.00, 0.00, -0.00, -1.00, 231.1, 13.3)">“</text><text xml:space="preserve" font-family="AvenirNext-Regular,Avenir Next" font-size="50.0" fill="#FEFFFF" transform="matrix(1.00, 0.00, -0.00, -1.00, 248.3, 13.3)">q</text><text xml:space="preserve" font-family="AvenirNext-Regular,Avenir Next" font-size="50.0" fill="#FEFFFF" transform="matrix(1.00, 0.00, -0.00, -1.00, 280.1, 13.3)">u</text><text xml:space="preserve" font-family="AvenirNext-Regular,Avenir Next" font-size="50.0" fill="#FEFFFF" transform="matrix(1.00, 0.00, -0.00, -1.00, 309.1, 13.3)">i</text><text xml:space="preserve" font-family="AvenirNext-Regular,Avenir Next" font-size="50.0" fill="#FEFFFF" transform="matrix(1.00, 0.00, -0.00, -1.00, 321.6, 13.3)">r</text><text xml:space="preserve" font-family="AvenirNext-Regular,Avenir Next" font-size="50.0" fill="#FEFFFF" transform="matrix(1.00, 0.00, -0.00, -1.00, 339.6, 13.3)">k</text><text xml:space="preserve" font-family="AvenirNext-Regular,Avenir Next" font-size="50.0" fill="#FEFFFF" transform="matrix(1.00, 0.00, -0.00, -1.00, 364.8, 13.3)">s</text><text xml:space="preserve" font-family="AvenirNext-Regular,Avenir Next" font-size="50.0" fill="#FEFFFF" transform="matrix(1.00, 0.00, -0.00, -1.00, 387.0, 13.3)">”</text></g></svg>