<?xml version="1.0" encoding="UTF-8" standalone="no"?><svg xmlns="http://www.w3.org/2000/svg" xmlns:xlink="http://www.w3.org/1999/xlink" clip-rule="evenodd" stroke-miterlimit="10" viewBox="0 0 1024 768"><desc>SVG generated by Keynote</desc><defs></defs><g transform="matrix(1.00, 0.00, -0.00, -1.00, 0.0, 768.0)"><path d="M 0.0 768.0 L 1024.0 768.0 L 1024.0 0.0 L 0.0 0.0 Z M 0.0 768.0 " fill="#000000"></path><text xml:space="preserve" font-family="AvenirNext-Regular,Avenir Next" font-size="48.0" fill="#FEFFFF" transform="matrix(1.00, 0.00, -0.00, -1.00, 118.1, 644.7)">S</text><text xml:space="preserve" font-family="AvenirNext-Regular,Avenir Next" font-size="48.0" fill="#FEFFFF" transform="matrix(1.00, 0.00, -0.00, -1.00, 144.6, 644.7)">V</text><text xml:space="preserve" font-family="AvenirNext-Regular,Avenir Next" font-size="48.0" fill="#FEFFFF" transform="matrix(1.00, 0.00, -0.00, -1.00, 173.9, 644.7)">G</text><text xml:space="preserve" font-family="AvenirNext-Regular,Avenir Next" font-size="48.0" fill="#FEFFFF" transform="matrix(1.00, 0.00, -0.00, -1.00, 211.3, 644.7)"> </text><text xml:space="preserve" font-family="AvenirNext-Regular,Avenir Next" font-size="48.0" fill="#FEFFFF" transform="matrix(1.00, 0.00, -0.00, -1.00, 223.3, 644.7)">1</text><text xml:space="preserve" font-family="AvenirNext-Regular,Avenir Next" font-size="48.0" fill="#FEFFFF" transform="matrix(1.00, 0.00, -0.00, -1.00, 251.1, 644.7)"> </text><text xml:space="preserve" font-family="AvenirNext-Regular,Avenir Next" font-size="48.0" fill="#FEFFFF" transform="matrix(1.00, 0.00, -0.00, -1.00, 263.1, 644.7)">i</text><text xml:space="preserve" font-family="AvenirNext-Regular,Avenir Next" font-size="48.0" fill="#FEFFFF" transform="matrix(1.00, 0.00, -0.00, -1.00, 275.1, 644.7)">s</text><text xml:space="preserve" font-family="AvenirNext-Regular,Avenir Next" font-size="48.0" fill="#FEFFFF" transform="matrix(1.00, 0.00, -0.00, -1.00, 296.5, 644.7)"> </text><text xml:space="preserve" font-family="AvenirNext-Regular,Avenir Next" font-size="48.0" fill="#FEFFFF" transform="matrix(1.00, 0.00, -0.00, -1.00, 308.5, 644.7)">a</text><text xml:space="preserve" font-family="AvenirNext-Regular,Avenir Next" font-size="48.0" fill="#FEFFFF" transform="matrix(1.00, 0.00, -0.00, -1.00, 334.1, 644.7)"> </text><text xml:space="preserve" font-family="AvenirNext-Regular,Avenir Next" font-size="48.0" fill="#FEFFFF" transform="matrix(1.00, 0.00, -0.00, -1.00, 346.1, 644.7)">n</text><text xml:space="preserve" font-family="AvenirNext-Regular,Avenir Next" font-size="48.0" fill="#FEFFFF" transform="matrix(1.00, 0.00, -0.00, -1.00, 374.0, 644.7)">e</text><text xml:space="preserve" font-family="AvenirNext-Regular,Avenir Next" font-size="48.0" fill="#FEFFFF" transform="matrix(1.00, 0.00, -0.00, -1.00, 401.4, 644.7)">w</text><text xml:space="preserve" font-family="AvenirNext-Regular,Avenir Next" font-size="48.0" fill="#FEFFFF" transform="matrix(1.00, 0.00, -0.00, -1.00, 437.2, 644.7)">-</text><text xml:space="preserve" font-family="AvenirNext-Regular,Avenir Next" font-size="48.0" fill="#FEFFFF" transform="matrix(1.00, 0.00, -0.00, -1.00, 452.6, 644.7)">o</text><text xml:space="preserve" font-family="AvenirNext-Regular,Avenir Next" font-size="48.0" fill="#FEFFFF" transform="matrix(1.00, 0.00, -0.00, -1.00, 481.9, 644.7)">l</text><text xml:space="preserve" font-family="AvenirNext-Regular,Avenir Next" font-size="48.0" fill="#FEFFFF" transform="matrix(1.00, 0.00, -0.00, -1.00, 494.0, 644.7)">d</text><text xml:space="preserve" font-family="AvenirNext-Regular,Avenir Next" font-size="48.0" fill="#FEFFFF" transform="matrix(1.00, 0.00, -0.00, -1.00, 524.6, 644.7)"> </text><text xml:space="preserve" font-family="AvenirNext-Regular,Avenir Next" font-size="48.0" fill="#FEFFFF" transform="matrix(1.00, 0.00, -0.00, -1.00, 536.6, 644.7)">t</text><text xml:space="preserve" font-family="AvenirNext-Regular,Avenir Next" font-size="48.0" fill="#FEFFFF" transform="matrix(1.00, 0.00, -0.00, -1.00, 551.8, 644.7)">h</text><text xml:space="preserve" font-family="AvenirNext-Regular,Avenir Next" font-size="48.0" fill="#FEFFFF" transform="matrix(1.00, 0.00, -0.00, -1.00, 579.8, 644.7)">i</text><text xml:space="preserve" font-family="AvenirNext-Regular,Avenir Next" font-size="48.0" fill="#FEFFFF" transform="matrix(1.00, 0.00, -0.00, -1.00, 591.8, 644.7)">n</text><text xml:space="preserve" font-family="AvenirNext-Regular,Avenir Next" font-size="48.0" fill="#FEFFFF" transform="matrix(1.00, 0.00, -0.00, -1.00, 619.7, 644.7)">g</text><text xml:space="preserve" font-family="AvenirNext-Regular,Avenir Next" font-size="48.0" fill="#FEFFFF" transform="matrix(1.00, 0.00, -0.00, -1.00, 650.0, 644.7)"> </text><text xml:space="preserve" font-family="AvenirNext-Regular,Avenir Next" font-size="48.0" fill="#FEFFFF" transform="matrix(1.00, 0.00, -0.00, -1.00, 662.0, 644.7)">“</text><text xml:space="preserve" font-family="AvenirNext-Regular,Avenir Next" font-size="48.0" fill="#FEFFFF" transform="matrix(1.00, 0.00, -0.00, -1.00, 681.5, 644.7)">V</text><text xml:space="preserve" font-family="AvenirNext-Regular,Avenir Next" font-size="48.0" fill="#FEFFFF" transform="matrix(1.00, 0.00, -0.00, -1.00, 710.5, 644.7)">i</text><text xml:space="preserve" font-family="AvenirNext-Regular,Avenir Next" font-size="48.0" fill="#FEFFFF" transform="matrix(1.00, 0.00, -0.00, -1.00, 722.5, 644.7)">e</text><text xml:space="preserve" font-family="AvenirNext-Regular,Avenir Next" font-size="48.0" fill="#FEFFFF" transform="matrix(1.00, 0.00, -0.00, -1.00, 750.0, 644.7)">j</text><text xml:space="preserve" font-family="AvenirNext-Regular,Avenir Next" font-size="48.0" fill="#FEFFFF" transform="matrix(1.00, 0.00, -0.00, -1.00, 762.0, 644.7)">o</text><text xml:space="preserve" font-family="AvenirNext-Regular,Avenir Next" font-size="48.0" fill="#FEFFFF" transform="matrix(1.00, 0.00, -0.00, -1.00, 791.3, 644.7)">v</text><text xml:space="preserve" font-family="AvenirNext-Regular,Avenir Next" font-size="48.0" fill="#FEFFFF" transform="matrix(1.00, 0.00, -0.00, -1.00, 814.8, 644.7)">e</text><text xml:space="preserve" font-family="AvenirNext-Regular,Avenir Next" font-size="48.0" fill="#FEFFFF" transform="matrix(1.00, 0.00, -0.00, -1.00, 842.2, 644.7)">n</text><text xml:space="preserve" font-family="AvenirNext-Regular,Avenir Next" font-size="48.0" fill="#FEFFFF" transform="matrix(1.00, 0.00, -0.00, -1.00, 870.1, 644.7)">”</text><image xlink:href="../../018DF259-834F-49E3-8E56-47506464658B/assets/3D7176F0EA1F263D5D532FE9BA4A1041.png" width="599.00" height="400.00" transform="matrix(1.00, 0.00, -0.00, -1.00, 49.0, 527.0)"></image><image xlink:href="../../AFBE2162-3698-4443-99D1-5DB3D44E0305/assets/7AFAC1298FCB3577C6CAB1726B944A35.png" width="226.00" height="186.00" transform="matrix(1.55, 0.00, -0.00, -1.55, 266.0, 416.0)"></image><image xlink:href="../../AFBE2162-3698-4443-99D1-5DB3D44E0305/assets/7AFAC1298FCB3577C6CAB1726B944A35.png" width="226.00" height="186.00" transform="matrix(2.73, 0.00, -0.00, -2.73, 40.0, 561.0)"></image><text xml:space="preserve" font-family="AvenirNext-Regular,Avenir Next" font-size="50.0" fill="#FEFFFF" transform="matrix(1.00, 0.00, -0.00, -1.00, 308.6, 585.3)">a</text><text xml:space="preserve" font-family="AvenirNext-Regular,Avenir Next" font-size="50.0" fill="#FEFFFF" transform="matrix(1.00, 0.00, -0.00, -1.00, 335.3, 585.3)">n</text><text xml:space="preserve" font-family="AvenirNext-Regular,Avenir Next" font-size="50.0" fill="#FEFFFF" transform="matrix(1.00, 0.00, -0.00, -1.00, 364.4, 585.3)">d</text><text xml:space="preserve" font-family="AvenirNext-Regular,Avenir Next" font-size="50.0" fill="#FEFFFF" transform="matrix(1.00, 0.00, -0.00, -1.00, 396.2, 585.3)"> </text><text xml:space="preserve" font-family="AvenirNext-Regular,Avenir Next" font-size="50.0" fill="#FEFFFF" transform="matrix(1.00, 0.00, -0.00, -1.00, 408.7, 585.3)">i</text><text xml:space="preserve" font-family="AvenirNext-Regular,Avenir Next" font-size="50.0" fill="#FEFFFF" transform="matrix(1.00, 0.00, -0.00, -1.00, 421.2, 585.3)">t</text><text xml:space="preserve" font-family="AvenirNext-Regular,Avenir Next" font-size="50.0" fill="#FEFFFF" transform="matrix(1.00, 0.00, -0.00, -1.00, 437.1, 585.3)"> </text><text xml:space="preserve" font-family="AvenirNext-Regular,Avenir Next" font-size="50.0" fill="#FEFFFF" transform="matrix(1.00, 0.00, -0.00, -1.00, 449.6, 585.3)">h</text><text xml:space="preserve" font-family="AvenirNext-Regular,Avenir Next" font-size="50.0" fill="#FEFFFF" transform="matrix(1.00, 0.00, -0.00, -1.00, 478.7, 585.3)">a</text><text xml:space="preserve" font-family="AvenirNext-Regular,Avenir Next" font-size="50.0" fill="#FEFFFF" transform="matrix(1.00, 0.00, -0.00, -1.00, 505.4, 585.3)">s</text><text xml:space="preserve" font-family="AvenirNext-Regular,Avenir Next" font-size="50.0" fill="#FEFFFF" transform="matrix(1.00, 0.00, -0.00, -1.00, 527.6, 585.3)"> </text><text xml:space="preserve" font-family="AvenirNext-Regular,Avenir Next" font-size="50.0" fill="#FEFFFF" transform="matrix(1.00, 0.00, -0.00, -1.00, 540.1, 585.3)">“</text><text xml:space="preserve" font-family="AvenirNext-Regular,Avenir Next" font-size="50.0" fill="#FEFFFF" transform="matrix(1.00, 0.00, -0.00, -1.00, 557.4, 585.3)">q</text><text xml:space="preserve" font-family="AvenirNext-Regular,Avenir Next" font-size="50.0" fill="#FEFFFF" transform="matrix(1.00, 0.00, -0.00, -1.00, 589.1, 585.3)">u</text><text xml:space="preserve" font-family="AvenirNext-Regular,Avenir Next" font-size="50.0" fill="#FEFFFF" transform="matrix(1.00, 0.00, -0.00, -1.00, 618.2, 585.3)">i</text><text xml:space="preserve" font-family="AvenirNext-Regular,Avenir Next" font-size="50.0" fill="#FEFFFF" transform="matrix(1.00, 0.00, -0.00, -1.00, 630.7, 585.3)">r</text><text xml:space="preserve" font-family="AvenirNext-Regular,Avenir Next" font-size="50.0" fill="#FEFFFF" transform="matrix(1.00, 0.00, -0.00, -1.00, 648.7, 585.3)">k</text><text xml:space="preserve" font-family="AvenirNext-Regular,Avenir Next" font-size="50.0" fill="#FEFFFF" transform="matrix(1.00, 0.00, -0.00, -1.00, 673.9, 585.3)">s</text><text xml:space="preserve" font-family="AvenirNext-Regular,Avenir Next" font-size="50.0" fill="#FEFFFF" transform="matrix(1.00, 0.00, -0.00, -1.00, 696.0, 585.3)">”</text><image xlink:href="../../AFBE2162-3698-4443-99D1-5DB3D44E0305/assets/83AA649388F55EA9127D7DC4B27B9515.png" width="454.00" height="590.00" transform="matrix(0.90, 0.26, 0.26, -0.90, 507.4, 505.6)"></image></g></svg>