<?xml version="1.0" encoding="UTF-8" standalone="no"?><svg xmlns="http://www.w3.org/2000/svg" xmlns:xlink="http://www.w3.org/1999/xlink" clip-rule="evenodd" stroke-miterlimit="10" viewBox="0 0 1024 768"><desc>SVG generated by Keynote</desc><defs></defs><g transform="matrix(1.00, 0.00, -0.00, -1.00, 0.0, 768.0)"><path d="M 0.0 768.0 L 1024.0 768.0 L 1024.0 0.0 L 0.0 0.0 Z M 0.0 768.0 " fill="#000000"></path><text xml:space="preserve" font-family="AvenirNext-Regular,Avenir Next" font-size="36.8" fill="#FEFFFF" transform="matrix(1.00, 0.00, -0.00, -1.00, 472.0, 654.0)">S</text><text xml:space="preserve" font-family="AvenirNext-Regular,Avenir Next" font-size="36.8" fill="#FEFFFF" transform="matrix(1.00, 0.00, -0.00, -1.00, 492.3, 654.0)">V</text><text xml:space="preserve" font-family="AvenirNext-Regular,Avenir Next" font-size="36.8" fill="#FEFFFF" transform="matrix(1.00, 0.00, -0.00, -1.00, 514.8, 654.0)">G</text><text xml:space="preserve" font-family="AvenirNext-Regular,Avenir Next" font-size="36.8" fill="#FEFFFF" transform="matrix(1.00, 0.00, -0.00, -1.00, 543.5, 654.0)">.</text><text xml:space="preserve" font-family="AvenirNext-Regular,Avenir Next" font-size="36.8" fill="#FEFFFF" transform="matrix(1.00, 0.00, -0.00, -1.00, 552.0, 654.0)"> </text><text xml:space="preserve" font-family="AvenirNext-Regular,Avenir Next" font-size="36.8" fill="#FEFFFF" transform="matrix(1.00, 0.00, -0.00, -1.00, 353.3, 604.0)">M</text><text xml:space="preserve" font-family="AvenirNext-Regular,Avenir Next" font-size="36.8" fill="#FEFFFF" transform="matrix(1.00, 0.00, -0.00, -1.00, 385.9, 604.0)">a</text><text xml:space="preserve" font-family="AvenirNext-Regular,Avenir Next" font-size="36.8" fill="#FEFFFF" transform="matrix(1.00, 0.00, -0.00, -1.00, 405.5, 604.0)">r</text><text xml:space="preserve" font-family="AvenirNext-Regular,Avenir Next" font-size="36.8" fill="#FEFFFF" transform="matrix(1.00, 0.00, -0.00, -1.00, 418.8, 604.0)">k</text><text xml:space="preserve" font-family="AvenirNext-Regular,Avenir Next" font-size="36.8" fill="#FEFFFF" transform="matrix(1.00, 0.00, -0.00, -1.00, 437.1, 604.0)">u</text><text xml:space="preserve" font-family="AvenirNext-Regular,Avenir Next" font-size="36.8" fill="#FEFFFF" transform="matrix(1.00, 0.00, -0.00, -1.00, 458.5, 604.0)">p</text><text xml:space="preserve" font-family="AvenirNext-Regular,Avenir Next" font-size="36.8" fill="#FEFFFF" transform="matrix(1.00, 0.00, -0.00, -1.00, 481.8, 604.0)"> </text><text xml:space="preserve" font-family="AvenirNext-Regular,Avenir Next" font-size="36.8" fill="#FEFFFF" transform="matrix(1.00, 0.00, -0.00, -1.00, 491.0, 604.0)">a</text><text xml:space="preserve" font-family="AvenirNext-Regular,Avenir Next" font-size="36.8" fill="#FEFFFF" transform="matrix(1.00, 0.00, -0.00, -1.00, 510.7, 604.0)">n</text><text xml:space="preserve" font-family="AvenirNext-Regular,Avenir Next" font-size="36.8" fill="#FEFFFF" transform="matrix(1.00, 0.00, -0.00, -1.00, 532.1, 604.0)">d</text><text xml:space="preserve" font-family="AvenirNext-Regular,Avenir Next" font-size="36.8" fill="#FEFFFF" transform="matrix(1.00, 0.00, -0.00, -1.00, 555.5, 604.0)"> </text><text xml:space="preserve" font-family="AvenirNext-Regular,Avenir Next" font-size="36.8" fill="#FEFFFF" transform="matrix(1.00, 0.00, -0.00, -1.00, 564.7, 604.0)">I</text><text xml:space="preserve" font-family="AvenirNext-Regular,Avenir Next" font-size="36.8" fill="#FEFFFF" transform="matrix(1.00, 0.00, -0.00, -1.00, 574.3, 604.0)">m</text><text xml:space="preserve" font-family="AvenirNext-Regular,Avenir Next" font-size="36.8" fill="#FEFFFF" transform="matrix(1.00, 0.00, -0.00, -1.00, 606.8, 604.0)">a</text><text xml:space="preserve" font-family="AvenirNext-Regular,Avenir Next" font-size="36.8" fill="#FEFFFF" transform="matrix(1.00, 0.00, -0.00, -1.00, 626.4, 604.0)">g</text><text xml:space="preserve" font-family="AvenirNext-Regular,Avenir Next" font-size="36.8" fill="#FEFFFF" transform="matrix(1.00, 0.00, -0.00, -1.00, 649.7, 604.0)">e</text><text xml:space="preserve" font-family="AvenirNext-Regular,Avenir Next" font-size="36.8" fill="#FEFFFF" transform="matrix(1.00, 0.00, -0.00, -1.00, 670.7, 604.0)"> </text><text xml:space="preserve" font-family="AvenirNext-Regular,Avenir Next" font-size="36.8" fill="#FEFFFF" transform="matrix(1.00, 0.00, -0.00, -1.00, 235.5, 504.0)">T</text><text xml:space="preserve" font-family="AvenirNext-Regular,Avenir Next" font-size="36.8" fill="#FEFFFF" transform="matrix(1.00, 0.00, -0.00, -1.00, 255.8, 504.0)">h</text><text xml:space="preserve" font-family="AvenirNext-Regular,Avenir Next" font-size="36.8" fill="#FEFFFF" transform="matrix(1.00, 0.00, -0.00, -1.00, 277.2, 504.0)">e</text><text xml:space="preserve" font-family="AvenirNext-Regular,Avenir Next" font-size="36.8" fill="#FEFFFF" transform="matrix(1.00, 0.00, -0.00, -1.00, 298.3, 504.0)"> </text><text xml:space="preserve" font-family="AvenirNext-Regular,Avenir Next" font-size="36.8" fill="#FEFFFF" transform="matrix(1.00, 0.00, -0.00, -1.00, 307.5, 504.0)">p</text><text xml:space="preserve" font-family="AvenirNext-Regular,Avenir Next" font-size="36.8" fill="#FEFFFF" transform="matrix(1.00, 0.00, -0.00, -1.00, 330.9, 504.0)">a</text><text xml:space="preserve" font-family="AvenirNext-Regular,Avenir Next" font-size="36.8" fill="#FEFFFF" transform="matrix(1.00, 0.00, -0.00, -1.00, 350.5, 504.0)">r</text><text xml:space="preserve" font-family="AvenirNext-Regular,Avenir Next" font-size="36.8" fill="#FEFFFF" transform="matrix(1.00, 0.00, -0.00, -1.00, 363.3, 504.0)">a</text><text xml:space="preserve" font-family="AvenirNext-Regular,Avenir Next" font-size="36.8" fill="#FEFFFF" transform="matrix(1.00, 0.00, -0.00, -1.00, 383.0, 504.0)">d</text><text xml:space="preserve" font-family="AvenirNext-Regular,Avenir Next" font-size="36.8" fill="#FEFFFF" transform="matrix(1.00, 0.00, -0.00, -1.00, 406.4, 504.0)">o</text><text xml:space="preserve" font-family="AvenirNext-Regular,Avenir Next" font-size="36.8" fill="#FEFFFF" transform="matrix(1.00, 0.00, -0.00, -1.00, 428.7, 504.0)">x</text><text xml:space="preserve" font-family="AvenirNext-Regular,Avenir Next" font-size="36.8" fill="#FEFFFF" transform="matrix(1.00, 0.00, -0.00, -1.00, 446.5, 504.0)"> </text><text xml:space="preserve" font-family="AvenirNext-Regular,Avenir Next" font-size="36.8" fill="#FEFFFF" transform="matrix(1.00, 0.00, -0.00, -1.00, 455.7, 504.0)">o</text><text xml:space="preserve" font-family="AvenirNext-Regular,Avenir Next" font-size="36.8" fill="#FEFFFF" transform="matrix(1.00, 0.00, -0.00, -1.00, 478.2, 504.0)">f</text><text xml:space="preserve" font-family="AvenirNext-Regular,Avenir Next" font-size="36.8" fill="#FEFFFF" transform="matrix(1.00, 0.00, -0.00, -1.00, 489.9, 504.0)"> </text><text xml:space="preserve" font-family="AvenirNext-Regular,Avenir Next" font-size="36.8" fill="#FEFFFF" transform="matrix(1.00, 0.00, -0.00, -1.00, 499.1, 504.0)">S</text><text xml:space="preserve" font-family="AvenirNext-Regular,Avenir Next" font-size="36.8" fill="#FEFFFF" transform="matrix(1.00, 0.00, -0.00, -1.00, 519.9, 504.0)">c</text><text xml:space="preserve" font-family="AvenirNext-Regular,Avenir Next" font-size="36.8" fill="#FEFFFF" transform="matrix(1.00, 0.00, -0.00, -1.00, 538.3, 504.0)">h</text><text xml:space="preserve" font-family="AvenirNext-Regular,Avenir Next" font-size="36.8" fill="#FEFFFF" transform="matrix(1.00, 0.00, -0.00, -1.00, 559.7, 504.0)">r</text><text xml:space="preserve" font-family="AvenirNext-Regular,Avenir Next" font-size="36.8" fill="#FEFFFF" transform="matrix(1.00, 0.00, -0.00, -1.00, 572.3, 504.0)">ö</text><text xml:space="preserve" font-family="AvenirNext-Regular,Avenir Next" font-size="36.8" fill="#FEFFFF" transform="matrix(1.00, 0.00, -0.00, -1.00, 594.8, 504.0)">d</text><text xml:space="preserve" font-family="AvenirNext-Regular,Avenir Next" font-size="36.8" fill="#FEFFFF" transform="matrix(1.00, 0.00, -0.00, -1.00, 618.2, 504.0)">i</text><text xml:space="preserve" font-family="AvenirNext-Regular,Avenir Next" font-size="36.8" fill="#FEFFFF" transform="matrix(1.00, 0.00, -0.00, -1.00, 627.4, 504.0)">n</text><text xml:space="preserve" font-family="AvenirNext-Regular,Avenir Next" font-size="36.8" fill="#FEFFFF" transform="matrix(1.00, 0.00, -0.00, -1.00, 648.8, 504.0)">g</text><text xml:space="preserve" font-family="AvenirNext-Regular,Avenir Next" font-size="36.8" fill="#FEFFFF" transform="matrix(1.00, 0.00, -0.00, -1.00, 672.1, 504.0)">e</text><text xml:space="preserve" font-family="AvenirNext-Regular,Avenir Next" font-size="36.8" fill="#FEFFFF" transform="matrix(1.00, 0.00, -0.00, -1.00, 693.1, 504.0)">r</text><text xml:space="preserve" font-family="AvenirNext-Regular,Avenir Next" font-size="36.8" fill="#FEFFFF" transform="matrix(1.00, 0.00, -0.00, -1.00, 707.2, 504.0)">’</text><text xml:space="preserve" font-family="AvenirNext-Regular,Avenir Next" font-size="36.8" fill="#FEFFFF" transform="matrix(1.00, 0.00, -0.00, -1.00, 713.6, 504.0)">s</text><text xml:space="preserve" font-family="AvenirNext-Regular,Avenir Next" font-size="36.8" fill="#FEFFFF" transform="matrix(1.00, 0.00, -0.00, -1.00, 730.0, 504.0)"> </text><text xml:space="preserve" font-family="AvenirNext-Regular,Avenir Next" font-size="36.8" fill="#FEFFFF" transform="matrix(1.00, 0.00, -0.00, -1.00, 739.2, 504.0)">c</text><text xml:space="preserve" font-family="AvenirNext-Regular,Avenir Next" font-size="36.8" fill="#FEFFFF" transform="matrix(1.00, 0.00, -0.00, -1.00, 757.6, 504.0)">a</text><text xml:space="preserve" font-family="AvenirNext-Regular,Avenir Next" font-size="36.8" fill="#FEFFFF" transform="matrix(1.00, 0.00, -0.00, -1.00, 776.9, 504.0)">t</text><g><clipPath id="clip0x618000aae9a0"><path d="M 281.0 477.0 L 743.0 477.0 L 743.0 178.0 L 281.0 178.0 Z M 280.9 477.1 "></path></clipPath><g clip-path="url(#clip0x618000aae9a0)"><image xlink:href="../../AFBE2162-3698-4443-99D1-5DB3D44E0305/assets/D52B3CFDBB12899346975B5EA0DEF950.png" width="325.00" height="242.00" transform="matrix(1.42, 0.00, -0.00, -1.42, 281.0, 522.0)"></image></g></g></g></svg>