<?xml version="1.0" encoding="UTF-8" standalone="no"?><svg xmlns="http://www.w3.org/2000/svg" xmlns:xlink="http://www.w3.org/1999/xlink" clip-rule="evenodd" stroke-miterlimit="10" viewBox="0 0 771 51"><desc>SVG generated by Keynote</desc><defs></defs><g transform="matrix(1.00, 0.00, -0.00, -1.00, 0.0, 51.0)"><text xml:space="preserve" font-family="AvenirNext-Regular,Avenir Next" font-size="48.0" fill="#FEFFFF" transform="matrix(1.00, 0.00, -0.00, -1.00, 0.1, 12.7)">S</text><text xml:space="preserve" font-family="AvenirNext-Regular,Avenir Next" font-size="48.0" fill="#FEFFFF" transform="matrix(1.00, 0.00, -0.00, -1.00, 26.6, 12.7)">V</text><text xml:space="preserve" font-family="AvenirNext-Regular,Avenir Next" font-size="48.0" fill="#FEFFFF" transform="matrix(1.00, 0.00, -0.00, -1.00, 55.9, 12.7)">G</text><text xml:space="preserve" font-family="AvenirNext-Regular,Avenir Next" font-size="48.0" fill="#FEFFFF" transform="matrix(1.00, 0.00, -0.00, -1.00, 93.3, 12.7)"> </text><text xml:space="preserve" font-family="AvenirNext-Regular,Avenir Next" font-size="48.0" fill="#FEFFFF" transform="matrix(1.00, 0.00, -0.00, -1.00, 105.3, 12.7)">1</text><text xml:space="preserve" font-family="AvenirNext-Regular,Avenir Next" font-size="48.0" fill="#FEFFFF" transform="matrix(1.00, 0.00, -0.00, -1.00, 133.1, 12.7)"> </text><text xml:space="preserve" font-family="AvenirNext-Regular,Avenir Next" font-size="48.0" fill="#FEFFFF" transform="matrix(1.00, 0.00, -0.00, -1.00, 145.1, 12.7)">i</text><text xml:space="preserve" font-family="AvenirNext-Regular,Avenir Next" font-size="48.0" fill="#FEFFFF" transform="matrix(1.00, 0.00, -0.00, -1.00, 157.1, 12.7)">s</text><text xml:space="preserve" font-family="AvenirNext-Regular,Avenir Next" font-size="48.0" fill="#FEFFFF" transform="matrix(1.00, 0.00, -0.00, -1.00, 178.5, 12.7)"> </text><text xml:space="preserve" font-family="AvenirNext-Regular,Avenir Next" font-size="48.0" fill="#FEFFFF" transform="matrix(1.00, 0.00, -0.00, -1.00, 190.5, 12.7)">a</text><text xml:space="preserve" font-family="AvenirNext-Regular,Avenir Next" font-size="48.0" fill="#FEFFFF" transform="matrix(1.00, 0.00, -0.00, -1.00, 216.1, 12.7)"> </text><text xml:space="preserve" font-family="AvenirNext-Regular,Avenir Next" font-size="48.0" fill="#FEFFFF" transform="matrix(1.00, 0.00, -0.00, -1.00, 228.1, 12.7)">n</text><text xml:space="preserve" font-family="AvenirNext-Regular,Avenir Next" font-size="48.0" fill="#FEFFFF" transform="matrix(1.00, 0.00, -0.00, -1.00, 256.0, 12.7)">e</text><text xml:space="preserve" font-family="AvenirNext-Regular,Avenir Next" font-size="48.0" fill="#FEFFFF" transform="matrix(1.00, 0.00, -0.00, -1.00, 283.4, 12.7)">w</text><text xml:space="preserve" font-family="AvenirNext-Regular,Avenir Next" font-size="48.0" fill="#FEFFFF" transform="matrix(1.00, 0.00, -0.00, -1.00, 319.2, 12.7)">-</text><text xml:space="preserve" font-family="AvenirNext-Regular,Avenir Next" font-size="48.0" fill="#FEFFFF" transform="matrix(1.00, 0.00, -0.00, -1.00, 334.6, 12.7)">o</text><text xml:space="preserve" font-family="AvenirNext-Regular,Avenir Next" font-size="48.0" fill="#FEFFFF" transform="matrix(1.00, 0.00, -0.00, -1.00, 363.9, 12.7)">l</text><text xml:space="preserve" font-family="AvenirNext-Regular,Avenir Next" font-size="48.0" fill="#FEFFFF" transform="matrix(1.00, 0.00, -0.00, -1.00, 376.0, 12.7)">d</text><text xml:space="preserve" font-family="AvenirNext-Regular,Avenir Next" font-size="48.0" fill="#FEFFFF" transform="matrix(1.00, 0.00, -0.00, -1.00, 406.6, 12.7)"> </text><text xml:space="preserve" font-family="AvenirNext-Regular,Avenir Next" font-size="48.0" fill="#FEFFFF" transform="matrix(1.00, 0.00, -0.00, -1.00, 418.6, 12.7)">t</text><text xml:space="preserve" font-family="AvenirNext-Regular,Avenir Next" font-size="48.0" fill="#FEFFFF" transform="matrix(1.00, 0.00, -0.00, -1.00, 433.8, 12.7)">h</text><text xml:space="preserve" font-family="AvenirNext-Regular,Avenir Next" font-size="48.0" fill="#FEFFFF" transform="matrix(1.00, 0.00, -0.00, -1.00, 461.8, 12.7)">i</text><text xml:space="preserve" font-family="AvenirNext-Regular,Avenir Next" font-size="48.0" fill="#FEFFFF" transform="matrix(1.00, 0.00, -0.00, -1.00, 473.8, 12.7)">n</text><text xml:space="preserve" font-family="AvenirNext-Regular,Avenir Next" font-size="48.0" fill="#FEFFFF" transform="matrix(1.00, 0.00, -0.00, -1.00, 501.7, 12.7)">g</text><text xml:space="preserve" font-family="AvenirNext-Regular,Avenir Next" font-size="48.0" fill="#FEFFFF" transform="matrix(1.00, 0.00, -0.00, -1.00, 532.0, 12.7)"> </text><text xml:space="preserve" font-family="AvenirNext-Regular,Avenir Next" font-size="48.0" fill="#FEFFFF" transform="matrix(1.00, 0.00, -0.00, -1.00, 544.0, 12.7)">“</text><text xml:space="preserve" font-family="AvenirNext-Regular,Avenir Next" font-size="48.0" fill="#FEFFFF" transform="matrix(1.00, 0.00, -0.00, -1.00, 563.5, 12.7)">V</text><text xml:space="preserve" font-family="AvenirNext-Regular,Avenir Next" font-size="48.0" fill="#FEFFFF" transform="matrix(1.00, 0.00, -0.00, -1.00, 592.5, 12.7)">i</text><text xml:space="preserve" font-family="AvenirNext-Regular,Avenir Next" font-size="48.0" fill="#FEFFFF" transform="matrix(1.00, 0.00, -0.00, -1.00, 604.5, 12.7)">e</text><text xml:space="preserve" font-family="AvenirNext-Regular,Avenir Next" font-size="48.0" fill="#FEFFFF" transform="matrix(1.00, 0.00, -0.00, -1.00, 632.0, 12.7)">j</text><text xml:space="preserve" font-family="AvenirNext-Regular,Avenir Next" font-size="48.0" fill="#FEFFFF" transform="matrix(1.00, 0.00, -0.00, -1.00, 644.0, 12.7)">o</text><text xml:space="preserve" font-family="AvenirNext-Regular,Avenir Next" font-size="48.0" fill="#FEFFFF" transform="matrix(1.00, 0.00, -0.00, -1.00, 673.3, 12.7)">v</text><text xml:space="preserve" font-family="AvenirNext-Regular,Avenir Next" font-size="48.0" fill="#FEFFFF" transform="matrix(1.00, 0.00, -0.00, -1.00, 696.8, 12.7)">e</text><text xml:space="preserve" font-family="AvenirNext-Regular,Avenir Next" font-size="48.0" fill="#FEFFFF" transform="matrix(1.00, 0.00, -0.00, -1.00, 724.2, 12.7)">n</text><text xml:space="preserve" font-family="AvenirNext-Regular,Avenir Next" font-size="48.0" fill="#FEFFFF" transform="matrix(1.00, 0.00, -0.00, -1.00, 752.1, 12.7)">”</text></g></svg>