<?xml version="1.0" encoding="UTF-8" standalone="no"?><svg xmlns="http://www.w3.org/2000/svg" xmlns:xlink="http://www.w3.org/1999/xlink" clip-rule="evenodd" stroke-miterlimit="10" viewBox="0 0 1024 768"><desc>SVG generated by Keynote</desc><defs></defs><g transform="matrix(1.00, 0.00, -0.00, -1.00, 0.0, 768.0)"><path d="M 0.0 768.0 L 1024.0 768.0 L 1024.0 0.0 L 0.0 0.0 Z M 0.0 768.0 " fill="#000000"></path><text xml:space="preserve" font-family="AvenirNext-Regular,Avenir Next" font-size="64.0" fill="#FEFFFF" transform="matrix(1.00, 0.00, -0.00, -1.00, 153.2, 605.1)">I</text><text xml:space="preserve" font-family="AvenirNext-Regular,Avenir Next" font-size="64.0" fill="#FEFFFF" transform="matrix(1.00, 0.00, -0.00, -1.00, 169.9, 605.1)">f</text><text xml:space="preserve" font-family="AvenirNext-Regular,Avenir Next" font-size="64.0" fill="#FEFFFF" transform="matrix(1.00, 0.00, -0.00, -1.00, 190.3, 605.1)"> </text><text xml:space="preserve" font-family="AvenirNext-Regular,Avenir Next" font-size="64.0" fill="#FEFFFF" transform="matrix(1.00, 0.00, -0.00, -1.00, 206.3, 605.1)">y</text><text xml:space="preserve" font-family="AvenirNext-Regular,Avenir Next" font-size="64.0" fill="#FEFFFF" transform="matrix(1.00, 0.00, -0.00, -1.00, 237.5, 605.1)">o</text><text xml:space="preserve" font-family="AvenirNext-Regular,Avenir Next" font-size="64.0" fill="#FEFFFF" transform="matrix(1.00, 0.00, -0.00, -1.00, 276.6, 605.1)">u</text><text xml:space="preserve" font-family="AvenirNext-Regular,Avenir Next" font-size="64.0" fill="#FEFFFF" transform="matrix(1.00, 0.00, -0.00, -1.00, 313.8, 605.1)"> </text><text xml:space="preserve" font-family="AvenirNext-Regular,Avenir Next" font-size="64.0" fill="#FEFFFF" transform="matrix(1.00, 0.00, -0.00, -1.00, 329.8, 605.1)">h</text><text xml:space="preserve" font-family="AvenirNext-Regular,Avenir Next" font-size="64.0" fill="#FEFFFF" transform="matrix(1.00, 0.00, -0.00, -1.00, 367.1, 605.1)">a</text><text xml:space="preserve" font-family="AvenirNext-Regular,Avenir Next" font-size="64.0" fill="#FEFFFF" transform="matrix(1.00, 0.00, -0.00, -1.00, 401.3, 605.1)">v</text><text xml:space="preserve" font-family="AvenirNext-Regular,Avenir Next" font-size="64.0" fill="#FEFFFF" transform="matrix(1.00, 0.00, -0.00, -1.00, 432.5, 605.1)">e</text><text xml:space="preserve" font-family="AvenirNext-Regular,Avenir Next" font-size="64.0" fill="#FEFFFF" transform="matrix(1.00, 0.00, -0.00, -1.00, 469.2, 605.1)"> </text><text xml:space="preserve" font-family="AvenirNext-Regular,Avenir Next" font-size="64.0" fill="#FEFFFF" transform="matrix(1.00, 0.00, -0.00, -1.00, 485.2, 605.1)">f</text><text xml:space="preserve" font-family="AvenirNext-Regular,Avenir Next" font-size="64.0" fill="#FEFFFF" transform="matrix(1.00, 0.00, -0.00, -1.00, 504.0, 605.1)">u</text><text xml:space="preserve" font-family="AvenirNext-Regular,Avenir Next" font-size="64.0" fill="#FEFFFF" transform="matrix(1.00, 0.00, -0.00, -1.00, 541.2, 605.1)">n</text><text xml:space="preserve" font-family="AvenirNext-Regular,Avenir Next" font-size="64.0" fill="#FEFFFF" transform="matrix(1.00, 0.00, -0.00, -1.00, 578.4, 605.1)"> </text><text xml:space="preserve" font-family="AvenirNext-Regular,Avenir Next" font-size="64.0" fill="#FEFFFF" transform="matrix(1.00, 0.00, -0.00, -1.00, 594.4, 605.1)">w</text><text xml:space="preserve" font-family="AvenirNext-Regular,Avenir Next" font-size="64.0" fill="#FEFFFF" transform="matrix(1.00, 0.00, -0.00, -1.00, 642.1, 605.1)">i</text><text xml:space="preserve" font-family="AvenirNext-Regular,Avenir Next" font-size="64.0" fill="#FEFFFF" transform="matrix(1.00, 0.00, -0.00, -1.00, 658.1, 605.1)">t</text><text xml:space="preserve" font-family="AvenirNext-Regular,Avenir Next" font-size="64.0" fill="#FEFFFF" transform="matrix(1.00, 0.00, -0.00, -1.00, 678.4, 605.1)">h</text><text xml:space="preserve" font-family="AvenirNext-Regular,Avenir Next" font-size="64.0" fill="#FEFFFF" transform="matrix(1.00, 0.00, -0.00, -1.00, 715.7, 605.1)"> </text><text xml:space="preserve" font-family="AvenirNext-Regular,Avenir Next" font-size="64.0" fill="#FEFFFF" transform="matrix(1.00, 0.00, -0.00, -1.00, 731.7, 605.1)">S</text><text xml:space="preserve" font-family="AvenirNext-Regular,Avenir Next" font-size="64.0" fill="#FEFFFF" transform="matrix(1.00, 0.00, -0.00, -1.00, 767.1, 605.1)">V</text><text xml:space="preserve" font-family="AvenirNext-Regular,Avenir Next" font-size="64.0" fill="#FEFFFF" transform="matrix(1.00, 0.00, -0.00, -1.00, 806.2, 605.1)">G</text><text xml:space="preserve" font-family="AvenirNext-Regular,Avenir Next" font-size="64.0" fill="#FEFFFF" transform="matrix(1.00, 0.00, -0.00, -1.00, 856.0, 605.1)">,</text><text xml:space="preserve" font-family="AvenirNext-Regular,Avenir Next" font-size="64.0" fill="#FEFFFF" transform="matrix(1.00, 0.00, -0.00, -1.00, 870.8, 605.1)"> </text><text xml:space="preserve" font-family="AvenirNext-Regular,Avenir Next" font-size="64.0" fill="#FEFFFF" transform="matrix(1.00, 0.00, -0.00, -1.00, 206.0, 518.1)">y</text><text xml:space="preserve" font-family="AvenirNext-Regular,Avenir Next" font-size="64.0" fill="#FEFFFF" transform="matrix(1.00, 0.00, -0.00, -1.00, 237.2, 518.1)">o</text><text xml:space="preserve" font-family="AvenirNext-Regular,Avenir Next" font-size="64.0" fill="#FEFFFF" transform="matrix(1.00, 0.00, -0.00, -1.00, 276.4, 518.1)">u</text><text xml:space="preserve" font-family="AvenirNext-Regular,Avenir Next" font-size="64.0" fill="#FEFFFF" transform="matrix(1.00, 0.00, -0.00, -1.00, 313.5, 518.1)"> </text><text xml:space="preserve" font-family="AvenirNext-Regular,Avenir Next" font-size="64.0" fill="#FEFFFF" transform="matrix(1.00, 0.00, -0.00, -1.00, 329.5, 518.1)">w</text><text xml:space="preserve" font-family="AvenirNext-Regular,Avenir Next" font-size="64.0" fill="#FEFFFF" transform="matrix(1.00, 0.00, -0.00, -1.00, 377.3, 518.1)">i</text><text xml:space="preserve" font-family="AvenirNext-Regular,Avenir Next" font-size="64.0" fill="#FEFFFF" transform="matrix(1.00, 0.00, -0.00, -1.00, 393.3, 518.1)">l</text><text xml:space="preserve" font-family="AvenirNext-Regular,Avenir Next" font-size="64.0" fill="#FEFFFF" transform="matrix(1.00, 0.00, -0.00, -1.00, 409.4, 518.1)">l</text><text xml:space="preserve" font-family="AvenirNext-Regular,Avenir Next" font-size="64.0" fill="#FEFFFF" transform="matrix(1.00, 0.00, -0.00, -1.00, 425.5, 518.1)"> </text><text xml:space="preserve" font-family="AvenirNext-Regular,Avenir Next" font-size="64.0" fill="#FEFFFF" transform="matrix(1.00, 0.00, -0.00, -1.00, 441.5, 518.1)">l</text><text xml:space="preserve" font-family="AvenirNext-Regular,Avenir Next" font-size="64.0" fill="#FEFFFF" transform="matrix(1.00, 0.00, -0.00, -1.00, 457.7, 518.1)">e</text><text xml:space="preserve" font-family="AvenirNext-Regular,Avenir Next" font-size="64.0" fill="#FEFFFF" transform="matrix(1.00, 0.00, -0.00, -1.00, 493.9, 518.1)">a</text><text xml:space="preserve" font-family="AvenirNext-Regular,Avenir Next" font-size="64.0" fill="#FEFFFF" transform="matrix(1.00, 0.00, -0.00, -1.00, 528.1, 518.1)">r</text><text xml:space="preserve" font-family="AvenirNext-Regular,Avenir Next" font-size="64.0" fill="#FEFFFF" transform="matrix(1.00, 0.00, -0.00, -1.00, 551.1, 518.1)">n</text><text xml:space="preserve" font-family="AvenirNext-Regular,Avenir Next" font-size="64.0" fill="#FEFFFF" transform="matrix(1.00, 0.00, -0.00, -1.00, 588.3, 518.1)"> </text><text xml:space="preserve" font-family="AvenirNext-Regular,Avenir Next" font-size="64.0" fill="#FEFFFF" transform="matrix(1.00, 0.00, -0.00, -1.00, 604.3, 518.1)">i</text><text xml:space="preserve" font-family="AvenirNext-Regular,Avenir Next" font-size="64.0" fill="#FEFFFF" transform="matrix(1.00, 0.00, -0.00, -1.00, 620.3, 518.1)">t</text><text xml:space="preserve" font-family="AvenirNext-Regular,Avenir Next" font-size="64.0" fill="#FEFFFF" transform="matrix(1.00, 0.00, -0.00, -1.00, 640.6, 518.1)"> </text><text xml:space="preserve" font-family="AvenirNext-Regular,Avenir Next" font-size="64.0" fill="#FEFFFF" transform="matrix(1.00, 0.00, -0.00, -1.00, 656.6, 518.1)">f</text><text xml:space="preserve" font-family="AvenirNext-Regular,Avenir Next" font-size="64.0" fill="#FEFFFF" transform="matrix(1.00, 0.00, -0.00, -1.00, 675.5, 518.1)">a</text><text xml:space="preserve" font-family="AvenirNext-Regular,Avenir Next" font-size="64.0" fill="#FEFFFF" transform="matrix(1.00, 0.00, -0.00, -1.00, 709.6, 518.1)">s</text><text xml:space="preserve" font-family="AvenirNext-Regular,Avenir Next" font-size="64.0" fill="#FEFFFF" transform="matrix(1.00, 0.00, -0.00, -1.00, 738.0, 518.1)">t</text><text xml:space="preserve" font-family="AvenirNext-Regular,Avenir Next" font-size="64.0" fill="#FEFFFF" transform="matrix(1.00, 0.00, -0.00, -1.00, 758.3, 518.1)">e</text><text xml:space="preserve" font-family="AvenirNext-Regular,Avenir Next" font-size="64.0" fill="#FEFFFF" transform="matrix(1.00, 0.00, -0.00, -1.00, 794.9, 518.1)">r</text></g></svg>