<?xml version="1.0" encoding="UTF-8" standalone="no"?><svg xmlns="http://www.w3.org/2000/svg" xmlns:xlink="http://www.w3.org/1999/xlink" clip-rule="evenodd" stroke-miterlimit="10" viewBox="0 0 1024 768"><desc>SVG generated by Keynote</desc><defs></defs><g transform="matrix(1.00, 0.00, -0.00, -1.00, 0.0, 768.0)"><path d="M 0.0 768.0 L 1024.0 768.0 L 1024.0 0.0 L 0.0 0.0 Z M 0.0 768.0 " fill="#000000"></path><image xlink:href="7DD7B314E0D9E2219AF4C50F0402C092.png" width="505.00" height="403.00" transform="matrix(1.60, 0.00, -0.00, -1.60, 197.0, 664.0)"></image><text xml:space="preserve" font-family="Helvetica-Light,Helvetica" font-size="36.0" fill="#FEFFFF" transform="matrix(1.00, 0.00, -0.00, -1.00, 404.0, 689.9)">S</text><text xml:space="preserve" font-family="Helvetica-Light,Helvetica" font-size="36.0" fill="#FEFFFF" transform="matrix(1.00, 0.00, -0.00, -1.00, 426.0, 689.9)">V</text><text xml:space="preserve" font-family="Helvetica-Light,Helvetica" font-size="36.0" fill="#FEFFFF" transform="matrix(1.00, 0.00, -0.00, -1.00, 448.0, 689.9)">G</text><text xml:space="preserve" font-family="Helvetica-Light,Helvetica" font-size="36.0" fill="#FEFFFF" transform="matrix(1.00, 0.00, -0.00, -1.00, 476.0, 689.9)"> </text><text xml:space="preserve" font-family="Helvetica-Light,Helvetica" font-size="36.0" fill="#FEFFFF" transform="matrix(1.00, 0.00, -0.00, -1.00, 486.0, 689.9)">i</text><text xml:space="preserve" font-family="Helvetica-Light,Helvetica" font-size="36.0" fill="#FEFFFF" transform="matrix(1.00, 0.00, -0.00, -1.00, 494.0, 689.9)">n</text><text xml:space="preserve" font-family="Helvetica-Light,Helvetica" font-size="36.0" fill="#FEFFFF" transform="matrix(1.00, 0.00, -0.00, -1.00, 514.0, 689.9)"> </text><text xml:space="preserve" font-family="Helvetica-Light,Helvetica" font-size="36.0" fill="#FEFFFF" transform="matrix(1.00, 0.00, -0.00, -1.00, 524.0, 689.9)">H</text><text xml:space="preserve" font-family="Helvetica-Light,Helvetica" font-size="36.0" fill="#FEFFFF" transform="matrix(1.00, 0.00, -0.00, -1.00, 550.0, 689.9)">T</text><text xml:space="preserve" font-family="Helvetica-Light,Helvetica" font-size="36.0" fill="#FEFFFF" transform="matrix(1.00, 0.00, -0.00, -1.00, 570.0, 689.9)">M</text><text xml:space="preserve" font-family="Helvetica-Light,Helvetica" font-size="36.0" fill="#FEFFFF" transform="matrix(1.00, 0.00, -0.00, -1.00, 600.0, 689.9)">L</text><g opacity="0.22"><g><clipPath id="clip0x6000010ad4a0"><path d="M 196.0 317.0 L 1008.0 317.0 L 1008.0 555.0 L 196.0 555.0 Z M 196.0 317.0 "></path></clipPath><g clip-path="url(#clip0x6000010ad4a0)"><path d="M 197.0 554.0 L 1007.0 554.0 L 1007.0 318.0 L 197.0 318.0 Z M 197.4 553.7 " fill="#E7A432"></path></g></g></g><g opacity="0.22"><g><clipPath id="clip0x6000010acfc0"><path d="M 196.0 17.0 L 1008.0 17.0 L 1008.0 319.0 L 196.0 319.0 Z M 196.0 17.0 "></path></clipPath><g clip-path="url(#clip0x6000010acfc0)"><path d="M 197.0 318.0 L 1007.0 318.0 L 1007.0 18.0 L 197.0 18.0 Z M 197.4 317.6 " fill="#7ADA45"></path></g></g></g><image xlink:href="../../ABB90AEE-6D6A-4BD8-B9B2-ECF3588EBEC9/assets/768D92B5D542BFBE52D54ABC0236B277.png" width="1000.00" height="676.00" transform="matrix(0.12, 0.00, -0.00, -0.12, 61.0, 100.0)"></image><text xml:space="preserve" font-family="Helvetica-Light,Helvetica" font-size="31.0" fill="#FEFFFF" transform="matrix(1.00, 0.00, -0.00, -1.00, 39.9, 475.4)">“</text><text xml:space="preserve" font-family="Helvetica-Light,Helvetica" font-size="31.0" fill="#FEFFFF" transform="matrix(1.00, 0.00, -0.00, -1.00, 52.0, 475.4)">D</text><text xml:space="preserve" font-family="Helvetica-Light,Helvetica" font-size="31.0" fill="#FEFFFF" transform="matrix(1.00, 0.00, -0.00, -1.00, 74.4, 475.4)">E</text><text xml:space="preserve" font-family="Helvetica-Light,Helvetica" font-size="31.0" fill="#FEFFFF" transform="matrix(1.00, 0.00, -0.00, -1.00, 93.3, 475.4)">A</text><text xml:space="preserve" font-family="Helvetica-Light,Helvetica" font-size="31.0" fill="#FEFFFF" transform="matrix(1.00, 0.00, -0.00, -1.00, 114.0, 475.4)">D</text><text xml:space="preserve" font-family="Helvetica-Light,Helvetica" font-size="31.0" fill="#FEFFFF" transform="matrix(1.00, 0.00, -0.00, -1.00, 136.4, 475.4)">”</text><text xml:space="preserve" font-family="Helvetica-Light,Helvetica" font-size="31.0" fill="#FEFFFF" transform="matrix(1.00, 0.00, -0.00, -1.00, 148.4, 475.4)"> </text><text xml:space="preserve" font-family="Helvetica-Light,Helvetica" font-size="31.0" fill="#FEFFFF" transform="matrix(1.00, 0.00, -0.00, -1.00, 13.2, 438.4)"> </text><text xml:space="preserve" font-family="Helvetica-Light,Helvetica" font-size="31.0" fill="#FEFFFF" transform="matrix(1.00, 0.00, -0.00, -1.00, 21.8, 438.4)">f</text><text xml:space="preserve" font-family="Helvetica-Light,Helvetica" font-size="31.0" fill="#FEFFFF" transform="matrix(1.00, 0.00, -0.00, -1.00, 30.5, 438.4)">o</text><text xml:space="preserve" font-family="Helvetica-Light,Helvetica" font-size="31.0" fill="#FEFFFF" transform="matrix(1.00, 0.00, -0.00, -1.00, 47.7, 438.4)">r</text><text xml:space="preserve" font-family="Helvetica-Light,Helvetica" font-size="31.0" fill="#FEFFFF" transform="matrix(1.00, 0.00, -0.00, -1.00, 58.0, 438.4)"> </text><text xml:space="preserve" font-family="Helvetica-Light,Helvetica" font-size="31.0" fill="#FEFFFF" transform="matrix(1.00, 0.00, -0.00, -1.00, 66.6, 438.4)">s</text><text xml:space="preserve" font-family="Helvetica-Light,Helvetica" font-size="31.0" fill="#FEFFFF" transform="matrix(1.00, 0.00, -0.00, -1.00, 82.1, 438.4)">e</text><text xml:space="preserve" font-family="Helvetica-Light,Helvetica" font-size="31.0" fill="#FEFFFF" transform="matrix(1.00, 0.00, -0.00, -1.00, 99.4, 438.4)">c</text><text xml:space="preserve" font-family="Helvetica-Light,Helvetica" font-size="31.0" fill="#FEFFFF" transform="matrix(1.00, 0.00, -0.00, -1.00, 116.6, 438.4)">u</text><text xml:space="preserve" font-family="Helvetica-Light,Helvetica" font-size="31.0" fill="#FEFFFF" transform="matrix(1.00, 0.00, -0.00, -1.00, 133.8, 438.4)">r</text><text xml:space="preserve" font-family="Helvetica-Light,Helvetica" font-size="31.0" fill="#FEFFFF" transform="matrix(1.00, 0.00, -0.00, -1.00, 144.2, 438.4)">i</text><text xml:space="preserve" font-family="Helvetica-Light,Helvetica" font-size="31.0" fill="#FEFFFF" transform="matrix(1.00, 0.00, -0.00, -1.00, 151.1, 438.4)">t</text><text xml:space="preserve" font-family="Helvetica-Light,Helvetica" font-size="31.0" fill="#FEFFFF" transform="matrix(1.00, 0.00, -0.00, -1.00, 159.7, 438.4)">y</text><text xml:space="preserve" font-family="Helvetica-Light,Helvetica" font-size="31.0" fill="#FEFFFF" transform="matrix(1.00, 0.00, -0.00, -1.00, 39.9, 221.5)">“</text><text xml:space="preserve" font-family="Helvetica-Light,Helvetica" font-size="31.0" fill="#FEFFFF" transform="matrix(1.00, 0.00, -0.00, -1.00, 52.0, 221.5)">A</text><text xml:space="preserve" font-family="Helvetica-Light,Helvetica" font-size="31.0" fill="#FEFFFF" transform="matrix(1.00, 0.00, -0.00, -1.00, 72.7, 221.5)">L</text><text xml:space="preserve" font-family="Helvetica-Light,Helvetica" font-size="31.0" fill="#FEFFFF" transform="matrix(1.00, 0.00, -0.00, -1.00, 89.9, 221.5)">I</text><text xml:space="preserve" font-family="Helvetica-Light,Helvetica" font-size="31.0" fill="#FEFFFF" transform="matrix(1.00, 0.00, -0.00, -1.00, 98.5, 221.5)">V</text><text xml:space="preserve" font-family="Helvetica-Light,Helvetica" font-size="31.0" fill="#FEFFFF" transform="matrix(1.00, 0.00, -0.00, -1.00, 117.5, 221.5)">E</text><text xml:space="preserve" font-family="Helvetica-Light,Helvetica" font-size="31.0" fill="#FEFFFF" transform="matrix(1.00, 0.00, -0.00, -1.00, 136.4, 221.5)">”</text><text xml:space="preserve" font-family="Helvetica-Light,Helvetica" font-size="31.0" fill="#FEFFFF" transform="matrix(1.00, 0.00, -0.00, -1.00, 148.5, 221.5)"> </text><text xml:space="preserve" font-family="Helvetica-Light,Helvetica" font-size="31.0" fill="#FEFFFF" transform="matrix(1.00, 0.00, -0.00, -1.00, 22.7, 184.5)">S</text><text xml:space="preserve" font-family="Helvetica-Light,Helvetica" font-size="31.0" fill="#FEFFFF" transform="matrix(1.00, 0.00, -0.00, -1.00, 41.7, 184.5)">V</text><text xml:space="preserve" font-family="Helvetica-Light,Helvetica" font-size="31.0" fill="#FEFFFF" transform="matrix(1.00, 0.00, -0.00, -1.00, 60.6, 184.5)">G</text><text xml:space="preserve" font-family="Helvetica-Light,Helvetica" font-size="31.0" fill="#FEFFFF" transform="matrix(1.00, 0.00, -0.00, -1.00, 84.7, 184.5)"> </text><text xml:space="preserve" font-family="Helvetica-Light,Helvetica" font-size="31.0" fill="#FEFFFF" transform="matrix(1.00, 0.00, -0.00, -1.00, 93.3, 184.5)">D</text><text xml:space="preserve" font-family="Helvetica-Light,Helvetica" font-size="31.0" fill="#FEFFFF" transform="matrix(1.00, 0.00, -0.00, -1.00, 115.7, 184.5)">O</text><text xml:space="preserve" font-family="Helvetica-Light,Helvetica" font-size="31.0" fill="#FEFFFF" transform="matrix(1.00, 0.00, -0.00, -1.00, 139.8, 184.5)">M</text><text xml:space="preserve" font-family="Helvetica-Light,Helvetica" font-size="31.0" fill="#FEFFFF" transform="matrix(1.00, 0.00, -0.00, -1.00, 165.7, 184.5)"> </text></g></svg>