<?xml version="1.0" encoding="UTF-8" standalone="no"?><svg xmlns="http://www.w3.org/2000/svg" xmlns:xlink="http://www.w3.org/1999/xlink" clip-rule="evenodd" stroke-miterlimit="10" viewBox="0 0 1024 768"><desc>SVG generated by Keynote</desc><defs></defs><g transform="matrix(1.00, 0.00, -0.00, -1.00, 0.0, 768.0)"><path d="M 0.0 768.0 L 1024.0 768.0 L 1024.0 0.0 L 0.0 0.0 Z M 0.0 768.0 " fill="#000000"></path><text xml:space="preserve" font-family="Helvetica-Light,Helvetica" font-size="62.0" fill="#FEFFFF" transform="matrix(1.00, 0.00, -0.00, -1.00, 220.7, 516.0)">O</text><text xml:space="preserve" font-family="Helvetica-Light,Helvetica" font-size="62.0" fill="#FEFFFF" transform="matrix(1.00, 0.00, -0.00, -1.00, 268.9, 516.0)">p</text><text xml:space="preserve" font-family="Helvetica-Light,Helvetica" font-size="62.0" fill="#FEFFFF" transform="matrix(1.00, 0.00, -0.00, -1.00, 306.8, 516.0)">t</text><text xml:space="preserve" font-family="Helvetica-Light,Helvetica" font-size="62.0" fill="#FEFFFF" transform="matrix(1.00, 0.00, -0.00, -1.00, 324.0, 516.0)">i</text><text xml:space="preserve" font-family="Helvetica-Light,Helvetica" font-size="62.0" fill="#FEFFFF" transform="matrix(1.00, 0.00, -0.00, -1.00, 337.8, 516.0)">m</text><text xml:space="preserve" font-family="Helvetica-Light,Helvetica" font-size="62.0" fill="#FEFFFF" transform="matrix(1.00, 0.00, -0.00, -1.00, 389.4, 516.0)">i</text><text xml:space="preserve" font-family="Helvetica-Light,Helvetica" font-size="62.0" fill="#FEFFFF" transform="matrix(1.00, 0.00, -0.00, -1.00, 403.2, 516.0)">z</text><text xml:space="preserve" font-family="Helvetica-Light,Helvetica" font-size="62.0" fill="#FEFFFF" transform="matrix(1.00, 0.00, -0.00, -1.00, 434.2, 516.0)">e</text><text xml:space="preserve" font-family="Helvetica-Light,Helvetica" font-size="62.0" fill="#FEFFFF" transform="matrix(1.00, 0.00, -0.00, -1.00, 468.7, 516.0)"> </text><text xml:space="preserve" font-family="Helvetica-Light,Helvetica" font-size="62.0" fill="#FEFFFF" transform="matrix(1.00, 0.00, -0.00, -1.00, 485.9, 516.0)">i</text><text xml:space="preserve" font-family="Helvetica-Light,Helvetica" font-size="62.0" fill="#FEFFFF" transform="matrix(1.00, 0.00, -0.00, -1.00, 499.7, 516.0)">t</text><text xml:space="preserve" font-family="Helvetica-Light,Helvetica" font-size="62.0" fill="#FEFFFF" transform="matrix(1.00, 0.00, -0.00, -1.00, 516.9, 516.0)"> </text><text xml:space="preserve" font-family="Helvetica-Light,Helvetica" font-size="32.0" fill="#FEFFFF" transform="matrix(1.00, 0.00, -0.00, -1.00, 138.8, 471.1)">j</text><text xml:space="preserve" font-family="Helvetica-Light,Helvetica" font-size="32.0" fill="#FEFFFF" transform="matrix(1.00, 0.00, -0.00, -1.00, 145.9, 471.1)">a</text><text xml:space="preserve" font-family="Helvetica-Light,Helvetica" font-size="32.0" fill="#FEFFFF" transform="matrix(1.00, 0.00, -0.00, -1.00, 163.7, 471.1)">k</text><text xml:space="preserve" font-family="Helvetica-Light,Helvetica" font-size="32.0" fill="#FEFFFF" transform="matrix(1.00, 0.00, -0.00, -1.00, 179.7, 471.1)">e</text><text xml:space="preserve" font-family="Helvetica-Light,Helvetica" font-size="32.0" fill="#FEFFFF" transform="matrix(1.00, 0.00, -0.00, -1.00, 197.5, 471.1)">a</text><text xml:space="preserve" font-family="Helvetica-Light,Helvetica" font-size="32.0" fill="#FEFFFF" transform="matrix(1.00, 0.00, -0.00, -1.00, 215.3, 471.1)">r</text><text xml:space="preserve" font-family="Helvetica-Light,Helvetica" font-size="32.0" fill="#FEFFFF" transform="matrix(1.00, 0.00, -0.00, -1.00, 225.4, 471.1)">c</text><text xml:space="preserve" font-family="Helvetica-Light,Helvetica" font-size="32.0" fill="#FEFFFF" transform="matrix(1.00, 0.00, -0.00, -1.00, 243.2, 471.1)">h</text><text xml:space="preserve" font-family="Helvetica-Light,Helvetica" font-size="32.0" fill="#FEFFFF" transform="matrix(1.00, 0.00, -0.00, -1.00, 260.9, 471.1)">i</text><text xml:space="preserve" font-family="Helvetica-Light,Helvetica" font-size="32.0" fill="#FEFFFF" transform="matrix(1.00, 0.00, -0.00, -1.00, 268.1, 471.1)">b</text><text xml:space="preserve" font-family="Helvetica-Light,Helvetica" font-size="32.0" fill="#FEFFFF" transform="matrix(1.00, 0.00, -0.00, -1.00, 287.6, 471.1)">a</text><text xml:space="preserve" font-family="Helvetica-Light,Helvetica" font-size="32.0" fill="#FEFFFF" transform="matrix(1.00, 0.00, -0.00, -1.00, 305.4, 471.1)">l</text><text xml:space="preserve" font-family="Helvetica-Light,Helvetica" font-size="32.0" fill="#FEFFFF" transform="matrix(1.00, 0.00, -0.00, -1.00, 312.5, 471.1)">d</text><text xml:space="preserve" font-family="Helvetica-Light,Helvetica" font-size="32.0" fill="#FEFFFF" transform="matrix(1.00, 0.00, -0.00, -1.00, 332.1, 471.1)">.</text><text xml:space="preserve" font-family="Helvetica-Light,Helvetica" font-size="32.0" fill="#FEFFFF" transform="matrix(1.00, 0.00, -0.00, -1.00, 340.9, 471.1)">g</text><text xml:space="preserve" font-family="Helvetica-Light,Helvetica" font-size="32.0" fill="#FEFFFF" transform="matrix(1.00, 0.00, -0.00, -1.00, 360.5, 471.1)">i</text><text xml:space="preserve" font-family="Helvetica-Light,Helvetica" font-size="32.0" fill="#FEFFFF" transform="matrix(1.00, 0.00, -0.00, -1.00, 367.6, 471.1)">t</text><text xml:space="preserve" font-family="Helvetica-Light,Helvetica" font-size="32.0" fill="#FEFFFF" transform="matrix(1.00, 0.00, -0.00, -1.00, 376.5, 471.1)">h</text><text xml:space="preserve" font-family="Helvetica-Light,Helvetica" font-size="32.0" fill="#FEFFFF" transform="matrix(1.00, 0.00, -0.00, -1.00, 394.3, 471.1)">u</text><text xml:space="preserve" font-family="Helvetica-Light,Helvetica" font-size="32.0" fill="#FEFFFF" transform="matrix(1.00, 0.00, -0.00, -1.00, 412.1, 471.1)">b</text><text xml:space="preserve" font-family="Helvetica-Light,Helvetica" font-size="32.0" fill="#FEFFFF" transform="matrix(1.00, 0.00, -0.00, -1.00, 431.6, 471.1)">.</text><text xml:space="preserve" font-family="Helvetica-Light,Helvetica" font-size="32.0" fill="#FEFFFF" transform="matrix(1.00, 0.00, -0.00, -1.00, 440.5, 471.1)">i</text><text xml:space="preserve" font-family="Helvetica-Light,Helvetica" font-size="32.0" fill="#FEFFFF" transform="matrix(1.00, 0.00, -0.00, -1.00, 447.6, 471.1)">o</text><text xml:space="preserve" font-family="Helvetica-Light,Helvetica" font-size="32.0" fill="#FEFFFF" transform="matrix(1.00, 0.00, -0.00, -1.00, 465.4, 471.1)">/</text><text xml:space="preserve" font-family="Helvetica-Light,Helvetica" font-size="32.0" fill="#FEFFFF" transform="matrix(1.00, 0.00, -0.00, -1.00, 474.3, 471.1)">s</text><text xml:space="preserve" font-family="Helvetica-Light,Helvetica" font-size="32.0" fill="#FEFFFF" transform="matrix(1.00, 0.00, -0.00, -1.00, 490.3, 471.1)">v</text><text xml:space="preserve" font-family="Helvetica-Light,Helvetica" font-size="32.0" fill="#FEFFFF" transform="matrix(1.00, 0.00, -0.00, -1.00, 506.3, 471.1)">g</text><text xml:space="preserve" font-family="Helvetica-Light,Helvetica" font-size="32.0" fill="#FEFFFF" transform="matrix(1.00, 0.00, -0.00, -1.00, 525.9, 471.1)">o</text><text xml:space="preserve" font-family="Helvetica-Light,Helvetica" font-size="32.0" fill="#FEFFFF" transform="matrix(1.00, 0.00, -0.00, -1.00, 543.7, 471.1)">m</text><text xml:space="preserve" font-family="Helvetica-Light,Helvetica" font-size="32.0" fill="#FEFFFF" transform="matrix(1.00, 0.00, -0.00, -1.00, 570.3, 471.1)">g</text><text xml:space="preserve" font-family="Helvetica-Light,Helvetica" font-size="32.0" fill="#FEFFFF" transform="matrix(1.00, 0.00, -0.00, -1.00, 589.9, 471.1)">/</text><text xml:space="preserve" font-family="Helvetica-Light,Helvetica" font-size="32.0" fill="#FEFFFF" transform="matrix(1.00, 0.00, -0.00, -1.00, 598.8, 471.1)"> </text><text xml:space="preserve" font-family="Helvetica-Light,Helvetica" font-size="62.0" fill="#FEFFFF" transform="matrix(1.00, 0.00, -0.00, -1.00, 212.0, 366.0)">A</text><text xml:space="preserve" font-family="Helvetica-Light,Helvetica" font-size="62.0" fill="#FEFFFF" transform="matrix(1.00, 0.00, -0.00, -1.00, 253.3, 366.0)">u</text><text xml:space="preserve" font-family="Helvetica-Light,Helvetica" font-size="62.0" fill="#FEFFFF" transform="matrix(1.00, 0.00, -0.00, -1.00, 287.8, 366.0)">t</text><text xml:space="preserve" font-family="Helvetica-Light,Helvetica" font-size="62.0" fill="#FEFFFF" transform="matrix(1.00, 0.00, -0.00, -1.00, 305.1, 366.0)">o</text><text xml:space="preserve" font-family="Helvetica-Light,Helvetica" font-size="62.0" fill="#FEFFFF" transform="matrix(1.00, 0.00, -0.00, -1.00, 339.5, 366.0)">m</text><text xml:space="preserve" font-family="Helvetica-Light,Helvetica" font-size="62.0" fill="#FEFFFF" transform="matrix(1.00, 0.00, -0.00, -1.00, 391.2, 366.0)">a</text><text xml:space="preserve" font-family="Helvetica-Light,Helvetica" font-size="62.0" fill="#FEFFFF" transform="matrix(1.00, 0.00, -0.00, -1.00, 425.6, 366.0)">t</text><text xml:space="preserve" font-family="Helvetica-Light,Helvetica" font-size="62.0" fill="#FEFFFF" transform="matrix(1.00, 0.00, -0.00, -1.00, 442.9, 366.0)">e</text><text xml:space="preserve" font-family="Helvetica-Light,Helvetica" font-size="62.0" fill="#FEFFFF" transform="matrix(1.00, 0.00, -0.00, -1.00, 477.4, 366.0)"> </text><text xml:space="preserve" font-family="Helvetica-Light,Helvetica" font-size="62.0" fill="#FEFFFF" transform="matrix(1.00, 0.00, -0.00, -1.00, 494.6, 366.0)">i</text><text xml:space="preserve" font-family="Helvetica-Light,Helvetica" font-size="62.0" fill="#FEFFFF" transform="matrix(1.00, 0.00, -0.00, -1.00, 508.4, 366.0)">t</text><text xml:space="preserve" font-family="Helvetica-Light,Helvetica" font-size="62.0" fill="#FEFFFF" transform="matrix(1.00, 0.00, -0.00, -1.00, 525.6, 366.0)"> </text><text xml:space="preserve" font-family="Helvetica-Light,Helvetica" font-size="32.0" fill="#FEFFFF" transform="matrix(1.00, 0.00, -0.00, -1.00, 324.3, 321.1)">S</text><text xml:space="preserve" font-family="Helvetica-Light,Helvetica" font-size="32.0" fill="#FEFFFF" transform="matrix(1.00, 0.00, -0.00, -1.00, 343.9, 321.1)">V</text><text xml:space="preserve" font-family="Helvetica-Light,Helvetica" font-size="32.0" fill="#FEFFFF" transform="matrix(1.00, 0.00, -0.00, -1.00, 363.4, 321.1)">G</text><text xml:space="preserve" font-family="Helvetica-Light,Helvetica" font-size="32.0" fill="#FEFFFF" transform="matrix(1.00, 0.00, -0.00, -1.00, 388.3, 321.1)">O</text><text xml:space="preserve" font-family="Helvetica-Light,Helvetica" font-size="32.0" fill="#FEFFFF" transform="matrix(1.00, 0.00, -0.00, -1.00, 413.2, 321.1)"> </text><text xml:space="preserve" font-family="AvenirNext-Regular,Avenir Next" font-size="80.0" fill="#FEFFFF" transform="matrix(1.00, 0.00, -0.00, -1.00, 169.3, 622.5)">B</text><text xml:space="preserve" font-family="AvenirNext-Regular,Avenir Next" font-size="80.0" fill="#FEFFFF" transform="matrix(1.00, 0.00, -0.00, -1.00, 220.2, 622.5)">l</text><text xml:space="preserve" font-family="AvenirNext-Regular,Avenir Next" font-size="80.0" fill="#FEFFFF" transform="matrix(1.00, 0.00, -0.00, -1.00, 240.3, 622.5)">o</text><text xml:space="preserve" font-family="AvenirNext-Regular,Avenir Next" font-size="80.0" fill="#FEFFFF" transform="matrix(1.00, 0.00, -0.00, -1.00, 289.2, 622.5)">a</text><text xml:space="preserve" font-family="AvenirNext-Regular,Avenir Next" font-size="80.0" fill="#FEFFFF" transform="matrix(1.00, 0.00, -0.00, -1.00, 331.1, 622.5)">t</text><text xml:space="preserve" font-family="AvenirNext-Regular,Avenir Next" font-size="80.0" fill="#FEFFFF" transform="matrix(1.00, 0.00, -0.00, -1.00, 356.5, 622.5)">e</text><text xml:space="preserve" font-family="AvenirNext-Regular,Avenir Next" font-size="80.0" fill="#FEFFFF" transform="matrix(1.00, 0.00, -0.00, -1.00, 402.2, 622.5)">d</text><text xml:space="preserve" font-family="AvenirNext-Regular,Avenir Next" font-size="80.0" fill="#FEFFFF" transform="matrix(1.00, 0.00, -0.00, -1.00, 453.2, 622.5)"> </text><text xml:space="preserve" font-family="AvenirNext-Regular,Avenir Next" font-size="80.0" fill="#FEFFFF" transform="matrix(1.00, 0.00, -0.00, -1.00, 473.2, 622.5)">S</text><text xml:space="preserve" font-family="AvenirNext-Regular,Avenir Next" font-size="80.0" fill="#FEFFFF" transform="matrix(1.00, 0.00, -0.00, -1.00, 517.4, 622.5)">V</text><text xml:space="preserve" font-family="AvenirNext-Regular,Avenir Next" font-size="80.0" fill="#FEFFFF" transform="matrix(1.00, 0.00, -0.00, -1.00, 566.2, 622.5)">G</text><text xml:space="preserve" font-family="AvenirNext-Regular,Avenir Next" font-size="80.0" fill="#FEFFFF" transform="matrix(1.00, 0.00, -0.00, -1.00, 628.6, 622.5)"> </text><text xml:space="preserve" font-family="AvenirNext-Regular,Avenir Next" font-size="80.0" fill="#FEFFFF" transform="matrix(1.00, 0.00, -0.00, -1.00, 648.6, 622.5)">c</text><text xml:space="preserve" font-family="AvenirNext-Regular,Avenir Next" font-size="80.0" fill="#FEFFFF" transform="matrix(1.00, 0.00, -0.00, -1.00, 688.6, 622.5)">o</text><text xml:space="preserve" font-family="AvenirNext-Regular,Avenir Next" font-size="80.0" fill="#FEFFFF" transform="matrix(1.00, 0.00, -0.00, -1.00, 737.4, 622.5)">d</text><text xml:space="preserve" font-family="AvenirNext-Regular,Avenir Next" font-size="80.0" fill="#FEFFFF" transform="matrix(1.00, 0.00, -0.00, -1.00, 788.4, 622.5)">e</text><text xml:space="preserve" font-family="AvenirNext-Regular,Avenir Next" font-size="80.0" fill="#FEFFFF" transform="matrix(1.00, 0.00, -0.00, -1.00, 834.2, 622.5)">?</text><image xlink:href="../../30465B24-9B70-46DE-AF3A-E84C47C1E13C/assets/E32A81A590BC5E226770F9A13B625921.png" width="322.00" height="587.00" transform="matrix(0.99, 0.00, -0.00, -0.99, 669.0, 601.0)"></image><image xlink:href="../../30465B24-9B70-46DE-AF3A-E84C47C1E13C/assets/4C9D605AC9D842818F2946827A456C0F.png" width="377.00" height="238.00" transform="matrix(1.16, 0.00, -0.00, -1.16, 150.0, 308.0)"></image></g></svg>