<?xml version="1.0" encoding="UTF-8" standalone="no"?><svg xmlns="http://www.w3.org/2000/svg" xmlns:xlink="http://www.w3.org/1999/xlink" clip-rule="evenodd" stroke-miterlimit="10" viewBox="0 0 1024 768"><desc>SVG generated by Keynote</desc><defs></defs><g transform="matrix(1.00, 0.00, -0.00, -1.00, 0.0, 768.0)"><path d="M 0.0 768.0 L 1024.0 768.0 L 1024.0 0.0 L 0.0 0.0 Z M 0.0 768.0 " fill="#000000"></path><text xml:space="preserve" font-family="AvenirNext-Regular,Avenir Next" font-size="44.0" fill="#FEFFFF" transform="matrix(1.00, 0.00, -0.00, -1.00, 371.0, 590.1)">C</text><text xml:space="preserve" font-family="AvenirNext-Regular,Avenir Next" font-size="44.0" fill="#FEFFFF" transform="matrix(1.00, 0.00, -0.00, -1.00, 402.7, 590.1)">h</text><text xml:space="preserve" font-family="AvenirNext-Regular,Avenir Next" font-size="44.0" fill="#FEFFFF" transform="matrix(1.00, 0.00, -0.00, -1.00, 428.4, 590.1)">r</text><text xml:space="preserve" font-family="AvenirNext-Regular,Avenir Next" font-size="44.0" fill="#FEFFFF" transform="matrix(1.00, 0.00, -0.00, -1.00, 444.2, 590.1)">i</text><text xml:space="preserve" font-family="AvenirNext-Regular,Avenir Next" font-size="44.0" fill="#FEFFFF" transform="matrix(1.00, 0.00, -0.00, -1.00, 455.2, 590.1)">s</text><text xml:space="preserve" font-family="AvenirNext-Regular,Avenir Next" font-size="44.0" fill="#FEFFFF" transform="matrix(1.00, 0.00, -0.00, -1.00, 474.8, 590.1)"> </text><text xml:space="preserve" font-family="AvenirNext-Regular,Avenir Next" font-size="44.0" fill="#FEFFFF" transform="matrix(1.00, 0.00, -0.00, -1.00, 485.8, 590.1)">C</text><text xml:space="preserve" font-family="AvenirNext-Regular,Avenir Next" font-size="44.0" fill="#FEFFFF" transform="matrix(1.00, 0.00, -0.00, -1.00, 516.9, 590.1)">o</text><text xml:space="preserve" font-family="AvenirNext-Regular,Avenir Next" font-size="44.0" fill="#FEFFFF" transform="matrix(1.00, 0.00, -0.00, -1.00, 543.8, 590.1)">y</text><text xml:space="preserve" font-family="AvenirNext-Regular,Avenir Next" font-size="44.0" fill="#FEFFFF" transform="matrix(1.00, 0.00, -0.00, -1.00, 565.3, 590.1)">i</text><text xml:space="preserve" font-family="AvenirNext-Regular,Avenir Next" font-size="44.0" fill="#FEFFFF" transform="matrix(1.00, 0.00, -0.00, -1.00, 576.3, 590.1)">e</text><text xml:space="preserve" font-family="AvenirNext-Regular,Avenir Next" font-size="44.0" fill="#FEFFFF" transform="matrix(1.00, 0.00, -0.00, -1.00, 601.4, 590.1)">r</text><text xml:space="preserve" font-family="AvenirNext-Regular,Avenir Next" font-size="44.0" fill="#FEFFFF" transform="matrix(1.00, 0.00, -0.00, -1.00, 617.3, 590.1)"> </text><text xml:space="preserve" font-family="AvenirNext-Regular,Avenir Next" font-size="44.0" fill="#FEFFFF" transform="matrix(1.00, 0.00, -0.00, -1.00, 628.3, 590.1)"> </text><text xml:space="preserve" font-family="AvenirNext-Regular,Avenir Next" font-size="44.0" fill="#FEFFFF" transform="matrix(1.00, 0.00, -0.00, -1.00, 639.3, 590.1)"> </text><text xml:space="preserve" font-family="AvenirNext-Regular,Avenir Next" font-size="44.0" fill="#FEFFFF" transform="matrix(1.00, 0.00, -0.00, -1.00, 278.7, 530.1)">c</text><text xml:space="preserve" font-family="AvenirNext-Regular,Avenir Next" font-size="44.0" fill="#FEFFFF" transform="matrix(1.00, 0.00, -0.00, -1.00, 300.7, 530.1)">s</text><text xml:space="preserve" font-family="AvenirNext-Regular,Avenir Next" font-size="44.0" fill="#FEFFFF" transform="matrix(1.00, 0.00, -0.00, -1.00, 320.3, 530.1)">s</text><text xml:space="preserve" font-family="AvenirNext-Regular,Avenir Next" font-size="44.0" fill="#FEFFFF" transform="matrix(1.00, 0.00, -0.00, -1.00, 339.8, 530.1)">-</text><text xml:space="preserve" font-family="AvenirNext-Regular,Avenir Next" font-size="44.0" fill="#FEFFFF" transform="matrix(1.00, 0.00, -0.00, -1.00, 353.9, 530.1)">t</text><text xml:space="preserve" font-family="AvenirNext-Regular,Avenir Next" font-size="44.0" fill="#FEFFFF" transform="matrix(1.00, 0.00, -0.00, -1.00, 367.8, 530.1)">r</text><text xml:space="preserve" font-family="AvenirNext-Regular,Avenir Next" font-size="44.0" fill="#FEFFFF" transform="matrix(1.00, 0.00, -0.00, -1.00, 383.7, 530.1)">i</text><text xml:space="preserve" font-family="AvenirNext-Regular,Avenir Next" font-size="44.0" fill="#FEFFFF" transform="matrix(1.00, 0.00, -0.00, -1.00, 394.7, 530.1)">c</text><text xml:space="preserve" font-family="AvenirNext-Regular,Avenir Next" font-size="44.0" fill="#FEFFFF" transform="matrix(1.00, 0.00, -0.00, -1.00, 416.7, 530.1)">k</text><text xml:space="preserve" font-family="AvenirNext-Regular,Avenir Next" font-size="44.0" fill="#FEFFFF" transform="matrix(1.00, 0.00, -0.00, -1.00, 438.8, 530.1)">s</text><text xml:space="preserve" font-family="AvenirNext-Regular,Avenir Next" font-size="44.0" fill="#FEFFFF" transform="matrix(1.00, 0.00, -0.00, -1.00, 458.4, 530.1)">,</text><text xml:space="preserve" font-family="AvenirNext-Regular,Avenir Next" font-size="44.0" fill="#FEFFFF" transform="matrix(1.00, 0.00, -0.00, -1.00, 468.5, 530.1)"> </text><text xml:space="preserve" font-family="AvenirNext-Regular,Avenir Next" font-size="44.0" fill="#FEFFFF" transform="matrix(1.00, 0.00, -0.00, -1.00, 479.5, 530.1)">c</text><text xml:space="preserve" font-family="AvenirNext-Regular,Avenir Next" font-size="44.0" fill="#FEFFFF" transform="matrix(1.00, 0.00, -0.00, -1.00, 501.5, 530.1)">o</text><text xml:space="preserve" font-family="AvenirNext-Regular,Avenir Next" font-size="44.0" fill="#FEFFFF" transform="matrix(1.00, 0.00, -0.00, -1.00, 528.4, 530.1)">d</text><text xml:space="preserve" font-family="AvenirNext-Regular,Avenir Next" font-size="44.0" fill="#FEFFFF" transform="matrix(1.00, 0.00, -0.00, -1.00, 556.4, 530.1)">e</text><text xml:space="preserve" font-family="AvenirNext-Regular,Avenir Next" font-size="44.0" fill="#FEFFFF" transform="matrix(1.00, 0.00, -0.00, -1.00, 581.6, 530.1)">p</text><text xml:space="preserve" font-family="AvenirNext-Regular,Avenir Next" font-size="44.0" fill="#FEFFFF" transform="matrix(1.00, 0.00, -0.00, -1.00, 609.5, 530.1)">e</text><text xml:space="preserve" font-family="AvenirNext-Regular,Avenir Next" font-size="44.0" fill="#FEFFFF" transform="matrix(1.00, 0.00, -0.00, -1.00, 634.7, 530.1)">n</text><text xml:space="preserve" font-family="AvenirNext-Regular,Avenir Next" font-size="44.0" fill="#FEFFFF" transform="matrix(1.00, 0.00, -0.00, -1.00, 660.3, 530.1)">.</text><text xml:space="preserve" font-family="AvenirNext-Regular,Avenir Next" font-size="44.0" fill="#FEFFFF" transform="matrix(1.00, 0.00, -0.00, -1.00, 671.7, 530.1)">i</text><text xml:space="preserve" font-family="AvenirNext-Regular,Avenir Next" font-size="44.0" fill="#FEFFFF" transform="matrix(1.00, 0.00, -0.00, -1.00, 682.7, 530.1)">o</text><image xlink:href="5B9F398A1330254935AC18A81AEF92D0.png" width="400.00" height="400.00" transform="matrix(0.76, 0.00, -0.00, -0.76, 342.0, 479.0)"></image></g></svg>