<?xml version="1.0" encoding="UTF-8" standalone="no"?><svg xmlns="http://www.w3.org/2000/svg" xmlns:xlink="http://www.w3.org/1999/xlink" clip-rule="evenodd" stroke-miterlimit="10" viewBox="0 0 411 208"><desc>SVG generated by Keynote</desc><defs></defs><g transform="matrix(1.00, 0.00, -0.00, -1.00, 0.0, 208.0)"><text xml:space="preserve" font-family="Helvetica-Bold,Helvetica" font-weight="bold" font-size="45.2" fill="#FEFFFF" transform="matrix(1.00, 0.00, -0.00, -1.00, 153.8, 174.1)">2</text><text xml:space="preserve" font-family="Helvetica-Bold,Helvetica" font-weight="bold" font-size="45.2" fill="#FEFFFF" transform="matrix(1.00, 0.00, -0.00, -1.00, 179.0, 174.1)">0</text><text xml:space="preserve" font-family="Helvetica-Bold,Helvetica" font-weight="bold" font-size="45.2" fill="#FEFFFF" transform="matrix(1.00, 0.00, -0.00, -1.00, 204.2, 174.1)">1</text><text xml:space="preserve" font-family="Helvetica-Bold,Helvetica" font-weight="bold" font-size="45.2" fill="#FEFFFF" transform="matrix(1.00, 0.00, -0.00, -1.00, 229.3, 174.1)">0</text><text xml:space="preserve" font-family="Helvetica-Bold,Helvetica" font-weight="bold" font-size="45.2" fill="#FEFFFF" transform="matrix(1.00, 0.00, -0.00, -1.00, 67.1, 120.1)"> </text><text xml:space="preserve" font-family="Helvetica-Bold,Helvetica" font-weight="bold" font-size="45.2" fill="#FEFFFF" transform="matrix(1.00, 0.00, -0.00, -1.00, 79.6, 120.1)">I</text><text xml:space="preserve" font-family="Helvetica-Bold,Helvetica" font-weight="bold" font-size="45.2" fill="#FEFFFF" transform="matrix(1.00, 0.00, -0.00, -1.00, 92.2, 120.1)">E</text><text xml:space="preserve" font-family="Helvetica-Bold,Helvetica" font-weight="bold" font-size="45.2" fill="#FEFFFF" transform="matrix(1.00, 0.00, -0.00, -1.00, 122.4, 120.1)"> </text><text xml:space="preserve" font-family="Helvetica-Bold,Helvetica" font-weight="bold" font-size="45.2" fill="#FEFFFF" transform="matrix(1.00, 0.00, -0.00, -1.00, 134.9, 120.1)">9</text><text xml:space="preserve" font-family="Helvetica-Bold,Helvetica" font-weight="bold" font-size="45.2" fill="#FEFFFF" transform="matrix(1.00, 0.00, -0.00, -1.00, 160.1, 120.1)"> </text><text xml:space="preserve" font-family="Helvetica-Bold,Helvetica" font-weight="bold" font-size="45.2" fill="#FEFFFF" transform="matrix(1.00, 0.00, -0.00, -1.00, 172.7, 120.1)">r</text><text xml:space="preserve" font-family="Helvetica-Bold,Helvetica" font-weight="bold" font-size="45.2" fill="#FEFFFF" transform="matrix(1.00, 0.00, -0.00, -1.00, 190.3, 120.1)">e</text><text xml:space="preserve" font-family="Helvetica-Bold,Helvetica" font-weight="bold" font-size="45.2" fill="#FEFFFF" transform="matrix(1.00, 0.00, -0.00, -1.00, 215.5, 120.1)">l</text><text xml:space="preserve" font-family="Helvetica-Bold,Helvetica" font-weight="bold" font-size="45.2" fill="#FEFFFF" transform="matrix(1.00, 0.00, -0.00, -1.00, 228.0, 120.1)">e</text><text xml:space="preserve" font-family="Helvetica-Bold,Helvetica" font-weight="bold" font-size="45.2" fill="#FEFFFF" transform="matrix(1.00, 0.00, -0.00, -1.00, 253.2, 120.1)">a</text><text xml:space="preserve" font-family="Helvetica-Bold,Helvetica" font-weight="bold" font-size="45.2" fill="#FEFFFF" transform="matrix(1.00, 0.00, -0.00, -1.00, 278.4, 120.1)">s</text><text xml:space="preserve" font-family="Helvetica-Bold,Helvetica" font-weight="bold" font-size="45.2" fill="#FEFFFF" transform="matrix(1.00, 0.00, -0.00, -1.00, 303.5, 120.1)">e</text><text xml:space="preserve" font-family="Helvetica-Bold,Helvetica" font-weight="bold" font-size="45.2" fill="#FEFFFF" transform="matrix(1.00, 0.00, -0.00, -1.00, 328.7, 120.1)">.</text><text xml:space="preserve" font-family="Helvetica-Bold,Helvetica" font-weight="bold" font-size="45.2" fill="#FEFFFF" transform="matrix(1.00, 0.00, -0.00, -1.00, 341.3, 120.1)"> </text><text xml:space="preserve" font-family="Helvetica-Bold,Helvetica" font-weight="bold" font-size="45.2" fill="#FEFFFF" transform="matrix(1.00, 0.00, -0.00, -1.00, -0.7, 66.1)">I</text><text xml:space="preserve" font-family="Helvetica-Bold,Helvetica" font-weight="bold" font-size="45.2" fill="#FEFFFF" transform="matrix(1.00, 0.00, -0.00, -1.00, 11.8, 66.1)">m</text><text xml:space="preserve" font-family="Helvetica-Bold,Helvetica" font-weight="bold" font-size="45.2" fill="#FEFFFF" transform="matrix(1.00, 0.00, -0.00, -1.00, 52.1, 66.1)">p</text><text xml:space="preserve" font-family="Helvetica-Bold,Helvetica" font-weight="bold" font-size="45.2" fill="#FEFFFF" transform="matrix(1.00, 0.00, -0.00, -1.00, 79.7, 66.1)">l</text><text xml:space="preserve" font-family="Helvetica-Bold,Helvetica" font-weight="bold" font-size="45.2" fill="#FEFFFF" transform="matrix(1.00, 0.00, -0.00, -1.00, 92.2, 66.1)">e</text><text xml:space="preserve" font-family="Helvetica-Bold,Helvetica" font-weight="bold" font-size="45.2" fill="#FEFFFF" transform="matrix(1.00, 0.00, -0.00, -1.00, 117.4, 66.1)">m</text><text xml:space="preserve" font-family="Helvetica-Bold,Helvetica" font-weight="bold" font-size="45.2" fill="#FEFFFF" transform="matrix(1.00, 0.00, -0.00, -1.00, 157.6, 66.1)">e</text><text xml:space="preserve" font-family="Helvetica-Bold,Helvetica" font-weight="bold" font-size="45.2" fill="#FEFFFF" transform="matrix(1.00, 0.00, -0.00, -1.00, 182.8, 66.1)">n</text><text xml:space="preserve" font-family="Helvetica-Bold,Helvetica" font-weight="bold" font-size="45.2" fill="#FEFFFF" transform="matrix(1.00, 0.00, -0.00, -1.00, 210.4, 66.1)">t</text><text xml:space="preserve" font-family="Helvetica-Bold,Helvetica" font-weight="bold" font-size="45.2" fill="#FEFFFF" transform="matrix(1.00, 0.00, -0.00, -1.00, 225.5, 66.1)">s</text><text xml:space="preserve" font-family="Helvetica-Bold,Helvetica" font-weight="bold" font-size="45.2" fill="#FEFFFF" transform="matrix(1.00, 0.00, -0.00, -1.00, 250.7, 66.1)"> </text><text xml:space="preserve" font-family="Helvetica-Bold,Helvetica" font-weight="bold" font-size="45.2" fill="#FEFFFF" transform="matrix(1.00, 0.00, -0.00, -1.00, 263.2, 66.1)">6</text><text xml:space="preserve" font-family="Helvetica-Bold,Helvetica" font-weight="bold" font-size="45.2" fill="#FEFFFF" transform="matrix(1.00, 0.00, -0.00, -1.00, 288.4, 66.1)">0</text><text xml:space="preserve" font-family="Helvetica-Bold,Helvetica" font-weight="bold" font-size="45.2" fill="#FEFFFF" transform="matrix(1.00, 0.00, -0.00, -1.00, 313.6, 66.1)">%</text><text xml:space="preserve" font-family="Helvetica-Bold,Helvetica" font-weight="bold" font-size="45.2" fill="#FEFFFF" transform="matrix(1.00, 0.00, -0.00, -1.00, 353.8, 66.1)"> </text><text xml:space="preserve" font-family="Helvetica-Bold,Helvetica" font-weight="bold" font-size="45.2" fill="#FEFFFF" transform="matrix(1.00, 0.00, -0.00, -1.00, 366.4, 66.1)">o</text><text xml:space="preserve" font-family="Helvetica-Bold,Helvetica" font-weight="bold" font-size="45.2" fill="#FEFFFF" transform="matrix(1.00, 0.00, -0.00, -1.00, 394.0, 66.1)">f</text><text xml:space="preserve" font-family="Helvetica-Bold,Helvetica" font-weight="bold" font-size="45.2" fill="#FEFFFF" transform="matrix(1.00, 0.00, -0.00, -1.00, 409.1, 66.1)"> </text><text xml:space="preserve" font-family="Helvetica-Bold,Helvetica" font-weight="bold" font-size="45.2" fill="#FEFFFF" transform="matrix(1.00, 0.00, -0.00, -1.00, 98.5, 12.1)">S</text><text xml:space="preserve" font-family="Helvetica-Bold,Helvetica" font-weight="bold" font-size="45.2" fill="#FEFFFF" transform="matrix(1.00, 0.00, -0.00, -1.00, 128.7, 12.1)">V</text><text xml:space="preserve" font-family="Helvetica-Bold,Helvetica" font-weight="bold" font-size="45.2" fill="#FEFFFF" transform="matrix(1.00, 0.00, -0.00, -1.00, 158.9, 12.1)">G</text><text xml:space="preserve" font-family="Helvetica-Bold,Helvetica" font-weight="bold" font-size="45.2" fill="#FEFFFF" transform="matrix(1.00, 0.00, -0.00, -1.00, 194.1, 12.1)"> </text><text xml:space="preserve" font-family="Helvetica-Bold,Helvetica" font-weight="bold" font-size="45.2" fill="#FEFFFF" transform="matrix(1.00, 0.00, -0.00, -1.00, 206.6, 12.1)">s</text><text xml:space="preserve" font-family="Helvetica-Bold,Helvetica" font-weight="bold" font-size="45.2" fill="#FEFFFF" transform="matrix(1.00, 0.00, -0.00, -1.00, 231.8, 12.1)">p</text><text xml:space="preserve" font-family="Helvetica-Bold,Helvetica" font-weight="bold" font-size="45.2" fill="#FEFFFF" transform="matrix(1.00, 0.00, -0.00, -1.00, 259.4, 12.1)">e</text><text xml:space="preserve" font-family="Helvetica-Bold,Helvetica" font-weight="bold" font-size="45.2" fill="#FEFFFF" transform="matrix(1.00, 0.00, -0.00, -1.00, 284.6, 12.1)">c</text></g></svg>