<?xml version="1.0" encoding="UTF-8" standalone="no"?><svg xmlns="http://www.w3.org/2000/svg" xmlns:xlink="http://www.w3.org/1999/xlink" clip-rule="evenodd" stroke-miterlimit="10" viewBox="0 0 1024 768"><desc>SVG generated by Keynote</desc><defs></defs><g transform="matrix(1.00, 0.00, -0.00, -1.00, 0.0, 768.0)"><path d="M 0.0 768.0 L 1024.0 768.0 L 1024.0 0.0 L 0.0 0.0 Z M 0.0 768.0 " fill="#000000"></path><text xml:space="preserve" font-family="AvenirNext-Regular,Avenir Next" font-size="60.8" fill="#FEFFFF" transform="matrix(1.00, 0.00, -0.00, -1.00, 166.0, 530.1)">U</text><text xml:space="preserve" font-family="AvenirNext-Regular,Avenir Next" font-size="60.8" fill="#FEFFFF" transform="matrix(1.00, 0.00, -0.00, -1.00, 209.2, 530.1)">S</text><text xml:space="preserve" font-family="AvenirNext-Regular,Avenir Next" font-size="60.8" fill="#FEFFFF" transform="matrix(1.00, 0.00, -0.00, -1.00, 243.5, 530.1)">E</text><text xml:space="preserve" font-family="AvenirNext-Regular,Avenir Next" font-size="60.8" fill="#FEFFFF" transform="matrix(1.00, 0.00, -0.00, -1.00, 279.5, 530.1)"> </text><text xml:space="preserve" font-family="AvenirNext-Regular,Avenir Next" font-size="60.8" fill="#FEFFFF" transform="matrix(1.00, 0.00, -0.00, -1.00, 294.7, 530.1)">c</text><text xml:space="preserve" font-family="AvenirNext-Regular,Avenir Next" font-size="60.8" fill="#FEFFFF" transform="matrix(1.00, 0.00, -0.00, -1.00, 325.1, 530.1)">a</text><text xml:space="preserve" font-family="AvenirNext-Regular,Avenir Next" font-size="60.8" fill="#FEFFFF" transform="matrix(1.00, 0.00, -0.00, -1.00, 357.6, 530.1)">s</text><text xml:space="preserve" font-family="AvenirNext-Regular,Avenir Next" font-size="60.8" fill="#FEFFFF" transform="matrix(1.00, 0.00, -0.00, -1.00, 384.6, 530.1)">e</text><text xml:space="preserve" font-family="AvenirNext-Regular,Avenir Next" font-size="60.8" fill="#FEFFFF" transform="matrix(1.00, 0.00, -0.00, -1.00, 419.3, 530.1)">:</text><text xml:space="preserve" font-family="AvenirNext-Regular,Avenir Next" font-size="60.8" fill="#FEFFFF" transform="matrix(1.00, 0.00, -0.00, -1.00, 437.6, 530.1)"> </text><text xml:space="preserve" font-family="AvenirNext-Regular,Avenir Next" font-size="60.8" fill="#FEFFFF" transform="matrix(1.00, 0.00, -0.00, -1.00, 452.8, 530.1)">S</text><text xml:space="preserve" font-family="AvenirNext-Regular,Avenir Next" font-size="60.8" fill="#FEFFFF" transform="matrix(1.00, 0.00, -0.00, -1.00, 486.3, 530.1)">V</text><text xml:space="preserve" font-family="AvenirNext-Regular,Avenir Next" font-size="60.8" fill="#FEFFFF" transform="matrix(1.00, 0.00, -0.00, -1.00, 523.5, 530.1)">G</text><text xml:space="preserve" font-family="AvenirNext-Regular,Avenir Next" font-size="60.8" fill="#FEFFFF" transform="matrix(1.00, 0.00, -0.00, -1.00, 570.9, 530.1)"> </text><text xml:space="preserve" font-family="AvenirNext-Regular,Avenir Next" font-size="60.8" fill="#FEFFFF" transform="matrix(1.00, 0.00, -0.00, -1.00, 586.1, 530.1)">f</text><text xml:space="preserve" font-family="AvenirNext-Regular,Avenir Next" font-size="60.8" fill="#FEFFFF" transform="matrix(1.00, 0.00, -0.00, -1.00, 604.0, 530.1)">o</text><text xml:space="preserve" font-family="AvenirNext-Regular,Avenir Next" font-size="60.8" fill="#FEFFFF" transform="matrix(1.00, 0.00, -0.00, -1.00, 641.1, 530.1)">r</text><text xml:space="preserve" font-family="AvenirNext-Regular,Avenir Next" font-size="60.8" fill="#FEFFFF" transform="matrix(1.00, 0.00, -0.00, -1.00, 663.0, 530.1)"> </text><text xml:space="preserve" font-family="AvenirNext-Regular,Avenir Next" font-size="60.8" fill="#FEFFFF" transform="matrix(1.00, 0.00, -0.00, -1.00, 678.2, 530.1)">c</text><text xml:space="preserve" font-family="AvenirNext-Regular,Avenir Next" font-size="60.8" fill="#FEFFFF" transform="matrix(1.00, 0.00, -0.00, -1.00, 708.6, 530.1)">h</text><text xml:space="preserve" font-family="AvenirNext-Regular,Avenir Next" font-size="60.8" fill="#FEFFFF" transform="matrix(1.00, 0.00, -0.00, -1.00, 744.1, 530.1)">a</text><text xml:space="preserve" font-family="AvenirNext-Regular,Avenir Next" font-size="60.8" fill="#FEFFFF" transform="matrix(1.00, 0.00, -0.00, -1.00, 776.5, 530.1)">r</text><text xml:space="preserve" font-family="AvenirNext-Regular,Avenir Next" font-size="60.8" fill="#FEFFFF" transform="matrix(1.00, 0.00, -0.00, -1.00, 797.7, 530.1)">t</text><text xml:space="preserve" font-family="AvenirNext-Regular,Avenir Next" font-size="60.8" fill="#FEFFFF" transform="matrix(1.00, 0.00, -0.00, -1.00, 817.0, 530.1)">s</text><text xml:space="preserve" font-family="AvenirNext-Regular,Avenir Next" font-size="60.8" fill="#FEFFFF" transform="matrix(1.00, 0.00, -0.00, -1.00, 844.0, 530.1)">,</text><text xml:space="preserve" font-family="AvenirNext-Regular,Avenir Next" font-size="60.8" fill="#FEFFFF" transform="matrix(1.00, 0.00, -0.00, -1.00, 858.0, 530.1)"> </text><text xml:space="preserve" font-family="AvenirNext-Regular,Avenir Next" font-size="60.8" fill="#FEFFFF" transform="matrix(1.00, 0.00, -0.00, -1.00, 332.9, 447.1)">i</text><text xml:space="preserve" font-family="AvenirNext-Regular,Avenir Next" font-size="60.8" fill="#FEFFFF" transform="matrix(1.00, 0.00, -0.00, -1.00, 348.1, 447.1)">n</text><text xml:space="preserve" font-family="AvenirNext-Regular,Avenir Next" font-size="60.8" fill="#FEFFFF" transform="matrix(1.00, 0.00, -0.00, -1.00, 383.4, 447.1)">f</text><text xml:space="preserve" font-family="AvenirNext-Regular,Avenir Next" font-size="60.8" fill="#FEFFFF" transform="matrix(1.00, 0.00, -0.00, -1.00, 401.3, 447.1)">o</text><text xml:space="preserve" font-family="AvenirNext-Regular,Avenir Next" font-size="60.8" fill="#FEFFFF" transform="matrix(1.00, 0.00, -0.00, -1.00, 438.5, 447.1)">g</text><text xml:space="preserve" font-family="AvenirNext-Regular,Avenir Next" font-size="60.8" fill="#FEFFFF" transform="matrix(1.00, 0.00, -0.00, -1.00, 476.9, 447.1)">r</text><text xml:space="preserve" font-family="AvenirNext-Regular,Avenir Next" font-size="60.8" fill="#FEFFFF" transform="matrix(1.00, 0.00, -0.00, -1.00, 498.0, 447.1)">a</text><text xml:space="preserve" font-family="AvenirNext-Regular,Avenir Next" font-size="60.8" fill="#FEFFFF" transform="matrix(1.00, 0.00, -0.00, -1.00, 530.5, 447.1)">p</text><text xml:space="preserve" font-family="AvenirNext-Regular,Avenir Next" font-size="60.8" fill="#FEFFFF" transform="matrix(1.00, 0.00, -0.00, -1.00, 569.1, 447.1)">h</text><text xml:space="preserve" font-family="AvenirNext-Regular,Avenir Next" font-size="60.8" fill="#FEFFFF" transform="matrix(1.00, 0.00, -0.00, -1.00, 604.6, 447.1)">i</text><text xml:space="preserve" font-family="AvenirNext-Regular,Avenir Next" font-size="60.8" fill="#FEFFFF" transform="matrix(1.00, 0.00, -0.00, -1.00, 619.8, 447.1)">c</text><text xml:space="preserve" font-family="AvenirNext-Regular,Avenir Next" font-size="60.8" fill="#FEFFFF" transform="matrix(1.00, 0.00, -0.00, -1.00, 650.2, 447.1)">s</text><text xml:space="preserve" font-family="AvenirNext-Regular,Avenir Next" font-size="60.8" fill="#FEFFFF" transform="matrix(1.00, 0.00, -0.00, -1.00, 677.2, 447.1)">,</text><text xml:space="preserve" font-family="AvenirNext-Regular,Avenir Next" font-size="60.8" fill="#FEFFFF" transform="matrix(1.00, 0.00, -0.00, -1.00, 691.1, 447.1)"> </text><text xml:space="preserve" font-family="AvenirNext-Regular,Avenir Next" font-size="60.8" fill="#FEFFFF" transform="matrix(1.00, 0.00, -0.00, -1.00, 706.3, 447.1)"> </text><text xml:space="preserve" font-family="AvenirNext-Regular,Avenir Next" font-size="60.8" fill="#FEFFFF" transform="matrix(1.00, 0.00, -0.00, -1.00, 721.5, 447.1)"> </text><text xml:space="preserve" font-family="AvenirNext-Italic,Avenir Next" font-style="italic" font-size="60.8" fill="#FEFFFF" transform="matrix(1.00, 0.00, -0.00, -1.00, 196.7, 364.1)">"</text><text xml:space="preserve" font-family="AvenirNext-Italic,Avenir Next" font-style="italic" font-size="60.8" fill="#FEFFFF" transform="matrix(1.00, 0.00, -0.00, -1.00, 221.0, 364.1)">J</text><text xml:space="preserve" font-family="AvenirNext-Italic,Avenir Next" font-style="italic" font-size="60.8" fill="#FEFFFF" transform="matrix(1.00, 0.00, -0.00, -1.00, 250.0, 364.1)">a</text><text xml:space="preserve" font-family="AvenirNext-Italic,Avenir Next" font-style="italic" font-size="60.8" fill="#FEFFFF" transform="matrix(1.00, 0.00, -0.00, -1.00, 282.4, 364.1)">v</text><text xml:space="preserve" font-family="AvenirNext-Italic,Avenir Next" font-style="italic" font-size="60.8" fill="#FEFFFF" transform="matrix(1.00, 0.00, -0.00, -1.00, 311.5, 364.1)">a</text><text xml:space="preserve" font-family="AvenirNext-Italic,Avenir Next" font-style="italic" font-size="60.8" fill="#FEFFFF" transform="matrix(1.00, 0.00, -0.00, -1.00, 343.9, 364.1)">S</text><text xml:space="preserve" font-family="AvenirNext-Italic,Avenir Next" font-style="italic" font-size="60.8" fill="#FEFFFF" transform="matrix(1.00, 0.00, -0.00, -1.00, 378.2, 364.1)">c</text><text xml:space="preserve" font-family="AvenirNext-Italic,Avenir Next" font-style="italic" font-size="60.8" fill="#FEFFFF" transform="matrix(1.00, 0.00, -0.00, -1.00, 408.6, 364.1)">r</text><text xml:space="preserve" font-family="AvenirNext-Italic,Avenir Next" font-style="italic" font-size="60.8" fill="#FEFFFF" transform="matrix(1.00, 0.00, -0.00, -1.00, 429.8, 364.1)">i</text><text xml:space="preserve" font-family="AvenirNext-Italic,Avenir Next" font-style="italic" font-size="60.8" fill="#FEFFFF" transform="matrix(1.00, 0.00, -0.00, -1.00, 445.0, 364.1)">p</text><text xml:space="preserve" font-family="AvenirNext-Italic,Avenir Next" font-style="italic" font-size="60.8" fill="#FEFFFF" transform="matrix(1.00, 0.00, -0.00, -1.00, 483.2, 364.1)">t</text><text xml:space="preserve" font-family="AvenirNext-Italic,Avenir Next" font-style="italic" font-size="60.8" fill="#FEFFFF" transform="matrix(1.00, 0.00, -0.00, -1.00, 501.8, 364.1)"> </text><text xml:space="preserve" font-family="AvenirNext-Italic,Avenir Next" font-style="italic" font-size="60.8" fill="#FEFFFF" transform="matrix(1.00, 0.00, -0.00, -1.00, 517.0, 364.1)">j</text><text xml:space="preserve" font-family="AvenirNext-Italic,Avenir Next" font-style="italic" font-size="60.8" fill="#FEFFFF" transform="matrix(1.00, 0.00, -0.00, -1.00, 532.3, 364.1)">o</text><text xml:space="preserve" font-family="AvenirNext-Italic,Avenir Next" font-style="italic" font-size="60.8" fill="#FEFFFF" transform="matrix(1.00, 0.00, -0.00, -1.00, 568.5, 364.1)">u</text><text xml:space="preserve" font-family="AvenirNext-Italic,Avenir Next" font-style="italic" font-size="60.8" fill="#FEFFFF" transform="matrix(1.00, 0.00, -0.00, -1.00, 603.6, 364.1)">r</text><text xml:space="preserve" font-family="AvenirNext-Italic,Avenir Next" font-style="italic" font-size="60.8" fill="#FEFFFF" transform="matrix(1.00, 0.00, -0.00, -1.00, 624.8, 364.1)">n</text><text xml:space="preserve" font-family="AvenirNext-Italic,Avenir Next" font-style="italic" font-size="60.8" fill="#FEFFFF" transform="matrix(1.00, 0.00, -0.00, -1.00, 659.9, 364.1)">a</text><text xml:space="preserve" font-family="AvenirNext-Italic,Avenir Next" font-style="italic" font-size="60.8" fill="#FEFFFF" transform="matrix(1.00, 0.00, -0.00, -1.00, 692.3, 364.1)">l</text><text xml:space="preserve" font-family="AvenirNext-Italic,Avenir Next" font-style="italic" font-size="60.8" fill="#FEFFFF" transform="matrix(1.00, 0.00, -0.00, -1.00, 707.7, 364.1)">i</text><text xml:space="preserve" font-family="AvenirNext-Italic,Avenir Next" font-style="italic" font-size="60.8" fill="#FEFFFF" transform="matrix(1.00, 0.00, -0.00, -1.00, 722.9, 364.1)">s</text><text xml:space="preserve" font-family="AvenirNext-Italic,Avenir Next" font-style="italic" font-size="60.8" fill="#FEFFFF" transform="matrix(1.00, 0.00, -0.00, -1.00, 749.8, 364.1)">m</text><text xml:space="preserve" font-family="AvenirNext-Italic,Avenir Next" font-style="italic" font-size="60.8" fill="#FEFFFF" transform="matrix(1.00, 0.00, -0.00, -1.00, 803.0, 364.1)">"</text><text xml:space="preserve" font-family="AvenirNext-Italic,Avenir Next" font-style="italic" font-size="60.8" fill="#FEFFFF" transform="matrix(1.00, 0.00, -0.00, -1.00, 827.3, 364.1)"> </text></g></svg>