<?xml version="1.0" encoding="UTF-8" standalone="no"?><svg xmlns="http://www.w3.org/2000/svg" xmlns:xlink="http://www.w3.org/1999/xlink" clip-rule="evenodd" stroke-miterlimit="10" viewBox="0 0 1024 768"><desc>SVG generated by Keynote</desc><defs></defs><g transform="matrix(1.00, 0.00, -0.00, -1.00, 0.0, 768.0)"><path d="M 0.0 768.0 L 1024.0 768.0 L 1024.0 0.0 L 0.0 0.0 Z M 0.0 768.0 " fill="#000000"></path><image xlink:href="../../DB8D4517-E538-4E42-BB83-527241B09803/assets/44072EBA540F87099B96DDED0D67C154.png" width="440.00" height="359.00" transform="matrix(0.52, 0.00, -0.00, -0.52, 724.2, 710.2)"></image><image xlink:href="../../0D66E160-1186-4054-A288-25945F8BE028/assets/51B12FAE2A936AAEA9992E5D5965E78C.png" width="1380.00" height="648.00" transform="matrix(0.67, 0.00, -0.00, -0.67, 41.0, 483.0)"></image><text xml:space="preserve" font-family="Helvetica-Bold,Helvetica" font-weight="bold" font-size="49.9" fill="#FEFFFF" transform="matrix(1.00, 0.00, -0.00, -1.00, 220.5, 677.4)">2</text><text xml:space="preserve" font-family="Helvetica-Bold,Helvetica" font-weight="bold" font-size="49.9" fill="#FEFFFF" transform="matrix(1.00, 0.00, -0.00, -1.00, 248.3, 677.4)">0</text><text xml:space="preserve" font-family="Helvetica-Bold,Helvetica" font-weight="bold" font-size="49.9" fill="#FEFFFF" transform="matrix(1.00, 0.00, -0.00, -1.00, 276.1, 677.4)">1</text><text xml:space="preserve" font-family="Helvetica-Bold,Helvetica" font-weight="bold" font-size="49.9" fill="#FEFFFF" transform="matrix(1.00, 0.00, -0.00, -1.00, 303.8, 677.4)">2</text><text xml:space="preserve" font-family="Helvetica-Bold,Helvetica" font-weight="bold" font-size="49.9" fill="#FEFFFF" transform="matrix(1.00, 0.00, -0.00, -1.00, 138.8, 618.4)">A</text><text xml:space="preserve" font-family="Helvetica-Bold,Helvetica" font-weight="bold" font-size="49.9" fill="#FEFFFF" transform="matrix(1.00, 0.00, -0.00, -1.00, 174.8, 618.4)">n</text><text xml:space="preserve" font-family="Helvetica-Bold,Helvetica" font-weight="bold" font-size="49.9" fill="#FEFFFF" transform="matrix(1.00, 0.00, -0.00, -1.00, 205.3, 618.4)">d</text><text xml:space="preserve" font-family="Helvetica-Bold,Helvetica" font-weight="bold" font-size="49.9" fill="#FEFFFF" transform="matrix(1.00, 0.00, -0.00, -1.00, 235.8, 618.4)">r</text><text xml:space="preserve" font-family="Helvetica-Bold,Helvetica" font-weight="bold" font-size="49.9" fill="#FEFFFF" transform="matrix(1.00, 0.00, -0.00, -1.00, 255.3, 618.4)">o</text><text xml:space="preserve" font-family="Helvetica-Bold,Helvetica" font-weight="bold" font-size="49.9" fill="#FEFFFF" transform="matrix(1.00, 0.00, -0.00, -1.00, 285.8, 618.4)">i</text><text xml:space="preserve" font-family="Helvetica-Bold,Helvetica" font-weight="bold" font-size="49.9" fill="#FEFFFF" transform="matrix(1.00, 0.00, -0.00, -1.00, 299.6, 618.4)">d</text><text xml:space="preserve" font-family="Helvetica-Bold,Helvetica" font-weight="bold" font-size="49.9" fill="#FEFFFF" transform="matrix(1.00, 0.00, -0.00, -1.00, 330.1, 618.4)"> </text><text xml:space="preserve" font-family="Helvetica-Bold,Helvetica" font-weight="bold" font-size="49.9" fill="#FEFFFF" transform="matrix(1.00, 0.00, -0.00, -1.00, 344.0, 618.4)">3</text><text xml:space="preserve" font-family="Helvetica-Bold,Helvetica" font-weight="bold" font-size="49.9" fill="#FEFFFF" transform="matrix(1.00, 0.00, -0.00, -1.00, 371.8, 618.4)">.</text><text xml:space="preserve" font-family="Helvetica-Bold,Helvetica" font-weight="bold" font-size="49.9" fill="#FEFFFF" transform="matrix(1.00, 0.00, -0.00, -1.00, 385.7, 618.4)">x</text><text xml:space="preserve" font-family="Helvetica-Bold,Helvetica" font-weight="bold" font-size="49.9" fill="#FEFFFF" transform="matrix(1.00, 0.00, -0.00, -1.00, 413.5, 618.4)"> </text><text xml:space="preserve" font-family="Helvetica-Bold,Helvetica" font-weight="bold" font-size="49.9" fill="#FEFFFF" transform="matrix(1.00, 0.00, -0.00, -1.00, 137.3, 559.4)">i</text><text xml:space="preserve" font-family="Helvetica-Bold,Helvetica" font-weight="bold" font-size="49.9" fill="#FEFFFF" transform="matrix(1.00, 0.00, -0.00, -1.00, 151.2, 559.4)">m</text><text xml:space="preserve" font-family="Helvetica-Bold,Helvetica" font-weight="bold" font-size="49.9" fill="#FEFFFF" transform="matrix(1.00, 0.00, -0.00, -1.00, 195.6, 559.4)">p</text><text xml:space="preserve" font-family="Helvetica-Bold,Helvetica" font-weight="bold" font-size="49.9" fill="#FEFFFF" transform="matrix(1.00, 0.00, -0.00, -1.00, 226.1, 559.4)">l</text><text xml:space="preserve" font-family="Helvetica-Bold,Helvetica" font-weight="bold" font-size="49.9" fill="#FEFFFF" transform="matrix(1.00, 0.00, -0.00, -1.00, 239.9, 559.4)">e</text><text xml:space="preserve" font-family="Helvetica-Bold,Helvetica" font-weight="bold" font-size="49.9" fill="#FEFFFF" transform="matrix(1.00, 0.00, -0.00, -1.00, 267.7, 559.4)">m</text><text xml:space="preserve" font-family="Helvetica-Bold,Helvetica" font-weight="bold" font-size="49.9" fill="#FEFFFF" transform="matrix(1.00, 0.00, -0.00, -1.00, 312.1, 559.4)">e</text><text xml:space="preserve" font-family="Helvetica-Bold,Helvetica" font-weight="bold" font-size="49.9" fill="#FEFFFF" transform="matrix(1.00, 0.00, -0.00, -1.00, 339.9, 559.4)">n</text><text xml:space="preserve" font-family="Helvetica-Bold,Helvetica" font-weight="bold" font-size="49.9" fill="#FEFFFF" transform="matrix(1.00, 0.00, -0.00, -1.00, 370.4, 559.4)">t</text><text xml:space="preserve" font-family="Helvetica-Bold,Helvetica" font-weight="bold" font-size="49.9" fill="#FEFFFF" transform="matrix(1.00, 0.00, -0.00, -1.00, 387.0, 559.4)">s</text><text xml:space="preserve" font-family="Helvetica-Bold,Helvetica" font-weight="bold" font-size="49.9" fill="#FEFFFF" transform="matrix(1.00, 0.00, -0.00, -1.00, 414.8, 559.4)"> </text><text xml:space="preserve" font-family="Helvetica-Bold,Helvetica" font-weight="bold" font-size="49.9" fill="#FEFFFF" transform="matrix(1.00, 0.00, -0.00, -1.00, 138.8, 500.4)">p</text><text xml:space="preserve" font-family="Helvetica-Bold,Helvetica" font-weight="bold" font-size="49.9" fill="#FEFFFF" transform="matrix(1.00, 0.00, -0.00, -1.00, 169.2, 500.4)">a</text><text xml:space="preserve" font-family="Helvetica-Bold,Helvetica" font-weight="bold" font-size="49.9" fill="#FEFFFF" transform="matrix(1.00, 0.00, -0.00, -1.00, 197.0, 500.4)">r</text><text xml:space="preserve" font-family="Helvetica-Bold,Helvetica" font-weight="bold" font-size="49.9" fill="#FEFFFF" transform="matrix(1.00, 0.00, -0.00, -1.00, 216.4, 500.4)">t</text><text xml:space="preserve" font-family="Helvetica-Bold,Helvetica" font-weight="bold" font-size="49.9" fill="#FEFFFF" transform="matrix(1.00, 0.00, -0.00, -1.00, 233.1, 500.4)"> </text><text xml:space="preserve" font-family="Helvetica-Bold,Helvetica" font-weight="bold" font-size="49.9" fill="#FEFFFF" transform="matrix(1.00, 0.00, -0.00, -1.00, 246.9, 500.4)">o</text><text xml:space="preserve" font-family="Helvetica-Bold,Helvetica" font-weight="bold" font-size="49.9" fill="#FEFFFF" transform="matrix(1.00, 0.00, -0.00, -1.00, 277.4, 500.4)">f</text><text xml:space="preserve" font-family="Helvetica-Bold,Helvetica" font-weight="bold" font-size="49.9" fill="#FEFFFF" transform="matrix(1.00, 0.00, -0.00, -1.00, 294.0, 500.4)"> </text><text xml:space="preserve" font-family="Helvetica-Bold,Helvetica" font-weight="bold" font-size="49.9" fill="#FEFFFF" transform="matrix(1.00, 0.00, -0.00, -1.00, 307.9, 500.4)">S</text><text xml:space="preserve" font-family="Helvetica-Bold,Helvetica" font-weight="bold" font-size="49.9" fill="#FEFFFF" transform="matrix(1.00, 0.00, -0.00, -1.00, 341.2, 500.4)">V</text><text xml:space="preserve" font-family="Helvetica-Bold,Helvetica" font-weight="bold" font-size="49.9" fill="#FEFFFF" transform="matrix(1.00, 0.00, -0.00, -1.00, 374.5, 500.4)">G</text></g></svg>