<?xml version="1.0" encoding="UTF-8" standalone="no"?><svg xmlns="http://www.w3.org/2000/svg" xmlns:xlink="http://www.w3.org/1999/xlink" clip-rule="evenodd" stroke-miterlimit="10" viewBox="0 0 1024 768"><desc>SVG generated by Keynote</desc><defs></defs><g transform="matrix(1.00, 0.00, -0.00, -1.00, 0.0, 768.0)"><path d="M 0.0 768.0 L 1024.0 768.0 L 1024.0 0.0 L 0.0 0.0 Z M 0.0 768.0 " fill="#000000"></path><image xlink:href="../../DB8D4517-E538-4E42-BB83-527241B09803/assets/44072EBA540F87099B96DDED0D67C154.png" width="440.00" height="359.00" transform="matrix(0.52, 0.00, -0.00, -0.52, 724.2, 710.2)"></image><text xml:space="preserve" font-family="Helvetica-Bold,Helvetica" font-weight="bold" font-size="42.1" fill="#FEFFFF" transform="matrix(1.00, 0.00, -0.00, -1.00, 263.1, 675.6)">2</text><text xml:space="preserve" font-family="Helvetica-Bold,Helvetica" font-weight="bold" font-size="42.1" fill="#FEFFFF" transform="matrix(1.00, 0.00, -0.00, -1.00, 286.5, 675.6)">0</text><text xml:space="preserve" font-family="Helvetica-Bold,Helvetica" font-weight="bold" font-size="42.1" fill="#FEFFFF" transform="matrix(1.00, 0.00, -0.00, -1.00, 310.0, 675.6)">1</text><text xml:space="preserve" font-family="Helvetica-Bold,Helvetica" font-weight="bold" font-size="42.1" fill="#FEFFFF" transform="matrix(1.00, 0.00, -0.00, -1.00, 331.1, 675.6)">1</text><text xml:space="preserve" font-family="Helvetica-Bold,Helvetica" font-weight="bold" font-size="42.1" fill="#FEFFFF" transform="matrix(1.00, 0.00, -0.00, -1.00, 108.7, 575.6)">S</text><text xml:space="preserve" font-family="Helvetica-Bold,Helvetica" font-weight="bold" font-size="42.1" fill="#FEFFFF" transform="matrix(1.00, 0.00, -0.00, -1.00, 136.8, 575.6)">V</text><text xml:space="preserve" font-family="Helvetica-Bold,Helvetica" font-weight="bold" font-size="42.1" fill="#FEFFFF" transform="matrix(1.00, 0.00, -0.00, -1.00, 164.9, 575.6)">G</text><text xml:space="preserve" font-family="Helvetica-Bold,Helvetica" font-weight="bold" font-size="42.1" fill="#FEFFFF" transform="matrix(1.00, 0.00, -0.00, -1.00, 197.6, 575.6)"> </text><text xml:space="preserve" font-family="Helvetica-Bold,Helvetica" font-weight="bold" font-size="42.1" fill="#FEFFFF" transform="matrix(1.00, 0.00, -0.00, -1.00, 209.3, 575.6)">1</text><text xml:space="preserve" font-family="Helvetica-Bold,Helvetica" font-weight="bold" font-size="42.1" fill="#FEFFFF" transform="matrix(1.00, 0.00, -0.00, -1.00, 232.8, 575.6)">.</text><text xml:space="preserve" font-family="Helvetica-Bold,Helvetica" font-weight="bold" font-size="42.1" fill="#FEFFFF" transform="matrix(1.00, 0.00, -0.00, -1.00, 244.5, 575.6)">1</text><text xml:space="preserve" font-family="Helvetica-Bold,Helvetica" font-weight="bold" font-size="42.1" fill="#FEFFFF" transform="matrix(1.00, 0.00, -0.00, -1.00, 267.9, 575.6)"> </text><text xml:space="preserve" font-family="Helvetica-Bold,Helvetica" font-weight="bold" font-size="42.1" fill="#FEFFFF" transform="matrix(1.00, 0.00, -0.00, -1.00, 279.6, 575.6)">2</text><text xml:space="preserve" font-family="Helvetica-Bold,Helvetica" font-weight="bold" font-size="42.1" fill="#FEFFFF" transform="matrix(1.00, 0.00, -0.00, -1.00, 303.0, 575.6)">n</text><text xml:space="preserve" font-family="Helvetica-Bold,Helvetica" font-weight="bold" font-size="42.1" fill="#FEFFFF" transform="matrix(1.00, 0.00, -0.00, -1.00, 328.8, 575.6)">d</text><text xml:space="preserve" font-family="Helvetica-Bold,Helvetica" font-weight="bold" font-size="42.1" fill="#FEFFFF" transform="matrix(1.00, 0.00, -0.00, -1.00, 354.5, 575.6)"> </text><text xml:space="preserve" font-family="Helvetica-Bold,Helvetica" font-weight="bold" font-size="42.1" fill="#FEFFFF" transform="matrix(1.00, 0.00, -0.00, -1.00, 366.2, 575.6)">E</text><text xml:space="preserve" font-family="Helvetica-Bold,Helvetica" font-weight="bold" font-size="42.1" fill="#FEFFFF" transform="matrix(1.00, 0.00, -0.00, -1.00, 394.3, 575.6)">d</text><text xml:space="preserve" font-family="Helvetica-Bold,Helvetica" font-weight="bold" font-size="42.1" fill="#FEFFFF" transform="matrix(1.00, 0.00, -0.00, -1.00, 420.0, 575.6)">i</text><text xml:space="preserve" font-family="Helvetica-Bold,Helvetica" font-weight="bold" font-size="42.1" fill="#FEFFFF" transform="matrix(1.00, 0.00, -0.00, -1.00, 431.7, 575.6)">t</text><text xml:space="preserve" font-family="Helvetica-Bold,Helvetica" font-weight="bold" font-size="42.1" fill="#FEFFFF" transform="matrix(1.00, 0.00, -0.00, -1.00, 445.7, 575.6)">i</text><text xml:space="preserve" font-family="Helvetica-Bold,Helvetica" font-weight="bold" font-size="42.1" fill="#FEFFFF" transform="matrix(1.00, 0.00, -0.00, -1.00, 457.4, 575.6)">o</text><text xml:space="preserve" font-family="Helvetica-Bold,Helvetica" font-weight="bold" font-size="42.1" fill="#FEFFFF" transform="matrix(1.00, 0.00, -0.00, -1.00, 483.1, 575.6)">n</text><text xml:space="preserve" font-family="Helvetica-Bold,Helvetica" font-weight="bold" font-size="42.1" fill="#FEFFFF" transform="matrix(1.00, 0.00, -0.00, -1.00, 180.1, 475.6)">A</text><text xml:space="preserve" font-family="Helvetica-Bold,Helvetica" font-weight="bold" font-size="42.1" fill="#FEFFFF" transform="matrix(1.00, 0.00, -0.00, -1.00, 210.5, 475.6)">p</text><text xml:space="preserve" font-family="Helvetica-Bold,Helvetica" font-weight="bold" font-size="42.1" fill="#FEFFFF" transform="matrix(1.00, 0.00, -0.00, -1.00, 236.2, 475.6)">p</text><text xml:space="preserve" font-family="Helvetica-Bold,Helvetica" font-weight="bold" font-size="42.1" fill="#FEFFFF" transform="matrix(1.00, 0.00, -0.00, -1.00, 262.0, 475.6)">l</text><text xml:space="preserve" font-family="Helvetica-Bold,Helvetica" font-weight="bold" font-size="42.1" fill="#FEFFFF" transform="matrix(1.00, 0.00, -0.00, -1.00, 273.7, 475.6)">e</text><text xml:space="preserve" font-family="Helvetica-Bold,Helvetica" font-weight="bold" font-size="42.1" fill="#FEFFFF" transform="matrix(1.00, 0.00, -0.00, -1.00, 297.1, 475.6)"> </text><text xml:space="preserve" font-family="Helvetica-Bold,Helvetica" font-weight="bold" font-size="42.1" fill="#FEFFFF" transform="matrix(1.00, 0.00, -0.00, -1.00, 308.8, 475.6)">R</text><text xml:space="preserve" font-family="Helvetica-Bold,Helvetica" font-weight="bold" font-size="42.1" fill="#FEFFFF" transform="matrix(1.00, 0.00, -0.00, -1.00, 339.2, 475.6)">e</text><text xml:space="preserve" font-family="Helvetica-Bold,Helvetica" font-weight="bold" font-size="42.1" fill="#FEFFFF" transform="matrix(1.00, 0.00, -0.00, -1.00, 362.6, 475.6)">t</text><text xml:space="preserve" font-family="Helvetica-Bold,Helvetica" font-weight="bold" font-size="42.1" fill="#FEFFFF" transform="matrix(1.00, 0.00, -0.00, -1.00, 376.7, 475.6)">i</text><text xml:space="preserve" font-family="Helvetica-Bold,Helvetica" font-weight="bold" font-size="42.1" fill="#FEFFFF" transform="matrix(1.00, 0.00, -0.00, -1.00, 388.4, 475.6)">n</text><text xml:space="preserve" font-family="Helvetica-Bold,Helvetica" font-weight="bold" font-size="42.1" fill="#FEFFFF" transform="matrix(1.00, 0.00, -0.00, -1.00, 414.1, 475.6)">a</text><image xlink:href="29001C0A7CBF87E9F1535269C47DE715.png" width="1205.00" height="561.00" transform="matrix(0.75, 0.00, -0.00, -0.75, 47.0, 470.0)"></image></g></svg>