<?xml version="1.0" encoding="UTF-8" standalone="no"?><svg xmlns="http://www.w3.org/2000/svg" xmlns:xlink="http://www.w3.org/1999/xlink" clip-rule="evenodd" stroke-miterlimit="10" viewBox="0 0 1024 768"><desc>SVG generated by Keynote</desc><defs></defs><g transform="matrix(1.00, 0.00, -0.00, -1.00, 0.0, 768.0)"><path d="M 0.0 768.0 L 1024.0 768.0 L 1024.0 0.0 L 0.0 0.0 Z M 0.0 768.0 " fill="#000000"></path><image xlink:href="52FD1E975F37171C8192D3B45D0AAB42.png" width="722.00" height="491.00" transform="matrix(1.00, 0.00, -0.00, -1.00, 151.0, 572.5)"></image><text xml:space="preserve" font-family="AvenirNext-Regular,Avenir Next" font-size="74.4" fill="#FEFFFF" transform="matrix(1.00, 0.00, -0.00, -1.00, 224.7, 609.6)">d</text><text xml:space="preserve" font-family="AvenirNext-Regular,Avenir Next" font-size="74.4" fill="#FEFFFF" transform="matrix(1.00, 0.00, -0.00, -1.00, 272.1, 609.6)">3</text><text xml:space="preserve" font-family="AvenirNext-Regular,Avenir Next" font-size="74.4" fill="#FEFFFF" transform="matrix(1.00, 0.00, -0.00, -1.00, 315.2, 609.6)">.</text><text xml:space="preserve" font-family="AvenirNext-Regular,Avenir Next" font-size="74.4" fill="#FEFFFF" transform="matrix(1.00, 0.00, -0.00, -1.00, 334.6, 609.6)">j</text><text xml:space="preserve" font-family="AvenirNext-Regular,Avenir Next" font-size="74.4" fill="#FEFFFF" transform="matrix(1.00, 0.00, -0.00, -1.00, 353.2, 609.6)">s</text><text xml:space="preserve" font-family="AvenirNext-Regular,Avenir Next" font-size="74.4" fill="#FEFFFF" transform="matrix(1.00, 0.00, -0.00, -1.00, 386.3, 609.6)"> </text><text xml:space="preserve" font-family="AvenirNext-Regular,Avenir Next" font-size="74.4" fill="#FEFFFF" transform="matrix(1.00, 0.00, -0.00, -1.00, 404.9, 609.6)">f</text><text xml:space="preserve" font-family="AvenirNext-Regular,Avenir Next" font-size="74.4" fill="#FEFFFF" transform="matrix(1.00, 0.00, -0.00, -1.00, 426.8, 609.6)">o</text><text xml:space="preserve" font-family="AvenirNext-Regular,Avenir Next" font-size="74.4" fill="#FEFFFF" transform="matrix(1.00, 0.00, -0.00, -1.00, 472.3, 609.6)">r</text><text xml:space="preserve" font-family="AvenirNext-Regular,Avenir Next" font-size="74.4" fill="#FEFFFF" transform="matrix(1.00, 0.00, -0.00, -1.00, 497.7, 609.6)">c</text><text xml:space="preserve" font-family="AvenirNext-Regular,Avenir Next" font-size="74.4" fill="#FEFFFF" transform="matrix(1.00, 0.00, -0.00, -1.00, 534.9, 609.6)">e</text><text xml:space="preserve" font-family="AvenirNext-Regular,Avenir Next" font-size="74.4" fill="#FEFFFF" transform="matrix(1.00, 0.00, -0.00, -1.00, 577.5, 609.6)"> </text><text xml:space="preserve" font-family="AvenirNext-Regular,Avenir Next" font-size="74.4" fill="#FEFFFF" transform="matrix(1.00, 0.00, -0.00, -1.00, 596.1, 609.6)">g</text><text xml:space="preserve" font-family="AvenirNext-Regular,Avenir Next" font-size="74.4" fill="#FEFFFF" transform="matrix(1.00, 0.00, -0.00, -1.00, 643.1, 609.6)">r</text><text xml:space="preserve" font-family="AvenirNext-Regular,Avenir Next" font-size="74.4" fill="#FEFFFF" transform="matrix(1.00, 0.00, -0.00, -1.00, 669.0, 609.6)">a</text><text xml:space="preserve" font-family="AvenirNext-Regular,Avenir Next" font-size="74.4" fill="#FEFFFF" transform="matrix(1.00, 0.00, -0.00, -1.00, 708.7, 609.6)">p</text><text xml:space="preserve" font-family="AvenirNext-Regular,Avenir Next" font-size="74.4" fill="#FEFFFF" transform="matrix(1.00, 0.00, -0.00, -1.00, 756.0, 609.6)">h</text></g></svg>