<?xml version="1.0" encoding="UTF-8" standalone="no"?><svg xmlns="http://www.w3.org/2000/svg" xmlns:xlink="http://www.w3.org/1999/xlink" clip-rule="evenodd" stroke-miterlimit="10" viewBox="0 0 467 246"><desc>SVG generated by Keynote</desc><defs></defs><g transform="matrix(1.00, 0.00, -0.00, -1.00, 0.0, 246.0)"><text xml:space="preserve" font-family="AvenirNext-Regular,Avenir Next" font-size="64.8" fill="#FEFFFF" transform="matrix(1.00, 0.00, -0.00, -1.00, 69.2, 194.7)">I</text><text xml:space="preserve" font-family="AvenirNext-Regular,Avenir Next" font-size="64.8" fill="#FEFFFF" transform="matrix(1.00, 0.00, -0.00, -1.00, 86.0, 194.7)">t</text><text xml:space="preserve" font-family="AvenirNext-Regular,Avenir Next" font-size="64.8" fill="#FEFFFF" transform="matrix(1.00, 0.00, -0.00, -1.00, 108.1, 194.7)">’</text><text xml:space="preserve" font-family="AvenirNext-Regular,Avenir Next" font-size="64.8" fill="#FEFFFF" transform="matrix(1.00, 0.00, -0.00, -1.00, 119.4, 194.7)">s</text><text xml:space="preserve" font-family="AvenirNext-Regular,Avenir Next" font-size="64.8" fill="#FEFFFF" transform="matrix(1.00, 0.00, -0.00, -1.00, 148.2, 194.7)"> </text><text xml:space="preserve" font-family="AvenirNext-Regular,Avenir Next" font-size="64.8" fill="#FEFFFF" transform="matrix(1.00, 0.00, -0.00, -1.00, 164.4, 194.7)">t</text><text xml:space="preserve" font-family="AvenirNext-Regular,Avenir Next" font-size="64.8" fill="#FEFFFF" transform="matrix(1.00, 0.00, -0.00, -1.00, 184.9, 194.7)">h</text><text xml:space="preserve" font-family="AvenirNext-Regular,Avenir Next" font-size="64.8" fill="#FEFFFF" transform="matrix(1.00, 0.00, -0.00, -1.00, 222.7, 194.7)">e</text><text xml:space="preserve" font-family="AvenirNext-Regular,Avenir Next" font-size="64.8" fill="#FEFFFF" transform="matrix(1.00, 0.00, -0.00, -1.00, 259.8, 194.7)"> </text><text xml:space="preserve" font-family="AvenirNext-Regular,Avenir Next" font-size="64.8" fill="#FEFFFF" transform="matrix(1.00, 0.00, -0.00, -1.00, 276.0, 194.7)">S</text><text xml:space="preserve" font-family="AvenirNext-Regular,Avenir Next" font-size="64.8" fill="#FEFFFF" transform="matrix(1.00, 0.00, -0.00, -1.00, 311.7, 194.7)">V</text><text xml:space="preserve" font-family="AvenirNext-Regular,Avenir Next" font-size="64.8" fill="#FEFFFF" transform="matrix(1.00, 0.00, -0.00, -1.00, 351.3, 194.7)">G</text><text xml:space="preserve" font-family="AvenirNext-Regular,Avenir Next" font-size="64.8" fill="#FEFFFF" transform="matrix(1.00, 0.00, -0.00, -1.00, 401.8, 194.7)"> </text><text xml:space="preserve" font-family="AvenirNext-Regular,Avenir Next" font-size="64.8" fill="#FEFFFF" transform="matrix(1.00, 0.00, -0.00, -1.00, 418.0, 194.7)"> </text><text xml:space="preserve" font-family="AvenirNext-Regular,Avenir Next" font-size="64.8" fill="#FEFFFF" transform="matrix(1.00, 0.00, -0.00, -1.00, 43.5, 105.7)">R</text><text xml:space="preserve" font-family="AvenirNext-Regular,Avenir Next" font-size="64.8" fill="#FEFFFF" transform="matrix(1.00, 0.00, -0.00, -1.00, 81.5, 105.7)">e</text><text xml:space="preserve" font-family="AvenirNext-Regular,Avenir Next" font-size="64.8" fill="#FEFFFF" transform="matrix(1.00, 0.00, -0.00, -1.00, 118.6, 105.7)">n</text><text xml:space="preserve" font-family="AvenirNext-Regular,Avenir Next" font-size="64.8" fill="#FEFFFF" transform="matrix(1.00, 0.00, -0.00, -1.00, 156.2, 105.7)">a</text><text xml:space="preserve" font-family="AvenirNext-Regular,Avenir Next" font-size="64.8" fill="#FEFFFF" transform="matrix(1.00, 0.00, -0.00, -1.00, 190.8, 105.7)">i</text><text xml:space="preserve" font-family="AvenirNext-Regular,Avenir Next" font-size="64.8" fill="#FEFFFF" transform="matrix(1.00, 0.00, -0.00, -1.00, 207.0, 105.7)">s</text><text xml:space="preserve" font-family="AvenirNext-Regular,Avenir Next" font-size="64.8" fill="#FEFFFF" transform="matrix(1.00, 0.00, -0.00, -1.00, 235.8, 105.7)">s</text><text xml:space="preserve" font-family="AvenirNext-Regular,Avenir Next" font-size="64.8" fill="#FEFFFF" transform="matrix(1.00, 0.00, -0.00, -1.00, 264.6, 105.7)">a</text><text xml:space="preserve" font-family="AvenirNext-Regular,Avenir Next" font-size="64.8" fill="#FEFFFF" transform="matrix(1.00, 0.00, -0.00, -1.00, 299.2, 105.7)">n</text><text xml:space="preserve" font-family="AvenirNext-Regular,Avenir Next" font-size="64.8" fill="#FEFFFF" transform="matrix(1.00, 0.00, -0.00, -1.00, 336.8, 105.7)">c</text><text xml:space="preserve" font-family="AvenirNext-Regular,Avenir Next" font-size="64.8" fill="#FEFFFF" transform="matrix(1.00, 0.00, -0.00, -1.00, 369.2, 105.7)">e</text><text xml:space="preserve" font-family="AvenirNext-Regular,Avenir Next" font-size="64.8" fill="#FEFFFF" transform="matrix(1.00, 0.00, -0.00, -1.00, 406.3, 105.7)">!</text><text xml:space="preserve" font-family="AvenirNext-Regular,Avenir Next" font-size="64.8" fill="#FEFFFF" transform="matrix(1.00, 0.00, -0.00, -1.00, 427.5, 105.7)"> </text><text xml:space="preserve" font-family="AvenirNext-Regular,Avenir Next" font-size="64.8" fill="#FEFFFF" transform="matrix(1.00, 0.00, -0.00, -1.00, 443.7, 105.7)"> </text><text xml:space="preserve" font-family="AvenirNext-Regular,Avenir Next" font-size="64.8" fill="#FEFFFF" transform="matrix(1.00, 0.00, -0.00, -1.00, 459.9, 105.7)"> </text><text xml:space="preserve" font-family="AvenirNext-Regular,Avenir Next" font-size="64.8" fill="#FEFFFF" transform="matrix(1.00, 0.00, -0.00, -1.00, -0.8, 16.7)">S</text><text xml:space="preserve" font-family="AvenirNext-Regular,Avenir Next" font-size="64.8" fill="#FEFFFF" transform="matrix(1.00, 0.00, -0.00, -1.00, 35.0, 16.7)">V</text><text xml:space="preserve" font-family="AvenirNext-Regular,Avenir Next" font-size="64.8" fill="#FEFFFF" transform="matrix(1.00, 0.00, -0.00, -1.00, 74.6, 16.7)">G</text><text xml:space="preserve" font-family="AvenirNext-Regular,Avenir Next" font-size="64.8" fill="#FEFFFF" transform="matrix(1.00, 0.00, -0.00, -1.00, 125.0, 16.7)"> </text><text xml:space="preserve" font-family="AvenirNext-Regular,Avenir Next" font-size="64.8" fill="#FEFFFF" transform="matrix(1.00, 0.00, -0.00, -1.00, 141.2, 16.7)">i</text><text xml:space="preserve" font-family="AvenirNext-Regular,Avenir Next" font-size="64.8" fill="#FEFFFF" transform="matrix(1.00, 0.00, -0.00, -1.00, 157.4, 16.7)">s</text><text xml:space="preserve" font-family="AvenirNext-Regular,Avenir Next" font-size="64.8" fill="#FEFFFF" transform="matrix(1.00, 0.00, -0.00, -1.00, 186.2, 16.7)"> </text><text xml:space="preserve" font-family="AvenirNext-Regular,Avenir Next" font-size="64.8" fill="#FEFFFF" transform="matrix(1.00, 0.00, -0.00, -1.00, 202.4, 16.7)">p</text><text xml:space="preserve" font-family="AvenirNext-Regular,Avenir Next" font-size="64.8" fill="#FEFFFF" transform="matrix(1.00, 0.00, -0.00, -1.00, 243.6, 16.7)">e</text><text xml:space="preserve" font-family="AvenirNext-Regular,Avenir Next" font-size="64.8" fill="#FEFFFF" transform="matrix(1.00, 0.00, -0.00, -1.00, 280.6, 16.7)">r</text><text xml:space="preserve" font-family="AvenirNext-Regular,Avenir Next" font-size="64.8" fill="#FEFFFF" transform="matrix(1.00, 0.00, -0.00, -1.00, 304.0, 16.7)">f</text><text xml:space="preserve" font-family="AvenirNext-Regular,Avenir Next" font-size="64.8" fill="#FEFFFF" transform="matrix(1.00, 0.00, -0.00, -1.00, 323.1, 16.7)">e</text><text xml:space="preserve" font-family="AvenirNext-Regular,Avenir Next" font-size="64.8" fill="#FEFFFF" transform="matrix(1.00, 0.00, -0.00, -1.00, 360.1, 16.7)">c</text><text xml:space="preserve" font-family="AvenirNext-Regular,Avenir Next" font-size="64.8" fill="#FEFFFF" transform="matrix(1.00, 0.00, -0.00, -1.00, 392.5, 16.7)">t</text><text xml:space="preserve" font-family="AvenirNext-Regular,Avenir Next" font-size="64.8" fill="#FEFFFF" transform="matrix(1.00, 0.00, -0.00, -1.00, 413.1, 16.7)"> </text><text xml:space="preserve" font-family="AvenirNext-Regular,Avenir Next" font-size="64.8" fill="#FEFFFF" transform="matrix(1.00, 0.00, -0.00, -1.00, 429.3, 16.7)">!</text><text xml:space="preserve" font-family="AvenirNext-Regular,Avenir Next" font-size="64.8" fill="#FEFFFF" transform="matrix(1.00, 0.00, -0.00, -1.00, 450.5, 16.7)">!</text></g></svg>