<?xml version="1.0" encoding="UTF-8" standalone="no"?><svg xmlns="http://www.w3.org/2000/svg" xmlns:xlink="http://www.w3.org/1999/xlink" clip-rule="evenodd" stroke-miterlimit="10" viewBox="0 0 567 79"><desc>SVG generated by Keynote</desc><defs></defs><g transform="matrix(1.00, 0.00, -0.00, -1.00, 0.0, 79.0)"><text xml:space="preserve" font-family="AvenirNext-Regular,Avenir Next" font-size="74.4" fill="#FEFFFF" transform="matrix(1.00, 0.00, -0.00, -1.00, -2.3, 19.6)">d</text><text xml:space="preserve" font-family="AvenirNext-Regular,Avenir Next" font-size="74.4" fill="#FEFFFF" transform="matrix(1.00, 0.00, -0.00, -1.00, 45.1, 19.6)">3</text><text xml:space="preserve" font-family="AvenirNext-Regular,Avenir Next" font-size="74.4" fill="#FEFFFF" transform="matrix(1.00, 0.00, -0.00, -1.00, 88.2, 19.6)">.</text><text xml:space="preserve" font-family="AvenirNext-Regular,Avenir Next" font-size="74.4" fill="#FEFFFF" transform="matrix(1.00, 0.00, -0.00, -1.00, 107.6, 19.6)">j</text><text xml:space="preserve" font-family="AvenirNext-Regular,Avenir Next" font-size="74.4" fill="#FEFFFF" transform="matrix(1.00, 0.00, -0.00, -1.00, 126.2, 19.6)">s</text><text xml:space="preserve" font-family="AvenirNext-Regular,Avenir Next" font-size="74.4" fill="#FEFFFF" transform="matrix(1.00, 0.00, -0.00, -1.00, 159.3, 19.6)"> </text><text xml:space="preserve" font-family="AvenirNext-Regular,Avenir Next" font-size="74.4" fill="#FEFFFF" transform="matrix(1.00, 0.00, -0.00, -1.00, 177.9, 19.6)">f</text><text xml:space="preserve" font-family="AvenirNext-Regular,Avenir Next" font-size="74.4" fill="#FEFFFF" transform="matrix(1.00, 0.00, -0.00, -1.00, 199.8, 19.6)">o</text><text xml:space="preserve" font-family="AvenirNext-Regular,Avenir Next" font-size="74.4" fill="#FEFFFF" transform="matrix(1.00, 0.00, -0.00, -1.00, 245.3, 19.6)">r</text><text xml:space="preserve" font-family="AvenirNext-Regular,Avenir Next" font-size="74.4" fill="#FEFFFF" transform="matrix(1.00, 0.00, -0.00, -1.00, 270.7, 19.6)">c</text><text xml:space="preserve" font-family="AvenirNext-Regular,Avenir Next" font-size="74.4" fill="#FEFFFF" transform="matrix(1.00, 0.00, -0.00, -1.00, 307.9, 19.6)">e</text><text xml:space="preserve" font-family="AvenirNext-Regular,Avenir Next" font-size="74.4" fill="#FEFFFF" transform="matrix(1.00, 0.00, -0.00, -1.00, 350.5, 19.6)"> </text><text xml:space="preserve" font-family="AvenirNext-Regular,Avenir Next" font-size="74.4" fill="#FEFFFF" transform="matrix(1.00, 0.00, -0.00, -1.00, 369.1, 19.6)">g</text><text xml:space="preserve" font-family="AvenirNext-Regular,Avenir Next" font-size="74.4" fill="#FEFFFF" transform="matrix(1.00, 0.00, -0.00, -1.00, 416.1, 19.6)">r</text><text xml:space="preserve" font-family="AvenirNext-Regular,Avenir Next" font-size="74.4" fill="#FEFFFF" transform="matrix(1.00, 0.00, -0.00, -1.00, 442.0, 19.6)">a</text><text xml:space="preserve" font-family="AvenirNext-Regular,Avenir Next" font-size="74.4" fill="#FEFFFF" transform="matrix(1.00, 0.00, -0.00, -1.00, 481.7, 19.6)">p</text><text xml:space="preserve" font-family="AvenirNext-Regular,Avenir Next" font-size="74.4" fill="#FEFFFF" transform="matrix(1.00, 0.00, -0.00, -1.00, 529.0, 19.6)">h</text></g></svg>