<?xml version="1.0" encoding="UTF-8" standalone="no"?><svg xmlns="http://www.w3.org/2000/svg" xmlns:xlink="http://www.w3.org/1999/xlink" clip-rule="evenodd" stroke-miterlimit="10" viewBox="0 0 791 63"><desc>SVG generated by Keynote</desc><defs></defs><g transform="matrix(1.00, 0.00, -0.00, -1.00, 0.0, 63.0)"><text xml:space="preserve" font-family="AvenirNext-Regular,Avenir Next" font-size="59.2" fill="#FEFFFF" transform="matrix(1.00, 0.00, -0.00, -1.00, 0.7, 15.7)">W</text><text xml:space="preserve" font-family="AvenirNext-Regular,Avenir Next" font-size="59.2" fill="#FEFFFF" transform="matrix(1.00, 0.00, -0.00, -1.00, 58.3, 15.7)">h</text><text xml:space="preserve" font-family="AvenirNext-Regular,Avenir Next" font-size="59.2" fill="#FEFFFF" transform="matrix(1.00, 0.00, -0.00, -1.00, 92.8, 15.7)">y</text><text xml:space="preserve" font-family="AvenirNext-Regular,Avenir Next" font-size="59.2" fill="#FEFFFF" transform="matrix(1.00, 0.00, -0.00, -1.00, 121.7, 15.7)"> </text><text xml:space="preserve" font-family="AvenirNext-Regular,Avenir Next" font-size="59.2" fill="#FEFFFF" transform="matrix(1.00, 0.00, -0.00, -1.00, 136.5, 15.7)">S</text><text xml:space="preserve" font-family="AvenirNext-Regular,Avenir Next" font-size="59.2" fill="#FEFFFF" transform="matrix(1.00, 0.00, -0.00, -1.00, 169.2, 15.7)">V</text><text xml:space="preserve" font-family="AvenirNext-Regular,Avenir Next" font-size="59.2" fill="#FEFFFF" transform="matrix(1.00, 0.00, -0.00, -1.00, 205.3, 15.7)">G</text><text xml:space="preserve" font-family="AvenirNext-Regular,Avenir Next" font-size="59.2" fill="#FEFFFF" transform="matrix(1.00, 0.00, -0.00, -1.00, 251.5, 15.7)">?</text><text xml:space="preserve" font-family="AvenirNext-Regular,Avenir Next" font-size="59.2" fill="#FEFFFF" transform="matrix(1.00, 0.00, -0.00, -1.00, 280.0, 15.7)"> </text><text xml:space="preserve" font-family="AvenirNext-Regular,Avenir Next" font-size="59.2" fill="#FEFFFF" transform="matrix(1.00, 0.00, -0.00, -1.00, 294.8, 15.7)">S</text><text xml:space="preserve" font-family="AvenirNext-Regular,Avenir Next" font-size="59.2" fill="#FEFFFF" transform="matrix(1.00, 0.00, -0.00, -1.00, 327.8, 15.7)">t</text><text xml:space="preserve" font-family="AvenirNext-Regular,Avenir Next" font-size="59.2" fill="#FEFFFF" transform="matrix(1.00, 0.00, -0.00, -1.00, 346.6, 15.7)">y</text><text xml:space="preserve" font-family="AvenirNext-Regular,Avenir Next" font-size="59.2" fill="#FEFFFF" transform="matrix(1.00, 0.00, -0.00, -1.00, 375.5, 15.7)">l</text><text xml:space="preserve" font-family="AvenirNext-Regular,Avenir Next" font-size="59.2" fill="#FEFFFF" transform="matrix(1.00, 0.00, -0.00, -1.00, 390.4, 15.7)">e</text><text xml:space="preserve" font-family="AvenirNext-Regular,Avenir Next" font-size="59.2" fill="#FEFFFF" transform="matrix(1.00, 0.00, -0.00, -1.00, 423.9, 15.7)">a</text><text xml:space="preserve" font-family="AvenirNext-Regular,Avenir Next" font-size="59.2" fill="#FEFFFF" transform="matrix(1.00, 0.00, -0.00, -1.00, 455.5, 15.7)">b</text><text xml:space="preserve" font-family="AvenirNext-Regular,Avenir Next" font-size="59.2" fill="#FEFFFF" transform="matrix(1.00, 0.00, -0.00, -1.00, 493.2, 15.7)">l</text><text xml:space="preserve" font-family="AvenirNext-Regular,Avenir Next" font-size="59.2" fill="#FEFFFF" transform="matrix(1.00, 0.00, -0.00, -1.00, 508.1, 15.7)">e</text><text xml:space="preserve" font-family="AvenirNext-Regular,Avenir Next" font-size="59.2" fill="#FEFFFF" transform="matrix(1.00, 0.00, -0.00, -1.00, 542.0, 15.7)"> </text><text xml:space="preserve" font-family="AvenirNext-Regular,Avenir Next" font-size="59.2" fill="#FEFFFF" transform="matrix(1.00, 0.00, -0.00, -1.00, 556.8, 15.7)">w</text><text xml:space="preserve" font-family="AvenirNext-Regular,Avenir Next" font-size="59.2" fill="#FEFFFF" transform="matrix(1.00, 0.00, -0.00, -1.00, 601.0, 15.7)">i</text><text xml:space="preserve" font-family="AvenirNext-Regular,Avenir Next" font-size="59.2" fill="#FEFFFF" transform="matrix(1.00, 0.00, -0.00, -1.00, 615.8, 15.7)">t</text><text xml:space="preserve" font-family="AvenirNext-Regular,Avenir Next" font-size="59.2" fill="#FEFFFF" transform="matrix(1.00, 0.00, -0.00, -1.00, 634.5, 15.7)">h</text><text xml:space="preserve" font-family="AvenirNext-Regular,Avenir Next" font-size="59.2" fill="#FEFFFF" transform="matrix(1.00, 0.00, -0.00, -1.00, 669.1, 15.7)"> </text><text xml:space="preserve" font-family="AvenirNext-Regular,Avenir Next" font-size="59.2" fill="#FEFFFF" transform="matrix(1.00, 0.00, -0.00, -1.00, 683.9, 15.7)">C</text><text xml:space="preserve" font-family="AvenirNext-Regular,Avenir Next" font-size="59.2" fill="#FEFFFF" transform="matrix(1.00, 0.00, -0.00, -1.00, 726.5, 15.7)">S</text><text xml:space="preserve" font-family="AvenirNext-Regular,Avenir Next" font-size="59.2" fill="#FEFFFF" transform="matrix(1.00, 0.00, -0.00, -1.00, 759.9, 15.7)">S</text></g></svg>