<?xml version="1.0" encoding="UTF-8" standalone="no"?><svg xmlns="http://www.w3.org/2000/svg" xmlns:xlink="http://www.w3.org/1999/xlink" clip-rule="evenodd" stroke-miterlimit="10" viewBox="0 0 834 160"><desc>SVG generated by Keynote</desc><defs></defs><g transform="matrix(1.00, 0.00, -0.00, -1.00, 0.0, 160.0)"><g><clipPath id="clip0x600000cbe060"><path d="M 353.0 22.2 L 400.7 70.0 L 421.2 49.5 L 373.5 1.7 Z M 353.0 22.2 "></path></clipPath><g clip-path="url(#clip0x600000cbe060)"><path d="M 393.6 32.8 L 398.4 28.1 L 410.3 59.0 L 379.3 47.1 L 384.1 42.3 L 359.2 17.4 L 368.7 7.9 Z M 393.6 32.8 " fill="#7ADA45"></path></g></g><g><clipPath id="clip0x600000ea12c0"><path d="M -2.9 49.9 L 836.3 49.9 L 836.3 162.2 L -2.9 162.2 Z M -2.9 49.9 "></path></clipPath><g clip-path="url(#clip0x600000ea12c0)"><text xml:space="preserve" font-family="AndaleMono,Andale Mono" font-size="29.0" fill="#E7A432" transform="matrix(1.00, 0.00, -0.00, -1.00, 5.3, 128.4)">.</text><text xml:space="preserve" font-family="AndaleMono,Andale Mono" font-size="29.0" fill="#E7A432" transform="matrix(1.00, 0.00, -0.00, -1.00, 22.7, 128.4)">d</text><text xml:space="preserve" font-family="AndaleMono,Andale Mono" font-size="29.0" fill="#E7A432" transform="matrix(1.00, 0.00, -0.00, -1.00, 40.1, 128.4)">r</text><text xml:space="preserve" font-family="AndaleMono,Andale Mono" font-size="29.0" fill="#E7A432" transform="matrix(1.00, 0.00, -0.00, -1.00, 57.5, 128.4)">u</text><text xml:space="preserve" font-family="AndaleMono,Andale Mono" font-size="29.0" fill="#E7A432" transform="matrix(1.00, 0.00, -0.00, -1.00, 74.9, 128.4)">p</text><text xml:space="preserve" font-family="AndaleMono,Andale Mono" font-size="29.0" fill="#E7A432" transform="matrix(1.00, 0.00, -0.00, -1.00, 92.3, 128.4)">l</text><text xml:space="preserve" font-family="AndaleMono,Andale Mono" font-size="29.0" fill="#E7A432" transform="matrix(1.00, 0.00, -0.00, -1.00, 109.7, 128.4)">i</text><text xml:space="preserve" font-family="AndaleMono,Andale Mono" font-size="29.0" fill="#E7A432" transform="matrix(1.00, 0.00, -0.00, -1.00, 127.1, 128.4)">c</text><text xml:space="preserve" font-family="AndaleMono,Andale Mono" font-size="29.0" fill="#E7A432" transform="matrix(1.00, 0.00, -0.00, -1.00, 144.5, 128.4)">o</text><text xml:space="preserve" font-family="AndaleMono,Andale Mono" font-size="29.0" fill="#E7A432" transform="matrix(1.00, 0.00, -0.00, -1.00, 161.9, 128.4)">n</text><text xml:space="preserve" font-family="AndaleMono,Andale Mono" font-size="29.0" fill="#E7A432" transform="matrix(1.00, 0.00, -0.00, -1.00, 179.4, 128.4)"> </text><text xml:space="preserve" font-family="AndaleMono,Andale Mono" font-size="29.0" fill="#E7A432" transform="matrix(1.00, 0.00, -0.00, -1.00, 196.8, 128.4)">{</text><text xml:space="preserve" font-family="AndaleMono,Andale Mono" font-size="29.0" fill="#E7A432" transform="matrix(1.00, 0.00, -0.00, -1.00, 214.2, 128.4)"> </text><text xml:space="preserve" font-family="AndaleMono,Andale Mono" font-size="29.0" fill="#E7A432" transform="matrix(1.00, 0.00, -0.00, -1.00, 5.3, 96.4)"> </text><text xml:space="preserve" font-family="AndaleMono,Andale Mono" font-size="29.0" fill="#E7A432" transform="matrix(1.00, 0.00, -0.00, -1.00, 22.7, 96.4)"> </text><text xml:space="preserve" font-family="AndaleMono,Andale Mono" font-size="29.0" fill="#E7A432" transform="matrix(1.00, 0.00, -0.00, -1.00, 40.1, 96.4)">f</text><text xml:space="preserve" font-family="AndaleMono,Andale Mono" font-size="29.0" fill="#E7A432" transform="matrix(1.00, 0.00, -0.00, -1.00, 57.5, 96.4)">i</text><text xml:space="preserve" font-family="AndaleMono,Andale Mono" font-size="29.0" fill="#E7A432" transform="matrix(1.00, 0.00, -0.00, -1.00, 74.9, 96.4)">l</text><text xml:space="preserve" font-family="AndaleMono,Andale Mono" font-size="29.0" fill="#E7A432" transform="matrix(1.00, 0.00, -0.00, -1.00, 92.3, 96.4)">l</text><text xml:space="preserve" font-family="AndaleMono,Andale Mono" font-size="29.0" fill="#E7A432" transform="matrix(1.00, 0.00, -0.00, -1.00, 109.7, 96.4)">:</text><text xml:space="preserve" font-family="AndaleMono,Andale Mono" font-size="29.0" fill="#E7A432" transform="matrix(1.00, 0.00, -0.00, -1.00, 127.1, 96.4)">#</text><text xml:space="preserve" font-family="AndaleMono,Andale Mono" font-size="29.0" fill="#E7A432" transform="matrix(1.00, 0.00, -0.00, -1.00, 144.5, 96.4)">0</text><text xml:space="preserve" font-family="AndaleMono,Andale Mono" font-size="29.0" fill="#E7A432" transform="matrix(1.00, 0.00, -0.00, -1.00, 161.9, 96.4)">0</text><text xml:space="preserve" font-family="AndaleMono,Andale Mono" font-size="29.0" fill="#E7A432" transform="matrix(1.00, 0.00, -0.00, -1.00, 179.4, 96.4)">4</text><text xml:space="preserve" font-family="AndaleMono,Andale Mono" font-size="29.0" fill="#E7A432" transform="matrix(1.00, 0.00, -0.00, -1.00, 196.8, 96.4)">9</text><text xml:space="preserve" font-family="AndaleMono,Andale Mono" font-size="29.0" fill="#E7A432" transform="matrix(1.00, 0.00, -0.00, -1.00, 214.2, 96.4)">7</text><text xml:space="preserve" font-family="AndaleMono,Andale Mono" font-size="29.0" fill="#E7A432" transform="matrix(1.00, 0.00, -0.00, -1.00, 231.6, 96.4)">5</text><text xml:space="preserve" font-family="AndaleMono,Andale Mono" font-size="29.0" fill="#E7A432" transform="matrix(1.00, 0.00, -0.00, -1.00, 249.0, 96.4)">;</text><text xml:space="preserve" font-family="AndaleMono,Andale Mono" font-size="29.0" fill="#E7A432" transform="matrix(1.00, 0.00, -0.00, -1.00, 266.4, 96.4)"> </text><text xml:space="preserve" font-family="AndaleMono,Andale Mono" font-size="29.0" fill="#E7A432" transform="matrix(1.00, 0.00, -0.00, -1.00, 283.8, 96.4)"> </text><text xml:space="preserve" font-family="AndaleMono,Andale Mono" font-size="29.0" fill="#E7A432" transform="matrix(1.00, 0.00, -0.00, -1.00, 301.2, 96.4)"> </text><text xml:space="preserve" font-family="AndaleMono,Andale Mono" font-size="29.0" fill="#E7A432" transform="matrix(1.00, 0.00, -0.00, -1.00, 318.6, 96.4)">&lt;</text><text xml:space="preserve" font-family="AndaleMono,Andale Mono" font-size="29.0" fill="#E7A432" transform="matrix(1.00, 0.00, -0.00, -1.00, 336.0, 96.4)">p</text><text xml:space="preserve" font-family="AndaleMono,Andale Mono" font-size="29.0" fill="#E7A432" transform="matrix(1.00, 0.00, -0.00, -1.00, 353.4, 96.4)">a</text><text xml:space="preserve" font-family="AndaleMono,Andale Mono" font-size="29.0" fill="#E7A432" transform="matrix(1.00, 0.00, -0.00, -1.00, 370.8, 96.4)">t</text><text xml:space="preserve" font-family="AndaleMono,Andale Mono" font-size="29.0" fill="#E7A432" transform="matrix(1.00, 0.00, -0.00, -1.00, 388.2, 96.4)">h</text><text xml:space="preserve" font-family="AndaleMono,Andale Mono" font-size="29.0" fill="#E7A432" transform="matrix(1.00, 0.00, -0.00, -1.00, 405.6, 96.4)"> </text><text xml:space="preserve" font-family="AndaleMono,Andale Mono" font-size="29.0" fill="#E7A432" transform="matrix(1.00, 0.00, -0.00, -1.00, 423.0, 96.4)">c</text><text xml:space="preserve" font-family="AndaleMono,Andale Mono" font-size="29.0" fill="#E7A432" transform="matrix(1.00, 0.00, -0.00, -1.00, 440.4, 96.4)">l</text><text xml:space="preserve" font-family="AndaleMono,Andale Mono" font-size="29.0" fill="#E7A432" transform="matrix(1.00, 0.00, -0.00, -1.00, 457.8, 96.4)">a</text><text xml:space="preserve" font-family="AndaleMono,Andale Mono" font-size="29.0" fill="#E7A432" transform="matrix(1.00, 0.00, -0.00, -1.00, 475.3, 96.4)">s</text><text xml:space="preserve" font-family="AndaleMono,Andale Mono" font-size="29.0" fill="#E7A432" transform="matrix(1.00, 0.00, -0.00, -1.00, 492.7, 96.4)">s</text><text xml:space="preserve" font-family="AndaleMono,Andale Mono" font-size="29.0" fill="#E7A432" transform="matrix(1.00, 0.00, -0.00, -1.00, 510.1, 96.4)">=</text><text xml:space="preserve" font-family="AndaleMono,Andale Mono" font-size="29.0" fill="#E7A432" transform="matrix(1.00, 0.00, -0.00, -1.00, 527.5, 96.4)">“</text><text xml:space="preserve" font-family="AndaleMono,Andale Mono" font-size="29.0" fill="#E7A432" transform="matrix(1.00, 0.00, -0.00, -1.00, 544.9, 96.4)">d</text><text xml:space="preserve" font-family="AndaleMono,Andale Mono" font-size="29.0" fill="#E7A432" transform="matrix(1.00, 0.00, -0.00, -1.00, 562.3, 96.4)">r</text><text xml:space="preserve" font-family="AndaleMono,Andale Mono" font-size="29.0" fill="#E7A432" transform="matrix(1.00, 0.00, -0.00, -1.00, 579.7, 96.4)">u</text><text xml:space="preserve" font-family="AndaleMono,Andale Mono" font-size="29.0" fill="#E7A432" transform="matrix(1.00, 0.00, -0.00, -1.00, 597.1, 96.4)">p</text><text xml:space="preserve" font-family="AndaleMono,Andale Mono" font-size="29.0" fill="#E7A432" transform="matrix(1.00, 0.00, -0.00, -1.00, 614.5, 96.4)">l</text><text xml:space="preserve" font-family="AndaleMono,Andale Mono" font-size="29.0" fill="#E7A432" transform="matrix(1.00, 0.00, -0.00, -1.00, 631.9, 96.4)">i</text><text xml:space="preserve" font-family="AndaleMono,Andale Mono" font-size="29.0" fill="#E7A432" transform="matrix(1.00, 0.00, -0.00, -1.00, 649.3, 96.4)">c</text><text xml:space="preserve" font-family="AndaleMono,Andale Mono" font-size="29.0" fill="#E7A432" transform="matrix(1.00, 0.00, -0.00, -1.00, 666.7, 96.4)">o</text><text xml:space="preserve" font-family="AndaleMono,Andale Mono" font-size="29.0" fill="#E7A432" transform="matrix(1.00, 0.00, -0.00, -1.00, 684.1, 96.4)">n</text><text xml:space="preserve" font-family="AndaleMono,Andale Mono" font-size="29.0" fill="#E7A432" transform="matrix(1.00, 0.00, -0.00, -1.00, 701.5, 96.4)">”</text><text xml:space="preserve" font-family="AndaleMono,Andale Mono" font-size="29.0" fill="#E7A432" transform="matrix(1.00, 0.00, -0.00, -1.00, 718.9, 96.4)"> </text><text xml:space="preserve" font-family="AndaleMono,Andale Mono" font-size="29.0" fill="#E7A432" transform="matrix(1.00, 0.00, -0.00, -1.00, 736.3, 96.4)"> </text><text xml:space="preserve" font-family="AndaleMono,Andale Mono" font-size="29.0" fill="#E7A432" transform="matrix(1.00, 0.00, -0.00, -1.00, 753.7, 96.4)">…</text><text xml:space="preserve" font-family="AndaleMono,Andale Mono" font-size="29.0" fill="#E7A432" transform="matrix(1.00, 0.00, -0.00, -1.00, 771.0, 96.4)"> </text><text xml:space="preserve" font-family="AndaleMono,Andale Mono" font-size="29.0" fill="#E7A432" transform="matrix(1.00, 0.00, -0.00, -1.00, 5.3, 64.4)">}</text></g></g><g><clipPath id="clip0x6180008b6080"><path d="M 288.9 1.0 L 233.6 39.7 L 250.2 63.4 L 305.5 24.7 Z M 288.9 1.0 "></path></clipPath><g clip-path="url(#clip0x6180008b6080)"><path d="M 271.4 39.1 L 275.3 44.7 L 242.7 51.0 L 259.8 22.6 L 263.7 28.1 L 292.5 7.9 L 300.2 18.9 Z M 271.4 39.1 " fill="#7ADA45"></path></g></g></g></svg>