<?xml version="1.0" encoding="UTF-8" standalone="no"?><svg xmlns="http://www.w3.org/2000/svg" xmlns:xlink="http://www.w3.org/1999/xlink" clip-rule="evenodd" stroke-miterlimit="10" viewBox="0 0 333 218"><desc>SVG generated by Keynote</desc><defs></defs><g transform="matrix(1.00, 0.00, -0.00, -1.00, 0.0, 218.0)"><text xml:space="preserve" font-family="Helvetica-Bold,Helvetica" font-weight="bold" font-size="49.9" fill="#FEFFFF" transform="matrix(1.00, 0.00, -0.00, -1.00, 111.5, 180.4)">2</text><text xml:space="preserve" font-family="Helvetica-Bold,Helvetica" font-weight="bold" font-size="49.9" fill="#FEFFFF" transform="matrix(1.00, 0.00, -0.00, -1.00, 139.3, 180.4)">0</text><text xml:space="preserve" font-family="Helvetica-Bold,Helvetica" font-weight="bold" font-size="49.9" fill="#FEFFFF" transform="matrix(1.00, 0.00, -0.00, -1.00, 167.1, 180.4)">0</text><text xml:space="preserve" font-family="Helvetica-Bold,Helvetica" font-weight="bold" font-size="49.9" fill="#FEFFFF" transform="matrix(1.00, 0.00, -0.00, -1.00, 194.8, 180.4)">8</text><text xml:space="preserve" font-family="Helvetica-Bold,Helvetica" font-weight="bold" font-size="49.9" fill="#FEFFFF" transform="matrix(1.00, 0.00, -0.00, -1.00, 5.7, 121.4)"> </text><text xml:space="preserve" font-family="Helvetica-Bold,Helvetica" font-weight="bold" font-size="49.9" fill="#FEFFFF" transform="matrix(1.00, 0.00, -0.00, -1.00, 17.7, 121.4)">A</text><text xml:space="preserve" font-family="Helvetica-Bold,Helvetica" font-weight="bold" font-size="49.9" fill="#FEFFFF" transform="matrix(1.00, 0.00, -0.00, -1.00, 53.8, 121.4)">p</text><text xml:space="preserve" font-family="Helvetica-Bold,Helvetica" font-weight="bold" font-size="49.9" fill="#FEFFFF" transform="matrix(1.00, 0.00, -0.00, -1.00, 84.3, 121.4)">p</text><text xml:space="preserve" font-family="Helvetica-Bold,Helvetica" font-weight="bold" font-size="49.9" fill="#FEFFFF" transform="matrix(1.00, 0.00, -0.00, -1.00, 114.8, 121.4)">l</text><text xml:space="preserve" font-family="Helvetica-Bold,Helvetica" font-weight="bold" font-size="49.9" fill="#FEFFFF" transform="matrix(1.00, 0.00, -0.00, -1.00, 128.7, 121.4)">e</text><text xml:space="preserve" font-family="Helvetica-Bold,Helvetica" font-weight="bold" font-size="49.9" fill="#FEFFFF" transform="matrix(1.00, 0.00, -0.00, -1.00, 156.4, 121.4)"> </text><text xml:space="preserve" font-family="Helvetica-Bold,Helvetica" font-weight="bold" font-size="49.9" fill="#FEFFFF" transform="matrix(1.00, 0.00, -0.00, -1.00, 170.3, 121.4)">b</text><text xml:space="preserve" font-family="Helvetica-Bold,Helvetica" font-weight="bold" font-size="49.9" fill="#FEFFFF" transform="matrix(1.00, 0.00, -0.00, -1.00, 200.8, 121.4)">l</text><text xml:space="preserve" font-family="Helvetica-Bold,Helvetica" font-weight="bold" font-size="49.9" fill="#FEFFFF" transform="matrix(1.00, 0.00, -0.00, -1.00, 214.7, 121.4)">o</text><text xml:space="preserve" font-family="Helvetica-Bold,Helvetica" font-weight="bold" font-size="49.9" fill="#FEFFFF" transform="matrix(1.00, 0.00, -0.00, -1.00, 245.2, 121.4)">c</text><text xml:space="preserve" font-family="Helvetica-Bold,Helvetica" font-weight="bold" font-size="49.9" fill="#FEFFFF" transform="matrix(1.00, 0.00, -0.00, -1.00, 273.0, 121.4)">k</text><text xml:space="preserve" font-family="Helvetica-Bold,Helvetica" font-weight="bold" font-size="49.9" fill="#FEFFFF" transform="matrix(1.00, 0.00, -0.00, -1.00, 300.7, 121.4)">s</text><text xml:space="preserve" font-family="Helvetica-Bold,Helvetica" font-weight="bold" font-size="49.9" fill="#FEFFFF" transform="matrix(1.00, 0.00, -0.00, -1.00, 328.5, 121.4)"> </text><text xml:space="preserve" font-family="Helvetica-Bold,Helvetica" font-weight="bold" font-size="49.9" fill="#FEFFFF" transform="matrix(1.00, 0.00, -0.00, -1.00, 72.7, 62.4)">F</text><text xml:space="preserve" font-family="Helvetica-Bold,Helvetica" font-weight="bold" font-size="49.9" fill="#FEFFFF" transform="matrix(1.00, 0.00, -0.00, -1.00, 103.2, 62.4)">l</text><text xml:space="preserve" font-family="Helvetica-Bold,Helvetica" font-weight="bold" font-size="49.9" fill="#FEFFFF" transform="matrix(1.00, 0.00, -0.00, -1.00, 117.1, 62.4)">a</text><text xml:space="preserve" font-family="Helvetica-Bold,Helvetica" font-weight="bold" font-size="49.9" fill="#FEFFFF" transform="matrix(1.00, 0.00, -0.00, -1.00, 144.8, 62.4)">s</text><text xml:space="preserve" font-family="Helvetica-Bold,Helvetica" font-weight="bold" font-size="49.9" fill="#FEFFFF" transform="matrix(1.00, 0.00, -0.00, -1.00, 172.6, 62.4)">h</text><text xml:space="preserve" font-family="Helvetica-Bold,Helvetica" font-weight="bold" font-size="49.9" fill="#FEFFFF" transform="matrix(1.00, 0.00, -0.00, -1.00, 203.1, 62.4)"> </text><text xml:space="preserve" font-family="Helvetica-Bold,Helvetica" font-weight="bold" font-size="49.9" fill="#FEFFFF" transform="matrix(1.00, 0.00, -0.00, -1.00, 216.9, 62.4)">i</text><text xml:space="preserve" font-family="Helvetica-Bold,Helvetica" font-weight="bold" font-size="49.9" fill="#FEFFFF" transform="matrix(1.00, 0.00, -0.00, -1.00, 230.8, 62.4)">n</text><text xml:space="preserve" font-family="Helvetica-Bold,Helvetica" font-weight="bold" font-size="49.9" fill="#FEFFFF" transform="matrix(1.00, 0.00, -0.00, -1.00, 261.3, 62.4)"> </text><text xml:space="preserve" font-family="Helvetica-Bold,Helvetica" font-weight="bold" font-size="49.9" fill="#FEFFFF" transform="matrix(1.00, 0.00, -0.00, -1.00, -0.8, 3.4)">i</text><text xml:space="preserve" font-family="Helvetica-Bold,Helvetica" font-weight="bold" font-size="49.9" fill="#FEFFFF" transform="matrix(1.00, 0.00, -0.00, -1.00, 13.1, 3.4)">P</text><text xml:space="preserve" font-family="Helvetica-Bold,Helvetica" font-weight="bold" font-size="49.9" fill="#FEFFFF" transform="matrix(1.00, 0.00, -0.00, -1.00, 46.4, 3.4)">h</text><text xml:space="preserve" font-family="Helvetica-Bold,Helvetica" font-weight="bold" font-size="49.9" fill="#FEFFFF" transform="matrix(1.00, 0.00, -0.00, -1.00, 76.9, 3.4)">o</text><text xml:space="preserve" font-family="Helvetica-Bold,Helvetica" font-weight="bold" font-size="49.9" fill="#FEFFFF" transform="matrix(1.00, 0.00, -0.00, -1.00, 107.4, 3.4)">n</text><text xml:space="preserve" font-family="Helvetica-Bold,Helvetica" font-weight="bold" font-size="49.9" fill="#FEFFFF" transform="matrix(1.00, 0.00, -0.00, -1.00, 137.8, 3.4)">e</text><text xml:space="preserve" font-family="Helvetica-Bold,Helvetica" font-weight="bold" font-size="49.9" fill="#FEFFFF" transform="matrix(1.00, 0.00, -0.00, -1.00, 165.6, 3.4)"> </text><text xml:space="preserve" font-family="Helvetica-Bold,Helvetica" font-weight="bold" font-size="49.9" fill="#FEFFFF" transform="matrix(1.00, 0.00, -0.00, -1.00, 179.5, 3.4)">&amp;</text><text xml:space="preserve" font-family="Helvetica-Bold,Helvetica" font-weight="bold" font-size="49.9" fill="#FEFFFF" transform="matrix(1.00, 0.00, -0.00, -1.00, 215.5, 3.4)"> </text><text xml:space="preserve" font-family="Helvetica-Bold,Helvetica" font-weight="bold" font-size="49.9" fill="#FEFFFF" transform="matrix(1.00, 0.00, -0.00, -1.00, 229.4, 3.4)">i</text><text xml:space="preserve" font-family="Helvetica-Bold,Helvetica" font-weight="bold" font-size="49.9" fill="#FEFFFF" transform="matrix(1.00, 0.00, -0.00, -1.00, 243.3, 3.4)">P</text><text xml:space="preserve" font-family="Helvetica-Bold,Helvetica" font-weight="bold" font-size="49.9" fill="#FEFFFF" transform="matrix(1.00, 0.00, -0.00, -1.00, 276.6, 3.4)">a</text><text xml:space="preserve" font-family="Helvetica-Bold,Helvetica" font-weight="bold" font-size="49.9" fill="#FEFFFF" transform="matrix(1.00, 0.00, -0.00, -1.00, 304.3, 3.4)">d</text></g></svg>