<?xml version="1.0" encoding="UTF-8" standalone="no"?><svg xmlns="http://www.w3.org/2000/svg" xmlns:xlink="http://www.w3.org/1999/xlink" clip-rule="evenodd" stroke-miterlimit="10" viewBox="0 0 1024 768"><desc>SVG generated by Keynote</desc><defs></defs><g transform="matrix(1.00, 0.00, -0.00, -1.00, 0.0, 768.0)"><path d="M 0.0 768.0 L 1024.0 768.0 L 1024.0 0.0 L 0.0 0.0 Z M 0.0 768.0 " fill="#000000"></path><text xml:space="preserve" font-family="AvenirNext-Regular,Avenir Next" font-size="42.4" fill="#FEFFFF" transform="matrix(1.00, 0.00, -0.00, -1.00, 211.8, 631.7)">D</text><text xml:space="preserve" font-family="AvenirNext-Regular,Avenir Next" font-size="42.4" fill="#FEFFFF" transform="matrix(1.00, 0.00, -0.00, -1.00, 243.9, 631.7)">r</text><text xml:space="preserve" font-family="AvenirNext-Regular,Avenir Next" font-size="42.4" fill="#FEFFFF" transform="matrix(1.00, 0.00, -0.00, -1.00, 259.1, 631.7)">u</text><text xml:space="preserve" font-family="AvenirNext-Regular,Avenir Next" font-size="42.4" fill="#FEFFFF" transform="matrix(1.00, 0.00, -0.00, -1.00, 283.8, 631.7)">p</text><text xml:space="preserve" font-family="AvenirNext-Regular,Avenir Next" font-size="42.4" fill="#FEFFFF" transform="matrix(1.00, 0.00, -0.00, -1.00, 310.7, 631.7)">a</text><text xml:space="preserve" font-family="AvenirNext-Regular,Avenir Next" font-size="42.4" fill="#FEFFFF" transform="matrix(1.00, 0.00, -0.00, -1.00, 333.3, 631.7)">l</text><text xml:space="preserve" font-family="AvenirNext-Regular,Avenir Next" font-size="42.4" fill="#FEFFFF" transform="matrix(1.00, 0.00, -0.00, -1.00, 344.0, 631.7)"> </text><text xml:space="preserve" font-family="AvenirNext-Regular,Avenir Next" font-size="42.4" fill="#FEFFFF" transform="matrix(1.00, 0.00, -0.00, -1.00, 354.6, 631.7)">8</text><text xml:space="preserve" font-family="AvenirNext-Regular,Avenir Next" font-size="42.4" fill="#FEFFFF" transform="matrix(1.00, 0.00, -0.00, -1.00, 379.2, 631.7)"> </text><text xml:space="preserve" font-family="AvenirNext-Regular,Avenir Next" font-size="42.4" fill="#FEFFFF" transform="matrix(1.00, 0.00, -0.00, -1.00, 389.8, 631.7)">t</text><text xml:space="preserve" font-family="AvenirNext-Regular,Avenir Next" font-size="42.4" fill="#FEFFFF" transform="matrix(1.00, 0.00, -0.00, -1.00, 403.2, 631.7)">h</text><text xml:space="preserve" font-family="AvenirNext-Regular,Avenir Next" font-size="42.4" fill="#FEFFFF" transform="matrix(1.00, 0.00, -0.00, -1.00, 428.0, 631.7)">e</text><text xml:space="preserve" font-family="AvenirNext-Regular,Avenir Next" font-size="42.4" fill="#FEFFFF" transform="matrix(1.00, 0.00, -0.00, -1.00, 452.2, 631.7)">m</text><text xml:space="preserve" font-family="AvenirNext-Regular,Avenir Next" font-size="42.4" fill="#FEFFFF" transform="matrix(1.00, 0.00, -0.00, -1.00, 489.6, 631.7)">e</text><text xml:space="preserve" font-family="AvenirNext-Regular,Avenir Next" font-size="42.4" fill="#FEFFFF" transform="matrix(1.00, 0.00, -0.00, -1.00, 513.9, 631.7)"> </text><text xml:space="preserve" font-family="AvenirNext-Regular,Avenir Next" font-size="42.4" fill="#FEFFFF" transform="matrix(1.00, 0.00, -0.00, -1.00, 524.5, 631.7)">l</text><text xml:space="preserve" font-family="AvenirNext-Regular,Avenir Next" font-size="42.4" fill="#FEFFFF" transform="matrix(1.00, 0.00, -0.00, -1.00, 535.2, 631.7)">o</text><text xml:space="preserve" font-family="AvenirNext-Regular,Avenir Next" font-size="42.4" fill="#FEFFFF" transform="matrix(1.00, 0.00, -0.00, -1.00, 561.1, 631.7)">a</text><text xml:space="preserve" font-family="AvenirNext-Regular,Avenir Next" font-size="42.4" fill="#FEFFFF" transform="matrix(1.00, 0.00, -0.00, -1.00, 583.7, 631.7)">d</text><text xml:space="preserve" font-family="AvenirNext-Regular,Avenir Next" font-size="42.4" fill="#FEFFFF" transform="matrix(1.00, 0.00, -0.00, -1.00, 610.7, 631.7)">s</text><text xml:space="preserve" font-family="AvenirNext-Regular,Avenir Next" font-size="42.4" fill="#FEFFFF" transform="matrix(1.00, 0.00, -0.00, -1.00, 629.6, 631.7)"> </text><text xml:space="preserve" font-family="AvenirNext-DemiBold,Avenir Next" font-weight="bold" font-size="42.4" fill="#FEFFFF" transform="matrix(1.00, 0.00, -0.00, -1.00, 640.2, 631.7)">l</text><text xml:space="preserve" font-family="AvenirNext-DemiBold,Avenir Next" font-weight="bold" font-size="42.4" fill="#FEFFFF" transform="matrix(1.00, 0.00, -0.00, -1.00, 651.5, 631.7)">o</text><text xml:space="preserve" font-family="AvenirNext-DemiBold,Avenir Next" font-weight="bold" font-size="42.4" fill="#FEFFFF" transform="matrix(1.00, 0.00, -0.00, -1.00, 677.4, 631.7)">g</text><text xml:space="preserve" font-family="AvenirNext-DemiBold,Avenir Next" font-weight="bold" font-size="42.4" fill="#FEFFFF" transform="matrix(1.00, 0.00, -0.00, -1.00, 704.2, 631.7)">o</text><text xml:space="preserve" font-family="AvenirNext-DemiBold,Avenir Next" font-weight="bold" font-size="42.4" fill="#FEFFFF" transform="matrix(1.00, 0.00, -0.00, -1.00, 729.5, 631.7)">.</text><text xml:space="preserve" font-family="AvenirNext-DemiBold,Avenir Next" font-weight="bold" font-size="42.4" fill="#FEFFFF" transform="matrix(1.00, 0.00, -0.00, -1.00, 740.6, 631.7)">s</text><text xml:space="preserve" font-family="AvenirNext-DemiBold,Avenir Next" font-weight="bold" font-size="42.4" fill="#FEFFFF" transform="matrix(1.00, 0.00, -0.00, -1.00, 759.4, 631.7)">v</text><text xml:space="preserve" font-family="AvenirNext-DemiBold,Avenir Next" font-weight="bold" font-size="42.4" fill="#FEFFFF" transform="matrix(1.00, 0.00, -0.00, -1.00, 781.1, 631.7)">g</text><text xml:space="preserve" font-family="AvenirNext-Regular,Avenir Next" font-size="42.4" fill="#FEFFFF" transform="matrix(1.00, 0.00, -0.00, -1.00, 807.9, 631.7)"> </text><text xml:space="preserve" font-family="AvenirNext-Regular,Avenir Next" font-size="42.4" fill="#FEFFFF" transform="matrix(1.00, 0.00, -0.00, -1.00, 818.5, 631.7)">b</text><text xml:space="preserve" font-family="AvenirNext-Regular,Avenir Next" font-size="42.4" fill="#FEFFFF" transform="matrix(1.00, 0.00, -0.00, -1.00, 845.6, 631.7)">y</text><text xml:space="preserve" font-family="AvenirNext-Regular,Avenir Next" font-size="42.4" fill="#FEFFFF" transform="matrix(1.00, 0.00, -0.00, -1.00, 866.2, 631.7)"> </text><text xml:space="preserve" font-family="AvenirNext-Regular,Avenir Next" font-size="42.4" fill="#FEFFFF" transform="matrix(1.00, 0.00, -0.00, -1.00, 244.3, 573.7)">d</text><text xml:space="preserve" font-family="AvenirNext-Regular,Avenir Next" font-size="42.4" fill="#FEFFFF" transform="matrix(1.00, 0.00, -0.00, -1.00, 271.3, 573.7)">e</text><text xml:space="preserve" font-family="AvenirNext-Regular,Avenir Next" font-size="42.4" fill="#FEFFFF" transform="matrix(1.00, 0.00, -0.00, -1.00, 295.5, 573.7)">f</text><text xml:space="preserve" font-family="AvenirNext-Regular,Avenir Next" font-size="42.4" fill="#FEFFFF" transform="matrix(1.00, 0.00, -0.00, -1.00, 308.0, 573.7)">a</text><text xml:space="preserve" font-family="AvenirNext-Regular,Avenir Next" font-size="42.4" fill="#FEFFFF" transform="matrix(1.00, 0.00, -0.00, -1.00, 330.7, 573.7)">u</text><text xml:space="preserve" font-family="AvenirNext-Regular,Avenir Next" font-size="42.4" fill="#FEFFFF" transform="matrix(1.00, 0.00, -0.00, -1.00, 355.3, 573.7)">l</text><text xml:space="preserve" font-family="AvenirNext-Regular,Avenir Next" font-size="42.4" fill="#FEFFFF" transform="matrix(1.00, 0.00, -0.00, -1.00, 366.0, 573.7)">t</text><text xml:space="preserve" font-family="AvenirNext-Regular,Avenir Next" font-size="42.4" fill="#FEFFFF" transform="matrix(1.00, 0.00, -0.00, -1.00, 379.4, 573.7)">,</text><text xml:space="preserve" font-family="AvenirNext-Regular,Avenir Next" font-size="42.4" fill="#FEFFFF" transform="matrix(1.00, 0.00, -0.00, -1.00, 389.2, 573.7)"> </text><text xml:space="preserve" font-family="AvenirNext-Regular,Avenir Next" font-size="42.4" fill="#FEFFFF" transform="matrix(1.00, 0.00, -0.00, -1.00, 399.8, 573.7)">n</text><text xml:space="preserve" font-family="AvenirNext-Regular,Avenir Next" font-size="42.4" fill="#FEFFFF" transform="matrix(1.00, 0.00, -0.00, -1.00, 424.4, 573.7)">o</text><text xml:space="preserve" font-family="AvenirNext-Regular,Avenir Next" font-size="42.4" fill="#FEFFFF" transform="matrix(1.00, 0.00, -0.00, -1.00, 450.3, 573.7)">t</text><text xml:space="preserve" font-family="AvenirNext-Regular,Avenir Next" font-size="42.4" fill="#FEFFFF" transform="matrix(1.00, 0.00, -0.00, -1.00, 463.8, 573.7)"> </text><text xml:space="preserve" font-family="AvenirNext-DemiBold,Avenir Next" font-weight="bold" font-size="42.4" fill="#FEFFFF" transform="matrix(1.00, 0.00, -0.00, -1.00, 474.4, 573.7)">l</text><text xml:space="preserve" font-family="AvenirNext-DemiBold,Avenir Next" font-weight="bold" font-size="42.4" fill="#FEFFFF" transform="matrix(1.00, 0.00, -0.00, -1.00, 485.7, 573.7)">o</text><text xml:space="preserve" font-family="AvenirNext-DemiBold,Avenir Next" font-weight="bold" font-size="42.4" fill="#FEFFFF" transform="matrix(1.00, 0.00, -0.00, -1.00, 511.6, 573.7)">g</text><text xml:space="preserve" font-family="AvenirNext-DemiBold,Avenir Next" font-weight="bold" font-size="42.4" fill="#FEFFFF" transform="matrix(1.00, 0.00, -0.00, -1.00, 538.4, 573.7)">o</text><text xml:space="preserve" font-family="AvenirNext-DemiBold,Avenir Next" font-weight="bold" font-size="42.4" fill="#FEFFFF" transform="matrix(1.00, 0.00, -0.00, -1.00, 563.7, 573.7)">.</text><text xml:space="preserve" font-family="AvenirNext-DemiBold,Avenir Next" font-weight="bold" font-size="42.4" fill="#FEFFFF" transform="matrix(1.00, 0.00, -0.00, -1.00, 574.8, 573.7)">p</text><text xml:space="preserve" font-family="AvenirNext-DemiBold,Avenir Next" font-weight="bold" font-size="42.4" fill="#FEFFFF" transform="matrix(1.00, 0.00, -0.00, -1.00, 601.6, 573.7)">n</text><text xml:space="preserve" font-family="AvenirNext-DemiBold,Avenir Next" font-weight="bold" font-size="42.4" fill="#FEFFFF" transform="matrix(1.00, 0.00, -0.00, -1.00, 626.3, 573.7)">g</text><text xml:space="preserve" font-family="AvenirNext-Regular,Avenir Next" font-size="42.4" fill="#FEFFFF" transform="matrix(1.00, 0.00, -0.00, -1.00, 653.1, 573.7)"> </text><text xml:space="preserve" font-family="AvenirNext-Regular,Avenir Next" font-size="42.4" fill="#FEFFFF" transform="matrix(1.00, 0.00, -0.00, -1.00, 663.7, 573.7)">a</text><text xml:space="preserve" font-family="AvenirNext-Regular,Avenir Next" font-size="42.4" fill="#FEFFFF" transform="matrix(1.00, 0.00, -0.00, -1.00, 686.3, 573.7)">n</text><text xml:space="preserve" font-family="AvenirNext-Regular,Avenir Next" font-size="42.4" fill="#FEFFFF" transform="matrix(1.00, 0.00, -0.00, -1.00, 711.0, 573.7)">y</text><text xml:space="preserve" font-family="AvenirNext-Regular,Avenir Next" font-size="42.4" fill="#FEFFFF" transform="matrix(1.00, 0.00, -0.00, -1.00, 731.6, 573.7)">m</text><text xml:space="preserve" font-family="AvenirNext-Regular,Avenir Next" font-size="42.4" fill="#FEFFFF" transform="matrix(1.00, 0.00, -0.00, -1.00, 769.1, 573.7)">o</text><text xml:space="preserve" font-family="AvenirNext-Regular,Avenir Next" font-size="42.4" fill="#FEFFFF" transform="matrix(1.00, 0.00, -0.00, -1.00, 795.0, 573.7)">r</text><text xml:space="preserve" font-family="AvenirNext-Regular,Avenir Next" font-size="42.4" fill="#FEFFFF" transform="matrix(1.00, 0.00, -0.00, -1.00, 809.5, 573.7)">e</text><text xml:space="preserve" font-family="Helvetica-Light,Helvetica" font-size="32.0" fill="#FEFFFF" transform="matrix(1.00, 0.00, -0.00, -1.00, 168.1, 117.6)">I</text><text xml:space="preserve" font-family="Helvetica-Light,Helvetica" font-size="32.0" fill="#FEFFFF" transform="matrix(1.00, 0.00, -0.00, -1.00, 177.0, 117.6)">s</text><text xml:space="preserve" font-family="Helvetica-Light,Helvetica" font-size="32.0" fill="#FEFFFF" transform="matrix(1.00, 0.00, -0.00, -1.00, 193.0, 117.6)">s</text><text xml:space="preserve" font-family="Helvetica-Light,Helvetica" font-size="32.0" fill="#FEFFFF" transform="matrix(1.00, 0.00, -0.00, -1.00, 209.0, 117.6)">u</text><text xml:space="preserve" font-family="Helvetica-Light,Helvetica" font-size="32.0" fill="#FEFFFF" transform="matrix(1.00, 0.00, -0.00, -1.00, 226.8, 117.6)">e</text><text xml:space="preserve" font-family="Helvetica-Light,Helvetica" font-size="32.0" fill="#FEFFFF" transform="matrix(1.00, 0.00, -0.00, -1.00, 244.6, 117.6)">:</text><text xml:space="preserve" font-family="Helvetica-Light,Helvetica" font-size="32.0" fill="#FEFFFF" transform="matrix(1.00, 0.00, -0.00, -1.00, 253.5, 117.6)"> </text><text xml:space="preserve" font-family="Helvetica-Light,Helvetica" font-size="32.0" fill="#FEFFFF" transform="matrix(1.00, 0.00, -0.00, -1.00, 262.4, 117.6)">h</text><text xml:space="preserve" font-family="Helvetica-Light,Helvetica" font-size="32.0" fill="#FEFFFF" transform="matrix(1.00, 0.00, -0.00, -1.00, 280.2, 117.6)">t</text><text xml:space="preserve" font-family="Helvetica-Light,Helvetica" font-size="32.0" fill="#FEFFFF" transform="matrix(1.00, 0.00, -0.00, -1.00, 289.1, 117.6)">t</text><text xml:space="preserve" font-family="Helvetica-Light,Helvetica" font-size="32.0" fill="#FEFFFF" transform="matrix(1.00, 0.00, -0.00, -1.00, 298.0, 117.6)">p</text><text xml:space="preserve" font-family="Helvetica-Light,Helvetica" font-size="32.0" fill="#FEFFFF" transform="matrix(1.00, 0.00, -0.00, -1.00, 317.5, 117.6)">s</text><text xml:space="preserve" font-family="Helvetica-Light,Helvetica" font-size="32.0" fill="#FEFFFF" transform="matrix(1.00, 0.00, -0.00, -1.00, 333.5, 117.6)">:</text><text xml:space="preserve" font-family="Helvetica-Light,Helvetica" font-size="32.0" fill="#FEFFFF" transform="matrix(1.00, 0.00, -0.00, -1.00, 342.4, 117.6)">/</text><text xml:space="preserve" font-family="Helvetica-Light,Helvetica" font-size="32.0" fill="#FEFFFF" transform="matrix(1.00, 0.00, -0.00, -1.00, 351.3, 117.6)">/</text><text xml:space="preserve" font-family="Helvetica-Light,Helvetica" font-size="32.0" fill="#FEFFFF" transform="matrix(1.00, 0.00, -0.00, -1.00, 360.2, 117.6)">w</text><text xml:space="preserve" font-family="Helvetica-Light,Helvetica" font-size="32.0" fill="#FEFFFF" transform="matrix(1.00, 0.00, -0.00, -1.00, 383.3, 117.6)">w</text><text xml:space="preserve" font-family="Helvetica-Light,Helvetica" font-size="32.0" fill="#FEFFFF" transform="matrix(1.00, 0.00, -0.00, -1.00, 406.4, 117.6)">w</text><text xml:space="preserve" font-family="Helvetica-Light,Helvetica" font-size="32.0" fill="#FEFFFF" transform="matrix(1.00, 0.00, -0.00, -1.00, 427.8, 117.6)">.</text><text xml:space="preserve" font-family="Helvetica-Light,Helvetica" font-size="32.0" fill="#FEFFFF" transform="matrix(1.00, 0.00, -0.00, -1.00, 436.7, 117.6)">d</text><text xml:space="preserve" font-family="Helvetica-Light,Helvetica" font-size="32.0" fill="#FEFFFF" transform="matrix(1.00, 0.00, -0.00, -1.00, 456.2, 117.6)">r</text><text xml:space="preserve" font-family="Helvetica-Light,Helvetica" font-size="32.0" fill="#FEFFFF" transform="matrix(1.00, 0.00, -0.00, -1.00, 466.9, 117.6)">u</text><text xml:space="preserve" font-family="Helvetica-Light,Helvetica" font-size="32.0" fill="#FEFFFF" transform="matrix(1.00, 0.00, -0.00, -1.00, 484.7, 117.6)">p</text><text xml:space="preserve" font-family="Helvetica-Light,Helvetica" font-size="32.0" fill="#FEFFFF" transform="matrix(1.00, 0.00, -0.00, -1.00, 504.2, 117.6)">a</text><text xml:space="preserve" font-family="Helvetica-Light,Helvetica" font-size="32.0" fill="#FEFFFF" transform="matrix(1.00, 0.00, -0.00, -1.00, 522.0, 117.6)">l</text><text xml:space="preserve" font-family="Helvetica-Light,Helvetica" font-size="32.0" fill="#FEFFFF" transform="matrix(1.00, 0.00, -0.00, -1.00, 529.1, 117.6)">.</text><text xml:space="preserve" font-family="Helvetica-Light,Helvetica" font-size="32.0" fill="#FEFFFF" transform="matrix(1.00, 0.00, -0.00, -1.00, 538.0, 117.6)">o</text><text xml:space="preserve" font-family="Helvetica-Light,Helvetica" font-size="32.0" fill="#FEFFFF" transform="matrix(1.00, 0.00, -0.00, -1.00, 555.8, 117.6)">r</text><text xml:space="preserve" font-family="Helvetica-Light,Helvetica" font-size="32.0" fill="#FEFFFF" transform="matrix(1.00, 0.00, -0.00, -1.00, 566.5, 117.6)">g</text><text xml:space="preserve" font-family="Helvetica-Light,Helvetica" font-size="32.0" fill="#FEFFFF" transform="matrix(1.00, 0.00, -0.00, -1.00, 586.0, 117.6)">/</text><text xml:space="preserve" font-family="Helvetica-Light,Helvetica" font-size="32.0" fill="#FEFFFF" transform="matrix(1.00, 0.00, -0.00, -1.00, 594.9, 117.6)">n</text><text xml:space="preserve" font-family="Helvetica-Light,Helvetica" font-size="32.0" fill="#FEFFFF" transform="matrix(1.00, 0.00, -0.00, -1.00, 612.7, 117.6)">o</text><text xml:space="preserve" font-family="Helvetica-Light,Helvetica" font-size="32.0" fill="#FEFFFF" transform="matrix(1.00, 0.00, -0.00, -1.00, 630.5, 117.6)">d</text><text xml:space="preserve" font-family="Helvetica-Light,Helvetica" font-size="32.0" fill="#FEFFFF" transform="matrix(1.00, 0.00, -0.00, -1.00, 650.1, 117.6)">e</text><text xml:space="preserve" font-family="Helvetica-Light,Helvetica" font-size="32.0" fill="#FEFFFF" transform="matrix(1.00, 0.00, -0.00, -1.00, 667.8, 117.6)">/</text><text xml:space="preserve" font-family="Helvetica-Light,Helvetica" font-size="32.0" fill="#FEFFFF" transform="matrix(1.00, 0.00, -0.00, -1.00, 676.7, 117.6)">2</text><text xml:space="preserve" font-family="Helvetica-Light,Helvetica" font-size="32.0" fill="#FEFFFF" transform="matrix(1.00, 0.00, -0.00, -1.00, 694.5, 117.6)">1</text><text xml:space="preserve" font-family="Helvetica-Light,Helvetica" font-size="32.0" fill="#FEFFFF" transform="matrix(1.00, 0.00, -0.00, -1.00, 712.3, 117.6)">4</text><text xml:space="preserve" font-family="Helvetica-Light,Helvetica" font-size="32.0" fill="#FEFFFF" transform="matrix(1.00, 0.00, -0.00, -1.00, 730.1, 117.6)">2</text><text xml:space="preserve" font-family="Helvetica-Light,Helvetica" font-size="32.0" fill="#FEFFFF" transform="matrix(1.00, 0.00, -0.00, -1.00, 747.9, 117.6)">6</text><text xml:space="preserve" font-family="Helvetica-Light,Helvetica" font-size="32.0" fill="#FEFFFF" transform="matrix(1.00, 0.00, -0.00, -1.00, 765.7, 117.6)">5</text><text xml:space="preserve" font-family="Helvetica-Light,Helvetica" font-size="32.0" fill="#FEFFFF" transform="matrix(1.00, 0.00, -0.00, -1.00, 783.5, 117.6)">3</text><text xml:space="preserve" font-family="Helvetica-Light,Helvetica" font-size="32.0" fill="#FEFFFF" transform="matrix(1.00, 0.00, -0.00, -1.00, 801.3, 117.6)"> </text><text xml:space="preserve" font-family="Helvetica-Light,Helvetica" font-size="32.0" fill="#FEFFFF" transform="matrix(1.00, 0.00, -0.00, -1.00, 810.2, 117.6)"> </text><g><clipPath id="clip0x618000cb9a40"><path d="M 261.4 113.4 L 801.3 113.4 L 801.3 117.0 L 261.4 117.0 Z M 261.4 113.4 "></path></clipPath><g clip-path="url(#clip0x618000cb9a40)"><path d="M 189.7 37.0 L 728.6 37.0 " fill="none" stroke="#FEFFFF" stroke-width="1.60" transform="matrix(1.00, 0.00, 0.00, -1.00, 72.7, 152.3)"></path></g></g><text xml:space="preserve" font-family="Helvetica-Light,Helvetica" font-size="32.0" fill="#FEFFFF" transform="matrix(1.00, 0.00, -0.00, -1.00, 149.5, 79.6)">C</text><text xml:space="preserve" font-family="Helvetica-Light,Helvetica" font-size="32.0" fill="#FEFFFF" transform="matrix(1.00, 0.00, -0.00, -1.00, 172.6, 79.6)">h</text><text xml:space="preserve" font-family="Helvetica-Light,Helvetica" font-size="32.0" fill="#FEFFFF" transform="matrix(1.00, 0.00, -0.00, -1.00, 190.4, 79.6)">a</text><text xml:space="preserve" font-family="Helvetica-Light,Helvetica" font-size="32.0" fill="#FEFFFF" transform="matrix(1.00, 0.00, -0.00, -1.00, 208.2, 79.6)">n</text><text xml:space="preserve" font-family="Helvetica-Light,Helvetica" font-size="32.0" fill="#FEFFFF" transform="matrix(1.00, 0.00, -0.00, -1.00, 225.9, 79.6)">g</text><text xml:space="preserve" font-family="Helvetica-Light,Helvetica" font-size="32.0" fill="#FEFFFF" transform="matrix(1.00, 0.00, -0.00, -1.00, 245.5, 79.6)">e</text><text xml:space="preserve" font-family="Helvetica-Light,Helvetica" font-size="32.0" fill="#FEFFFF" transform="matrix(1.00, 0.00, -0.00, -1.00, 263.3, 79.6)">:</text><text xml:space="preserve" font-family="Helvetica-Light,Helvetica" font-size="32.0" fill="#FEFFFF" transform="matrix(1.00, 0.00, -0.00, -1.00, 272.2, 79.6)"> </text><text xml:space="preserve" font-family="Helvetica-Light,Helvetica" font-size="32.0" fill="#FEFFFF" transform="matrix(1.00, 0.00, -0.00, -1.00, 281.1, 79.6)">h</text><text xml:space="preserve" font-family="Helvetica-Light,Helvetica" font-size="32.0" fill="#FEFFFF" transform="matrix(1.00, 0.00, -0.00, -1.00, 298.9, 79.6)">t</text><text xml:space="preserve" font-family="Helvetica-Light,Helvetica" font-size="32.0" fill="#FEFFFF" transform="matrix(1.00, 0.00, -0.00, -1.00, 307.8, 79.6)">t</text><text xml:space="preserve" font-family="Helvetica-Light,Helvetica" font-size="32.0" fill="#FEFFFF" transform="matrix(1.00, 0.00, -0.00, -1.00, 316.7, 79.6)">p</text><text xml:space="preserve" font-family="Helvetica-Light,Helvetica" font-size="32.0" fill="#FEFFFF" transform="matrix(1.00, 0.00, -0.00, -1.00, 336.2, 79.6)">s</text><text xml:space="preserve" font-family="Helvetica-Light,Helvetica" font-size="32.0" fill="#FEFFFF" transform="matrix(1.00, 0.00, -0.00, -1.00, 352.2, 79.6)">:</text><text xml:space="preserve" font-family="Helvetica-Light,Helvetica" font-size="32.0" fill="#FEFFFF" transform="matrix(1.00, 0.00, -0.00, -1.00, 361.1, 79.6)">/</text><text xml:space="preserve" font-family="Helvetica-Light,Helvetica" font-size="32.0" fill="#FEFFFF" transform="matrix(1.00, 0.00, -0.00, -1.00, 370.0, 79.6)">/</text><text xml:space="preserve" font-family="Helvetica-Light,Helvetica" font-size="32.0" fill="#FEFFFF" transform="matrix(1.00, 0.00, -0.00, -1.00, 378.9, 79.6)">w</text><text xml:space="preserve" font-family="Helvetica-Light,Helvetica" font-size="32.0" fill="#FEFFFF" transform="matrix(1.00, 0.00, -0.00, -1.00, 402.0, 79.6)">w</text><text xml:space="preserve" font-family="Helvetica-Light,Helvetica" font-size="32.0" fill="#FEFFFF" transform="matrix(1.00, 0.00, -0.00, -1.00, 425.1, 79.6)">w</text><text xml:space="preserve" font-family="Helvetica-Light,Helvetica" font-size="32.0" fill="#FEFFFF" transform="matrix(1.00, 0.00, -0.00, -1.00, 446.5, 79.6)">.</text><text xml:space="preserve" font-family="Helvetica-Light,Helvetica" font-size="32.0" fill="#FEFFFF" transform="matrix(1.00, 0.00, -0.00, -1.00, 455.4, 79.6)">d</text><text xml:space="preserve" font-family="Helvetica-Light,Helvetica" font-size="32.0" fill="#FEFFFF" transform="matrix(1.00, 0.00, -0.00, -1.00, 474.9, 79.6)">r</text><text xml:space="preserve" font-family="Helvetica-Light,Helvetica" font-size="32.0" fill="#FEFFFF" transform="matrix(1.00, 0.00, -0.00, -1.00, 485.6, 79.6)">u</text><text xml:space="preserve" font-family="Helvetica-Light,Helvetica" font-size="32.0" fill="#FEFFFF" transform="matrix(1.00, 0.00, -0.00, -1.00, 503.4, 79.6)">p</text><text xml:space="preserve" font-family="Helvetica-Light,Helvetica" font-size="32.0" fill="#FEFFFF" transform="matrix(1.00, 0.00, -0.00, -1.00, 522.9, 79.6)">a</text><text xml:space="preserve" font-family="Helvetica-Light,Helvetica" font-size="32.0" fill="#FEFFFF" transform="matrix(1.00, 0.00, -0.00, -1.00, 540.7, 79.6)">l</text><text xml:space="preserve" font-family="Helvetica-Light,Helvetica" font-size="32.0" fill="#FEFFFF" transform="matrix(1.00, 0.00, -0.00, -1.00, 547.8, 79.6)">.</text><text xml:space="preserve" font-family="Helvetica-Light,Helvetica" font-size="32.0" fill="#FEFFFF" transform="matrix(1.00, 0.00, -0.00, -1.00, 556.7, 79.6)">o</text><text xml:space="preserve" font-family="Helvetica-Light,Helvetica" font-size="32.0" fill="#FEFFFF" transform="matrix(1.00, 0.00, -0.00, -1.00, 574.5, 79.6)">r</text><text xml:space="preserve" font-family="Helvetica-Light,Helvetica" font-size="32.0" fill="#FEFFFF" transform="matrix(1.00, 0.00, -0.00, -1.00, 585.1, 79.6)">g</text><text xml:space="preserve" font-family="Helvetica-Light,Helvetica" font-size="32.0" fill="#FEFFFF" transform="matrix(1.00, 0.00, -0.00, -1.00, 604.7, 79.6)">/</text><text xml:space="preserve" font-family="Helvetica-Light,Helvetica" font-size="32.0" fill="#FEFFFF" transform="matrix(1.00, 0.00, -0.00, -1.00, 613.6, 79.6)">n</text><text xml:space="preserve" font-family="Helvetica-Light,Helvetica" font-size="32.0" fill="#FEFFFF" transform="matrix(1.00, 0.00, -0.00, -1.00, 631.4, 79.6)">o</text><text xml:space="preserve" font-family="Helvetica-Light,Helvetica" font-size="32.0" fill="#FEFFFF" transform="matrix(1.00, 0.00, -0.00, -1.00, 649.2, 79.6)">d</text><text xml:space="preserve" font-family="Helvetica-Light,Helvetica" font-size="32.0" fill="#FEFFFF" transform="matrix(1.00, 0.00, -0.00, -1.00, 668.7, 79.6)">e</text><text xml:space="preserve" font-family="Helvetica-Light,Helvetica" font-size="32.0" fill="#FEFFFF" transform="matrix(1.00, 0.00, -0.00, -1.00, 686.5, 79.6)">/</text><text xml:space="preserve" font-family="Helvetica-Light,Helvetica" font-size="32.0" fill="#FEFFFF" transform="matrix(1.00, 0.00, -0.00, -1.00, 695.4, 79.6)">2</text><text xml:space="preserve" font-family="Helvetica-Light,Helvetica" font-size="32.0" fill="#FEFFFF" transform="matrix(1.00, 0.00, -0.00, -1.00, 713.2, 79.6)">4</text><text xml:space="preserve" font-family="Helvetica-Light,Helvetica" font-size="32.0" fill="#FEFFFF" transform="matrix(1.00, 0.00, -0.00, -1.00, 731.0, 79.6)">1</text><text xml:space="preserve" font-family="Helvetica-Light,Helvetica" font-size="32.0" fill="#FEFFFF" transform="matrix(1.00, 0.00, -0.00, -1.00, 748.8, 79.6)">0</text><text xml:space="preserve" font-family="Helvetica-Light,Helvetica" font-size="32.0" fill="#FEFFFF" transform="matrix(1.00, 0.00, -0.00, -1.00, 766.6, 79.6)">7</text><text xml:space="preserve" font-family="Helvetica-Light,Helvetica" font-size="32.0" fill="#FEFFFF" transform="matrix(1.00, 0.00, -0.00, -1.00, 784.4, 79.6)">8</text><text xml:space="preserve" font-family="Helvetica-Light,Helvetica" font-size="32.0" fill="#FEFFFF" transform="matrix(1.00, 0.00, -0.00, -1.00, 802.2, 79.6)">7</text><g><clipPath id="clip0x618000cbad00"><path d="M 280.1 75.4 L 820.0 75.4 L 820.0 79.0 L 280.1 79.0 Z M 280.1 75.4 "></path></clipPath><g clip-path="url(#clip0x618000cbad00)"><path d="M 208.4 75.0 L 747.2 75.0 " fill="none" stroke="#FEFFFF" stroke-width="1.60" transform="matrix(1.00, 0.00, 0.00, -1.00, 72.7, 152.3)"></path></g></g><image xlink:href="../../1850F4CE-ABD4-4743-BB0B-8FB64A7304E8/assets/4F6EC0AC7F176D331748186495C32731.png" width="521.00" height="258.00" transform="matrix(1.24, 0.00, -0.00, -1.23, 190.0, 512.0)"></image></g></svg>